<svg xmlns="http://www.w3.org/2000/svg" width="128" height="128" viewBox="0 0 128 128"><defs><style>.cls-1{fill:#231f20;}</style></defs><title>Free Icons</title><g id="Layer_43" data-name="Layer 43"><path class="cls-1" d="M41.16,69.61A14.32,14.32,0,0,1,45.63,76a12,12,0,0,1,.67,2.78,13.37,13.37,0,0,1,.05,2.53l-.22,1.25c-.07.42-.22.81-.33,1.22A12.17,12.17,0,0,1,43.21,88a13.55,13.55,0,0,1-3.5,2.67,11.7,11.7,0,0,1-5.38,1.48c-.58,0-.5-.15,0-.35a19.49,19.49,0,0,1,2.27-.78,12.35,12.35,0,0,0,8.07-6.65,10.62,10.62,0,0,0,.8-3.18,12.85,12.85,0,0,0-.26-3.33,13.17,13.17,0,0,0-3.44-6.43,12.58,12.58,0,0,0-3.68-2.67,10.72,10.72,0,0,0-3.32-.91c-.29,0-.58-.07-.86-.07l-.87,0a10.2,10.2,0,0,0-1.73.2,14.73,14.73,0,0,0-5,1.83l-1,.62c-.61.4-1,.68-1.31.85a2.14,2.14,0,0,1-.7.22,1.19,1.19,0,0,1-.25,0c-.19,0,.17-.53,1-1.22a16,16,0,0,1,4.43-2.49,17,17,0,0,1,2.54-.67c.43-.09.86-.15,1.3-.21l1.35-.07a12,12,0,0,1,7.44,2.66Z"/><path class="cls-1" d="M101.46,93.69A20.92,20.92,0,0,1,98,93.33c-.57-.1-1.14-.22-1.7-.36q-.42-.1-.84-.24l-.33-.12a.2.2,0,0,1-.09,0s0,0,0,0h0a9.5,9.5,0,0,0,0,1c0,.42.09.83.17,1.25.48,3,1.21,6,1.78,9,.25,1.34.51,2.69.72,4a26.85,26.85,0,0,1,.42,5.22c0,.54,0,.47-.14,0s-.13-.63-.19-.94-.23-.83-.28-1.33c-.45-3.49-1.19-6.95-1.86-10.46-.39-2.11-.95-4.27-1.19-6.48,0-.26,0-.53,0-.8l0-.41,0-.62c.09,0,.25-.1.28-.06l.12,0s0,0,.08,0l.08-.08c0-.1.15,0,.23,0l.18.07c.21.06.41.13.62.18.42.12.84.21,1.26.3a25.23,25.23,0,0,0,2.59.37,13.51,13.51,0,0,0,4.35-.2,14,14,0,0,0,6-2.69A9.88,9.88,0,0,0,112,88.24a10.21,10.21,0,0,0,1.16-2.19,9.77,9.77,0,0,0,.35-1c.36-1.32.43-1.75.69-2,.06-.06.12-.14.17-.18s.25.48.06,1.53A10.48,10.48,0,0,1,108.66,92a16,16,0,0,1-3.5,1.28,13.53,13.53,0,0,1-3.7.43Z"/><path class="cls-1" d="M44.41,120.54c-10.17,2.43-27.78,1-30.26-1.09C11.33,117,22.27,115,22.27,115a7.66,7.66,0,0,0,7.26,5.32C35.44,120.54,44.41,120.54,44.41,120.54Z"/><path class="cls-1" d="M90.3,119.91c-6.52,1.46-24.76,3.41-28.63-.06-2.43-2.18,11.23-4,11.23-4s-2.58,2.26-2.13,2.78S90.3,119.91,90.3,119.91Z"/><path class="cls-1" d="M57.39,25.36a10.36,10.36,0,0,0-8.63,8.51,13.11,13.11,0,0,0,.15,4.83A18.83,18.83,0,0,0,50,42.15c.24.56.51,1.11.78,1.65l.22.41c.1.19.26.46.4.68.31.46.6.92.94,1.37l.46.89,0,.61,0,.23c0,.06-.06.2-.14.24a2.11,2.11,0,0,1-.54.29,3.14,3.14,0,0,1-.8.19,7.4,7.4,0,0,1-1.06,0c-.74,0-1.57-.1-2.21-.17-1.85-.22-3.7-.39-5.55-.53-2.79-.21-5.6-.32-8.36-.32-1.77,0-3.55.08-5.3.24-.88.07-1.75.14-2.6.28a12.77,12.77,0,0,0-1.26.26,5.51,5.51,0,0,0-1.22.34c-.46.23-.62.39-.66.34s.07-.31.41-.68a5.7,5.7,0,0,1,1.7-1.28,10.88,10.88,0,0,1,2.79-.92,68.06,68.06,0,0,1,11.11-.53c1.85,0,3.69.11,5.52.22q1.38.09,2.76.15l.68,0h.17l.05,0h.07l.35.08a1.48,1.48,0,0,0,.55,0l-.27-.4a3.58,3.58,0,0,0-.18-.32l-.25-.43-.32-.57a22.21,22.21,0,0,1-1.08-2.38A17.46,17.46,0,0,1,46,37.05a15.09,15.09,0,0,1,.3-4,19.36,19.36,0,0,1,.55-1.94,13.58,13.58,0,0,1,.87-1.85,13.24,13.24,0,0,1,5.88-5.33,14.35,14.35,0,0,1,4.71-1.2,17.49,17.49,0,0,1,4.79.15,14.13,14.13,0,0,1,6.61,3A12.57,12.57,0,0,1,73.68,32,16.84,16.84,0,0,1,73,43a21.88,21.88,0,0,1-1,2.23,10.93,10.93,0,0,1-1.94,2.55,2.6,2.6,0,0,1-1.38.72c-.19,0-.39.11-.52.12-.4,0-.08-1.23.78-3.08.61-1.39,1.24-2.76,1.71-4.17A17.64,17.64,0,0,0,71.52,37a11,11,0,0,0-2.2-8A10.22,10.22,0,0,0,64,25.62a14.48,14.48,0,0,0-6.62-.2Z"/><path class="cls-1" d="M98.18,50.28a.54.54,0,0,1,.06-.21l0-.06s0-.08,0-.1l-.12-.08-.81-.29a28.13,28.13,0,0,0-3.39-.93c-.85-.16-1.71-.26-2.57-.38a53.68,53.68,0,0,0-9.24-.62A35,35,0,0,0,78,48c-1.74.23-3.43.68-5.18.82-.55,0-.59-.31-.23-.82a4.09,4.09,0,0,1,.8-.85,3.29,3.29,0,0,1,1.32-.62,34.87,34.87,0,0,1,11.1-.78c2.22.19,4.54.22,6.8.56,1.24.2,2.48.43,3.71.75.61.17,1.23.33,1.83.55l.46.16.22.08.31.13a7.8,7.8,0,0,1,1.17.65,5,5,0,0,1,.21.69,3,3,0,0,1-.09.83l-.28,1.25-.49,2.21c-.48,2.24-1,4.48-1.24,6.72a41.25,41.25,0,0,0-.27,5.18l0,1.12c0,1.39,0,1.82-.53,2.17a2.29,2.29,0,0,1-.33.24c-.37.19-.78-.38-1-1.48a36.06,36.06,0,0,1,.38-9.93c.37-2.46.88-4.91,1.36-7.31Z"/><path class="cls-1" d="M29.35,67.83a13.89,13.89,0,0,1,7.07,0,12.44,12.44,0,0,1,5.95,3.87A13.3,13.3,0,0,1,45,76.15a13,13,0,0,1,.65,4.46A13.43,13.43,0,0,1,44.69,85a13.13,13.13,0,0,1-5.87,6.4,15.19,15.19,0,0,1-7.38,1.82,12.53,12.53,0,0,1-8.88-3.56c-.73-.7-.34-.88.57-.72.47.06,1,.28,1.69.44a19,19,0,0,1,2.12.72,12.55,12.55,0,0,0,8.33.47,13.19,13.19,0,0,0,3.79-1.89,12.5,12.5,0,0,0,2.87-3.11,10.6,10.6,0,0,0,0-10.07,10.87,10.87,0,0,0-3.87-4.23,9.85,9.85,0,0,0-5.58-1.37A16.79,16.79,0,0,0,25.37,72c-.43.23-.84.47-1.26.72l-.8.51-.9.63-.64.33a2.4,2.4,0,0,1-.5.14c-.32,0-.51-.34-.65-.74a6.84,6.84,0,0,1-.27-1.49l-.12-1.46c-.11-1.51-.19-3-.26-4.51-.15-3.09-.34-6.13-.26-9.23,0-.68,0-1.35.09-2a8.81,8.81,0,0,1,.54-2.72,2.17,2.17,0,0,1,.91-1,1.79,1.79,0,0,1,.45-.21c.22,0,.29.2.33.65a11,11,0,0,1,0,2c-.18,2.61-.11,5.38,0,8.18s.26,5.64.5,8.47l0,.62h0s0,0,0,0,0,0,0,0,0,0,.05,0l.22-.14.46-.28c.62-.37,1.24-.73,1.9-1a21.39,21.39,0,0,1,4.12-1.53Z"/><path class="cls-1" d="M50.7,117.89v0l0-.06s0,0,0,0l-.14-.3c-.2-.42-.36-.85-.53-1.27a20.26,20.26,0,0,1-.81-2.65,15.9,15.9,0,0,1-.3-5.59,13.82,13.82,0,0,1,5.73-9.41,11.8,11.8,0,0,1,3.8-1.78,14.39,14.39,0,0,1,4.08-.54,13.55,13.55,0,0,1,6.93,2,11.3,11.3,0,0,1,4.6,5.54,16.15,16.15,0,0,1,1,7,14.1,14.1,0,0,1-.66,3.47,12.45,12.45,0,0,1-.68,1.65,7.52,7.52,0,0,1-.43.79l-.24.38c-.07.1-.19.3-.21.32l-.22.27a2.46,2.46,0,0,1-.22.25c-.06.06-.25.19-.06.22a4.54,4.54,0,0,0,.66.12l1.06.12,1.38.13c1.86.16,3.71.26,5.56.32,2.52.09,5,.08,7.56,0a38.59,38.59,0,0,0,7.47-.68c.74-.18,1-.29,1.07-.19s-.29.35-.91.65a20.13,20.13,0,0,1-6.64,1.61,89.2,89.2,0,0,1-9.94.22c-1.66-.05-3.31-.13-5-.25l-1.25-.11-1-.1c-.4,0-.8-.11-1.18-.19a1.6,1.6,0,0,1-1.31-.88c-.07-.14,0-.22,0-.34l.06-.33.06-.32c0-.06,0-.11,0-.17l.23-.24.87-1.06a1.51,1.51,0,0,0,.24-.35l.17-.27a10.54,10.54,0,0,0,.57-1.11,13.78,13.78,0,0,0,.73-2.47,15,15,0,0,0,0-5.26,11.51,11.51,0,0,0-1.46-4,9.31,9.31,0,0,0-3.09-3,11.92,11.92,0,0,0-8.55-1.26,10.7,10.7,0,0,0-7.4,5.66A11.7,11.7,0,0,0,51.09,109a14.29,14.29,0,0,0,.57,4.89,14.61,14.61,0,0,0,.66,1.89c.12.32.27.62.41.93s.5.94.74,1.4a1.4,1.4,0,0,1,.2.64l.1.57v.07h0l-.15-.07h0l0,0-.07.1-.16.2a1.21,1.21,0,0,1-.58.28,15,15,0,0,1-1.59.28l-1.22.14c-1.46.17-2.91.31-4.37.42-3.28.27-6.57.44-9.86.46-1.65,0-3.3,0-5-.13q-1.25-.09-2.49-.27a10.76,10.76,0,0,1-2.53-.66,6.51,6.51,0,0,1-3-2.94,15.56,15.56,0,0,1-1.4-3.68A37.61,37.61,0,0,1,20.35,106c-.05-1.12-.07-2.21,0-3.33.13-4.17.6-5.48,1.24-6.29a3.11,3.11,0,0,1,.44-.52c.23-.15.34.18.43.92a30.5,30.5,0,0,1,.15,3.39c0,2.2.13,4.42.27,6.64a36.65,36.65,0,0,0,1,6.51c.53,2,1.51,4.08,2.81,4.68a5.88,5.88,0,0,0,1.29.39c.51.1,1,.18,1.6.25,1.1.12,2.24.18,3.39.22,3.41.09,6.89-.05,10.36-.28,1.73-.12,3.47-.26,5.2-.44l2.06-.23s.13,0,.08,0Z"/><path class="cls-1" d="M113.66,85.9a12.39,12.39,0,0,1-1.61,2.88,11.13,11.13,0,0,1-2.37,2.33,12,12,0,0,1-6.07,2.21,16.83,16.83,0,0,1-4.6-.15,22.75,22.75,0,0,1-2.79-.69l-.4-.15-.11,0s-.09,0-.07,0l0,.21c0,.12,0,.25,0,.4l.14,1.1c.14.77.28,1.56.45,2.34.32,1.58.7,3.15,1,4.76.43,2.23.87,4.48,1.16,6.74a28,28,0,0,1,.28,4.39l0,1.11-.2,1.1a19.74,19.74,0,0,1-.46,2.16c-.23.88-.34.72-.47-.06-.07-.39-.12-.94-.24-1.59-.07-.34-.15-.68-.23-1,0-.19-.07-.38-.12-.57l-.06-.59a71.24,71.24,0,0,0-1.13-8.5c-.57-2.83-1.21-5.69-1.69-8.67-.09-.61-.21-1.2-.28-1.84l-.06-.48a4.79,4.79,0,0,1-.05-.7l0-1.49.21-.5.11-.24,0-.13v0h0l.05.07h0l0,0c.2-.2.58-.2,1-.12s1,.31,1.45.45l.93.27a20,20,0,0,0,3.39.64,11.24,11.24,0,0,0,5.47-.7,9.43,9.43,0,0,0,4.21-3.43,11.38,11.38,0,0,0,1.84-6.53,10.9,10.9,0,0,0-1.35-5,8.45,8.45,0,0,0-3.67-3.48,11.83,11.83,0,0,0-7.79-.56c-.57.12-1.12.31-1.69.48a21.79,21.79,0,0,1-2.24.67,1.86,1.86,0,0,1-1.24-.15,2.91,2.91,0,0,1-.5-.25c-.22-.17-.16-.45.15-.82a4.79,4.79,0,0,1,1.7-1.2A16.05,16.05,0,0,1,104,68.9,11.42,11.42,0,0,1,112.08,73a13.23,13.23,0,0,1,1.63,12.9Z"/><path class="cls-1" d="M94.51,31.55c0,.2-.3.11-.69-.13A1.62,1.62,0,0,1,93.4,31a3,3,0,0,1,0-.42c0-.08.53-.87.69-1.15a2.78,2.78,0,0,1,.56-.7c.43-.43.83-.87,1.22-1.29a.92.92,0,0,1,.31-.24,2.62,2.62,0,0,0,1-.89c0-.06.1-.11.08-.21A3.93,3.93,0,0,1,98,24.9c.32-.21.6-.45.93-.68,0,0,0-.1.16-.09s.27-.11.36-.19a3.28,3.28,0,0,1,.38-.36,1.58,1.58,0,0,1,.33-.11c.1,0,.34.11.36.15s.2.1.31.14a.28.28,0,0,1,.11,0,4.39,4.39,0,0,1,.13,1.39l-.09.26-.22.55-.45.86a.53.53,0,0,1-.23.18s-.7,1.11-.75,1.14-.32.41-.64.45c-.06,0-.09.06-.12.1a6.08,6.08,0,0,1-1,.81c-.18.13-.33.29-.49.43S97,30,97,30s-.11,0-.14.07a13.51,13.51,0,0,0-1.15,1c-.08.09-.63.28-.71.39S94.52,31.47,94.51,31.55Z"/><path class="cls-1" d="M60.85,6.51c-.1-.19.17-.29.65-.33a1.92,1.92,0,0,1,.65.13,2,2,0,0,1,.28.33c0,.06.13,1,.2,1.27a3.25,3.25,0,0,1,0,.88c0,.6-.06,1.2-.08,1.8a1.38,1.38,0,0,1-.09.39,3.38,3.38,0,0,0-.17,1.37c0,.08,0,.16.06.24a4.4,4.4,0,0,1,0,1.54c-.15.39-.26.8-.42,1.2,0,.05,0,.12-.09.17s-.19.24-.22.36a1.36,1.36,0,0,1-.21.52c0,.09-.17.17-.26.25a.32.32,0,0,1-.32,0c-.08-.08-.19,0-.28,0a.4.4,0,0,1-.11,0,4.76,4.76,0,0,1-.4-.53,2.35,2.35,0,0,1-.29-.61l-.12-.78c0-.4-.06-.81-.08-.89s0-.18.07-.26-.1-1.23-.09-1.28c0-.25,0-.5.17-.73a.21.21,0,0,0,0-.15A7.78,7.78,0,0,1,60,10.12c0-.21,0-.43.06-.65,0,0,0-.07.05-.11a.88.88,0,0,0,0-.15c0-.51.18-1,.16-1.54,0-.12.28-.66.28-.8S60.89,6.59,60.85,6.51Z"/><path class="cls-1" d="M89.62,48.41c-1.21-.11-2.42-.23-3.65-.25H84.63c-1.57,0-3.15,0-4.73.14-.69.07-1.39.14-2.08.25a21.81,21.81,0,0,1-2.66.37c-.28,0-.28-.15-.08-.38a2.1,2.1,0,0,1,1.1-.64,28.56,28.56,0,0,1,5.54-.6c1.11,0,2.27-.1,3.41-.11s2.51.05,3.76.16c.77,0,1.54.16,2.31.25,1.16.18,2.31.39,3.44.66a22.81,22.81,0,0,1,2.61.71l.57.2c.68.32.86.5.89.77a.56.56,0,0,1,0,.18c0,.19-.36.18-.84,0a29.74,29.74,0,0,0-4.62-1.2c-1.19-.23-2.42-.37-3.64-.49Z"/><path class="cls-1" d="M19.39,22.92c-.2,0-.13-.29.09-.69a1.5,1.5,0,0,1,.45-.43,2.13,2.13,0,0,1,.42,0c.08,0,.9.45,1.2.59a2.84,2.84,0,0,1,.75.51L23.71,24a1.3,1.3,0,0,1,.26.31,3.53,3.53,0,0,0,.94,1c.06,0,.11.11.22.1a3.94,3.94,0,0,1,1.17,1c.19.39.41.73.62,1.09,0,.06.1.07.07.18s.05.31.12.41a1.77,1.77,0,0,1,.28.46,1.08,1.08,0,0,1,0,.36c0,.12-.26.33-.31.34s-.18.17-.27.28l-.1.1a4.65,4.65,0,0,1-1.28-.27l-.63-.46c-.31-.23-.64-.47-.72-.51s-.1-.15-.14-.23-1-.71-1-.74c-.15-.19-.39-.29-.42-.6,0-.06,0-.08-.09-.11a6.16,6.16,0,0,1-.81-.95c-.14-.17-.3-.3-.45-.45s0-.08-.05-.11,0-.1-.08-.13A11.89,11.89,0,0,0,20,24c-.09-.07-.33-.61-.45-.68S19.48,22.93,19.39,22.92Z"/></g></svg>