<svg xmlns="http://www.w3.org/2000/svg" width="128" height="128" viewBox="0 0 128 128"><defs><style>.cls-1{fill:#231f20;}</style></defs><title>Free Icons</title><g id="Layer_42" data-name="Layer 42"><path class="cls-1" d="M89.23,114.19,82,115.27c-.88.14-1.75.32-2.63.45q-4.67.65-9.33,1.22c-1.38.17-2.76.39-4.13.61a29.45,29.45,0,0,1-5.3.58c-.56,0-.52-.3-.1-.69a4.84,4.84,0,0,1,2.21-1.14c3.55-.59,7.11-1.21,10.74-1.56,2.17-.21,4.4-.67,6.6-1l7.26-1.16,4.47-.74c2.25-.39,4.52-.76,6.74-1.22,1.73-.36,3.39-.84,5.08-1.28.37-.1.73-.21,1.11-.3,1.4-.29,1.89-.2,2.29.23a3.18,3.18,0,0,1,.26.25c.19.22-.28.8-1.28,1.17A68.8,68.8,0,0,1,96.52,113c-2.42.45-4.85.85-7.28,1.26Z"/><path class="cls-1" d="M77.23,35l-5.7.65-2.07.28-7.33.84-3.25.39a17,17,0,0,1-4.23.23c-.46-.06-.34-.22,0-.38a5.59,5.59,0,0,1,1.78-.48l8.46-.91c1.7-.16,3.46-.45,5.2-.68l5.73-.73,3.53-.44,5.36-.59,2.06-.22.56-.05.2,0,.17.09a1.52,1.52,0,0,0,.26.13l.92.41c.27.12.54.24.82.38,1,.48,1.26.87,1.37,1.15,0,.06.06.14.07.19s-.44,0-1.22-.19c-.56-.23-1.15-.42-1.73-.68-.29-.12-.58-.25-.89-.41-.06,0,0,0-.1,0l-.46,0c-1.25.1-2.53.23-3.81.37L77.23,35Z"/><path class="cls-1" d="M51.75,85l.6-9.2.19-3.36.83-11.82.31-5.25c.15-2.23.22-4.48.56-6.7.12-.69.28-.58.46,0a9.09,9.09,0,0,1,.33,3c-.14,4.57-.53,9.11-1,13.69-.26,2.74-.39,5.61-.59,8.42L52.82,83l-.41,5.7c-.2,2.88-.41,5.77-.61,8.63-.12,2.22-.25,4.4-.38,6.6l-.08,1.45c-.15,1.8-.25,2.37-.5,2.74a1.36,1.36,0,0,1-.16.25c-.17.16-.25-.59-.19-1.92.16-3.93.4-8.06.66-12.22.19-3.09.38-6.19.58-9.28Z"/><path class="cls-1" d="M77.27,44.57,72,45.33l-1.93.3-6.84.89c-1,.13-2,.28-3,.43a22.18,22.18,0,0,1-3.93.32c-.43,0-.34-.24,0-.47a4.1,4.1,0,0,1,1.65-.59c2.6-.41,5.23-.71,7.89-1,1.6-.16,3.23-.46,4.85-.7L76,43.73l3.29-.5c1.65-.27,3.32-.52,5-.82,1.27-.23,2.51-.52,3.76-.79l.82-.17c1-.19,1.38-.18,1.65,0,.06.06.14.11.18.16s-.26.44-1,.65c-2.22.61-4.6,1-7,1.43l-5.34.86Z"/><path class="cls-1" d="M89.27,52.11a2.24,2.24,0,0,1-.89-.63,3.24,3.24,0,0,1-.49-.73s0-.07.12-.16a2.49,2.49,0,0,1,.46-.33l.2-.09a.58.58,0,0,1,.21.06c.07,0,.11.1.17.14s.08.09.16.07.13.1.26,0,.15,0,.22-.07a.67.67,0,0,1,.24-.12s0-.07.07-.09.07,0,.11,0a.87.87,0,0,0,.11-.09l.19-.13s0-.06,0-.06.07,0,.1,0a.28.28,0,0,0,.1-.09v0c0-.14,0-.15,0-.18a1.21,1.21,0,0,0,.16-.16,2.94,2.94,0,0,0,.47-.36,2,2,0,0,0,.38-.44s0,0,0,0,.08,0-.09-.08,0,0,0,0,.07,0,0,0,0,0,0,0,.33,0,.15,0,0,0,0,0,.07-.06-.08-.13.06,0,.1,0,0,0,0,0-.09,0,0-.06,0-.06,0-.09a.19.19,0,0,1,0-.07s0-.07,0-.1l-.06,0s-.07,0-.08-.07,0,0,.06,0a.83.83,0,0,0,.08-.22s0,0,0-.08.06-.14,0-.17,0-.11.08-.18a1.25,1.25,0,0,0,.09-.25,3.18,3.18,0,0,1,1-.73,3.47,3.47,0,0,1,.62.45,2.93,2.93,0,0,1,.52.69c0,.2,0,.4,0,.59a2.55,2.55,0,0,1,0,.39c0,.13-.06.26-.06.39s0,.22.05.33a.05.05,0,0,1,0,0s0,0,0,0a.34.34,0,0,0,0,.1.08.08,0,0,0,0,0l0,0c-.15,0-.15.09-.15.17s0,0,0,0,.1.36-.09.43c0,0-.06,0,0,.1s0,.06,0,.06,0,.17-.11.23-.06.15-.15.19,0,.17-.12.23-.29.4-.37.49l-.19.16-.45.39a4.72,4.72,0,0,1-.61.43,3.28,3.28,0,0,1-1.25.19A3.13,3.13,0,0,1,89.27,52.11Z"/><path class="cls-1" d="M64.15,52.44s.11-.24.2-.48a4.88,4.88,0,0,0,.11-.52s.07,0,.19-.08a3.16,3.16,0,0,1,.56-.1c.1,0,.19,0,.2,0a.52.52,0,0,1,.14.2,2.47,2.47,0,0,1,.06.29c0,.08,0,.16,0,.25s0,.25.08.39,0,.26.06.39a2,2,0,0,1,0,.55c0,.06,0,.13,0,.19s-.09.13-.12.2a1.38,1.38,0,0,1-.08.29c-.06.14-.14.27-.21.41s0,.1-.05.14-.11.06-.15.1-.11.13-.17.2v0a.23.23,0,0,1-.11.27l-.36.31a4,4,0,0,1-1.09.38,4.47,4.47,0,0,1-1.08,0h0s-.06-.08-.08.09,0,0,0,0,0-.07,0,.05,0,0,0,0-.09-.31-.15-.14,0,0-.05,0-.15-.06-.25.09,0-.07-.08-.11,0,0,0,0-.11.07-.14,0-.13,0-.19-.05a1,1,0,0,1-.18,0,1,1,0,0,0-.24-.07s-.07,0-.09,0-.16,0-.23,0,0-.07-.08-.09a2.44,2.44,0,0,1-.4-.32c-.05-.05-.12-.07-.14-.14a.53.53,0,0,0-.18-.28c-.07,0,0-.18-.06-.26a1,1,0,0,1,0-.3c0-.09.24-.27.48-.44l.52-.37a2,2,0,0,0,.45.06.74.74,0,0,1,.26,0h.13c.06,0,.11.11.19.12s.11,0,.16,0,.1.06.16,0,.09-.07.13-.1,0,0,0,0l0,0,0,0s0,0,0,0,0-.06,0,0,0,.11.08.08,0,0,0,0,.1-.23.16-.12,0,0,0-.06,0-.06,0,0,.06-.05.09,0,0,0,.09,0,0-.06.08-.05.17-.08.19-.1.06,0,.09,0a.5.5,0,0,0,.17-.11.9.9,0,0,0,.16-.18,2.06,2.06,0,0,0,.42-.2A1,1,0,0,0,64.15,52.44Z"/><path class="cls-1" d="M46.17,114.81c-1.8.39-13.17-2.11-17.83-3.13s-14.47-4.26-12.58-9.08S29,97.52,29,97.52l-1.44,7.39Z"/><path class="cls-1" d="M41.91,114.24l-1.85-.85-.69-.29c-.8-.35-1.57-.79-2.36-1.17-.35-.17-.71-.33-1.06-.48a8.38,8.38,0,0,1-1.34-.67c-.27-.16.26-.34.79-.16,1,.33,1.9.65,2.83,1.08.55.25,1.16.44,1.73.68l1.89.81,1.17.5c.59.24,1.16.53,1.75.78s.91.37,1.35.59l.29.14c.36.2.45.32.46.47s0,.07,0,.1-.2.1-.48,0c-.84-.24-1.75-.41-2.6-.74-.65-.2-1.26-.52-1.9-.78Z"/><path class="cls-1" d="M98.05,111.94l-5,.69-1.8.28-6.38.81c-.94.12-1.88.27-2.81.44a24.17,24.17,0,0,1-3.6.5c-.38,0-.36-.17-.08-.44a3.54,3.54,0,0,1,1.49-.8c2.43-.47,4.87-.9,7.36-1.13,1.49-.14,3-.44,4.52-.66l5-.74,3.06-.48c1.54-.26,3.08-.52,4.59-.86,1.17-.27,2.3-.62,3.42-1l.74-.25c.93-.26,1.25-.25,1.55,0a1.73,1.73,0,0,1,.2.14c.14.12-.15.53-.82.84a31.15,31.15,0,0,1-6.46,1.81c-1.65.33-3.32.6-5,.86Z"/><path class="cls-1" d="M33,80.74l2.65-9.5.89-3.49,3.38-12.22c.49-1.81.92-3.65,1.35-5.46.26-1.17.54-2.34.86-3.5a19.62,19.62,0,0,1,1.21-3.44c.37-.76.57-.45.75.26a7.42,7.42,0,0,1,.16,3.29c-.46,2.39-1.08,4.75-1.72,7.11s-1.31,4.71-2,7.07c-.87,2.82-1.53,5.81-2.3,8.73l-2.59,9.6-1.62,5.9c-.82,3-1.65,6-2.46,8.93-.62,2.3-1.09,4.6-1.7,6.89-.13.5-.23,1-.38,1.51a7.71,7.71,0,0,1-.76,1.94,1.74,1.74,0,0,1-.86.67,3.08,3.08,0,0,1-.42.15c-.2,0-.32-.18-.38-.57a4.29,4.29,0,0,1,.11-1.65c.9-4.08,2-8.36,3.2-12.65l2.62-9.58Z"/><path class="cls-1" d="M51.67,87.88l.75-10.57.21-3.85,1.06-13.58c.17-2,.24-4,.36-6,.08-1.29.16-2.57.25-3.86,0-.64.11-1.28.19-1.93a10.67,10.67,0,0,1,.37-1.94c.24-.83.54-.6.91.12a7,7,0,0,1,.78,3.44,145.9,145.9,0,0,1-1.2,15.71c-.39,3.15-.51,6.44-.77,9.66l-.87,10.64c-.18,2.18-.35,4.37-.53,6.55-.25,3.3-.54,6.62-.76,9.91-.15,2.55-.3,5.07-.44,7.59,0,.56-.06,1.11-.12,1.67-.2,2.07-.47,2.8-1,3.14a1.8,1.8,0,0,1-.33.21c-.17.06-.28-.14-.34-.53a11,11,0,0,1,0-1.69c.2-4.48.45-9.24.74-14,.23-3.54.46-7.1.69-10.65Z"/><path class="cls-1" d="M106,81.26l-1.89-9.56c-.23-1.16-.54-2.31-.76-3.47L101,55.91c-.34-1.83-.77-3.64-1.14-5.44-.25-1.16-.53-2.31-.76-3.48a18.78,18.78,0,0,1-.42-3.6c0-.85.48-.65,1.06-.11a5.53,5.53,0,0,1,1.72,2.81c.54,2.34,1.13,4.67,1.55,7s.82,4.77,1.16,7.18c.41,2.88,1.15,5.82,1.71,8.74l1.85,9.65,1.17,5.93c.6,3,1.18,6,1.84,9,.52,2.3,1.15,4.52,1.71,6.78.13.5.27,1,.39,1.49.42,1.87.38,2.51-.12,3a2.18,2.18,0,0,1-.34.34c-.41.26-.93-.43-1.33-1.77-1.21-4-2.2-8.25-3.14-12.55l-2-9.62Z"/><path class="cls-1" d="M89.64,113.12l-8.77,1.35-3.2.53c-3.76.54-7.53,1.06-11.31,1.51-1.68.2-3.36.45-5,.68a24.93,24.93,0,0,1-6.55.41c-.73-.1-.52-.38.06-.7a8.61,8.61,0,0,1,2.71-1c4.3-.56,8.62-1.27,13-1.73,2.63-.28,5.33-.81,8-1.24l8.81-1.42,5.41-.92c2.73-.48,5.48-.95,8.17-1.52,2.09-.43,4.12-1,6.16-1.53.45-.11.89-.25,1.34-.36,1.69-.37,2.26-.33,2.75.08.11.09.24.16.31.23s-.36.83-1.58,1.27a87.5,87.5,0,0,1-11.48,2.8c-2.93.56-5.88,1.06-8.82,1.56Z"/><path class="cls-1" d="M40.8,113.12l-3.62-2c-.44-.25-.9-.45-1.34-.7-1.55-.87-3.05-1.83-4.58-2.75-.67-.41-1.37-.78-2.06-1.16a13.92,13.92,0,0,1-2.51-1.71c-.24-.22-.09-.36.26-.41a2.83,2.83,0,0,1,1.43.18c.46.2.94.39,1.4.61l1.34.74c.88.51,1.76,1,2.63,1.59,1,.67,2.2,1.22,3.3,1.84l3.63,2,2.25,1.24c1.14.61,2.28,1.24,3.42,1.83.89.46,1.8.82,2.69,1.25l.57.31c.7.41.89.61,1,.89a1.35,1.35,0,0,1,0,.18c0,.18-.36.16-1,0l-1.31-.37-1.28-.51c-.85-.35-1.7-.73-2.55-1.12-1.26-.6-2.48-1.28-3.72-1.92Z"/><path class="cls-1" d="M78.06,44.43l-8.44.9-3.07.37-5.42.54-2.71.29-1.34.16-.67.08-.74.12c-.29.07-.64-.13-.8-.16l-.59-.22c-.39-.15-.78-.31-1.15-.48-.76-.33-1.49-.69-2.21-1.07a29.5,29.5,0,0,1-5.25-3.37c-.5-.42-.27-.57.32-.47a8.83,8.83,0,0,1,2.6,1,45.87,45.87,0,0,0,5.55,2.62c.46.17.93.34,1.39.46,0,0,0,0,0,0h0l.25,0c.35-.07.56-.08.84-.12,1.07-.14,2.12-.23,3.18-.33,2.53-.21,5.13-.65,7.7-1,2.83-.36,5.66-.64,8.49-1l5.23-.58,7.9-.92c2-.26,4-.62,6-.93.44-.07.87-.15,1.31-.19,1.66-.18,2.19-.13,2.6.15a2.1,2.1,0,0,1,.27.2c.21.22-.45.57-1.64.88-3.53.92-7.31,1.47-11.1,2.06-2.82.38-5.66.69-8.49,1Z"/><path class="cls-1" d="M81.1,34c-2.67.23-5.34.51-8,.81l-2.92.37L59.86,36.29c-1.53.17-3.06.37-4.57.58-1,.12-1.94.28-2.93.37a11.83,11.83,0,0,1-3,0c-.68-.12-.47-.4.05-.72.25-.14.59-.33,1-.52a4.94,4.94,0,0,1,1.46-.38c3.91-.4,7.88-.94,11.89-1.27,2.4-.21,4.87-.64,7.31-1,2.69-.34,5.38-.67,8.08-1,1.66-.19,3.32-.35,5-.51l1.9-.15,1-.05.54,0h.34l.29.17,1.65,1.08,1.59,1c1.66,1,3.34,2,5,2.93.38.21.73.42,1.09.66,1.36.83,1.57,1.41,1.67,1.87a2.19,2.19,0,0,1,0,.31c0,.15-.17.17-.49.13a5,5,0,0,1-1.35-.35,41.07,41.07,0,0,1-4.63-2.54c-1.52-.92-3-1.9-4.56-2.89l-.42-.28-.21-.14c-.08-.05-.15-.09-.13-.09s.16,0-.32,0c-.65,0-1.31.06-2,.12-1.33.09-2.68.23-4,.36Z"/><path class="cls-1" d="M79.86,18.16a9.06,9.06,0,0,0-4.81-3,5.81,5.81,0,0,0-2.74.16,7,7,0,0,0-2.5,1.32A12.83,12.83,0,0,0,67,20a31.64,31.64,0,0,0-3.09,7.61,54.4,54.4,0,0,0-1.53,8.26,60.37,60.37,0,0,0-.31,7.48c0,1.59.14,3.18.27,4.77s.32,3.16.4,4.76c.06,1-.25.93-.78.16a11,11,0,0,1-.91-1.65,9.33,9.33,0,0,1-.63-2.5,57.22,57.22,0,0,1,1.12-20c1-3.9,2.1-8.07,4.69-11.58a10.46,10.46,0,0,1,5.86-4.17,8.16,8.16,0,0,1,3.71,0,9.22,9.22,0,0,1,3.32,1.51,20,20,0,0,1,5.48,6.51A47.09,47.09,0,0,1,89,33a63,63,0,0,1,1.62,9.51c.06.71.11,1.4.13,2.12,0,2.66-.37,3.5-.86,4a3.93,3.93,0,0,1-.32.35c-.33.22-.58-.86-.77-2.74a69.83,69.83,0,0,0-3-16.87c-1.35-4.07-3.15-8.13-5.94-11.17Z"/><path class="cls-1" d="M67.58,14.52A8.18,8.18,0,0,0,65,12a4,4,0,0,0-3.24-.44,6.89,6.89,0,0,0-2.36,1.18,11.83,11.83,0,0,0-3.21,3.77,25,25,0,0,0-2.06,4.8,34.13,34.13,0,0,0-1,4.58c-.36,2-.49,4-.89,6-.1.61-.37.54-.69,0A5.28,5.28,0,0,1,50.83,29a30.13,30.13,0,0,1,.92-6.32,27.1,27.1,0,0,1,2.3-6.05,23.24,23.24,0,0,1,2.14-3.4,10.33,10.33,0,0,1,3.11-2.8,8.24,8.24,0,0,1,2.2-.83,6.07,6.07,0,0,1,2.44-.08,7.48,7.48,0,0,1,4,2.34,16.57,16.57,0,0,1,2.93,4.56,37.44,37.44,0,0,1,2.35,7.64,51.73,51.73,0,0,1,1,6c0,.44.08.88.11,1.33,0,1.67-.16,2.21-.57,2.56-.09.08-.17.19-.23.24s-.6-.51-.79-1.7c-.15-.87-.3-1.76-.45-2.65s-.34-1.77-.47-2.67c-.3-1.79-.66-3.59-1.14-5.35a23.56,23.56,0,0,0-3.13-7.29Z"/><path class="cls-1" d="M63,56.05a4.06,4.06,0,0,1-2.91-.67,3.9,3.9,0,0,1-.8-.77,4.4,4.4,0,0,1-.6-3.46,6.17,6.17,0,0,1,.51-1.44,2.92,2.92,0,0,1,1.33-1.4c.19-.08.33.22.41.58a1.29,1.29,0,0,1-.06.93,4,4,0,0,0-1,2.51,2.29,2.29,0,0,0,2.35,2.2,2.84,2.84,0,0,0,1.21-.22A1.83,1.83,0,0,0,64.55,53a2.9,2.9,0,0,0-.22-1.45l-.13-.3a.58.58,0,0,1,.27-.79l.23-.17a.58.58,0,0,1,.82.23,3.77,3.77,0,0,1,.18,3.84,3.35,3.35,0,0,1-1.2,1.25,4.12,4.12,0,0,1-1.51.52Z"/><path class="cls-1" d="M90.05,51a3,3,0,0,0,1.78-.68,2.26,2.26,0,0,0,.43-.56,2,2,0,0,0,.38-1.05,1.87,1.87,0,0,0-.3-1.17,2.91,2.91,0,0,0-.83-.91,2.08,2.08,0,0,0-.59-.28,1.33,1.33,0,0,0-.52-.11c-.14,0-.35-.23-.35-.62a1.06,1.06,0,0,1,1.06-1,3.37,3.37,0,0,1,2.29,1.29,4.06,4.06,0,0,1,.93,2.27A3.87,3.87,0,0,1,93.4,51a4.81,4.81,0,0,1-2.56,1.5,3.83,3.83,0,0,1-1.84,0,3.69,3.69,0,0,1-2.12-1.7,3.78,3.78,0,0,1-.6-2,1.61,1.61,0,0,1,.08-.48c.2-.58.43-.69.73-.65l.21,0c.21.08.27.34.29.65a3.53,3.53,0,0,0,.34,1.19,5.31,5.31,0,0,0,.65.93A1.85,1.85,0,0,0,90,51Z"/></g></svg>