<svg xmlns="http://www.w3.org/2000/svg" width="128" height="128" viewBox="0 0 128 128"><defs><style>.cls-1{fill:#231f20;}</style></defs><title>Free Icons</title><g id="Layer_25" data-name="Layer 25"><path class="cls-1" d="M84.37,47.48a1.74,1.74,0,0,1-.79-1,.15.15,0,0,1,.22-.17c.23.12.47.23.72.34a14.34,14.34,0,0,0,3.25,1.25,10.87,10.87,0,0,0,2.29.26,3.49,3.49,0,0,0,.74-.09,1.69,1.69,0,0,0,.34-.09,3.87,3.87,0,0,0,.78-.42,1.33,1.33,0,0,1,1.25-.22,1,1,0,0,1,.24.14l.16.16.14.25a3.59,3.59,0,0,1,.08.35c0,.5,0,1-.07,1.55l-.09.87a11.84,11.84,0,0,1-.21,1.19c-.33,1.43-.61,2.68-.9,4a4.3,4.3,0,0,0-.16.69,3.19,3.19,0,0,1-.14.51c0,.14-.11.29-.19.47a1.85,1.85,0,0,1-.18.32,1.22,1.22,0,0,1-.18.24,1.56,1.56,0,0,1-.17.15,1.29,1.29,0,0,1-.33.17l.35-.21a1.17,1.17,0,0,1-.39.24,1,1,0,0,1-.29.05,1,1,0,0,1-.51-.11.58.58,0,0,1-.2-.13L90,58.14,89.92,58a1,1,0,0,1-.13-.28,2.4,2.4,0,0,1-.09-.44c0-.21,0-.39,0-.56v-.94c0-.56,0-1,0-1.15a5.35,5.35,0,0,0-.1-1.49c-.08-.23,0-.2-.12-.28s-.09-.07-.26,0a1.86,1.86,0,0,1-.34.13,1.78,1.78,0,0,0-.83.51,14.64,14.64,0,0,1-1.14,1,5.91,5.91,0,0,1-.66.36c-.2.1-.22-.06-.19-.14s-.07-.13-.13-.15,0,0-.06,0a4.39,4.39,0,0,1,.9-1.27,8.15,8.15,0,0,1,1.27-1.32,2.64,2.64,0,0,1,.82-.44,1.7,1.7,0,0,1,1.2,0,1.87,1.87,0,0,1,1,1,6,6,0,0,1,.43,1.82c.06.5.07.86.08,1a4.91,4.91,0,0,1,0,.77l0,.52a3.71,3.71,0,0,0,0,.47c0,.09,0,.15,0,.19s-.16,0-.32.06L91,57.3a.28.28,0,0,0-.13,0c-.1.09-.09.07-.1.09a.22.22,0,0,0-.13-.19l.17.09a.32.32,0,0,0-.11-.17,1.14,1.14,0,0,0-.25-.24,1.1,1.1,0,0,1-.17-.13c-.07,0,0,0,0,0h0l.08-.2c0-.17.11-.34.15-.51l.16-.61c.2-.64.3-1.31.57-2a2.48,2.48,0,0,0,.1-.39c.21-1.13.46-2.37.61-3.41a.41.41,0,0,0,0-.11s0-.14,0-.09,0,0,0,0h-.06a1.63,1.63,0,0,1-.2.09l-.63.15a7.41,7.41,0,0,1-1.24.06,10.37,10.37,0,0,1-2.31-.44,13.86,13.86,0,0,1-2.18-1.09C85.06,48.13,84.54,47.58,84.37,47.48Z"/><path class="cls-1" d="M91.84,41.5A2.81,2.81,0,0,1,88,41.23c-2.27-2.37.76-6.49,3.69-3.31A2.57,2.57,0,0,1,91.84,41.5Z"/><path class="cls-1" d="M26.72,85.21a196.05,196.05,0,0,0,4.55-23c.38-2.83.62-5.68.89-8.52.46-5,.72-10,.7-15.09a91.61,91.61,0,0,0-1.2-15A36.49,36.49,0,0,0,30,17.15a17,17,0,0,0-1.37-2.92,6.49,6.49,0,0,0-2-2.18,2.73,2.73,0,0,0-3.16.27,8.25,8.25,0,0,0-2.35,3.07,21.83,21.83,0,0,0-1.44,3.87,32,32,0,0,0-.91,4.08c-.19,1.69-.57,1.53-.94,0a14.22,14.22,0,0,1,.86-7.87,12.76,12.76,0,0,1,2.58-4.17A6.72,6.72,0,0,1,23.6,9.72a4.77,4.77,0,0,1,3.08-.09A5.85,5.85,0,0,1,29.1,11.2a10.54,10.54,0,0,1,1.52,2,22.26,22.26,0,0,1,1.86,4.32,50.06,50.06,0,0,1,1.85,8.86A89.35,89.35,0,0,1,35,35.35a180.87,180.87,0,0,1-.71,21.78,196.49,196.49,0,0,1-3.91,23.64C29.26,85.56,28,90.32,26.57,95c-1.08,3.56-2.26,7.1-3.55,10.59a25.46,25.46,0,0,0-1.42,5.18,6.9,6.9,0,0,0,1,4.78,4.94,4.94,0,0,0,2.95,2.07,6.92,6.92,0,0,0,3.74-.18c2.47-.68,4.29-2.73,5.66-5a28.71,28.71,0,0,0,1.56-3.2c.88-2.07,1.36-3.51,1.81-4.48a4.86,4.86,0,0,1,1.28-1.89,4,4,0,0,1,.62-.49c.59-.28.5,1.64-.48,5a28.53,28.53,0,0,1-3.24,7.33A14,14,0,0,1,33.6,118a11,11,0,0,1-4.11,2.08,9.62,9.62,0,0,1-4.77,0A8,8,0,0,1,22.41,119a8.1,8.1,0,0,1-1.83-1.82A9,9,0,0,1,19,112.49,14.44,14.44,0,0,1,19.6,108c.54-2.06,1.31-3.94,1.94-5.77s1.28-3.73,1.87-5.61c1.2-3.76,2.28-7.57,3.25-11.4Z"/><path class="cls-1" d="M90.92,7.48a29.2,29.2,0,0,1,6.26.08,15.06,15.06,0,0,1,6.17,2.22,15.58,15.58,0,0,1,2.52,2.11c.19.2.38.39.56.6l.51.68.51.69c.14.24.26.49.39.73a19,19,0,0,1,1.94,6,49,49,0,0,1,.63,8.84A129.12,129.12,0,0,1,109,44.74c-.71,5-1.57,10-2.45,15-.79,4.42-1.53,8.88-2.2,13.28-.44,2.82-.82,5.66-1.14,8.49-.16,1.41-.29,2.83-.39,4.23a32.78,32.78,0,0,0-.14,4.19c.17,1.67-.21,1.61-.89.14a17.85,17.85,0,0,1-.9-7.75c.5-5.92,1.42-11.71,2.42-17.49s2-11.54,3-17.33a109.22,109.22,0,0,0,1.53-21.31c-.2-3.83-.7-7.8-2.53-10.9l-.78-1.05c-.3-.34-.63-.67-1-1a11.33,11.33,0,0,0-2.19-1.59,12.64,12.64,0,0,0-5.24-1.52,37.9,37.9,0,0,0-7.11.24l-7.28.79C74.38,12,67,12.7,59.57,12.93a106.16,106.16,0,0,1-17.1-.62c-1.25-.13-2.47-.38-3.73-.61-4.64-1-6-1.86-6.69-2.85a4.21,4.21,0,0,1-.45-.69c-.1-.34.33-.46,1.19-.39s2.1.41,3.74.71c9.62,2.13,20.15,2.1,30.68,1.33,7.86-.58,15.68-1.59,23.7-2.4Z"/><path class="cls-1" d="M84.39,98.66l-10.84,1c-1.31.13-2.63.32-4,.44-4.65.42-9.33.75-14,1-2.08,0-4.17.14-6.23.16-1.33,0-2.66,0-4,0s-2.65-.28-4-.47c-.82-.13-.7-.24,0-.43s2-.54,3.5-.77c5.35-.18,10.65-.69,16.07-.84,3.23-.13,6.58-.62,9.88-1l10.91-1.14,6.72-.68c3.38-.36,6.79-.69,10.15-1.11a29.56,29.56,0,0,1,8.06-.32,11.58,11.58,0,0,1,1.82.39c2.25.8,2.73,1.56,2.72,2.35a3.2,3.2,0,0,1,0,.55c-.18.54-1.08.32-2.37-.16-3.87-1.46-8.56-.47-13.52,0L84.4,98.72Z"/><path class="cls-1" d="M89.2,117.88c-4,.12-8,.07-11.92.15l-4.33.12c-5.09.06-10.17.12-15.23.49l-3.4.28-3.39.18a60.16,60.16,0,0,0-8.47.82c-.84.18-.87-.21-.24-.8a7.09,7.09,0,0,1,3.72-1.52c3-.39,6-.43,8.83-.61s5.91-.46,8.88-.52c3.56-.07,7.25-.32,10.88-.43l12-.31c2.44-.07,4.88-.19,7.3-.42a55,55,0,0,0,5.45-.78l1.34-.29a9.79,9.79,0,0,0,1.23-.39,9.44,9.44,0,0,0,2.25-1.27,11.48,11.48,0,0,0,4-6.67c.15-.56.19-1.12.29-1.7.26-2.14.34-2.84.89-3.38a2.55,2.55,0,0,1,.36-.37c.21-.14.42,0,.63.44a4.51,4.51,0,0,1,.32.84,10.16,10.16,0,0,1,.2,1.21,13.09,13.09,0,0,1-2.12,8.18,12.28,12.28,0,0,1-7.23,5.36,63.93,63.93,0,0,1-12.2,1.44Z"/><path class="cls-1" d="M60.38,28.89c-1.38,0-2.77-.06-4.15-.05l-1.51.06c-1.78,0-3.56,0-5.32.17a22.46,22.46,0,0,0-2.33.29c-.49.1-1,.18-1.45.31-.24,0-.48.11-.72.15s-.45.13-.69.18-.38-.17-.23-.5a1.94,1.94,0,0,1,1.14-1,21,21,0,0,1,6.24-1c1.26,0,2.55-.2,3.83-.28s2.8-.11,4.2-.15l2.59,0c1.31,0,2.62,0,3.92-.06,1,0,2-.2,3-.25.22,0,.43,0,.65,0,.82,0,1.09.16,1.26.59,0,.09.09.19.12.28a.45.45,0,0,1-.18.43,1.32,1.32,0,0,1-.68.34,23.91,23.91,0,0,1-2.71.42c-.92.07-1.85.1-2.79.12l-4.18.05Z"/><path class="cls-1" d="M59.08,49.28c-1.22-.09-2.44-.2-3.66-.26-.44,0-.89,0-1.33,0-1.57-.08-3.14-.16-4.71-.14A20.55,20.55,0,0,0,47.3,49c-.88.09-1.75.23-2.64.24-.28,0-.29-.26-.1-.55a1.9,1.9,0,0,1,1.1-.75,20.2,20.2,0,0,1,5.53-.47c1.11.06,2.25-.06,3.38-.06s2.49,0,3.72.06l2.29.1c1.15,0,2.31.12,3.46.11.88,0,1.76-.12,2.64-.14l.57,0c.72,0,.94.17,1.1.61,0,.09.08.19.1.28a.48.48,0,0,1-.16.43,1.19,1.19,0,0,1-.61.33,17.63,17.63,0,0,1-2.42.35c-.82,0-1.65,0-2.48,0l-3.7-.13Z"/><path class="cls-1" d="M58.81,38.13c-1,0-2-.08-2.93-.08-.35,0-.71,0-1.06,0-1.26,0-2.51,0-3.76,0a15.07,15.07,0,0,0-1.66.13,12.47,12.47,0,0,1-2.12.19c-.22,0-.24-.25-.09-.54a1.38,1.38,0,0,1,.85-.72,15.37,15.37,0,0,1,4.37-.55c.89,0,1.8-.14,2.7-.19s2-.08,3-.1l1.82,0c.92,0,1.85,0,2.76,0,.71,0,1.41-.2,2.11-.25a3.41,3.41,0,0,1,.46,0c.58,0,.76.15.89.58,0,.09.07.19.09.28a.54.54,0,0,1-.12.43.84.84,0,0,1-.47.34,11.37,11.37,0,0,1-1.9.44c-.65.07-1.31.1-2,.12l-2.94,0Z"/><path class="cls-1" d="M55.75,57.9l-1.82-.12c-.22,0-.44,0-.66,0-.79,0-1.57-.09-2.35-.1a8.88,8.88,0,0,0-1,0,5.7,5.7,0,0,1-1.31.09c-.14,0-.16-.23-.08-.47a.89.89,0,0,1,.52-.58,7.5,7.5,0,0,1,2.74-.32,13.43,13.43,0,0,0,1.67-.08c.62,0,1.23,0,1.85,0h1.13c.57,0,1.15,0,1.71,0s.87-.18,1.3-.23a1.37,1.37,0,0,1,.28,0c.36-.05.48.11.58.47,0,.09,0,.16.06.24a.65.65,0,0,1-.34.68,5,5,0,0,1-1.18.4,9.88,9.88,0,0,1-1.22.11c-.62,0-1.23,0-1.84,0Z"/><path class="cls-1" d="M91.24,37a2.07,2.07,0,0,0-2-.42,2.69,2.69,0,0,0-.72.4,2.53,2.53,0,0,0-1,2.73,1.93,1.93,0,0,0,.87,1.08,7.24,7.24,0,0,0,1.76.56c.19.06.22.5,0,.93a1.18,1.18,0,0,1-1.29.68,4.18,4.18,0,0,1-2.51-1.73,3.79,3.79,0,0,1-.46-3,4.62,4.62,0,0,1,2-2.85,3.92,3.92,0,0,1,3.7-.17,4,4,0,0,1,1.63,1.55A4.3,4.3,0,0,1,93.63,40a3.64,3.64,0,0,1-1.5,2.2,3.44,3.44,0,0,1-.53.3c-.72.26-1,.12-1.16-.32,0-.1-.08-.2-.11-.3a.79.79,0,0,1,.46-.81,2.3,2.3,0,0,0,1.3-2.2A2.52,2.52,0,0,0,91.22,37Z"/><path class="cls-1" d="M92.39,31.59a7.29,7.29,0,0,0-7,1,8.78,8.78,0,0,0-1.87,2,8.28,8.28,0,0,0-1.46,4.6c0,.21,0,.41,0,.62l.08.61a7.57,7.57,0,0,0,1.4,3.4,7.05,7.05,0,0,0,3.65,2.43,12.25,12.25,0,0,0,5.68.08c.58-.1.73.43.35,1.1A3.34,3.34,0,0,1,90.45,49a10.78,10.78,0,0,1-6.87-2.12A8.75,8.75,0,0,1,81.17,44a7.9,7.9,0,0,1-.68-1.72l-.24-.87c0-.3-.07-.61-.11-.91a10.87,10.87,0,0,1,2.43-8.12,9.52,9.52,0,0,1,13.68-.92,10.76,10.76,0,0,1,3.55,7.59,9,9,0,0,1-2.1,6.23,8.17,8.17,0,0,1-1.06,1.06c-1.51,1.14-2.21,1.13-2.74.77a2.14,2.14,0,0,1-.36-.28c-.3-.38.23-.89,1.1-1.54a7.43,7.43,0,0,0,2.64-8.54,8.36,8.36,0,0,0-4.91-5.15Z"/><path class="cls-1" d="M88.22,52.25a1.18,1.18,0,0,1,.92,0,2.1,2.1,0,0,1,.51.52,2.58,2.58,0,0,1,.29,1l.2,1.71c.08.8.17,1.61.31,2.34a1.12,1.12,0,0,0,.17.47c0,.05.11.13.16.08A1.22,1.22,0,0,0,91,58c0-.06.23-.73.36-1.2.27-1,.51-2.06.72-3.11s.4-2.08.56-3.12a20.81,20.81,0,0,1,.83-4c.16-.42.42-.27.64.14a3.53,3.53,0,0,1,.37,1.87,50.3,50.3,0,0,1-1.56,8.21c-.18.65-.36,1.29-.55,1.94-.07.23-.16.46-.24.69a4.18,4.18,0,0,1-.29.6,3,3,0,0,1-.7.82.86.86,0,0,1-.45,0,1.31,1.31,0,0,1-.42-.16,1.94,1.94,0,0,1-.63-.67,3.93,3.93,0,0,1-.41-1c0-.19-.1-.37-.14-.56L89,58c-.08-.49-.14-1-.19-1.43l-.15-1.41a6.07,6.07,0,0,0-.08-.68.63.63,0,0,0-.07-.22c-.09-.12-.21,0-.28.06a2,2,0,0,0-.25.25l-.12.13-.17.2-.45.59L86,57.1a6.07,6.07,0,0,1-1.65,1.6,1.06,1.06,0,0,1-.68.19c-.32-.09-.36-.36-.43-.56a5.92,5.92,0,0,1,0-2.43l.16-1.2.12-1,.08-.85c.12-1,.22-1.29.62-1.55.08-.06.16-.14.24-.19.23-.2.7.32.74,1.21a11,11,0,0,1,0,1.82l-.1.89-.05.44v.1h0v0c0,.05.07,0,.07,0h0l.09-.11.43-.55.9-1.12.4-.48c.14-.18.29-.33.44-.5a2.84,2.84,0,0,1,.92-.65Z"/><path class="cls-1" d="M79.16,97.71l-8.49.83-3.1.34c-3.64.34-7.3.61-11,.8l-4.87.21c-1,0-2.08.08-3.12.08s-2.08-.12-3.11-.2c-.64-.06-.56-.13,0-.26s1.55-.38,2.73-.55c4.2-.22,8.38-.62,12.62-.79,2.54-.13,5.17-.48,7.75-.76l8.55-.93c1.76-.18,3.49-.36,5.22-.65l7.89-1.33c2-.35,4-.74,6.08-1l1.35-.15c1.7-.13,2.25,0,2.61.41a2,2,0,0,1,.24.28c.16.32-.52.6-1.72.73-3.56.41-7.3,1-11.09,1.67-2.81.47-5.66,1-8.56,1.29Z"/><path class="cls-1" d="M31,45.43c0-4.39-.16-8.78-.53-13.14-.14-1.59-.37-3.17-.57-4.75a52.84,52.84,0,0,0-1.61-8.18,12.85,12.85,0,0,0-1.61-3.6,2.38,2.38,0,0,0-1.18-.94,1.92,1.92,0,0,0-1.37.4A5.52,5.52,0,0,0,22.38,18a20.83,20.83,0,0,0-.75,3.56c-.05.39-.1.78-.14,1.17l0,.53v.12s.07,0,.11,0h1.05a22.53,22.53,0,0,1,4.91.58c1.07.33.69.8-.21,1.14a10.81,10.81,0,0,1-4.22.65l-1.36-.05c-.41,0-.83,0-1.22-.08a2.25,2.25,0,0,1-.54-.12l-.17-.15-.11-.2L19.6,25l0-.05h0c-.35.29-.1.08-.18.14h0v0l0-.12-.09-.49a4.37,4.37,0,0,1-.15-1l.12-1.1.09-.63a21.53,21.53,0,0,1,1.25-5.11,7.76,7.76,0,0,1,1.56-2.52,4.66,4.66,0,0,1,1.38-1,3.66,3.66,0,0,1,.84-.3,3.26,3.26,0,0,1,2.8.57,5.3,5.3,0,0,1,1.12,1.16A11.25,11.25,0,0,1,29.54,17a42.81,42.81,0,0,1,1.64,6c.42,2,.75,4.06,1,6.09.51,4.46.75,8.93.85,13.4.06,2.75,0,5.51,0,8.25-.07,4.17-.31,8.34-.61,12.47-.24,3.2-.45,6.35-.91,9.53-.1.69-.19,1.38-.33,2.08-.52,2.6-1,3.39-1.66,3.76a2.59,2.59,0,0,1-.48.23c-.51.09-.49-1-.17-2.83A164.29,164.29,0,0,0,30.6,58.7c.23-4.4.35-8.84.3-13.26Z"/><path class="cls-1" d="M24.14,113.67A4.44,4.44,0,0,0,27.52,115a2.37,2.37,0,0,0,.7-.1,5,5,0,0,0,.69-.2,8.41,8.41,0,0,0,4.24-3.33,17.86,17.86,0,0,0,1.35-2.23,15.78,15.78,0,0,1,1.76-2.94c.23-.28.46-.08.58.33a2.68,2.68,0,0,1-.06,1.67,23.66,23.66,0,0,1-1.58,3.14,13.11,13.11,0,0,1-2.28,2.92,8.73,8.73,0,0,1-4.05,2.46,6.34,6.34,0,0,1-7.27-3.32,8.1,8.1,0,0,1-.71-4.59,15.94,15.94,0,0,1,.64-3.41c.07-.24.14-.47.22-.71.35-.86.61-1.08.9-1.19l.19-.07c.2,0,.23.39.18,1.08a23.27,23.27,0,0,0-.42,5.79,7.42,7.42,0,0,0,.5,1.85,5.15,5.15,0,0,0,1.07,1.49Z"/><path class="cls-1" d="M61.4,118.68c-1.5,0-3,.11-4.5.21l-1.63.14c-1.93.13-3.87.22-5.79.39-.86.07-1.71.2-2.55.33-.54.09-1.07.22-1.62.28s-1.09.08-1.64.08c-.35,0-.35-.27-.11-.6a2.77,2.77,0,0,1,1.32-1,37.81,37.81,0,0,1,6.72-.78c1.36,0,2.75-.27,4.13-.38s3-.22,4.56-.31L63.1,117l4.25-.17c1.1,0,2.18-.22,3.28-.23.24,0,.49,0,.73,0s.42,0,.58.07a1.42,1.42,0,0,1,.39.18.8.8,0,0,1,.37.44,1.36,1.36,0,0,1,.09.23c0,.22-.36.4-1,.54a42.84,42.84,0,0,1-5.89.47l-4.52.21Z"/><path class="cls-1" d="M25.22,75.58c.74-4,1.36-8.09,1.77-12.17.14-1.5.27-3,.38-4.48.47-5.26.73-10.55.76-15.84,0-2.35-.08-4.71-.2-7-.17-3-.37-6-.45-9,0-.93.32-.84.74-.08a11.29,11.29,0,0,1,1.13,3.91c.17,1.54.3,3.07.42,4.61s.12,3.09.16,4.63,0,3.09,0,4.64-.12,3.1-.17,4.66c-.14,1.85-.19,3.75-.28,5.65s-.19,3.82-.39,5.71c-.42,4.16-.95,8.32-1.7,12.43L26.7,77l-.85,3.76c-.38,1.91-.93,3.78-1.44,5.66-.27.94-.48,1.89-.79,2.81S23,91.1,22.73,92c-.44,1.44-.86,2.86-1.4,4.25s-1,2.79-1.53,4.18L19,102.23c-1.1,2.19-1.54,2.85-2,3.2a3.83,3.83,0,0,1-.31.24c-.26.12,0-.86.59-2.53,1.89-4.92,3.67-10.14,5.17-15.48.49-2,1.06-4,1.5-6s.91-4,1.24-6.08Z"/></g></svg>