<svg xmlns="http://www.w3.org/2000/svg" width="128" height="128" viewBox="0 0 128 128"><defs><style>.cls-1{fill:#231f20;}</style></defs><title>Free Icons</title><g id="Layer_47" data-name="Layer 47"><path class="cls-1" d="M55.36,60c-1.31-.55-2.31-4-3.5-2.22-2,3-7,9.69-11.9,15.59C28.13,87.71,25.43,95.7,26.31,97.25s-3-4.77-3-4.77L53.61,52.87Z"/><path class="cls-1" d="M26.52,98.53a16.8,16.8,0,0,1-1.13-1.79c-.12-.23-.28-.43-.39-.67a9.28,9.28,0,0,1-.68-2.67c0-.21,0-.42-.05-.62v-.64a2.09,2.09,0,0,1,.55-1.57c.13-.13.45.14.74.45s.58.63.53.78A6.77,6.77,0,0,0,26,94a4,4,0,0,0,.62,1.47,11.07,11.07,0,0,0,1,1.54,8.62,8.62,0,0,0,.73.87A7.27,7.27,0,0,0,29.65,99c.4.2.81.35,1.19.5l.26.1c.3.12.35.31.32.7,0,.09,0,.18,0,.26a.63.63,0,0,1-.62.51,4.83,4.83,0,0,1-1.51-.16A4.63,4.63,0,0,1,28,100.1a12.28,12.28,0,0,1-1.52-1.54Z"/><path class="cls-1" d="M63.73,46.77c-3.86-2.65-3.18-8.75-3.63-9.15s-1.38.84-2.5,2.54a23.44,23.44,0,0,0-2.41,5.2s-.75-8.62,5.37-11.43c3.36-1.55,4-1.78,4-1.78Z"/><path class="cls-1" d="M47.08,67.74a9.19,9.19,0,0,0,.83,1.5,6.26,6.26,0,0,0,.39.51,18.51,18.51,0,0,0,1.46,1.77,9.73,9.73,0,0,0,.75.69,7.58,7.58,0,0,1,1,.91c.1.11,0,.2-.17.24a1.06,1.06,0,0,1-.69-.07,6.89,6.89,0,0,1-2.16-1.75c-.35-.44-.78-.84-1.15-1.29a11.34,11.34,0,0,1-1-1.61,7.41,7.41,0,0,1-.48-1.08c-.11-.29-.18-.58-.26-.87s-.13-.59-.17-.88-.07-.46-.1-.69,0-.46,0-.7a1,1,0,0,1,0-.3c.08-.38.18-.48.4-.51l.16,0c.16,0,.27.18.32.44a16.79,16.79,0,0,0,.38,2.16,7.63,7.63,0,0,0,.59,1.54Z"/><path class="cls-1" d="M63.19,69.14c-.54-.42-1.07-.86-1.61-1.29s-1-.89-1.55-1.36-.77-.65-1.13-1a31.85,31.85,0,0,1-3.3-4.19c-.43-.66-.88-1.31-1.26-2-.24-.45-.49-.89-.71-1.35a5.22,5.22,0,0,1-.26-1.53c0-.32.23-.35.64-.21a4.19,4.19,0,0,1,.7.29,2.82,2.82,0,0,1,.38.21l.18.12c0,.05.07.1.1.16l3,4.72a15.42,15.42,0,0,0,2.42,2.57c.46.45.93.91,1.44,1.33s1,.86,1.51,1.27,1.29,1,1.95,1.47a31,31,0,0,0,3.16,1.93,25.72,25.72,0,0,0,2.63,1c.19.07.39.12.58.2.69.32.86.54.85,1a1.93,1.93,0,0,1,0,.34c-.05.35-.45.52-1.07.45a14.42,14.42,0,0,1-5.14-1.93,39.12,39.12,0,0,1-3.5-2.24Z"/><path class="cls-1" d="M56.26,38.34a25.89,25.89,0,0,1,5.44-6.29,26.5,26.5,0,0,1,2.35-1.88,23.21,23.21,0,0,1,4.74-2.34,24,24,0,0,1,5.1-1.27,26.78,26.78,0,0,1,4.65-.29,11.89,11.89,0,0,1,3,.43,8.48,8.48,0,0,1,1.4.55c.46.2.87.51,1.31.73s.22.74-.44,1.06a8.59,8.59,0,0,1-1.19.41,3.61,3.61,0,0,1-1.44.24c-.87,0-1.69-.06-2.53-.09-.42,0-.84,0-1.25,0l-1.27,0a27.44,27.44,0,0,0-5.14.81,17.67,17.67,0,0,0-5.74,3.08,22.34,22.34,0,0,0-5.14,5.13,19.44,19.44,0,0,0-2.21,3.93,18.07,18.07,0,0,0-1.48,6.67,22.4,22.4,0,0,0,.82,5.17c.11.36.24.72.32,1.09.37,1.38.15,1.94-.35,2.46-.12.12-.22.26-.33.35-.34.29-1-.12-1.76-1.12a16.44,16.44,0,0,1-1.76-10.86,22.33,22.33,0,0,1,2.87-8Z"/><path class="cls-1" d="M98,45.06A22.1,22.1,0,0,0,84.74,30.27a20.91,20.91,0,0,0-7.38-1.42,24.48,24.48,0,0,0-12.87,3.3,18.25,18.25,0,0,0-8.35,10.13,19.2,19.2,0,0,0,.36,11.8A27.45,27.45,0,0,0,60,61a33,33,0,0,0,5.14,5.76c1.2,1.07.84,1.26-.56.74A13.54,13.54,0,0,1,58.81,63a29.4,29.4,0,0,1-4.06-7.44,23.4,23.4,0,0,1-1.47-8.44,20.86,20.86,0,0,1,.56-4.31A19.24,19.24,0,0,1,61,32.14,26.65,26.65,0,0,1,80.56,26.9,24.25,24.25,0,0,1,101,53.43a28,28,0,0,1-3.11,10,20.57,20.57,0,0,1-7,7.86A15.06,15.06,0,0,1,87.09,73a27.12,27.12,0,0,1-4,.76A26.11,26.11,0,0,1,75,73.38a24.82,24.82,0,0,1-3.45-.94c-4.17-1.69-5.11-3-5.57-3.91a4.25,4.25,0,0,1-.29-.65c-.11-.53,1.51.22,4.3,1.34a27.13,27.13,0,0,0,13.2,1.93,23.58,23.58,0,0,0,3.33-.64,11.51,11.51,0,0,0,2.9-1.28,16.37,16.37,0,0,0,4.75-4.57,25.36,25.36,0,0,0,4-9.4,22.17,22.17,0,0,0-.28-10.18Z"/><path class="cls-1" d="M35.07,101.13a13.85,13.85,0,0,1-2.23.9,8.43,8.43,0,0,1-1.25.29,5,5,0,0,1-.89.08l-.49-.12-.34-.08a11.94,11.94,0,0,1-4.21-2.49,12.48,12.48,0,0,1-3-3.77,6.89,6.89,0,0,1-.53-1.38c-.07-.31-.17-.62-.22-.92.15-.28.3-.55.47-.82l1.23-2,1.75-2.66,1.8-2.6c4.37-6,9-11.77,13.46-17.61,2-2.59,4-5.22,5.9-7.82l3.66-5.07c1.2-1.69,2.43-3.38,3.49-5.09.64-1.06,1-.81.79.38a13.94,13.94,0,0,1-2.22,5.22c-2.36,3.59-4.84,7.06-7.37,10.51S39.67,72.85,37,76.21c-3.19,4-6.27,8.38-9.22,12.68-.82,1.18-1.6,2.38-2.37,3.58l-.9,1.47c0,.06,0,.13,0,.19a1.13,1.13,0,0,0,.09.26,6.4,6.4,0,0,0,.4.84,10.69,10.69,0,0,0,2.59,3,9.85,9.85,0,0,0,1.64,1.11,7.71,7.71,0,0,0,.87.42l.44.15.33.09.15,0,.27,0,.57-.13c.39-.11.77-.24,1.16-.39a18.46,18.46,0,0,0,2.25-1.16c1.48-.88,2.9-1.93,4.39-3,4.55-2.92,9.14-5.76,13.62-8.7,3.49-2.27,6.85-4.58,10.28-6.85.75-.51,1.49-1,2.25-1.5C68.67,76.39,69.68,76,70.55,76a3.51,3.51,0,0,1,.59,0c.47.15-.51,1.19-2.49,2.68-5.93,4.36-12.26,8.81-18.81,13l-7.29,4.67c-2.42,1.47-4.62,3.37-7.44,4.82Z"/><path class="cls-1" d="M35.15,107.93c5.18-1.72,10.51-3.47,16.2-3.9,1-.08,2.06-.13,3.12-.12a12.43,12.43,0,0,1,3.29.42,5.16,5.16,0,0,1,1.56.75,3.08,3.08,0,0,1,1.23,1.78,2.92,2.92,0,0,1,0,1.1,3.37,3.37,0,0,1-.23.91,7,7,0,0,1-.75,1.41,8.47,8.47,0,0,1-2.16,2.11,26.48,26.48,0,0,1-2.4,1.4l-4.66,2.44-2.3,1.21a1.41,1.41,0,0,0-.48.36.54.54,0,0,0-.12.57.85.85,0,0,0,.39.36,4.44,4.44,0,0,0,.7.28,14.76,14.76,0,0,0,2.16.46,21.65,21.65,0,0,0,4.45.21,34.52,34.52,0,0,0,5.67-1.14l2.83-.8c.94-.29,1.92-.46,2.87-.71,1.2-.29,1.18.09.35.9a13.78,13.78,0,0,1-1.81,1.45,11.55,11.55,0,0,1-2.89,1.3A37.39,37.39,0,0,1,56,122.06a16.83,16.83,0,0,1-3.32.08,29.9,29.9,0,0,1-3.2-.37,15.09,15.09,0,0,1-1.65-.39l-.43-.14L46.8,121a4.94,4.94,0,0,1-1.19-.76,2.53,2.53,0,0,1-.86-2.35,2.91,2.91,0,0,1,.52-1.2,3.48,3.48,0,0,1,1-1,6.11,6.11,0,0,1,.61-.36l.38-.19.68-.34,1.37-.68L52,112.78c2.19-1.1,4.57-2,5.62-3.79a3.4,3.4,0,0,0,.55-1.26.55.55,0,0,0-.23-.58,3.47,3.47,0,0,0-1.24-.49,10.83,10.83,0,0,0-1.67-.24c-5.23-.3-10.58,1-15.76,2.66-3.21,1-6.4,2.14-9.64,3.18a60.79,60.79,0,0,1-7.55,1.88,35.64,35.64,0,0,1-3.89.5,14.43,14.43,0,0,1-4-.22,5.89,5.89,0,0,1-1.58-.6,3.43,3.43,0,0,1-1.32-1.3,3.65,3.65,0,0,1-.47-1.81,5.83,5.83,0,0,1,.33-1.71,14.17,14.17,0,0,1,3.6-5.06,22.26,22.26,0,0,1,2-1.77c2.65-2,3.87-2.29,4.76-2a1.25,1.25,0,0,1,.54.29c.07.1,0,.2,0,.31a2.11,2.11,0,0,1-.4.39l-2,1.54A28.1,28.1,0,0,0,16,106.16a17.2,17.2,0,0,0-1.52,2,7.69,7.69,0,0,0-1,2,1.52,1.52,0,0,0,0,1.29,2,2,0,0,0,1.24.71,14.63,14.63,0,0,0,4.88.07,47.46,47.46,0,0,0,7.79-1.66c2.55-.77,5.16-1.72,7.76-2.61Z"/><path class="cls-1" d="M64.78,41.6a21,21,0,0,0,1.1,4.75c.19.58.53,1.09.74,1.65a23.34,23.34,0,0,0,3.22,5.57,7.52,7.52,0,0,0,1,1,8.65,8.65,0,0,0,1.09.93l.73.55.76.5c.48.37,1,.64,1.51,1,.31.23.15.55-.32.76a2.62,2.62,0,0,1-2,0,10.74,10.74,0,0,1-1.85-1l-.85-.62-.78-.7a15.3,15.3,0,0,1-2.66-3.19c-.43-.71-.89-1.4-1.36-2.11a18.31,18.31,0,0,1-1.21-2.22,23.25,23.25,0,0,1-1.7-5.26,13.82,13.82,0,0,1-.27-1.69l-.11-.85,0-.86a16.71,16.71,0,0,1,.56-5.2,13,13,0,0,1,1.61-3.88A8.15,8.15,0,0,1,64.5,30c.85-.87,1.36-.89,2-.33a4.08,4.08,0,0,1,.43.39,1.38,1.38,0,0,1,0,1.67A13,13,0,0,0,64.88,37a15.26,15.26,0,0,0,0,4.63Z"/><path class="cls-1" d="M82.24,36.65a1.47,1.47,0,0,0-2-.21C77.59,39,85.39,39.91,82.24,36.65Z"/><path class="cls-1" d="M90.34,39.24a1.46,1.46,0,0,0-2-.21C85.69,41.55,93.49,42.5,90.34,39.24Z"/><path class="cls-1" d="M87.61,50.62a1.46,1.46,0,0,0-2-.21C83,52.92,90.76,53.87,87.61,50.62Z"/><path class="cls-1" d="M48.66,65.88a7.6,7.6,0,0,0,.8,2.3A5.48,5.48,0,0,0,50,69a14.68,14.68,0,0,0,2.16,2.68,8.07,8.07,0,0,0,1.23,1c.55.36,1.12.7,1.64,1.11.16.13.07.37-.21.56a1.47,1.47,0,0,1-1.18.26,7.42,7.42,0,0,1-3.76-2.44,12.77,12.77,0,0,0-.92-1c-.31-.35-.62-.7-.91-1.08a10.12,10.12,0,0,1-1.37-2.8,6.17,6.17,0,0,1-.24-.94l-.11-1a8.9,8.9,0,0,1,0-1.46c0-.49.19-.95.25-1.42s.18-.71.25-1.07a4.47,4.47,0,0,1,.35-1c.07-.14.13-.29.21-.43.32-.51.56-.58,1-.45a2.46,2.46,0,0,1,.29.09.86.86,0,0,1,.38.91,7.3,7.3,0,0,1-.16.86c-.07.28,0,.58-.1.84a10.54,10.54,0,0,0-.26,1.54c0,.38,0,.75,0,1.13s.11.75.2,1.13Z"/><path class="cls-1" d="M85.43,20.62c.23.13.09.41-.23.81a1.31,1.31,0,0,1-.58.34,3.38,3.38,0,0,1-.51-.18A13.39,13.39,0,0,1,82.89,20a4.78,4.78,0,0,1-.62-1.21c-.32-.86-.62-1.71-.87-2.56a2.39,2.39,0,0,1-.08-.59,7.31,7.31,0,0,0-.29-2,.52.52,0,0,0-.14-.3,7.52,7.52,0,0,1-.49-2.13c0-.59.11-1.17.13-1.75,0-.08,0-.16,0-.25a.58.58,0,0,0,.1-.55,6.09,6.09,0,0,1,0-.74,2.17,2.17,0,0,1,.17-.4c.06-.13.35-.14.39-.11s.23,0,.34-.07l.12,0a8.15,8.15,0,0,1,1,1.41l.37,1.05c.21.52.35,1.08.4,1.18a1,1,0,0,1,0,.38c0,.06.49,1.62.5,1.68a2,2,0,0,1,.06,1,.33.33,0,0,0,0,.2,12,12,0,0,1,.28,1.68,5.58,5.58,0,0,0,.2.83.48.48,0,0,1,0,.17.69.69,0,0,0,0,.2A10.2,10.2,0,0,0,85.17,19a7.4,7.4,0,0,0,.26,1C85.48,20.14,85.34,20.58,85.43,20.62Z"/><path class="cls-1" d="M99.53,21.14c0,.23-.31.15-.81-.12a2.49,2.49,0,0,1-.6-.54A3.5,3.5,0,0,1,98,20c0-.09.37-.94.47-1.24a2.69,2.69,0,0,1,.45-.77c.36-.47.69-1,1-1.46a1.14,1.14,0,0,1,.29-.29,2.75,2.75,0,0,0,.9-1.05c0-.07.1-.12.07-.23a3.37,3.37,0,0,1,.82-1.31,11.9,11.9,0,0,0,1.06-.76c.05,0,.06-.1.17-.1s.29-.1.38-.2a2.11,2.11,0,0,1,.44-.33,1.2,1.2,0,0,1,.35-.08c.11,0,.31.15.32.19s.17.13.27.19l.1.06a5,5,0,0,1,0,1.34l-.31.74c-.15.37-.3.76-.33.85s-.11.14-.19.19-.53,1.13-.57,1.17c-.16.19-.23.45-.54.53a.18.18,0,0,0-.1.11,6.44,6.44,0,0,1-.82,1,6.55,6.55,0,0,0-.39.53s-.07.05-.11.07a.38.38,0,0,0-.12.1,14.51,14.51,0,0,0-.95,1.24c-.05.11-.61.39-.67.52S99.53,21.05,99.53,21.14Z"/><path class="cls-1" d="M107.67,36.18c-.1.18-.32,0-.58-.47a2.13,2.13,0,0,1-.22-.7,3,3,0,0,1,.13-.42c0-.07.73-.59,1-.8a2.77,2.77,0,0,1,.72-.42l1.57-.71a.92.92,0,0,1,.38-.08,3.21,3.21,0,0,0,1.29-.38c.07,0,.14-.05.18-.16s1.25-.56,1.44-.52c.44.06.86.06,1.28.1.06,0,.12,0,.19.05s.28.13.41.14a2.08,2.08,0,0,1,.54.08,1,1,0,0,1,.28.21c.09.07.1.36.08.4s0,.23,0,.34a.59.59,0,0,1,0,.13,4.89,4.89,0,0,1-.39.46,2.13,2.13,0,0,1-.44.46l-.63.29c-.31.16-.63.33-.69.38s-.15,0-.23,0-1,.54-1,.54c-.21,0-.39.2-.67.08,0,0-.09,0-.13,0a5.29,5.29,0,0,1-1.12.3,5.37,5.37,0,0,0-.56.21.48.48,0,0,1-.12,0h-.14a13.73,13.73,0,0,0-1.35.5c-.09.06-.68,0-.79.08S107.71,36.11,107.67,36.18Z"/></g></svg>