<svg xmlns="http://www.w3.org/2000/svg" width="128" height="128" viewBox="0 0 128 128"><defs><style>.cls-1{fill:#231f20;}</style></defs><title>Free Icons</title><g id="Layer_12" data-name="Layer 12"><path class="cls-1" d="M34.49,74.77c-.12-4.83-.19-9.65-.25-14.47,0-1.76-.1-3.52-.11-5.28,0-6.2,0-12.4.07-18.6V32.54l-.05-3.66c0-.07,0-.15,0-.22a.71.71,0,0,0-.26-.16l-.43-.2-1.21-.56a14.56,14.56,0,0,1-2.4-1.4,8.64,8.64,0,0,1-3.41-4.54c-.3-1.2.34-1.09,1.13-.44L30.84,24a14,14,0,0,0,2.42,1.53l1.41.69.6.3a3.67,3.67,0,0,1,.64.45,1.46,1.46,0,0,1,.42.59,4.35,4.35,0,0,1,.18.71c0,2.64,0,5.27-.08,7.92s-.11,5-.17,7.57c-.12,4.31.06,8.8.11,13.21.06,4.85.13,9.7.25,14.54q.1,4.48.28,9c.19,4.51.39,9,.79,13.51.32,3.47.8,6.85,1.42,10.2.16.74.29,1.46.46,2.18.29,1.36.5,2.23.59,2.83a3.08,3.08,0,0,1,0,.78,2.28,2.28,0,0,1-.11.59,4.74,4.74,0,0,1-.16.57c-.12.25-.39.19-.84-.26a3.84,3.84,0,0,1-.61-.93,7.24,7.24,0,0,1-.56-1.36A54.71,54.71,0,0,1,36,99.14c-.42-3.22-.68-6.48-.91-9.76-.33-4.85-.52-9.74-.69-14.6Z"/><path class="cls-1" d="M25.65,81.24c-.21-4.92-.34-9.84-.44-14.76-.06-1.8-.13-3.59-.14-5.38q0-9.49.19-19l.11-8.41c0-1.79.05-3.58.1-5.38a45.3,45.3,0,0,1,.59-5.39c.24-1.15.49-.88.69.08a25.32,25.32,0,0,1,.58,4.74c-.08,7.27-.17,14.53-.26,21.87-.08,4.39.15,9,.29,13.45.12,4.94.27,9.88.48,14.82.15,3,.29,6.08.48,9.11.3,4.59.62,9.21,1.09,13.75l.4,3.26.22,1.62.11.8.06.39,0,.19.46.53c.21.23.43.46.65.68a16.58,16.58,0,0,0,1.42,1.24,15.61,15.61,0,0,0,1.81,1.18c1.17.64,2,.94,2.54,1.23a3.92,3.92,0,0,1,1.17.79,3.24,3.24,0,0,1,.37.38c.13.2-.11.34-.68.43a6.57,6.57,0,0,1-2.61-.22,13.67,13.67,0,0,1-3.92-1.94,16.54,16.54,0,0,1-1.73-1.4c-.28-.26-.55-.52-.81-.8l-.38-.43c-.21-.24-.41-.51-.62-.78-.25-2-.5-4-.76-6s-.39-3.82-.58-5.74c-.25-2.47-.4-4.95-.56-7.43s-.28-5-.41-7.45Z"/><path class="cls-1" d="M84.12,114c-3.65.75-7.32,1.45-11,2.06-1.35.23-2.69.5-4,.68a89.31,89.31,0,0,1-14.45.87c-2.14-.07-4.31-.23-6.44-.5a19.93,19.93,0,0,1-7.92-2.48c-.76-.45-.41-.81.45-1a6.53,6.53,0,0,1,1.58-.07,6.27,6.27,0,0,1,2,.29c5,1.36,10.45,1.29,15.91,1.31a74.74,74.74,0,0,0,10-1.14c3.67-.57,7.33-1.25,11-2,2.24-.46,4.49-.94,6.73-1.45l10.2-2.29c2.63-.6,5.19-1.3,7.88-1.74.6-.1,1.19-.19,1.8-.26s1,0,1.45,0a4.17,4.17,0,0,1,1,.18,1.9,1.9,0,0,1,1,.86,2.94,2.94,0,0,1,.22.43c.06.22-.16.38-.55.54a5.23,5.23,0,0,1-1.7.38c-2.21.25-4.54.75-6.91,1.26l-7.24,1.65-11,2.48Z"/><path class="cls-1" d="M109.49,53.58c-.17,4-.25,8-.28,12.06l.09,4.4c.06,5.17.14,10.35.46,15.52.12,2.29.36,4.59.6,6.85l.55,4.36a40.06,40.06,0,0,1,.41,4.38c0,.91-.46.86-1,.16a7.47,7.47,0,0,1-1.58-3.73,137.75,137.75,0,0,1-1.32-18.07c0-3.63-.27-7.39-.3-11.1-.06-4.08,0-8.16.12-12.23q.11-3.76.29-7.52c.19-3.8.44-7.61.73-11.37l.29-4.36c.08-1.45.18-2.89.33-4.34l.16-1.91c.33-2.37.62-3.1,1.27-3.51a3.08,3.08,0,0,1,.44-.27c.48-.14.71.87.59,2.6-.37,5.15-.76,10.53-1.15,15.94-.26,4-.48,8.09-.59,12.14Z"/><path class="cls-1" d="M73.69,15.91c-3.89.11-7.77.07-11.64,0-1.42,0-2.79,0-4.25-.06-5-.36-9.87-.9-14.79-.79a37.2,37.2,0,0,0-6.44.66,21.76,21.76,0,0,0-7.5,2.83c-.7.42-.94.05-.61-.75a5.38,5.38,0,0,1,3-2.72,29.42,29.42,0,0,1,8.72-1.91,59.57,59.57,0,0,1,8.76,0c3.47.21,7.1.41,10.54.46,3.87,0,7.74.06,11.6-.05,2.38-.07,4.75-.17,7.11-.37A78.82,78.82,0,0,0,88.8,11.67a68.74,68.74,0,0,0,7.82-2.41c.56-.21,1.1-.45,1.68-.63,2.12-.71,2.83-.84,3.52-.44a3.14,3.14,0,0,1,.45.26c.37.34-.35,1-1.85,1.84a48,48,0,0,1-14.93,4.59A104.16,104.16,0,0,1,73.7,16Z"/><path class="cls-1" d="M63.19,29c3.87-.15,7.75-.5,11.61-.94,1.41-.18,2.81-.4,4.21-.61,5-.69,9.9-1.54,14.79-2.67,2.16-.5,4.32-1.11,6.42-1.78,2.67-.91,5.39-1.79,7.93-2.87.75-.37.81-.18.3.46A9.28,9.28,0,0,1,105.3,23,58.43,58.43,0,0,1,97,25.88q-4.25,1.22-8.59,2c-3.47.65-7.06,1.44-10.63,2q-5.88.91-11.83,1.31c-2.44.15-4.88.27-7.33.3a111,111,0,0,1-11.1-.41A68.81,68.81,0,0,1,39,30c-.63-.11-1.23-.23-1.85-.4s-1-.3-1.43-.44a5.27,5.27,0,0,1-.92-.45,1.68,1.68,0,0,1-.83-1,2.74,2.74,0,0,1-.15-.52c0-.52,1-.59,2.59-.18,2.39.51,4.85.92,7.38,1.25s5.11.5,7.71.63a113.58,113.58,0,0,0,11.67,0Z"/><path class="cls-1" d="M28.18,106.21s-11.77,1-11.72,5.51,22.24,12.61,52.42,4.42c0,0-17.09-.23-28.85-3.34C36.29,111.81,28.18,106.21,28.18,106.21Z"/><path class="cls-1" d="M84.53,22.13c-1.22.21-2.44.41-3.67.58s-2.45.34-3.67.48c-.9.11-1.79.28-2.69.35-3.16.29-6.35.4-9.52.44H62.86c-.71,0-1.41,0-2.11,0a23.36,23.36,0,0,1-5.39-.64c-.55-.14-.41-.39.1-.6a6.22,6.22,0,0,1,2.39-.3c3.56.17,7.15.05,10.8,0,1.09,0,2.2-.14,3.31-.26s2.23-.31,3.34-.42L79,21.2l3.65-.58c1.49-.27,3-.51,4.46-.84,1.13-.23,2.25-.48,3.36-.76s2.23-.54,3.32-.86c.85-.23,1.68-.53,2.5-.83s1.62-.61,2.43-.94c.35-.15.7-.28,1.07-.4,1.32-.5,1.79-.56,2.23-.32a1.68,1.68,0,0,1,.3.15c.25.21-.2.67-1.14,1.23a24.39,24.39,0,0,1-4.46,2c-1.56.59-3.18,1.05-4.79,1.52-2.43.61-4.88,1.12-7.34,1.57Z"/><path class="cls-1" d="M78.76,87.65,74.89,88c-.48,0-.94.16-1.41.2l-5,.45c-.77,0-1.51.11-2.22.21-.92.14-1.79.33-2.62.47-.25,0-.42-.32-.33-.78a1.58,1.58,0,0,1,1.08-1.19,14.74,14.74,0,0,1,3-.4l2.84-.18c1.16-.05,2.34-.34,3.52-.5l3.89-.51,2.4-.31c1.2-.17,2.42-.31,3.61-.54.92-.17,1.81-.47,2.71-.73.2,0,.39-.13.59-.17.75-.17,1-.06,1.26.5a3.29,3.29,0,0,1,.17.39A.88.88,0,0,1,87.71,86a21.57,21.57,0,0,1-5,1.21c-1.29.19-2.6.32-3.9.49Z"/><path class="cls-1" d="M81.77,95.79c-.94.1-1.88.16-2.81.22-.34,0-.67.12-1,.13-1.2.07-2.4.1-3.59.19a9.83,9.83,0,0,0-1.55.26A6.43,6.43,0,0,1,71,97a1.18,1.18,0,0,1-.46-.94,1.33,1.33,0,0,1,.71-1.24,14.68,14.68,0,0,1,4.19-.52A15.41,15.41,0,0,0,78,93.91l2.77-.33c.57-.07,1.14-.13,1.7-.22A21.31,21.31,0,0,0,85,92.88c.64-.2,1.23-.48,1.82-.73l.38-.18c.48-.18.69-.08,1,.41.07.11.15.22.21.33a.83.83,0,0,1-.23,1.09,8.13,8.13,0,0,1-1.69,1,9.25,9.25,0,0,1-1.86.55c-.93.21-1.88.33-2.82.47Z"/><path class="cls-1" d="M75.29,61.65a2.89,2.89,0,0,0,.78.4,2.07,2.07,0,0,0,.4.09c.1,0,.25,0,.32,0a.5.5,0,0,0,.29-.21,2.16,2.16,0,0,0,.42-1,10.76,10.76,0,0,0,.17-1.43c0-.44,0-.9,0-1.36a2.65,2.65,0,0,1,.47-1.91c.18-.19.43.12.69.44s.54.54.5.75c-.15.86-.08,2.1-.37,3.32-.09.38-.15.77-.26,1.19A2.41,2.41,0,0,1,78,63.11a2,2,0,0,1-.78.41,3.46,3.46,0,0,1-.78.06A3.52,3.52,0,0,1,75,63.2a5.64,5.64,0,0,1-1.31-.93,13.56,13.56,0,0,1-1.51-1.73c-.35-.46-.75-.89-1.1-1.36-.07-.11-.16-.2-.23-.31-.24-.42-.22-.61.1-.87a1.84,1.84,0,0,1,.22-.17A.6.6,0,0,1,72,58c.67.72,1.23,1.53,1.85,2.26a6.57,6.57,0,0,0,1.46,1.39Z"/><path class="cls-1" d="M73.1,56a1.31,1.31,0,0,1-1,.33c-.14,0-.38-.17-.34-.3a3,3,0,0,1,.34-.75,3.7,3.7,0,0,1,1.32-.93,8.63,8.63,0,0,1,1.92-.5c.74-.13,1.4-.2,1.94-.35a1,1,0,0,0,.75-.62c0-.1,0-.13,0-.14a.61.61,0,0,0-.18-.13l-.51-.18a1.89,1.89,0,0,0-1.12.05,1.79,1.79,0,0,0-.88.57.53.53,0,0,0-.12.32,5.51,5.51,0,0,1-.19.57,6.52,6.52,0,0,1-.27.6,2.53,2.53,0,0,1-.3.47,2.59,2.59,0,0,1-.41.46,2.06,2.06,0,0,1-2.12.4,4.57,4.57,0,0,1-.74-.37L71,55.37l-.29-.25-.06,0h0v0a.14.14,0,0,0-.14-.08.3.3,0,0,0-.26.14s0,.08-.07.12-.06.35,0,.5a1.37,1.37,0,0,0,.59.53,1.49,1.49,0,0,0,.42.23.22.22,0,0,1,.09.33c-.18.11,0,.2,0,.3a.13.13,0,0,1,0,.1,1.16,1.16,0,0,1-.5.17,1.93,1.93,0,0,1-1.2-.22,2.77,2.77,0,0,1-1-.87,2.42,2.42,0,0,1-.33-.77,2.67,2.67,0,0,1,0-.86A2.45,2.45,0,0,1,69.68,53a2,2,0,0,1,1.14-.19,2.52,2.52,0,0,1,.61.18,1.94,1.94,0,0,1,.3.13l.18.1.52.3.08,0h0s0,0,.06.06,0,0,0,0,0,0,0-.05,0,0,0,0l.07-.16c.1-.26.22-.63.36-.95a4.11,4.11,0,0,1,.32-.62,4.3,4.3,0,0,1,.48-.55,5.31,5.31,0,0,1,.48-.38,2.83,2.83,0,0,1,1.07-.44c.15,0,.29-.09.44-.13a4,4,0,0,1,2-.13,3.34,3.34,0,0,1,2,1.06,2.5,2.5,0,0,1,.44,2.52,1.36,1.36,0,0,1-.22.39,4.54,4.54,0,0,1-.33.41,3.41,3.41,0,0,1-2.14,1.15c-.7.11-1.34.12-1.94.19-.14,0-.52,0-.89,0a3.33,3.33,0,0,0-.83.09C73.74,56,73.2,55.92,73.1,56Z"/><path class="cls-1" d="M33.36,76.85q-.22-6.07-.35-12.14c0-1.48-.13-2.95-.15-4.42-.08-5.21-.08-10.41-.1-15.61,0-2.3-.07-4.62-.14-6.91-.08-2.94-.26-5.89,0-8.84.13-1.83,2.08.49,2.13,3.86.1,6,.12,12,0,18-.08,3.62.12,7.38.21,11.08.1,4.06.2,8.13.35,12.2q.14,3.75.34,7.5c.2,3.78.43,7.58.84,11.31a84.54,84.54,0,0,0,1.4,8.52c.12.62.29,1.2.43,1.82.29,1.11.47,1.84.56,2.34a2.2,2.2,0,0,1-.06,1.17,4,4,0,0,1-.15.49c-.11.22-.36.18-.73-.19a3.13,3.13,0,0,1-.3-.32c-.09-.13-.17-.27-.26-.43a6,6,0,0,1-.52-1.13A44.07,44.07,0,0,1,35,97.28c-.41-2.69-.69-5.43-.92-8.17-.35-4.07-.56-8.17-.76-12.25Z"/><path class="cls-1" d="M63.69,64.44a38.57,38.57,0,0,1-1.07-8.87,25.72,25.72,0,0,1,.15-3.28,17.06,17.06,0,0,1,.6-2.89l.31-.83.09-.28a.75.75,0,0,1,.06-.13l.13-.07.51-.28c.46-.26.88-.44,1.32-.65a32.51,32.51,0,0,1,5.4-1.86,31.42,31.42,0,0,1,5-.88,17.22,17.22,0,0,1,3.29,0,8.73,8.73,0,0,1,3.19,1c.63.34.31.66-.35.82a9,9,0,0,1-1.21.14,4.39,4.39,0,0,1-.72,0,3.64,3.64,0,0,1-.8-.06,19.09,19.09,0,0,0-6,.25,37.32,37.32,0,0,0-6,1.68A17.65,17.65,0,0,0,65.8,49c-.81.48-.47,0-.79.89a17.86,17.86,0,0,0-.55,3.75,35.32,35.32,0,0,0,.62,8.51c.18.86.37,1.72.62,2.56.12.42.26.83.41,1.24l.11.31.07.18c.06.1.08.29.18.33l.7.12c.33.06.66.09,1,.12.66.08,1.32.09,2,.11a24,24,0,0,0,4-.33c2.05-.33,4-1,6.1-1.38.46-.09.93-.17,1.42-.22,1.83-.13,2.48.26,2.72.82a1.41,1.41,0,0,1,.15.4c0,.21-.16.36-.46.45a8.15,8.15,0,0,1-1.31.16c-3.32.39-7.16,1.84-11.31,2a21.77,21.77,0,0,1-4.63-.25L66,68.63l-.53-.09-.27-.05c-.1,0-.08-.13-.13-.19l-.41-.91L64.43,67l-.1-.28a22.46,22.46,0,0,1-.68-2.21Z"/><path class="cls-1" d="M82.68,60.09c0-.85,0-1.7,0-2.55,0-.31,0-.62,0-.93A30.31,30.31,0,0,1,83,53.32l.17-1.46a4.52,4.52,0,0,1,.5-1.85c.1-.17.42,0,.7.24s.52.62.45.92c-.24,1.11-.37,2.29-.6,3.49a13,13,0,0,0,0,2.25c0,.82,0,1.66.06,2.49,0,.51,0,1,.09,1.54.07.78.12,1.56.25,2.32A16.48,16.48,0,0,0,85.06,65a2.72,2.72,0,0,1,.11.38c.11.49,0,.66-.41.83-.1,0-.2.09-.3.12a.67.67,0,0,1-.81-.4,11.14,11.14,0,0,1-.82-3.27c-.1-.85-.14-1.7-.19-2.56Z"/><path class="cls-1" d="M76.4,68.78l-2.9.63c-.35.07-.7.18-1.06.24a14.73,14.73,0,0,1-3.93.16,8.37,8.37,0,0,1-1.77-.39A3.35,3.35,0,0,1,64.88,68c-.13-.22.15-.36.5-.42a1.47,1.47,0,0,1,1,.15,6.33,6.33,0,0,0,3.59.92,11,11,0,0,0,2.57-.38c.94-.2,1.9-.43,2.85-.66l1.78-.44c.9-.22,1.82-.4,2.75-.56a10.82,10.82,0,0,1,2.24-.25l.53,0c.67.16.84.4.77.79a2.56,2.56,0,0,1,0,.27.7.7,0,0,1-.75.36,15.61,15.61,0,0,0-3.44.35c-.92.18-1.87.39-2.82.63Z"/></g></svg>