<svg xmlns="http://www.w3.org/2000/svg" width="128" height="128" viewBox="0 0 128 128"><defs><style>.cls-1{fill:#231f20;}.cls-2{fill:none;stroke:#231f20;stroke-miterlimit:10;stroke-width:0.6px;}</style></defs><title>Free Icons</title><g id="Layer_30" data-name="Layer 30"><path class="cls-1" d="M9.66,29a40.77,40.77,0,0,1,17-14.37,32.59,32.59,0,0,1,7.85-2.37,40.08,40.08,0,0,1,27.58,5.16,37,37,0,0,1,9.58,8.21A30.09,30.09,0,0,1,78.5,40.15c.3,1.66-.42,1.52-1.38.32A13.3,13.3,0,0,1,75.61,38a23,23,0,0,1-1.74-3.51,33,33,0,0,0-9.21-12A38.17,38.17,0,0,0,51,15.39a19.11,19.11,0,0,0-2.29-.55c-.77-.13-1.54-.36-2.33-.42a33.29,33.29,0,0,0-4.79-.27,38.77,38.77,0,0,0-9.53,1.26,30.21,30.21,0,0,0-4.94,1.76,24.74,24.74,0,0,0-2.33,1.23l-1.16.65-1.11.73a37.5,37.5,0,0,0-8,7,41.52,41.52,0,0,0-3.82,5.31A41,41,0,0,0,8,38,36.71,36.71,0,0,0,6.21,57.54a34,34,0,0,0,6.14,13.7c.31.45.66.87,1,1.29s.69.85,1.07,1.26c2.75,3.07,3.74,3.92,4,5.07a4.22,4.22,0,0,1,.15.76c0,.35-.42.32-1.14,0a12,12,0,0,1-1.32-.79c-.49-.37-1-.83-1.64-1.37A35,35,0,0,1,6,65.44a38.69,38.69,0,0,1-2.26-7.26A40.68,40.68,0,0,1,3,50.54,39.88,39.88,0,0,1,4.74,39.28,41.68,41.68,0,0,1,9.6,29Z"/><path class="cls-1" d="M36.26,89.63A23.85,23.85,0,0,1,29,94a28.19,28.19,0,0,1-2.86,1.06c-.75.24-1.52.41-2.28.59l-1.15.24-.58.1-.72.13c-1.22.2-2.41.36-3.48.43s-2.47.3-2.48-.08c.55-.63,1.18-1.35,1.67-2l.71-.88.46-.8a4.82,4.82,0,0,0,.4-.78l.21-.5a14.91,14.91,0,0,0,.58-2.08c.39-1.82.41-3.71.73-5.58.09-.57.76-.52,1.42,0a3.24,3.24,0,0,1,1.13,2.75,22.29,22.29,0,0,1-1,4.78c-.14.39-.28.79-.45,1.17l-.23.51s0,0,0,0a2.9,2.9,0,0,0-.27.22l-.15.13s0,0,0,.06.07.07.15.11a1.06,1.06,0,0,0,.45,0l.15,0,.22,0,.44-.09.87-.2c1.15-.29,2.29-.66,3.41-1a24.87,24.87,0,0,0,6.88-3.47,8.16,8.16,0,0,0,.91-.74c.29-.27.61-.51.87-.79l1-1.15.31-.35s0-.06.08-.07l.1,0,.22,0,.86.17,1.05.19c.31,0,.61.11.92.15.61.1,1.22.17,1.83.24A30.28,30.28,0,0,0,45,86.7a27.74,27.74,0,0,0,5.55-.82l1.19-.31c1.48-.36,2-.34,2.49.25a3,3,0,0,1,.34.4c.3.47-.2,1.1-1.33,1.53a26.85,26.85,0,0,1-11,1.46,34.9,34.9,0,0,1-4.19-.48l-.48-.08-.1,0c-.06,0-.17-.05-.15,0h0l0,0-.18.21a6,6,0,0,1-.79.8Z"/><path class="cls-1" d="M81.91,46.81a35.85,35.85,0,0,0-7,2.91,35,35,0,0,0-6.17,4.44A31.24,31.24,0,0,0,63.81,60,31.72,31.72,0,0,0,58.7,77.76a30.18,30.18,0,0,0,22.65,28.95,32.82,32.82,0,0,0,8.78,1c.74,0,1.48,0,2.21-.1s1.48-.09,2.21-.23l1.1-.17.84-.13.43-.06.21,0c.06,0,.1.1.15.15l1,1.13a6.32,6.32,0,0,0,.77.69,15.45,15.45,0,0,0,6.79,3,28.38,28.38,0,0,0,3.8.47l.61,0h1.08l-.05-.08a6.17,6.17,0,0,1-.39-.6l-.17-.33-.18-.36c-.08-.15-.14-.3-.21-.44a13.22,13.22,0,0,1-1.08-3.75c-.13-1.15,0-1.72.26-1.81s.49.29.84,1,.82,1.64,1.5,2.71c.17.27.35.54.55.83l.3.43.16.22.29.43c.8,1.2,2.09,2.72,3.26,4.27-.3.06-.74.1-1.15.15l-1.25.14c-.44,0-.88.09-1.34.11l-1.46,0h-.73l-.68,0-.78,0c-.52-.05-1-.08-1.57-.16a24.41,24.41,0,0,1-3.12-.58,18.51,18.51,0,0,1-6-2.6,11,11,0,0,1-1.34-1,5.59,5.59,0,0,1-.62-.57l-.29-.32s0,0,0,0,0,0,0,0l-1.44.2c-1,.13-2.06.18-3.09.26s-2.06,0-3.1,0a35,35,0,0,1-12.12-2.64,32.07,32.07,0,0,1-10.3-6.91A35.4,35.4,0,0,1,61.36,95a34.85,34.85,0,0,1-3.31-6.81,33,33,0,0,1-1.69-15,34.8,34.8,0,0,1,2-8,32,32,0,0,1,3.83-7.35,35,35,0,0,1,2.55-3.27,38.69,38.69,0,0,1,3-2.89A33.92,33.92,0,0,1,74.56,47,35.73,35.73,0,0,1,94.2,43a32.46,32.46,0,0,1,3.8.53,17,17,0,0,1,1.87.46c.62.18,1.25.3,1.85.53A31.59,31.59,0,0,1,105.28,46c.58.28,1.16.55,1.73.85l1.64,1,.82.5.78.57,1.54,1.14,1.44,1.26a15.68,15.68,0,0,1,1.38,1.32L115.93,54c.42.48.8,1,1.2,1.49a33,33,0,0,1,6.48,14,31.63,31.63,0,0,1,.07,11.72,29.41,29.41,0,0,1-1.37,5,23,23,0,0,1-3.24,6.07,6.27,6.27,0,0,1-2.33,2.06,5.5,5.5,0,0,1-.93.39c-.4,0-.26-.48.26-1.47s1.4-2.49,2.38-4.46a29.63,29.63,0,0,0,2.48-19.34,30.12,30.12,0,0,0-10.3-17,29.34,29.34,0,0,0-6.37-4.07A30.66,30.66,0,0,0,100.75,47c-.6-.19-1.22-.33-1.83-.5L98,46.22c-.31-.07-.63-.11-.94-.17a32.58,32.58,0,0,0-15.13.82Z"/><path class="cls-1" d="M92.42,62.25a1.76,1.76,0,0,0-2.58.39c-.07,5.18,3.93,13.44,6,18.19,1.07-.16,1-.85,1-1.73C96.77,75.82,93.3,63,92.42,62.25Z"/><path class="cls-1" d="M81.82,65.23a1.85,1.85,0,0,0-2.55.55c.72,4.91,4.79,13.16,7.14,17.77,1.06-.22,1-.91.89-1.79C87,78.49,82.81,65.81,81.82,65.23Z"/><path class="cls-1" d="M47.14,46.37a7.53,7.53,0,0,0,2.17-5.14A6.85,6.85,0,0,0,49,39.15c-.58-2.36-3.2-4-5.93-3.73a7.39,7.39,0,0,0-3.42,1.1,8.79,8.79,0,0,0-3.08,3.38c-.25.42-.56.28-.71-.27a3,3,0,0,1,.52-2.47,8.92,8.92,0,0,1,10.46-3.1,8.36,8.36,0,0,1,3,2.06,7.3,7.3,0,0,1,1.69,3.26,10.59,10.59,0,0,1-1.18,7.52A10.61,10.61,0,0,1,47,50.2c-1.9,1.26-3.94,2.07-5.6,3.26A7.74,7.74,0,0,0,39.74,55a8.69,8.69,0,0,0-1.06,1.91c-.15.33-.27.67-.46,1-.71,1.24-1.18,1.49-2,1.29a3.05,3.05,0,0,1-.54-.14c-.56-.25-.64-1-.32-1.86.24-.67.45-1.33.79-2.07a8.38,8.38,0,0,1,1.49-2.31,16.56,16.56,0,0,1,4.16-3.08c2.08-1.16,4-2.09,5.25-3.43Z"/><path class="cls-1" d="M35.24,65.08l0,.19a1.72,1.72,0,0,1-2.33,1.24A1.88,1.88,0,0,1,32,63.33C33.39,61.8,35.49,63.26,35.24,65.08Z"/><path class="cls-1" d="M90.74,87.77c.07,1-.49,1.87-2.15,1.64a1.88,1.88,0,0,1-1.18-3.06C88.88,84.34,90.62,86.19,90.74,87.77Z"/><path class="cls-1" d="M99.78,84.84c0,1-.72,1.79-2.34,1.36A1.88,1.88,0,0,1,96.65,83C98.35,81.2,99.86,83.25,99.78,84.84Z"/><path class="cls-1" d="M74.7,106.63a31.44,31.44,0,0,0,9.47,3.05,29.6,29.6,0,0,0,3.64.29l1.62,0c.54,0,1.07,0,1.61-.07l1.62-.09c.54,0,1.07-.15,1.6-.22l1.84-.27c.25-.12.35.17.52.3l.37.39.54.57c.38.36.81.67,1.21,1s.89.57,1.34.86a16.62,16.62,0,0,0,5.37,1.76,35.63,35.63,0,0,0,7.3.22c.74,0,.71.3.1.72a6.34,6.34,0,0,1-3.33.83,22.49,22.49,0,0,1-7.76-1.32,15.53,15.53,0,0,1-3.57-1.85,17.48,17.48,0,0,1-1.55-1.3l-.69-.75,0-.06,0,0s-.08,0-.09,0a44.09,44.09,0,0,1-9.45.55,33.18,33.18,0,0,1-10.16-2.48c-.5-.22-1-.42-1.48-.64l-1.42-.77a24,24,0,0,1-2.74-1.69,32.84,32.84,0,0,1-7-6.68,35.61,35.61,0,0,1-3.94-6.31c-.24-.49-.47-1-.71-1.48-.71-1.92-.81-2.58-.61-3.09a1.34,1.34,0,0,1,.14-.34c.2-.25.68.45,1.22,1.8a34.88,34.88,0,0,0,7.1,11.1,28.79,28.79,0,0,0,8,5.94Z"/><path class="cls-1" d="M38.29,89.48l-.63-.12s-.06,0-.07,0l-.89.92a20.71,20.71,0,0,1-2.32,1.78,19.8,19.8,0,0,1-1.8,1.11,33.12,33.12,0,0,1-6.87,2.57c-1.05.27-2.09.55-3.14.79a18.6,18.6,0,0,1-4.08.67c-.86,0,.1-1.37,1.58-1.63a69.3,69.3,0,0,0,8-1.85,21,21,0,0,0,4.55-2.08,9.85,9.85,0,0,0,1.16-.73,8.67,8.67,0,0,0,1.11-.8c.34-.3.72-.56,1-.88L37,88.07l.12-.12.16,0,.34.06.51.09.85.14c.57.09,1.14.18,1.71.25a29.3,29.3,0,0,0,5.19.32,15.45,15.45,0,0,0,3.84-.74l.8-.29c1-.35,1.36-.41,1.71-.16a1.46,1.46,0,0,1,.24.17c.2.21-.14.6-.89,1A16.08,16.08,0,0,1,44,90.15a49.05,49.05,0,0,1-5.72-.64Z"/><path class="cls-2" d="M88.9,31.33a.79.79,0,0,1,.86-.71C91.91,30.82,88.68,33.6,88.9,31.33Z"/><path class="cls-2" d="M45.42,102.34a.79.79,0,0,1,.86-.71C48.43,101.83,45.21,104.6,45.42,102.34Z"/><path class="cls-1" d="M110.05,27.62a.67.67,0,0,1,.38.87C109.77,30.2,108.26,26.93,110.05,27.62Z"/></g></svg>