<svg xmlns="http://www.w3.org/2000/svg" width="128" height="128" viewBox="0 0 128 128"><defs><style>.cls-1{fill:#231f20;}.cls-2{fill:#221f1f;}</style></defs><title>Free Icons</title><g id="Layer_7" data-name="Layer 7"><path class="cls-1" d="M66.57,90.86l-1.1-.32c-.13,0-.26,0-.39-.05-.45-.16-.89-.38-1.33-.55a1.5,1.5,0,0,0-.6-.06c-.26,0-.55.17-.76-.15s.5-2.71.76-2.7a2.17,2.17,0,0,1,1.4.63c.27.25.59.16.89.24l1,.28c.2,0,.4.1.6.13a2.39,2.39,0,0,0,.88,0,.85.85,0,0,0,.46-.43.58.58,0,0,1,.05-.11c0-.06,0,.13.51.68l.32.38c.37.41.55.84.34,1.14a2.2,2.2,0,0,1-1.8,1,6.74,6.74,0,0,1-1.2-.07Z"/><path class="cls-2" d="M34.79,43.07a125.81,125.81,0,0,0,4.56,15c.91,2.45,2,4.84,3.07,7.19a68,68,0,0,0,3.82,6.77,37.39,37.39,0,0,0,7.35,8.38A22.67,22.67,0,0,0,62,85a15.17,15.17,0,0,0,9.33-.12,19.86,19.86,0,0,0,7.8-5.63A40.51,40.51,0,0,0,84.72,71a81.76,81.76,0,0,0,6.21-16.81,139,139,0,0,0,3.72-22.61c.13-1.16.15-1.6.31-1.62s.46.51.77,1.56a17.58,17.58,0,0,1,.63,4.31,35.61,35.61,0,0,1-.4,6.11,111.59,111.59,0,0,1-6,23.15,61,61,0,0,1-5.4,10.85A31.13,31.13,0,0,1,76.17,85a17.72,17.72,0,0,1-7.11,2.88,17.52,17.52,0,0,1-3.9.22,22.15,22.15,0,0,1-3.82-.69,26.71,26.71,0,0,1-3.64-1.29,28,28,0,0,1-3.34-1.88A31.28,31.28,0,0,1,51.29,82c-.91-.88-1.88-1.7-2.7-2.65a43.55,43.55,0,0,1-5-6.55,64.42,64.42,0,0,1-3.91-7.15,105.19,105.19,0,0,1-5.66-15.16,163.26,163.26,0,0,1-4.34-19.35l-.24-1.49L29.39,29c0-.12,0-.29-.1-.37l-.41-.17-.75-.32c-.5-.21-1-.41-1.52-.6a22.07,22.07,0,0,0-3.11-.92,10.91,10.91,0,0,0-3.1-.24,5.36,5.36,0,0,0-2.77.9c-1.63,1-2.37,3.17-2.71,5.21a18.26,18.26,0,0,0,.28,6.37,38.09,38.09,0,0,0,4,10.41,52.64,52.64,0,0,0,6.34,9.16A39.54,39.54,0,0,0,29,61.92,23.59,23.59,0,0,0,34,65.54c1.16.59,1.82.82,2.46,1.13.29.14.7.17.93.29s.2.21,0,.38a2.63,2.63,0,0,1-1.32.48,8.67,8.67,0,0,1-5.46-1.58,34,34,0,0,1-7.93-7.19,54.12,54.12,0,0,1-6-9,40.94,40.94,0,0,1-3.94-10.4,23.61,23.61,0,0,1-.54-5.79,13.8,13.8,0,0,1,1.52-6,7.66,7.66,0,0,1,3.86-3.51,10.36,10.36,0,0,1,4.89-.59,20.41,20.41,0,0,1,4.36,1c.69.23,1.36.5,2,.77l1,.42,1.75.72A14.83,14.83,0,0,1,32,28.56l.18,1.08.32,1.93c.22,1.28.45,2.57.7,3.84q.75,3.84,1.68,7.63Z"/><path class="cls-2" d="M107.42,51.94a43.55,43.55,0,0,0,4.09-8.72,33.54,33.54,0,0,0,.82-3.36,18.45,18.45,0,0,0,.39-6,10.56,10.56,0,0,0-.73-2.82,8.73,8.73,0,0,0-.7-1.18,4.6,4.6,0,0,0-1-.93,5.1,5.1,0,0,0-2.28-.87,9.88,9.88,0,0,0-2.6.08,17.43,17.43,0,0,0-3.34.91c-.55.18-1.1.4-1.65.6a7.39,7.39,0,0,1-1.75.49c-.91,0-.77-.23-.43-1a4.42,4.42,0,0,1,2.59-2.33,21,21,0,0,1,3.85-1,10.84,10.84,0,0,1,4.24.06,7.73,7.73,0,0,1,2.14.81l1,.67a9.08,9.08,0,0,1,.81.83c.12.15.26.29.37.44l.29.48a10.44,10.44,0,0,1,.55,1,10.27,10.27,0,0,1,.67,2,17.11,17.11,0,0,1,.51,4.87,22.28,22.28,0,0,1-.63,4.78,41,41,0,0,1-3.83,9.56,57.38,57.38,0,0,1-3.29,5.36,54.44,54.44,0,0,1-6,7.35,27.29,27.29,0,0,1-5.72,4.75,9.89,9.89,0,0,1-1.58.72,4.89,4.89,0,0,1-1.4.31,2.71,2.71,0,0,1-1-.07,1.22,1.22,0,0,1-1-.8,1.71,1.71,0,0,1-.16-.5c0-.26.23-.45.54-.58s.74-.23,1.29-.39a8.64,8.64,0,0,0,2.46-1.21,20.19,20.19,0,0,0,2.39-1.85,44.64,44.64,0,0,0,4.44-4.56c1-1.22,2-2.52,3-3.81s1.84-2.69,2.63-4.1Z"/><path class="cls-2" d="M69,89l0-.13s.06-.17,0-.12l-.1,0h-.06l-.2,0a18.15,18.15,0,0,1-1.92.12c-1.24,0-2.46-.06-3.67-.16l-.51-.05,0,.4.15,1.39L62.91,92c.15,1,.3,2,.48,3,.34,2,.73,4,1.14,6.06.36,1.79.8,3.58,1.23,5.34a36.85,36.85,0,0,1,1.41,7c0,.93-.57.64-1.15.14a5.29,5.29,0,0,1-1.6-2.78c-1-4.61-2.09-9.28-2.78-14.07-.21-1.43-.47-2.88-.72-4.35-.12-.74-.26-1.47-.35-2.22l-.08-.56,0-.36-.05-.46L60.24,87c0-.19,0-.4,0-.57l1.88.23,1.5.14c.73.06,1.45.1,2.17.11a18.74,18.74,0,0,0,2.13-.06,4.35,4.35,0,0,0,.52-.06,2.34,2.34,0,0,0,.87-.24c.32-.15.61-.26,1-.45s.73-.38,1-.54l.06.14a.24.24,0,0,1,0,.2c-.2,2.37-.39,4.75-.59,7.13-.24,3-.51,6-.68,9-.13,2.32-.14,4.61-.2,6.91,0,.5,0,1,0,1.51-.09,1.89-.28,2.48-.87,2.85a2.91,2.91,0,0,1-.41.24c-.45.15-.76-.65-.8-2-.1-4.12.14-8.45.43-12.79.24-3.2.49-6.42.73-9.64Z"/><path class="cls-2" d="M66.14,114.38A12.55,12.55,0,0,0,60.92,116a9.7,9.7,0,0,0-1.55,1.2,4.71,4.71,0,0,0-.91,1.07,1.84,1.84,0,0,0-.24.55.58.58,0,0,0,0,.31c-.09.52,1.7.31,3,.15,1.13-.14,2.26-.36,3.42-.5a9.31,9.31,0,0,1,2.31-.08,3,3,0,0,1,2.25,1.16c.29.52-.08.52-.53.44s-1,.06-1.66,0a20.69,20.69,0,0,0-4.1.45c-.72.13-1.46.26-2.23.35a9.25,9.25,0,0,1-1.19.09,4.58,4.58,0,0,1-.64,0l-.34,0c-.1,0-.34,0-.48-.08a1.92,1.92,0,0,1-1.5-1.24l-.09-.43V119a2.71,2.71,0,0,1,.1-.79c.06-.22.16-.43.24-.64s.2-.38.31-.57a7.45,7.45,0,0,1,1.62-1.77,13.33,13.33,0,0,1,5.83-2.62,14.27,14.27,0,0,1,3.91-.22,13.81,13.81,0,0,1,5.61,1.76,15,15,0,0,1,3.65,2.66,9.35,9.35,0,0,1,.67.73,2.92,2.92,0,0,1,.63,1.16,1.05,1.05,0,0,1,0,.73,2.51,2.51,0,0,1-.13.28c-.15.24-.7,0-1.36-.5a22.28,22.28,0,0,0-6-4,11.44,11.44,0,0,0-5.29-.73Z"/><path class="cls-2" d="M58.06,120.84c1,.53-11.7.1-9.76-1.54,3.89-3.31,9.65-2.08,9.76-2.65C58.06,116.65,57.39,119.59,58.06,120.84Z"/><path class="cls-1" d="M63.62,40.52c.06-.56.57-1,1.35-1,.25,0,.59.52.65.58a4.1,4.1,0,0,1,0,.82c0,.12-.76,2.92-1.11,4-.07.22-.15.45-.25.69l-.09.19-.15.28a4.86,4.86,0,0,1-.33.54,2.81,2.81,0,0,1-.9.82,2.5,2.5,0,0,1-1.18.24l-.54,0c-.46,0-.83,0-1.25,0H59a0,0,0,0,0,0,0h0a.28.28,0,0,0-.12,0c-.06,0-.08,0-.08.08a.14.14,0,0,0,0,.06l0,0,.09.07a15.26,15.26,0,0,0,1.76,1.16l.61.33a5.51,5.51,0,0,1,.69.28,1.18,1.18,0,0,1,.37.34,1.63,1.63,0,0,1,.32.8,3.77,3.77,0,0,1-.16,1.35,7.22,7.22,0,0,1-.2.74l-.12.42c-.34,1.12-.73,2.18-.84,2.42l-.41.87-.18.4c0,.06-.05.12-.06.13h0l-.25,0L59.94,57c-.21,0-.22-.06-.34-.06a.71.71,0,0,0-.29,0c-.05,0,0,.05-.06-.06a.13.13,0,0,0-.07-.06l0,0-1-.81h0l.07-.06a8.17,8.17,0,0,1,1-.73l.86-.54a1.33,1.33,0,0,1,.51-.27,2.27,2.27,0,0,0,1.11-.54A16.16,16.16,0,0,1,63.14,53a3.25,3.25,0,0,1,.84-.23c.26-.06.36.32.32.4-.14.24.12.27.23.38a.57.57,0,0,1,.1.13c0,.08-2.19,2.45-2.45,2.66l-.6.49a13.27,13.27,0,0,0-1.11,1l0,0h0l-.06,0,0,0h0c-.12-.1.14.11.1.1a1.51,1.51,0,0,1-.81.49,1.21,1.21,0,0,1-.34,0,1.51,1.51,0,0,1-.84-.27,1.54,1.54,0,0,1-.63-1.08,1,1,0,0,1,0-.25c0-.21,0-.19,0-.25l0-.21.13-.53L58.2,55l.27-1a3.69,3.69,0,0,1,.32-.77,5.41,5.41,0,0,0,.18-.62l.15-.59c0-.15,0-.11,0-.14v0c-.05-.07-.14,0-.12,0l-.16-.11-.27-.16-.52-.34a3.94,3.94,0,0,1-.92-.81l-.09-.09-.17-.14L56.52,50a7.5,7.5,0,0,1-2.24-2.28A2.42,2.42,0,0,1,54,46.63a2,2,0,0,1,.13-.59,2.31,2.31,0,0,1,.31-.46l.22-.16a5.23,5.23,0,0,1,2.93-.92,5.14,5.14,0,0,1,.68,0H59c.42,0,.83,0,1.24,0l.62,0h.36a.16.16,0,0,0,.22-.09.58.58,0,0,0,.07-.14,4.73,4.73,0,0,0,.2-.5c.12-.29,1-1.8,1.12-2.23C62.93,41.35,63.6,40.75,63.62,40.52Z"/><path class="cls-2" d="M60.51,59a7.68,7.68,0,0,1-1.74,1.13,1.72,1.72,0,0,1-1.86-.28,2.22,2.22,0,0,1-.43-1.95,11.05,11.05,0,0,1,.36-1.7c.24-.89.53-1.74.83-2.59l.46-1.26a4,4,0,0,1,.23-.57c0-.06-.1-.09-.15-.13l-.72-.4a11.93,11.93,0,0,1-3.81-3,6.58,6.58,0,0,1-.38-.54,3.15,3.15,0,0,1-.44-.88,4.57,4.57,0,0,1-.23-.86,1.15,1.15,0,0,1,.41-.74,2.45,2.45,0,0,1,.8-.43,6.9,6.9,0,0,1,.92-.21c.43-.06.84-.09,1.25-.12.82,0,1.62,0,2.42,0a16,16,0,0,1,1.92.15l.15-.28.39-.74.78-1.46c.53-1,1.06-1.94,1.65-2.9.17-.27.31-.49.52-.79a3,3,0,0,1,.88-.89,1.76,1.76,0,0,1,1.75.56,5.9,5.9,0,0,1,.52.61c.15.2.26.39.4.59.5.78.93,1.56,1.36,2.33l1,1.81.53.88.1.16.06.08a1.26,1.26,0,0,0,.11.17l.24-.07.46-.12a12.56,12.56,0,0,1,1.25-.25,7.34,7.34,0,0,1,2.65,0c.58.14.79.46.67.57a2.79,2.79,0,0,1-.81.35,32.81,32.81,0,0,1-3.61,1.26c-.47.12-1.13.33-1.7.5l-1.09-1.8L68,44l-1.14-2.1c-.37-.69-.74-1.38-1.13-2a3.44,3.44,0,0,0-.29-.42.79.79,0,0,0-.14-.17v0a0,0,0,0,0,0,0s0,0-.12.12-.35.53-.52.81c-.34.56-.68,1.13-1,1.71l-1,1.76-.49.89-.27.49-.41.79-.19.36-1.2-.15L59.36,46Q58.68,46,58,46a18.31,18.31,0,0,0-2.68.11l-.32,0-.15,0-.21.07c-.07,0-.15.08-.13.16l.1.21a6.52,6.52,0,0,0,.57.79,8.51,8.51,0,0,0,.91.89,11.84,11.84,0,0,0,1.8,1.27l1,.56c.2.1.52.3.77.46a6.54,6.54,0,0,1,.7.55l-.56,1.45-.34.92c-.23.6-.44,1.22-.64,1.83s-.38,1.23-.53,1.84l-.08.35,0,.22a.94.94,0,0,0,0,.44.3.3,0,0,0,.38.1A1.5,1.5,0,0,0,59,58c.07,0,.35-.27.58-.47s.47-.41.7-.63c.92-.87,1.81-1.8,2.7-2.72L64.2,52.9l.75.61.66.52,1,.78c.69.51,1.39,1,2.11,1.47a21.74,21.74,0,0,0,2.19,1.26,8.22,8.22,0,0,0,1.13.47,3.11,3.11,0,0,0,.56.15,1.36,1.36,0,0,0,.39,0,.58.58,0,0,0,.29-.09.49.49,0,0,0,.13-.28,1.6,1.6,0,0,0,0-.31,4.38,4.38,0,0,0,0-.5,9,9,0,0,0-.58-2,13.54,13.54,0,0,0-1-1.89c-.18-.3-.38-.59-.59-.88l-.93-1.32a4.21,4.21,0,0,1,.88-1.19c.2-.22.29-.29.43-.43s.27-.24.41-.34a6.36,6.36,0,0,1,2.53-1.26,1.8,1.8,0,0,1,1.3.14,2.11,2.11,0,0,1,.4.24c.27.35-.69.63-2.08,1.42a7.51,7.51,0,0,0-1.43,1.07l-.16.15-.08.08,0,0-.06.09c-.05.05,0,.09,0,.13a4.87,4.87,0,0,1,.45.62c.21.3.4.61.59.93a15.47,15.47,0,0,1,1,2,10.22,10.22,0,0,1,.59,2.27c0,.21,0,.41,0,.64a4.14,4.14,0,0,1-.11,1,1.75,1.75,0,0,1-1.31,1.27,3.8,3.8,0,0,1-1.77-.08,8.6,8.6,0,0,1-1.15-.41,18.76,18.76,0,0,1-2-1c-.94-.56-1.83-1.16-2.7-1.78S64,55,64.36,55.21h0l-.07.07-.27.29-1.11,1.14c-.75.76-1.49,1.52-2.35,2.26Z"/><path class="cls-2" d="M16.37,64.06s0-.11.06-.16a.13.13,0,0,1,.1,0l.07.09.15.44c0,.1.05.21.08.31s.09.44.13.65a.77.77,0,0,1,0,.15,2.78,2.78,0,0,0,.08.49s0,.06,0,.08a4.44,4.44,0,0,1,.12.55l0,.44a.07.07,0,0,1,0,.06.22.22,0,0,0,0,.14c0,.06,0,.12,0,.19a.29.29,0,0,1,0,.09,0,0,0,0,1-.06,0s0,0-.05,0h0a3.52,3.52,0,0,1-.17-.38s-.13-.52-.15-.57,0-.07,0-.1-.11-.42-.11-.44a1.09,1.09,0,0,1,0-.26s0,0,0,0a3.39,3.39,0,0,1-.08-.44,1.89,1.89,0,0,0,0-.23V65c0-.18-.07-.36-.12-.53a2.85,2.85,0,0,0,0-.29S16.38,64.09,16.37,64.06Z"/><path class="cls-2" d="M15.15,66.19c-.05,0-.11,0-.17-.06a.13.13,0,0,1,0-.1.39.39,0,0,1,.1-.08l.46-.14a3,3,0,0,1,.32-.09l.67-.14.15,0a3,3,0,0,0,.52-.08s.06,0,.08,0a3.38,3.38,0,0,1,.57-.12l.46,0h.06a.22.22,0,0,0,.14,0l.2,0,.1,0s0,0,0,.06,0,0,0,0,0,0,0,0a4,4,0,0,1-.4.17l-.6.15h-.09l-.46.12a1.26,1.26,0,0,1-.27,0H17c-.15,0-.31.06-.46.09l-.24,0h-.09c-.19,0-.38.07-.56.12l-.3,0S15.18,66.17,15.15,66.19Z"/><path class="cls-2" d="M15.48,64.86c-.05,0-.07-.07-.06-.16s0-.08.06-.08h.1l.39.19c.09,0,.17.1.26.15l.51.34.11.08a2.51,2.51,0,0,0,.37.27l.07,0a2.89,2.89,0,0,1,.44.27,4,4,0,0,0,.31.27l0,0a.16.16,0,0,0,.09.09l.13.11a.22.22,0,0,1,.05.08s0,0,0,0,0,0,0,0h0a2.28,2.28,0,0,1-.36-.13s-.42-.25-.47-.28a.18.18,0,0,1-.07-.05L17,66a1.49,1.49,0,0,1-.2-.15l0,0a4.15,4.15,0,0,1-.34-.24l-.18-.12,0,0s0,0,0,0-.27-.19-.42-.27-.17-.15-.21-.17S15.51,64.86,15.48,64.86Z"/><path class="cls-2" d="M16.08,67.06s-.07.07-.15,0a.13.13,0,0,1-.08-.06s0-.07,0-.1l.2-.36a1.88,1.88,0,0,1,.16-.23l.34-.46.09-.1a3.17,3.17,0,0,0,.28-.34s0,0,0-.06a3.35,3.35,0,0,1,.29-.4c.09-.08.18-.18.27-.27s0,0,0,0a.18.18,0,0,0,.1-.07.43.43,0,0,1,.11-.12l.08,0s0,0,0,0,0,0,0,0a0,0,0,0,0,0,0,2.23,2.23,0,0,1-.14.34l-.29.43-.05.06-.22.33a.83.83,0,0,1-.15.17s0,0,0,0l-.25.3-.12.16,0,0,0,0c-.09.13-.2.25-.28.38s-.15.15-.17.19S16.09,67,16.08,67.06Z"/><path class="cls-2" d="M94.28,83.37s0-.08.06-.13a.11.11,0,0,1,.08,0l.06.07s.08.25.11.33a1.05,1.05,0,0,1,.06.24c0,.16.07.33.11.49s0,.07,0,.11a2.5,2.5,0,0,0,.06.38s0,0,0,.06a2.71,2.71,0,0,1,.09.41l0,.34s0,0,0,0a.12.12,0,0,0,0,.1s0,.1,0,.14A.24.24,0,0,1,95,86s0,0,0,0,0,0,0,0h0s-.13-.26-.14-.28l-.11-.44a.2.2,0,0,1,0-.07s-.09-.32-.09-.34a.62.62,0,0,1,0-.19s0,0,0,0l-.06-.34,0-.17v0s0,0,0,0,0-.28-.08-.41,0-.18,0-.22S94.29,83.39,94.28,83.37Z"/><path class="cls-2" d="M93.37,85s-.09,0-.13,0a.1.1,0,0,1,0-.09l.07,0,.35-.12a1.14,1.14,0,0,1,.25-.06l.51-.11h.11a2.26,2.26,0,0,0,.39-.07l.07,0a2.72,2.72,0,0,1,.43-.09l.34,0s0,0,.05,0,.08,0,.11,0l.15,0,.08,0s0,0,0,0,0,0,0,0v0a1.42,1.42,0,0,1-.3.13l-.45.12h-.07l-.35.09a.71.71,0,0,1-.21,0h0a2,2,0,0,1-.35.06l-.17,0h-.08c-.14,0-.28,0-.42.08l-.23,0S93.39,85,93.37,85Z"/><path class="cls-2" d="M93.62,84c-.05,0-.06,0-.05-.12s0-.07.05-.07h.08l.3.14.19.12.39.25a.27.27,0,0,1,.08.07,1.87,1.87,0,0,0,.29.2s0,0,0,0a1.67,1.67,0,0,1,.33.21l.24.21s0,0,0,0,0,0,.06.07a.39.39,0,0,1,.1.08.21.21,0,0,1,0,.06s0,0,0,0,0,0,0,0v0l-.28-.1-.36-.21,0,0-.28-.16a.49.49,0,0,1-.14-.11l0,0-.26-.19-.13-.09a0,0,0,0,1,0,0l0,0c-.11-.07-.21-.15-.32-.21a1.83,1.83,0,0,1-.16-.13S93.63,84,93.62,84Z"/><path class="cls-2" d="M94.08,85.65s0,0-.12,0-.07,0-.07-.06a.25.25,0,0,1,0-.08l.15-.27a.94.94,0,0,1,.12-.18l.26-.35.06-.07a1.88,1.88,0,0,0,.22-.26.05.05,0,0,0,0,0,1.66,1.66,0,0,1,.22-.3l.21-.21,0,0s0,0,.07,0a.38.38,0,0,1,.09-.09.09.09,0,0,1,.06,0s0,0,0,0,0,0,0,0h0a1.72,1.72,0,0,1-.1.26,3.76,3.76,0,0,0-.22.33s0,0,0,0l-.17.26a1.27,1.27,0,0,1-.11.13l0,0a2,2,0,0,1-.18.23.64.64,0,0,0-.1.13h0s0,0,0,0l-.22.29-.13.14Z"/><path class="cls-2" d="M87.83,7.09s0-.09,0-.13a.08.08,0,0,1,.08,0L88,7a3.12,3.12,0,0,1,.11.33,2.17,2.17,0,0,1,.07.24c0,.17.06.33.1.49a.45.45,0,0,1,0,.11,2.32,2.32,0,0,0,.06.38s0,0,0,.06a2.59,2.59,0,0,1,.09.42l0,.33s0,0,0,.05a.12.12,0,0,0,0,.1c0,.05,0,.1,0,.15s0,.05,0,.07-.05,0-.05,0,0,0,0,0h0a2.43,2.43,0,0,1-.14-.28L88.15,9a.17.17,0,0,1,0-.07s-.08-.32-.09-.33a.68.68,0,0,1,0-.2s0,0,0,0L88,8.06a1,1,0,0,0,0-.17v0a.06.06,0,0,0,0,0c0-.14,0-.27-.08-.41s0-.18,0-.21S87.84,7.1,87.83,7.09Z"/><path class="cls-2" d="M86.91,8.7s-.09,0-.13,0a.08.08,0,0,1,0-.08l.07-.06.35-.12a2.27,2.27,0,0,1,.25-.06l.51-.11h.11a2.57,2.57,0,0,0,.4-.07.07.07,0,0,0,.06,0A2.72,2.72,0,0,1,88.94,8l.35,0h0a.12.12,0,0,0,.1,0h.23s0,.05,0,.05,0,0,0,0h0l-.29.14-.46.11h-.07l-.35.09a.69.69,0,0,1-.2,0h0l-.35.06-.17,0h-.08l-.42.09-.22,0S86.93,8.69,86.91,8.7Z"/><path class="cls-2" d="M87.16,7.69s-.06-.05,0-.12,0-.07,0-.07h.08l.3.15a1.18,1.18,0,0,1,.19.11l.39.25a.27.27,0,0,1,.08.07,3.06,3.06,0,0,0,.29.21l.05,0a2.3,2.3,0,0,1,.33.21l.24.21,0,0s0,.05.06.07l.11.09,0,.06s0,0,0,0,0,0,0,0h0A1.3,1.3,0,0,1,89,9l-.37-.21,0,0-.27-.16a.53.53,0,0,1-.15-.11l0,0-.26-.18a1,1,0,0,0-.13-.09l0,0,0,0c-.11-.07-.21-.15-.32-.21a1.83,1.83,0,0,1-.16-.13S87.17,7.7,87.16,7.69Z"/><path class="cls-2" d="M87.62,9.36c0,.05-.05.05-.12,0a.13.13,0,0,1-.07-.05s0-.06,0-.08A2,2,0,0,1,87.59,9a.57.57,0,0,1,.12-.18c.09-.12.17-.24.26-.35L88,8.39a1.31,1.31,0,0,0,.22-.25s0,0,0-.05a2.86,2.86,0,0,1,.22-.3l.21-.21,0,0s0,0,.07-.06l.09-.09s0,0,.06,0,0,0,0,0,0,0,0,0h0a1.72,1.72,0,0,1-.1.26L88.72,8l0,.05s-.16.24-.17.25a.45.45,0,0,1-.11.13l0,0a2.15,2.15,0,0,1-.18.24.54.54,0,0,0-.09.12l0,0,0,0-.22.29-.13.14S87.63,9.35,87.62,9.36Z"/><path class="cls-2" d="M87.75,21.26c1.24.29,2.47.59,3.72,1a13.09,13.09,0,0,1,2.85,1.15,2.44,2.44,0,0,1,.89.89,1.44,1.44,0,0,1,.16,1.2,2.85,2.85,0,0,1-1,1.48A7,7,0,0,1,92.45,28l-.56.2-.34.1-.67.19c-.45.12-.89.22-1.33.32-1.77.38-3.52.63-5.28.83-2.19.26-4.39.5-6.58.61a164.48,164.48,0,0,1-23.18-.55c-3.41-.33-6.84-.71-10.21-1.25a44.32,44.32,0,0,1-12.71-3.58c-1.24-.64-.84-1,.4-1a24.9,24.9,0,0,1,5.69.78,141.28,141.28,0,0,0,26.07,3.48A119.56,119.56,0,0,0,80,27.75c2.38-.19,4.76-.44,7.09-.84a34,34,0,0,0,3.42-.74l.7-.22.35-.13a1.31,1.31,0,0,0,.62-.44c0-.06.07-.12.06-.18a.35.35,0,0,0-.12-.15,2.11,2.11,0,0,0-.33-.18,8.26,8.26,0,0,0-.84-.3,92.67,92.67,0,0,0-10.74-2.31c-5.51-.9-11.1-1.59-16.63-2a106.33,106.33,0,0,0-12.75,0c-.93.05-1.83.13-2.75.22-3.44.34-4.45.58-5.31.34a5.68,5.68,0,0,1-.58-.13c-.46-.18.82-1.15,3.43-1.77a51.2,51.2,0,0,1,11.9-1.19c4,0,8.11.25,12.18.63a163.73,163.73,0,0,1,18,2.79Z"/></g></svg>