<svg xmlns="http://www.w3.org/2000/svg" width="128" height="128" viewBox="0 0 128 128"><defs><style>.cls-1{fill:none;stroke:#231f20;stroke-miterlimit:10;}.cls-2{fill:#231f20;}</style></defs><title>Free Icons</title><g id="Layer_9" data-name="Layer 9"><path class="cls-1" d="M26.63,19.57a1.21,1.21,0,0,1,1.56-1C31.44,19.8,25.57,23.69,26.63,19.57Z"/><path class="cls-2" d="M36.37,22.47a1.22,1.22,0,0,1,1.55-1C41.18,22.7,35.31,26.59,36.37,22.47Z"/><path class="cls-1" d="M103,112.16a1.22,1.22,0,0,1-1.84.09C98.9,109.59,105.93,109.1,103,112.16Z"/><path class="cls-1" d="M104.39,25.12a1.23,1.23,0,0,1-.21,1.83C101.2,28.73,101.84,21.72,104.39,25.12Z"/><path class="cls-2" d="M91.68,107.56a1,1,0,0,1-1.48.08C88.42,105.51,94,105.12,91.68,107.56Z"/><path class="cls-2" d="M98.25,28.94a1,1,0,0,1-.17,1.47C95.7,31.83,96.21,26.22,98.25,28.94Z"/><path class="cls-2" d="M42.94,32.63a14.31,14.31,0,0,1,.36-4.38,18.1,18.1,0,0,1,1.58-4,21.91,21.91,0,0,1,5.47-6.36,20.55,20.55,0,0,1,5.26-3.14,19.9,19.9,0,0,1,20.14,3.71,16.16,16.16,0,0,1,5,7.92,19.15,19.15,0,0,1,.57,6,11.48,11.48,0,0,1-.57,3c-.29,1-.65,1.84-1,2.72-.37,1.1-.58.94-.72-.14a39.74,39.74,0,0,1,.13-5,19.6,19.6,0,0,0-.49-5.42,14.14,14.14,0,0,0-2.21-4.77A17,17,0,0,0,54.6,17.78a20.37,20.37,0,0,0-5.83,4.79,15.23,15.23,0,0,0-3.37,6.66,12.11,12.11,0,0,0,0,4.57,15.48,15.48,0,0,0,1.46,4.43,12.24,12.24,0,0,0,4.79,5,17.84,17.84,0,0,0,6.79,2.15,43.67,43.67,0,0,0,11.17-.49c.41,0,.83-.11,1.27-.15s1.4-.12,1.83.4a1.29,1.29,0,0,1,.16.18c.42.58.54.8.72,1.09s.32.54.44.78a8,8,0,0,1,.55,1.23,3.16,3.16,0,0,1,.19.9,2.57,2.57,0,0,1-.13.72,2.3,2.3,0,0,1-.19.53c-.21.29-1-.56-2.22-2.43l-.49-.71-.25-.36c-.1-.13-.08-.08-.12-.13s-.17,0-.24,0l-1,.13-2.35.32a48.61,48.61,0,0,1-4.9.38,26.25,26.25,0,0,1-10.15-1.55,14.87,14.87,0,0,1-6.91-5.37,15.82,15.82,0,0,1-2-4,19.61,19.61,0,0,1-.57-2.09c-.09-.35-.14-.71-.21-1.06l-.13-1.11Z"/><path class="cls-2" d="M36.07,74.77a14.53,14.53,0,0,0-6.76-1.72,18.64,18.64,0,0,0-7,1.28,20.42,20.42,0,0,0-4.61,2.58A16,16,0,0,0,11.93,84a11.46,11.46,0,0,0-.79,4.48,13.12,13.12,0,0,0,1,4.51,14.8,14.8,0,0,0,1,1.86,11,11,0,0,0,1.17,1.71,15.07,15.07,0,0,0,3.13,2.71,19.35,19.35,0,0,0,4.86,2.25,21.51,21.51,0,0,0,5.29,1c1.12,0,1,.29.06.73a9.2,9.2,0,0,1-5.24.46,19.57,19.57,0,0,1-5.68-2.24A14.68,14.68,0,0,1,12,97.34a17.3,17.3,0,0,1-2.64-5.65,13.51,13.51,0,0,1-.09-6.29,17,17,0,0,1,3.26-6.74,21.06,21.06,0,0,1,21.35-7.21,17.61,17.61,0,0,1,2.37.86,16.24,16.24,0,0,1,2.19,1.24,16.88,16.88,0,0,1,3.69,3.36,17.88,17.88,0,0,1,3.51,6.61,14.69,14.69,0,0,1,.54,3.74A13.14,13.14,0,0,1,45.59,91a21.62,21.62,0,0,1-2.13,5.31,19,19,0,0,1-3.59,4.45,11,11,0,0,0-.77.81c-.11.14-.18.24-.15.39a1,1,0,0,0,.07.18,1.2,1.2,0,0,0,.15.3,2.58,2.58,0,0,0,.36.49,9.26,9.26,0,0,0,.79.69,3.61,3.61,0,0,1,.63.58,2.67,2.67,0,0,1,.35.63,1.78,1.78,0,0,1,.15.54c0,.22-.27.18-.79.15a2.86,2.86,0,0,1-1-.24,5.16,5.16,0,0,1-1.51-.89,4.12,4.12,0,0,1-1-1.3,3.94,3.94,0,0,1-.33-1,2.23,2.23,0,0,1,.11-1.06,3.12,3.12,0,0,1,.56-.93c.18-.2.34-.39.5-.54l.89-.9A16.75,16.75,0,0,0,41.71,95a18.84,18.84,0,0,0,1.78-4.43c.09-.39.21-.8.28-1.18a9.88,9.88,0,0,0,.16-1.11A10.81,10.81,0,0,0,43.87,86a14.93,14.93,0,0,0-2.62-6.45,14.6,14.6,0,0,0-5.2-4.69Z"/><path class="cls-2" d="M93.66,56.8a26.18,26.18,0,0,0,5,2.05c1.18.36,2.66,1,3.92.68a2.1,2.1,0,0,0,1.69-1.65,33.05,33.05,0,0,0,.75-6c.07-.91-2.12-.51-2.18.26-.09,1.17-.21,2.34-.37,3.51-.07.54-.14,1.07-.23,1.6-.06.36-.41,1.16,0,1-.47.23-2.41-.64-2.9-.8a24.72,24.72,0,0,1-4-1.72c-.65-.35-2.64.58-1.72,1.08Z"/><path class="cls-2" d="M57.61,103.77a13.28,13.28,0,0,0-5.39,1.69c-1.07.51-3.4,1.49-3.46,2.92s1.88,2.73,2.81,3.46A29.63,29.63,0,0,0,54.66,114c.76.46,3.26-.71,2.72-1a20.87,20.87,0,0,1-4.9-3.74c-.84-1-1.13-1.56,0-2.34a8.8,8.8,0,0,1,3.95-1.72c.89,0,3.13-1.37,1.2-1.35Z"/><path class="cls-2" d="M39.59,50.37a11.68,11.68,0,0,0,1.33-5.26c.1-1.33.24-3.12-1.31-3.59-2.54-.78-6.08,1.08-8.32,2.16-1.25.6-.14,1.75.91,1.24,1.73-.83,3.9-2,5.86-2,1.27,0,.86,1.76.77,2.67a10.07,10.07,0,0,1-.95,4.13c-.71,1.08,1.18,1.43,1.71.63Z"/><path class="cls-2" d="M98.37,64.34a20.86,20.86,0,0,1,8.23,1.26A19.35,19.35,0,0,1,113.65,70a16.89,16.89,0,0,1,3.48,5,20.94,20.94,0,0,1,2,10.28,15.11,15.11,0,0,1-1.31,5.14,13.44,13.44,0,0,1-3.13,4.26,15.91,15.91,0,0,1-8.33,3.86A17,17,0,0,1,95,96.46c-1-.65-.72-.8.32-.69s2.83.41,4.84.73a16.59,16.59,0,0,0,10.46-1.38,12.07,12.07,0,0,0,4-3.31A12.21,12.21,0,0,0,116.83,87c1-4.25-.38-9.07-2.74-12.86a17.2,17.2,0,0,0-12.33-7.35,16,16,0,0,0-9,1.29,12.33,12.33,0,0,0-5.12,4.51,16.39,16.39,0,0,0-2.26,6.57c-.43,3.61.9,7,2.53,10.31l.55,1.1.14.54,0,.14h0c-.06,0,.13,0-.13,0h0v.11l-.05.27a1.07,1.07,0,0,1-.24.52l-.36.48c-2,2.54-3.23,3-4.11,2.79a1.67,1.67,0,0,1-.57-.17c-.2-.15-.05-.39.27-.79s.81-1,1.51-1.81c.34-.4.67-.82,1-1.25l.12-.17,0-.06a.45.45,0,0,0,0-.1s0,0,0-.08L86.13,91c-.08-.1-.5-1-.78-1.58s-.6-1.33-.87-2a20,20,0,0,1-1.22-4.45,17.51,17.51,0,0,1,1.34-9.36,14.76,14.76,0,0,1,5.56-6.67,16.89,16.89,0,0,1,8.2-2.57Z"/><path class="cls-2" d="M27.78,66.2a38.2,38.2,0,0,1,10.91-21c.49-.49-1.8-.22-2.23.2A38.83,38.83,0,0,0,25.35,66.64c-.09.54,2.33.14,2.43-.44Z"/><path class="cls-2" d="M80,106.79a36.37,36.37,0,0,1-24.61,1.44c-1-.26-3.41,1.14-1.77,1.6A41,41,0,0,0,81.15,108c1.85-.79.17-1.78-1.15-1.22Z"/><path class="cls-2" d="M84.26,41.33c6.39,3.49,11.54,7.92,14.9,14.47.32.63,2.47-.13,2.23-.59-3.39-6.61-8.58-11.15-15-14.68-.6-.33-2.48.58-2.09.8Z"/><path class="cls-2" d="M57.14,28.32a29.11,29.11,0,0,1,1.54,5.81c.2.94,1.64.54,1.45-.4a30.49,30.49,0,0,0-1.7-6.17c-.38-.88-1.67-.12-1.29.76Z"/><path class="cls-2" d="M62.16,27.67a22.3,22.3,0,0,1,1.22,4.84c.21.94,1.66.54,1.45-.4a23.89,23.89,0,0,0-1.38-5.2c-.41-.87-1.7-.11-1.29.76Z"/><path class="cls-2" d="M60.27,30.85a9.23,9.23,0,0,1,2.09-.57.75.75,0,0,0-.4-1.45,11,11,0,0,0-2.45.73c-.85.45-.09,1.75.76,1.29Z"/><path class="cls-2" d="M66.46,27.17c.4,1.23.76,2.48,1.13,3.72a.75.75,0,0,0,1.45-.4c-.37-1.24-.74-2.49-1.14-3.72-.3-.92-1.75-.52-1.44.4Z"/><path class="cls-2" d="M21.63,86.67c-1.63,1.94.2,5.73,2.79,5.59,1.58-.08,2.23-1.85,2.09-3.21-.19-1.71-1.37-3.4-3.24-3.33a2.5,2.5,0,0,0-2.08,4c.57.77,1.87,0,1.3-.76-.35-.48-.51-1,0-1.42a1.44,1.44,0,0,1,1.69,0c.74.56,1.34,2.5.43,3.18-.54.39-1.27-.34-1.57-.73-.45-.56-.89-1.56-.36-2.2s-.43-1.8-1.06-1.06Z"/><path class="cls-2" d="M27.67,86.29A29.14,29.14,0,0,1,29.29,89a.75.75,0,0,0,1.29-.76A29,29,0,0,0,29,85.53c-.57-.77-1.87,0-1.3.76Z"/><path class="cls-2" d="M30.1,83.86a41.74,41.74,0,0,0,2.1,4.37c.54.79,1.84,0,1.3-.76a38.22,38.22,0,0,1-2.11-4.37c-.44-.86-1.73-.1-1.29.76Z"/><path class="cls-2" d="M30.48,87.69l1.13-.49a.75.75,0,0,0,.27-1,.77.77,0,0,0-1-.27l-1.13.48a.76.76,0,0,0-.27,1,.77.77,0,0,0,1,.27Z"/><path class="cls-2" d="M96.32,82.64c1.4-2,2.34-4.26,3.65-6.31.52-.82-.78-1.57-1.3-.76-1.31,2.05-2.25,4.31-3.64,6.32-.55.79.75,1.54,1.29.75Z"/><path class="cls-2" d="M98.88,84.49a32.17,32.17,0,0,0,2.79-5.25c.44-.85-.85-1.61-1.3-.76-.85,1.64-1.4,3.48-2.55,5-.59.76.47,1.82,1.06,1.06Z"/><path class="cls-2" d="M97.58,80.12a10.26,10.26,0,0,0,1.6,1.09c.85.46,1.61-.83.76-1.29a8.13,8.13,0,0,1-1.3-.86.77.77,0,0,0-1.06,0,.75.75,0,0,0,0,1.06Z"/><path class="cls-2" d="M104.1,85.8c.46-1,1.19-1.91,1.7-2.91s-.86-1.63-1.3-.76S103.26,84,102.8,85c-.39.88.9,1.64,1.3.76Z"/><path class="cls-2" d="M77.7,108.63a33.61,33.61,0,0,1-20.72.84c-.71-.19-2.56.87-1.33,1.2a37.19,37.19,0,0,0,22.91-1.12c1.43-.51.13-1.28-.86-.92Z"/><path class="cls-2" d="M26.56,64.81c1.74-7.22,5.89-13.46,11-18.78.34-.35-1.28-.16-1.57.15-5.14,5.36-9.37,11.65-11.13,18.94-.08.35,1.61.12,1.72-.31Z"/><path class="cls-2" d="M86.25,41.34c5.79,3.22,10,8,13.32,13.66.3.51,1.79,0,1.42-.63-3.42-5.71-7.68-10.58-13.54-13.84-.51-.29-1.9.42-1.2.81Z"/><path class="cls-2" d="M57,14.56c-15.71,4-19.48,19-12.7,28.15,4.8,6.48,13,7.07,20.47,6.32l2.4-2.11s-15.84,2.36-20.71-7.78c0,0-4.27-5.4-1-13.12S57,14.56,57,14.56Z"/><path class="cls-2" d="M19.28,73.16C7,77,4.07,93,13.16,100.9a12.73,12.73,0,0,0,8.23,3.54l2.91-1.08s-10.18-2.92-12.08-8.31S8.6,81.41,19.28,73.16Z"/><path class="cls-2" d="M115.3,73.16c4.29,4.89,6.51,13.34,3.41,19.09-2.94,5.47-8.91,8.76-16.51,7.7L99.2,98s8.61,1.14,13.58-2.76C117.57,91.52,120.81,85.91,115.3,73.16Z"/></g></svg>