<svg xmlns="http://www.w3.org/2000/svg" width="128" height="128" viewBox="0 0 128 128"><defs><style>.cls-1{fill:#231f20;}.cls-2{fill:#242021;}</style></defs><title>Free Icons</title><g id="Layer_55" data-name="Layer 55"><path class="cls-1" d="M44.78,115.6c-6.41-1.47-.08-12.79,6.55-21.32a79.61,79.61,0,0,0,6.82-10.51l-2.59-1.85S50.17,90.83,47,94.26s-8,11.19-8.23,14.21S38.7,115.6,44.78,115.6Z"/><path class="cls-1" d="M94.86,110.79C80.54,110.16,46.2,66.23,46.2,66.23c3.08-1.4,6.78-7.31,6.78-7.31l-1.49-1.58s-5.19,7-9.27,7.68c0,0-1.09,0,.65,1.68S59.08,84.2,62,87.86s20.64,21.93,25.6,23.41c4.67,1.39,4.67,1.39,6,.4Z"/><path class="cls-1" d="M38.28,65.29A19.77,19.77,0,0,1,29.72,65l-1.51-.42c-.5-.14-1-.37-1.46-.55A24.07,24.07,0,0,1,22,61.3c-.7-.58-1.43-1.13-2.09-1.75a24.92,24.92,0,0,1-1.89-2,22.32,22.32,0,0,1-1.52-1.88,18.94,18.94,0,0,1-1.35-2l-.79-1.32c-.23-.46-.44-.93-.66-1.4a6.59,6.59,0,0,1-.55-1.44c-.13-.5-.26-1-.35-1.5s.06-.59.47-.16a9.29,9.29,0,0,1,1.58,2.2,28.33,28.33,0,0,0,7.07,9.49,20.45,20.45,0,0,0,6.37,3.65,18.43,18.43,0,0,0,8,1.07c.83-.1,1.66-.24,2.47-.42s1.61-.44,2.38-.79A19.92,19.92,0,0,0,47.47,59a15.67,15.67,0,0,0,3.28-4.72,11.72,11.72,0,0,0,.47-1.16c.54-1.46.69-1.92,1.19-2.17a3.18,3.18,0,0,1,.32-.16c.32-.1.5.64.18,1.86a16.75,16.75,0,0,1-6.67,9.2,20.81,20.81,0,0,1-8,3.53Z"/><path class="cls-1" d="M33.47,48.48c.16-.2.8-1,1.49-1.74s1.42-1.44,1.56-1.56,1.18-.93,1.29-1l.27-.2.27-.18.08,0s0-.07,0-.1V43.6l0-.16-.07-.51c0-.09-.14-1.32-.27-2.6a14.18,14.18,0,0,0-.58-2.78c-.07-.19-.26-.79-.49-1.39a14.62,14.62,0,0,0-.6-1.38c-.06-.14.27-.31.34-.21A9.38,9.38,0,0,1,37.5,36a19.31,19.31,0,0,1,.73,2c.24.77.39,1.47.4,1.53.14.52.26,1.06.36,1.59l.14.74.19,1,.11.5.18.75c0,.06.07.14,0,.18l-.16.12-.32.26-.42.35-.73.62a20.35,20.35,0,0,0-2,2c-.35.4-.68.82-1,1.23-.2.25-.44.46-.65.7s-.42.15-.71,0S33.35,48.63,33.47,48.48Z"/><path class="cls-1" d="M90.4,56c-5.14-1.2-14-7.35-17.52-7.35-1.43,0-.14,5.42.52,5.69s-2,.23-2.44-2.69a22,22,0,0,1,.51-6.92s6,4,8.6,4.74,11.84,5.25,11.84,5.25S91.05,56.15,90.4,56Z"/><path class="cls-1" d="M70.84,55.42s1,.26.63,1.92S65.78,70.6,65.78,70.6L64,68.12Z"/><path class="cls-1" d="M65.17,27.65c-.49,2.53-2.42,4.53-3.19,4.58-.4,0-1.08.17-1-.21-.37,1.24.46,3.72,1.73,2.5a17.22,17.22,0,0,0,1.95-2.47c1-1.5,4.43-3.77,3.53-5.84,0,0-1.24-2.77-4.48-.43A1.43,1.43,0,0,1,65.17,27.65Z"/><path class="cls-1" d="M97.26,42.73a24.44,24.44,0,0,0-3.79-3.67c-.51-.41-1-.78-1.57-1.17-1.87-1.37-3.84-2.62-5.85-3.81-.89-.52-1.8-1-2.7-1.52a25.44,25.44,0,0,1-3.42-2.06c-.33-.29-.2-.33.15-.22a9.92,9.92,0,0,1,1.63.65c2.38,1.22,4.84,2.38,7.16,3.83,1.39.87,2.88,1.71,4.27,2.66A28,28,0,0,1,97.44,41a14.1,14.1,0,0,1,2.12,2.78,7.23,7.23,0,0,1,.56,1.23,11.89,11.89,0,0,1,.36,1.26c.14.63.88,1,1.61,1.4a14.47,14.47,0,0,1,3.54,2,5.87,5.87,0,0,1,.67.65,2.14,2.14,0,0,1,.59,1.09,1.05,1.05,0,0,1-.07.64.91.91,0,0,1-.12.22c-.15.18-.51-.15-1-.63a7.47,7.47,0,0,0-2.54-1.9c-.5-.26-1-.48-1.62-.76a5.72,5.72,0,0,1-1.81-1.28A3.62,3.62,0,0,1,99,46a5.58,5.58,0,0,0-.4-1.12,10.09,10.09,0,0,0-1.35-2.12Z"/><path class="cls-1" d="M53.25,53.77a17.73,17.73,0,0,1-3.84,6.56,21,21,0,0,1-6,4.47c-.83.4-1.65.78-2.5,1.1a27.48,27.48,0,0,1-2.64.78,20.15,20.15,0,0,1-9.58-.31A23.17,23.17,0,0,1,20.23,62a27.77,27.77,0,0,1-5.65-6.21,20.5,20.5,0,0,1-3.57-10c-.08-1.11.15-1,.66-.14a16.12,16.12,0,0,1,.95,1.72,14,14,0,0,1,1.13,2.39,26.15,26.15,0,0,0,5.32,8.57,22.53,22.53,0,0,0,8.31,5.79l1.46.52a13.25,13.25,0,0,0,1.51.36,18.22,18.22,0,0,0,3.13.39c.52,0,1.05,0,1.57,0l.8,0c.26,0,.51-.08.77-.13l1.56-.27,1.51-.46A18.32,18.32,0,0,0,50.39,56a15.29,15.29,0,0,0,1.49-4,20.56,20.56,0,0,0,.45-4.29l0-.82-.08-.82c-.06-.54-.09-1.09-.17-1.63a24.53,24.53,0,0,0-3.58-9.14,24.59,24.59,0,0,0-7-7c-.63-.35-1.23-.74-1.88-1.05-2.41-1.18-3.19-1.26-3.67-2a3.13,3.13,0,0,1-.34-.45c-.11-.24.12-.39.69-.46a6.42,6.42,0,0,1,1.08,0c.41.08.89.2,1.43.36A20.72,20.72,0,0,1,47,30.21a27.29,27.29,0,0,1,5.47,8.51,22.8,22.8,0,0,1,.86,15.05Z"/><path class="cls-1" d="M37.13,43.5a.16.16,0,0,0,0-.09L37,42.57c-.13-.58-.27-1.17-.42-1.75s-.28-.84-.37-1.27c-.37-1.51-.75-3-1.19-4.53a19.71,19.71,0,0,0-.7-2,9.59,9.59,0,0,1-.85-2.5c0-.28.33-.39.79-.32A1.72,1.72,0,0,1,35.5,31a26,26,0,0,1,1.67,5.22c.22,1.08.67,2.13,1,3.22l.47,1.79.44,1.9.19.85a1.18,1.18,0,0,1,.06.4l-.38.22-.74.44-.51.31a15.82,15.82,0,0,0-2.66,2,16.46,16.46,0,0,0-1.62,2c-.11.15-.22.31-.34.45-.46.54-.7.63-1.19.4a3.31,3.31,0,0,1-.33-.15c-.34-.21-.4-.64-.14-1.13a13.17,13.17,0,0,1,3.28-3.84A17.57,17.57,0,0,1,36.26,44l.41-.26.35-.22h.06Z"/><path class="cls-1" d="M25.24,49.84,23,48.69c-.28-.14-.58-.22-.86-.36-1-.49-1.92-1.11-2.89-1.63-.43-.24-.88-.43-1.31-.66a7.53,7.53,0,0,1-1.61-1c-.15-.13,0-.3.22-.44a1.46,1.46,0,0,1,1-.16,14.9,14.9,0,0,1,1.79.56,13.84,13.84,0,0,1,1.69.82c.66.37,1.43.56,2.14.88l2.34,1,1.44.65c.74.32,1.46.67,2.21,1,.58.23,1.19.35,1.8.56l.4.13c.48.23.56.44.37,1,0,.12-.08.24-.13.36a.84.84,0,0,1-.89.52,12.56,12.56,0,0,1-3.12-1l-2.3-1.06Z"/><path class="cls-1" d="M92.21,96.16a38.09,38.09,0,0,1,3.45,4.67,12.91,12.91,0,0,1,2,5.81A6.07,6.07,0,0,1,97,110a7.47,7.47,0,0,1-3.87,3.11l-.86.18a7.87,7.87,0,0,1-.84,0,9.6,9.6,0,0,1-3.09-.62A28.13,28.13,0,0,1,81,108.39a94.66,94.66,0,0,1-10.74-9.83c-3.35-3.5-6.55-7.11-9.67-10.79-2.77-3.27-5.5-6.57-8.31-9.73C50.48,76,48.64,74,46.8,72s-3.66-4-5.53-5.86c-.14-.14-.25-.27-.35-.39s-.15-.16-.21-.23-.15-.24-.11-.3.5-.13,1.24.15a18.1,18.1,0,0,1,5.93,4.4c3.8,4.11,7.42,8.33,11,12.64s7.11,8.53,10.85,12.66c2.23,2.48,4.63,4.89,7.13,7.21a59.73,59.73,0,0,0,7.93,6.34,19.84,19.84,0,0,0,4.81,2.4,6.94,6.94,0,0,0,2.44.29A3.77,3.77,0,0,0,93,111a5.27,5.27,0,0,0,1-.65,4,4,0,0,0,1.64-4.18,13.19,13.19,0,0,0-2.19-4.79A52.23,52.23,0,0,0,89.2,96c-1.51-1.71-3.13-3.38-4.72-5-4.88-5-9.83-10.08-14.8-15-3.86-3.81-7.75-7.43-11.63-11.13l-2.56-2.42c-3.18-3.06-4-4.2-4.3-5.27a3,3,0,0,1-.17-.71c0-.28.38-.2,1.07.23A24.26,24.26,0,0,1,55,59c7.11,6.43,14.37,13.47,21.53,20.67q4,4,7.94,8.08c2.62,2.73,5.3,5.45,7.78,8.39Z"/><path class="cls-1" d="M88,53.67c-2.87-1.26-5.75-2.51-8.61-3.82-1.05-.48-2.12-.91-3.16-1.44a28.52,28.52,0,0,1-2.72-1.54A27.45,27.45,0,0,1,71,45,12.25,12.25,0,0,1,67.11,40a9.32,9.32,0,0,1-.57-2.86,11,11,0,0,1,.32-2.83,14,14,0,0,1,1.2-3.37A8.74,8.74,0,0,1,70.21,28c.62-.47.71-.15.58.53A11.36,11.36,0,0,1,70,31.4a23.88,23.88,0,0,0-1,3.05,9.06,9.06,0,0,0-.38,3,8.42,8.42,0,0,0,2.71,5.36,15.88,15.88,0,0,0,3.23,2.5,37.59,37.59,0,0,0,3.74,1.94c2.83,1.33,5.73,2.59,8.62,3.85l5.35,2.33c2.7,1.18,5.4,2.4,8.07,3.61,2.08.94,4.15,1.79,6.18,2.86.44.23.88.47,1.33.74,1.61,1,2,1.66,1.93,2.32a1.55,1.55,0,0,1-.09.41c-.21.33-.83,0-1.9-.61-1.63-1-3.47-1.83-5.34-2.7s-3.78-1.73-5.72-2.58L88,53.72Z"/><path class="cls-1" d="M99.32,43.94a15.91,15.91,0,0,0-5.18-5.69c-.79-.59-1.67-1.07-2.51-1.6a93.31,93.31,0,0,0-9.48-4.94c-1.44-.67-2.93-1.28-4.4-1.9A24.22,24.22,0,0,1,72.24,27c-.53-.4-.22-.7.46-.8a5.62,5.62,0,0,1,2.78.41c3.71,1.65,7.61,3.17,11.36,5.15,2.25,1.17,4.67,2.26,6.91,3.66a23,23,0,0,1,6.53,5.86,12.91,12.91,0,0,1,1.34,2.45c.19.42.3.88.45,1.32l.14.69.08.35c0,.1,0,.17,0,.25l0,.25,0,.24a1.19,1.19,0,0,0,.22.12l.7.35a19.28,19.28,0,0,1,1.7,1A19.07,19.07,0,0,1,108,50.71a16.43,16.43,0,0,1,3.63,5.19,11.54,11.54,0,0,1,.49,1.32,8.75,8.75,0,0,1,.22,1.09,4.36,4.36,0,0,1,0,.76,1.51,1.51,0,0,1-.46.88,3.47,3.47,0,0,1-.3.27c-.35.19-.72-.46-1.22-1.51a19.36,19.36,0,0,0-2.26-4.47,15.25,15.25,0,0,0-3.58-3.59,19.23,19.23,0,0,0-1.85-1.16l-.49-.25-.65-.32c-.15-.07-.35-.16-.51-.25a1.06,1.06,0,0,1-.35-.41l-.07-.11,0,0v0c.11-.08-.16.1-.13.08h0v0l-.09-.25-.18-.51a8.92,8.92,0,0,0-.32-1.92c-.09-.25-.15-.5-.25-.75L99.27,44Z"/><path class="cls-1" d="M71.36,43.26A8,8,0,0,1,71.82,46c.06,1.19.07,2.3.08,2.51s0,1.67,0,1.81,0,.57,0,1.12a3.84,3.84,0,0,0,.21,1.14.57.57,0,0,1,.06.17c.06,0,0,.06.23.21a14.17,14.17,0,0,0,1.71.91l3,1.51a11.74,11.74,0,0,1,1.52.91c.63.45,1.21,1,1.41,1.14s-.23.53-.35.46c-.49-.31-1-.58-1.51-.87a19.8,19.8,0,0,0-2.09-1c-.83-.35-1.59-.64-1.65-.66-.59-.18-1.19-.37-1.79-.59a8.49,8.49,0,0,1-.85-.35l-.31-.15-.16-.09L71.22,54a2,2,0,0,1-.55-.71,5.74,5.74,0,0,1-.43-1.36,16.57,16.57,0,0,1-.3-2.36l-.09-3.32c0-.61-.12-1.21-.14-1.79a3.81,3.81,0,0,1,0-1c0-.22.24-.47.42-.7s.31-.07.59.06A1.75,1.75,0,0,1,71.36,43.26Z"/><path class="cls-1" d="M45.19,117.23a6,6,0,0,1-3.41-.38,7.72,7.72,0,0,1-2.7-1.85,5.64,5.64,0,0,1-1.48-3,8.46,8.46,0,0,1,.09-3.18,16.22,16.22,0,0,1,1.44-4.12A27.41,27.41,0,0,1,41,101.45c.68-1,1.39-2,2.09-3l4.26-5.92c1.26-1.75,2.49-3.54,3.69-5.31a58.59,58.59,0,0,1,4.85-6.68c.57-.64.74-.39.64.42a8.92,8.92,0,0,1-1.27,3.56c-3.16,4.64-6.48,9.17-9.89,13.68a40.32,40.32,0,0,0-5.26,8.67,12.08,12.08,0,0,0-.76,2.56,6.1,6.1,0,0,0,0,2.52,4.82,4.82,0,0,0,3.36,3.36,4.31,4.31,0,0,0,3-.09,8.62,8.62,0,0,0,2.72-1.79A34,34,0,0,0,54.52,105c1.31-2.39,2.36-4.85,3.5-7.32.25-.54.5-1.07.78-1.61,1-2,1.61-2.55,2.33-2.65a2.25,2.25,0,0,1,.4-.11c.18,0,.18.2.14.64a5.29,5.29,0,0,1-.54,1.78,88.21,88.21,0,0,1-6.89,13.49,32.89,32.89,0,0,1-3.63,4.71,16,16,0,0,1-2.34,2,8.28,8.28,0,0,1-3.07,1.34Z"/><path class="cls-1" d="M63.34,67a18.19,18.19,0,0,1,1-1.61l1-1.52c.11-.19.66-1,.71-1.14l.49-.71c.25-.36.51-.76.58-.89s2.27-3.49,2.42-3.94c.13-.29,1.07-1.9,1.22-2.15,0-.07.57-.06.57.09a2.89,2.89,0,0,1-.35,1.37c-.3.6-1.31,2.66-1.36,2.75L69,60.52l-.26.58L68,62.71c-.23.51-.42,1-.67,1.52l-1.1,2.18c-.2.41-.39.84-.61,1.25a3.94,3.94,0,0,1-.52.64c-.06.08-.21.08-.39,0s-.45-.13-.62-.18a.56.56,0,0,1-.26-.19,2.92,2.92,0,0,1-.29-.38A.91.91,0,0,1,63.34,67Z"/><path class="cls-1" d="M77.29,66c1-1.3,2-2.57,3.12-3.79.41-.45.78-.92,1.22-1.33a18.81,18.81,0,0,1,5.24-3.66L89.37,56c.52-.25,1-.54,1.54-.78l1.55-.68c.32-.14.46.11.38.55a2.49,2.49,0,0,1-1,1.49c-2.16,1.24-4.35,2-6.29,3.12a15.67,15.67,0,0,0-3.15,2.8c-1.06,1.16-2.06,2.39-3,3.67-.58.79-1.16,1.59-1.71,2.41C76.86,69.79,76,71,75.22,72.31c-.6,1-1.11,2-1.76,3-.13.21-.27.43-.43.64a2.33,2.33,0,0,1-.76.72.89.89,0,0,1-.58.11,1.57,1.57,0,0,1-.24,0c-.23-.08-.16-.53.08-1.17.42-.94.88-1.85,1.35-2.81S74,70.92,74.51,70c.83-1.39,1.79-2.72,2.74-4.06Z"/><path class="cls-2" d="M64.36,33.39c.5.26,1,.5,1.53.74l.79.35.44.16.26.07a1.46,1.46,0,0,0,.44,0c.06,0,0-.37,0-.73l-.06-.33a1.22,1.22,0,0,1,0-.27l0-.13h0l-.14,0-.35-.13-.72-.31c-.49-.23-1-.47-1.46-.72a.8.8,0,0,0-.12.2l-.24.44A4.72,4.72,0,0,0,64.36,33.39Z"/><path class="cls-2" d="M65.73,30.8l2.78,1.1a10.69,10.69,0,0,0,.54-1.36l-2.78-1.1A12,12,0,0,0,65.73,30.8Z"/><path class="cls-2" d="M67.23,27.28a2.47,2.47,0,0,0-.5.71l-.41.72-.8,1.44c-.54.94-1.09,1.87-1.7,2.73a8.87,8.87,0,0,1-1,1.17,2.85,2.85,0,0,1-.49.38c-.16.07-.19.06-.19.06a.9.9,0,0,1-.21-.28L61.87,34a2.84,2.84,0,0,1-.06-.31,5.61,5.61,0,0,1,.07-1.46,16.87,16.87,0,0,1,2.24-5.84,4.26,4.26,0,0,1,.44-.54l.11-.11.06,0s.14-.06.22-.09a2,2,0,0,1,1.19.06,2.6,2.6,0,0,1,1,.63c.23.3.36.51.27.78,0,.11.89,1,1.15.55a2,2,0,0,0-.3-2.27,3.65,3.65,0,0,0-1.71-1.13,3.44,3.44,0,0,0-2.06,0,2.38,2.38,0,0,0-.53.24,2.69,2.69,0,0,0-.27.2l-.18.19a4.74,4.74,0,0,0-.58.75,16.23,16.23,0,0,0-1.53,3.1A16.5,16.5,0,0,0,60.53,32a6.51,6.51,0,0,0-.07,1.83c0,.17,0,.32.08.49s.12.36.19.53a1.87,1.87,0,0,0,.86.92A1.58,1.58,0,0,0,63,35.68a3.78,3.78,0,0,0,.84-.6A11.89,11.89,0,0,0,65,33.73c.67-.93,1.26-1.89,1.82-2.84S68,29,68.4,28.05C68.42,27.81,67.47,27.11,67.23,27.28Z"/><path class="cls-1" d="M113.8,40.78c-.1.12-.23-.05-.38-.4a1.58,1.58,0,0,1-.09-.52,2.79,2.79,0,0,1,.15-.3s.62-.33.82-.45a1.87,1.87,0,0,1,.6-.21l1.26-.3a.93.93,0,0,1,.29,0,2.32,2.32,0,0,0,1-.1c.06,0,.11,0,.16-.09a2.72,2.72,0,0,1,1.08-.25c.3.07.6.09.9.14.05,0,.09,0,.13,0s.2.12.29.12a1.24,1.24,0,0,1,.38,0c.07,0,.14.11.21.18a.57.57,0,0,1,0,.35c0,.09,0,.21,0,.31a.45.45,0,0,1,0,.11,3.09,3.09,0,0,1-.7.59l-.52.14-.58.18s-.12,0-.18,0-.8.26-.84.26-.32.1-.51,0c0,0-.07,0-.1,0a5,5,0,0,1-.87.09c-.15,0-.29.06-.44.08s-.06,0-.09,0a.17.17,0,0,0-.1,0,7.48,7.48,0,0,0-1,.2c-.08,0-.49-.07-.58,0S113.83,40.73,113.8,40.78Z"/><path class="cls-1" d="M104.25,25.22c-.13-.06,0-.2.34-.4a1.52,1.52,0,0,1,.48-.18,1.62,1.62,0,0,1,.31.1,7.27,7.27,0,0,1,.54.74,1.86,1.86,0,0,1,.25.56c.12.39.24.79.35,1.18a.65.65,0,0,1,0,.28,2.26,2.26,0,0,0,.13.93.16.16,0,0,0,.08.14,2.47,2.47,0,0,1,.25,1c-.06.29-.08.57-.14.87,0,0,0,.08,0,.12a.24.24,0,0,0-.12.27,1.27,1.27,0,0,1-.07.38.83.83,0,0,1-.19.18c-.06.05-.31,0-.33,0s-.19,0-.3,0h-.1a3.55,3.55,0,0,1-.52-.64s0-.23-.12-.46a3.86,3.86,0,0,0-.18-.52c0-.05,0-.11,0-.17s-.26-.73-.27-.76-.1-.29,0-.47a.1.1,0,0,0,0-.09,4.07,4.07,0,0,1-.12-.79,2.79,2.79,0,0,0-.1-.39s0-.05,0-.08a.17.17,0,0,0,0-.1,6,6,0,0,0-.26-.92c0-.06,0-.45,0-.52S104.31,25.25,104.25,25.22Z"/><path class="cls-1" d="M29.56,17.54c.08.13-.11.2-.46.26a1.07,1.07,0,0,1-.46-.06,1.6,1.6,0,0,1-.21-.26c0-.05-.1-.82-.13-1.08a2.47,2.47,0,0,1,0-.72l.2-1.38a.79.79,0,0,1,.1-.28,2.4,2.4,0,0,0,.25-1,.22.22,0,0,0,0-.17,3.11,3.11,0,0,1,0-1,2.82,2.82,0,0,0,.26-.79s0-.07,0-.12a.25.25,0,0,0,.09-.28v-.37a1.11,1.11,0,0,1,.08-.24c0-.08.19-.14.22-.13s.14-.06.2-.1a.13.13,0,0,1,.07,0,3.58,3.58,0,0,1,.87.71A7.28,7.28,0,0,1,31.13,12a.45.45,0,0,1,0,.23s.08,1.07.06,1.1c0,.21,0,.42-.19.59s0,.08,0,.12a3.92,3.92,0,0,1-.31,1c-.06.16-.09.33-.14.49s0,0,0,.07a.6.6,0,0,0-.06.11,8.57,8.57,0,0,0-.31,1.1c0,.08-.26.44-.26.54S29.53,17.49,29.56,17.54Z"/><path class="cls-1" d="M15.06,27c.16-.07.2.16.2.56a1.28,1.28,0,0,1-.16.54,1.82,1.82,0,0,1-.3.21,10.06,10.06,0,0,1-1.14,0,2.71,2.71,0,0,1-.76-.17c-.48-.19-1-.36-1.43-.55a1.32,1.32,0,0,1-.29-.19,3,3,0,0,0-1-.55c-.06,0-.11-.06-.19,0a3.41,3.41,0,0,1-1.13-.48c-.25-.24-.51-.43-.77-.64,0,0-.09,0-.1-.11s-.13-.21-.21-.27A2.11,2.11,0,0,1,7.44,25a2.09,2.09,0,0,1-.13-.26c0-.08.05-.24.08-.26s.05-.14.07-.22a.24.24,0,0,0,0-.08A4.39,4.39,0,0,1,8.56,24s1.23.31,1.37.33.12.08.18.13,1,.25,1,.27c.18.09.38.12.49.35a.18.18,0,0,0,.1.06,5.81,5.81,0,0,1,.88.49,3.82,3.82,0,0,0,.46.21.16.16,0,0,1,.07.07s.06.06.09.07a5.61,5.61,0,0,0,1.09.43c.09,0,.43.33.54.34S15,27,15.06,27Z"/><path class="cls-1" d="M27.41,110.91c-.06-.18.14-.28.5-.3a1,1,0,0,1,.46.13c.07.1.14.2.19.29a6.67,6.67,0,0,0,.15,1c.05.24.08.46.11.69a4.7,4.7,0,0,0,.37,1.33,1.67,1.67,0,0,1,.08.3,1.85,1.85,0,0,0,.49,1s.07.1.15.11a5.41,5.41,0,0,1,.85.81,4.1,4.1,0,0,0,.64.75s.09,0,.1.11.14.19.23.24.25.14.38.23a1.52,1.52,0,0,1,.16.23c0,.07,0,.25-.07.26s-.05.14-.07.22a.19.19,0,0,1,0,.08,3.56,3.56,0,0,1-1.18,0s-.37-.13-.74-.3a7.46,7.46,0,0,1-.81-.45.58.58,0,0,1-.18-.2,6.43,6.43,0,0,1-1-.89,1.34,1.34,0,0,1-.35-.69.22.22,0,0,0-.06-.13,4.37,4.37,0,0,1-.48-1.21c-.07-.23-.12-.42-.19-.63a.48.48,0,0,1,0-.12.86.86,0,0,0,0-.16,11.15,11.15,0,0,1-.14-1.53,7.84,7.84,0,0,1,.18-.81C27.16,111.18,27.43,111,27.41,110.91Z"/></g></svg>