<svg xmlns="http://www.w3.org/2000/svg" width="128" height="128" viewBox="0 0 128 128"><defs><style>.cls-1{fill:#221f1f;}.cls-2{fill:#232020;}.cls-3{fill:#231f20;}</style></defs><title>Free Icons</title><g id="Layer_29" data-name="Layer 29"><path class="cls-1" d="M70.72,19.26c-1.59-2.61-1-3.63,3.88-6.79S74.53,8,74.53,8c-5.68-.43-9.37,2.15-11,4.34s1.14,6.58,1.14,6.58Z"/><path class="cls-1" d="M30.93,49.4a38.6,38.6,0,0,0-5.76,16.81L25,67.84c0,.54,0,1.09,0,1.64a29.51,29.51,0,0,0,.11,3.26A36.76,36.76,0,0,0,27.67,84c.39.88.67,1.81,1.14,2.66l1.35,2.56a39.13,39.13,0,0,0,3.31,4.75A36.89,36.89,0,0,0,37,97.72c.63.58,1.31,1.1,2,1.66l1,.81c.34.26.7.48,1,.72a41.09,41.09,0,0,0,11.81,5.61c1.29.44,1.05.72-.17.7a15.41,15.41,0,0,1-2.47-.28,16.79,16.79,0,0,1-3.35-1.11A38.6,38.6,0,0,1,27.44,86.71a40.93,40.93,0,0,1-3.75-16.45c0-.78,0-1.56,0-2.34l.23-2.32a35.63,35.63,0,0,1,.78-4.6,17.52,17.52,0,0,1,.61-2.26L26,56.51l.88-2.15a20.38,20.38,0,0,1,1-2.13l1.34-2.54c.49-.81,1-1.6,1.55-2.41A22.27,22.27,0,0,1,32.43,45a24.25,24.25,0,0,1,1.83-2.2A42.69,42.69,0,0,1,48.14,32.63,39.39,39.39,0,0,1,60.92,29.3l1.45-.14c.49,0,1,0,1.46,0l2.31.06c.63.08,1.13.17,1.55.25a5.17,5.17,0,0,1,1.65.57,2.28,2.28,0,0,1,.46.31c.29.31-1.19.35-3.75.11A39,39,0,0,0,43.5,36.66,40.08,40.08,0,0,0,31,49.41Z"/><path class="cls-1" d="M70.84,32.69c-.1-.19.14-.3.59-.37a1.31,1.31,0,0,1,.62.09,2,2,0,0,1,.27.32c0,.06.12,1,.17,1.34a3.6,3.6,0,0,1,0,.93c-.07.63-.13,1.25-.2,1.87a1.46,1.46,0,0,1-.11.41,4.31,4.31,0,0,0-.28,1.41.4.4,0,0,0,0,.24,4.81,4.81,0,0,1-.14,1.59c-.17.4-.3.8-.45,1.21,0,.05,0,.12-.09.16a.39.39,0,0,0-.2.36,2,2,0,0,1-.18.52c0,.09-.15.16-.24.24s-.34,0-.36,0-.21,0-.32,0h-.11a4.77,4.77,0,0,1-.39-1.21s0-1.53,0-1.71a.52.52,0,0,1,.08-.26s0-1.25,0-1.3c0-.24,0-.5.19-.72,0,0,0-.1,0-.15A9.09,9.09,0,0,1,70,36.3c0-.21,0-.43.08-.65,0,0,0-.07,0-.11a.84.84,0,0,0,.06-.14c0-.52.18-1,.16-1.55,0-.12.26-.66.25-.8S70.88,32.76,70.84,32.69Z"/><path class="cls-1" d="M104.12,73.64c.18-.11.29.13.36.58a1.4,1.4,0,0,1-.09.62,2,2,0,0,1-.31.28c-.06,0-1,.13-1.31.18a3.08,3.08,0,0,1-.91,0c-.6-.07-1.21-.12-1.82-.18a1.8,1.8,0,0,1-.4-.1,3.89,3.89,0,0,0-1.38-.27.38.38,0,0,0-.23,0,4.83,4.83,0,0,1-1.55-.12c-.39-.17-.78-.3-1.18-.44,0,0-.12,0-.16-.09s-.23-.17-.35-.2a2.54,2.54,0,0,1-.51-.17.88.88,0,0,1-.23-.24c-.07-.08,0-.34,0-.36s0-.21,0-.32a.45.45,0,0,1,0-.12,4.73,4.73,0,0,1,1.17-.39s1.5,0,1.67,0a.59.59,0,0,1,.25.07s1.22,0,1.27,0c.24,0,.49,0,.71.19a.22.22,0,0,0,.14,0,7.36,7.36,0,0,1,1.23.21c.21,0,.43,0,.64.06l.11.05a.39.39,0,0,0,.14,0,15.15,15.15,0,0,0,1.51.16c.11,0,.64.24.78.23S104,73.68,104.12,73.64Z"/><path class="cls-1" d="M27.18,64.31c-.17.1-.27-.13-.34-.58a1.58,1.58,0,0,1,.08-.62,1.92,1.92,0,0,1,.3-.28c.06,0,.94-.14,1.24-.19a2.76,2.76,0,0,1,.86,0l1.74.16a1.34,1.34,0,0,1,.38.1,3.45,3.45,0,0,0,1.3.25.37.37,0,0,0,.23,0,4.6,4.6,0,0,1,1.47.1c.37.17.74.29,1.12.43,0,0,.11,0,.15.09s.22.17.34.2a2.26,2.26,0,0,1,.48.16.86.86,0,0,1,.22.24.47.47,0,0,1,0,.36c-.09.08,0,.21,0,.32s0,.09,0,.11a4.05,4.05,0,0,1-1.11.41s-1.42,0-1.58,0a.55.55,0,0,1-.25-.07s-1.16,0-1.2,0c-.23,0-.46,0-.67-.18a.24.24,0,0,0-.14,0,6.66,6.66,0,0,1-1.17-.2c-.2,0-.41,0-.61-.06,0,0-.07,0-.1,0a.43.43,0,0,0-.13,0,11.54,11.54,0,0,0-1.43-.14c-.12,0-.62-.24-.75-.23S27.25,64.27,27.18,64.31Z"/><path class="cls-1" d="M60.14,108.46c.11.17-.13.27-.58.33a1.64,1.64,0,0,1-.62-.08,2.51,2.51,0,0,1-.28-.29c0-.06-.14-.92-.19-1.21a3,3,0,0,1,0-.84c.06-.56.1-1.12.16-1.68a1.61,1.61,0,0,1,.1-.36,3.34,3.34,0,0,0,.25-1.27.25.25,0,0,0,0-.22,4.39,4.39,0,0,1,.11-1.43c.17-.35.29-.72.43-1.08,0,0,0-.11.08-.15s.17-.21.2-.32a2,2,0,0,1,.16-.47,1,1,0,0,1,.24-.21c.08-.06.34,0,.37,0s.2,0,.31.05H61a4.58,4.58,0,0,1,.41,1.08s0,1.38,0,1.54a.48.48,0,0,1-.07.23s0,1.13,0,1.17c0,.22,0,.45-.18.65a.22.22,0,0,0,0,.14,6.2,6.2,0,0,1-.19,1.13,5.9,5.9,0,0,0-.06.59.47.47,0,0,1,0,.1.5.5,0,0,0,0,.13c0,.46-.16.92-.14,1.39,0,.1-.24.59-.22.72S60.1,108.4,60.14,108.46Z"/><path class="cls-2" d="M104.85,71.09a3.23,3.23,0,0,0,0-.44c0-.76-.1-1.54-.14-2.3a39.71,39.71,0,1,0-31.11,41,39.32,39.32,0,0,0,13.65-5.89,39.78,39.78,0,0,0,16.5-24.09c.16-.7.4-1.41.51-2.11,0-.14.06-.29.08-.45.23-1.58-.14-2.91-.81-3s-1.39,1.1-1.59,2.58c0,.13,0,.27,0,.41a9.89,9.89,0,0,1-.37,2.14L101,81.22l-.76,2.17a36.22,36.22,0,0,1-1.82,4.2,37.74,37.74,0,0,1-32.79,20.47,38.69,38.69,0,0,1-13.28-2.21A37.33,37.33,0,0,1,27.78,76a38.73,38.73,0,0,1,.42-13.45A37.28,37.28,0,0,1,42.53,40.31a37.5,37.5,0,0,1,59.93,28.27,9.28,9.28,0,0,1,0,2l0,.43c-.06,1.49.45,2.75,1.12,2.82S104.79,72.69,104.85,71.09Z"/><path class="cls-1" d="M34.49,32.09a48.66,48.66,0,0,0-8,8.3,28,28,0,0,0-1.71,2.34,24.1,24.1,0,0,0-1.57,2.44,41.67,41.67,0,0,0-2.68,5.13,46.28,46.28,0,0,0-4,22.6,48.05,48.05,0,0,0,4.1,16.36,51.17,51.17,0,0,0,8.09,12.51,49.84,49.84,0,0,0,11.6,9.4,51.34,51.34,0,0,0,13.93,5.54,50.81,50.81,0,0,0,15,1.13,49.05,49.05,0,0,0,24.81-9.06,43.65,43.65,0,0,0,6.43-5.56,45.18,45.18,0,0,0,5.33-6.62,48.64,48.64,0,0,0,6.78-15.51c.78-3.43,1.34-2.92,1.35.23a27.52,27.52,0,0,1-1,6.42,34.08,34.08,0,0,1-3.68,8.56A50.4,50.4,0,0,1,80.7,118.2a52.37,52.37,0,0,1-18.12,2.19,56.58,56.58,0,0,1-9.06-1.34,54,54,0,0,1-8.68-2.93,53.31,53.31,0,0,1-18-12.79,50.29,50.29,0,0,1-1.4-65.67A50.77,50.77,0,0,1,72.61,19.4a50.34,50.34,0,0,1,20.94,8.26,51.4,51.4,0,0,1,6.75,5.54c1,1.07,2.06,2.06,3,3.2l1.39,1.67,1.28,1.76a52.05,52.05,0,0,1,7.58,15.56,53.81,53.81,0,0,1,1.67,7.47A41.92,41.92,0,0,1,115.49,73a15.78,15.78,0,0,1-.45,2.67,7.62,7.62,0,0,1-.63,1.73,9.08,9.08,0,0,1-.64,1.26c-.73.79-.17-3-.45-9.71a52.31,52.31,0,0,0-9.89-28.31,45.15,45.15,0,0,0-11-10.77,47.11,47.11,0,0,0-14-6.66,48.85,48.85,0,0,0-23-.93,48.08,48.08,0,0,0-20.86,9.85Z"/><path class="cls-1" d="M65.74,72.59c-.28,0-.38-.26-.38-.74a1.08,1.08,0,0,1,.25-.57,3.72,3.72,0,0,1,.51-.12c.1,0,1.43.33,1.89.43a6.9,6.9,0,0,1,1.28.44l2.53,1a2.86,2.86,0,0,1,.54.3,8.86,8.86,0,0,0,1.87.94.67.67,0,0,0,.34.09,10.76,10.76,0,0,1,2.14.93c.5.38,1,.71,1.52,1.08.08,0,.17.08.21.18s.27.3.43.41a3.82,3.82,0,0,1,.65.49,1.49,1.49,0,0,1,.23.39c.06.12-.15.31-.19.31s-.14.17-.19.26a.44.44,0,0,1-.06.1,13.94,13.94,0,0,1-1.65-.32l-.34-.15-.71-.29-1.22-.46a1.27,1.27,0,0,1-.33-.2s-1.69-.61-1.75-.64a2.75,2.75,0,0,1-.94-.53.45.45,0,0,0-.19-.11,17.05,17.05,0,0,1-1.67-.8c-.29-.14-.59-.24-.88-.37a.61.61,0,0,1-.14-.1.72.72,0,0,0-.19-.11c-.69-.27-1.35-.65-2.07-.86-.17-.05-.85-.55-1-.6S65.85,72.59,65.74,72.59Z"/><path class="cls-1" d="M66.5,68.58c.08.26-.18.43-.64.55a1,1,0,0,1-.61-.12,3,3,0,0,1-.24-.47c0-.1,0-1.51,0-2a7.86,7.86,0,0,1,.14-1.37l.46-2.76a3,3,0,0,1,.17-.6,9.55,9.55,0,0,0,.5-2.08.63.63,0,0,0,0-.36A11.11,11.11,0,0,1,66.72,57c.26-.64.49-1.18.72-1.77,0-.08,0-.18.14-.24s.23-.34.3-.53a4,4,0,0,1,.35-.76,1.34,1.34,0,0,1,.35-.32c.11-.09.33.09.34.14s.18.1.29.14l.1,0a15.15,15.15,0,0,1,0,1.69l-.06.36c0,.21-.08.49-.13.78-.09.57-.17,1.19-.18,1.31a1.43,1.43,0,0,1-.13.38s-.22,1.82-.23,1.89a3,3,0,0,1-.31,1,.55.55,0,0,0-.06.22c-.08.62-.26,1.23-.4,1.85-.08.31-.11.64-.17.95a1.15,1.15,0,0,1-.06.17.86.86,0,0,0-.07.21c-.11.76-.33,1.5-.38,2.26,0,.18-.34,1-.34,1.18S66.47,68.47,66.5,68.58Z"/><path class="cls-3" d="M67.27,72.12c-.17.31-.51-.23-.81.07-2.17,2.2-5.08-2.85-2.32-4.09C65.65,67.42,68.64,69.72,67.27,72.12Z"/><path class="cls-1" d="M63.68,74.47a5,5,0,0,1-2.61-3.09,4.26,4.26,0,0,1-.23-1.51,4,4,0,0,1,1.09-2.39,5,5,0,0,1,2-1.29A5.47,5.47,0,0,1,66,65.86a3.23,3.23,0,0,1,1.45.45,2,2,0,0,1,.91,1.16c.09.31-.53.52-1.16.71l-.84.28c-.25.1-.38.16-.42.14a1.52,1.52,0,0,0-.71-.15,3.64,3.64,0,0,0-1.29.34,1.06,1.06,0,0,0-.56.6,1.81,1.81,0,0,0-.12.77,2.46,2.46,0,0,0,.93,1.76,2.06,2.06,0,0,0,1.18.49,2.64,2.64,0,0,0,1.85-.94A1.8,1.8,0,0,0,67.7,70a.85.85,0,0,0-.09-.19c-.07-.17,0-.27.52-.76l.31-.35a.83.83,0,0,1,.63-.29.9.9,0,0,1,.71.47,2.79,2.79,0,0,1,.41,1.59A3.65,3.65,0,0,1,69.83,72,5.23,5.23,0,0,1,68.06,74a4.9,4.9,0,0,1-2,.85,4,4,0,0,1-1.25,0,4.38,4.38,0,0,1-1.1-.32Z"/><path class="cls-1" d="M78.68,10.09A16.73,16.73,0,0,0,73.14,9c-.35,0-.7,0-1,0s-.69.08-1,.1a13.78,13.78,0,0,0-3.5.78,6.53,6.53,0,0,0-2.75,2A4.19,4.19,0,0,0,64,14.69a21,21,0,0,0,.88,3.93c.08.43-.51.68-1.24.56a2.67,2.67,0,0,1-1.12-.48,2.37,2.37,0,0,1-.49-.46,2.81,2.81,0,0,1-.29-.66,8.24,8.24,0,0,1,.14-5.51,7.46,7.46,0,0,1,3.9-3.88,17.59,17.59,0,0,1,5.9-1.57,19.24,19.24,0,0,1,6.46.69,17,17,0,0,1,3.73,1.51,9.62,9.62,0,0,1,4.29,4.42,8.06,8.06,0,0,1,.53,4.89c-.09.35-.17.69-.28,1a2.51,2.51,0,0,1-.72,1.21,1,1,0,0,1-.86.21,2.43,2.43,0,0,1-.47-.08c-.49-.18-.64-.82-.41-1.58a8.89,8.89,0,0,0,.36-3.28,5.18,5.18,0,0,0-1.22-2.72,10,10,0,0,0-4.39-2.78Z"/><path class="cls-1" d="M15.25,80.1a45.88,45.88,0,0,0,1.5,6l.21.74.29.72L17.82,89l.56,1.43.29.72.35.69a45.84,45.84,0,0,0,3,5.4c.58.85,1.07,1.76,1.72,2.57l1.92,2.42.7.88.79.81,1.59,1.61a34.27,34.27,0,0,0,3.37,3,50.37,50.37,0,0,0,29.27,11.24,48.4,48.4,0,0,0,14.05-1.38A52,52,0,0,0,84,115.43l2-1,1-.49,1-.55,2-1.1,1.91-1.22c1.58-1,1.59-.59.44.58a16.6,16.6,0,0,1-2.59,2.18c-.57.4-1.21.83-1.89,1.26s-1.47.78-2.27,1.18a50.58,50.58,0,0,1-37,2.46,53.1,53.1,0,0,1-20-11.52l-2.24-2.29c-.36-.39-.76-.75-1.09-1.17l-1-1.25c-.66-.84-1.34-1.66-2-2.51l-1.73-2.69c-.29-.45-.58-.89-.86-1.35L19,94.54l-1.46-2.85-1.18-3-.58-1.48-.45-1.53-.55-1.89a15.69,15.69,0,0,1-.48-1.91l-.73-3.86a55.41,55.41,0,0,1-.46-7.83,45.47,45.47,0,0,1,.42-5.93A24.6,24.6,0,0,1,14,61.36l.61-2.91.89-2.83a22.53,22.53,0,0,1,1-2.79A45,45,0,0,1,19,47.48a50.28,50.28,0,0,1,4.92-7.64A51.5,51.5,0,0,1,30,33.18c1-.9,2-1.74,3.05-2.57a34,34,0,0,1,4.41-2.92,7.7,7.7,0,0,1,2.21-.86c.26,0,.57-.12.73-.12.56.05-1.16,1.09-4.09,3.11A53.27,53.27,0,0,0,24.7,41c-.83,1.1-1.64,2.22-2.39,3.38s-1.38,2.39-2.08,3.58c-.33.61-.68,1.21-1,1.82l-.82,1.91a30.09,30.09,0,0,0-1.51,3.89L16,58.51c-.26,1-.43,2-.65,3a46.89,46.89,0,0,0-.85,6.15,48.5,48.5,0,0,0,.82,12.38Z"/></g></svg>