<svg xmlns="http://www.w3.org/2000/svg" width="128" height="128" viewBox="0 0 128 128"><defs><style>.cls-1{fill:#231f20;}.cls-2,.cls-3{fill:none;stroke:#231f20;stroke-miterlimit:10;}.cls-2{stroke-width:1.2px;}</style></defs><title>Free Icons</title><g id="Layer_44" data-name="Layer 44"><path class="cls-1" d="M46.94,23.7l11.49,0,4.18,0,14.77.12,6.55,0c2.78.05,5.58,0,8.36.29.87.1.75.2,0,.34a20.28,20.28,0,0,1-3.69.3c-5.68,0-11.35-.06-17.08-.14-3.43,0-7,0-10.5,0l-11.57.06-7.11.06c-3.59.05-7.2.09-10.77.19-2.78.06-5.46.26-8.24.32-.62,0-1.21,0-1.83-.06-2.27-.16-2.95-.3-3.42-.6l-.31-.16c-.22-.12.73-.41,2.39-.29,1.22.06,2.45.12,3.67.1l3.78-.16c2.55-.09,5.14-.16,7.74-.21l11.59-.17Z"/><path class="cls-1" d="M46.2,114q5.59-.06,11.19-.2l4.09-.15,14.39-.44,6.38-.3a76.42,76.42,0,0,1,8.15-.23c.85.08.74.18,0,.44a12,12,0,0,1-3.57.81c-5.53.34-11.07.61-16.66.69-3.35.06-6.82.28-10.24.39-3.76.14-7.53.23-11.29.32l-7,.11c-3.51,0-7,0-10.52,0-2.71,0-5.37,0-8.06,0l-1.77,0c-2.22-.12-2.92-.39-3.33-.82a1.43,1.43,0,0,1-.27-.3c-.17-.3.76-.5,2.34-.41,4.72.21,9.75.19,14.8.21,3.74,0,7.51,0,11.28-.1Z"/><path class="cls-1" d="M73.16,44.83l5.27.34c.64,0,1.28,0,1.92.08,2.26.15,4.52.32,6.78.44,1,.06,2,.11,3,.14,1.28,0,2.56.07,3.84.22.4.05.34.22,0,.41a4.44,4.44,0,0,1-1.7.46c-1.31.08-2.62.14-3.93.17s-2.62-.07-3.94-.16c-1.58-.12-3.22-.06-4.83-.09-1.78-.05-3.55-.1-5.33-.17L71,46.55c-1.65,0-3.31-.13-5-.12-1.27,0-2.53.12-3.79.2l-.84.06c-1,0-1.36-.17-1.56-.67a2.67,2.67,0,0,1-.14-.36c-.08-.39.36-.71,1.12-.85a42,42,0,0,1,7-.23c1.76,0,3.54.14,5.32.21Z"/><path class="cls-1" d="M67.23,106.46s-.41,6.28.22,6.3,7.19.41,7-.19-5.84-.83-6-1.49c-.22-1-.15-3.39-.26-4.35-.31-2.72-1.14-2.2-1.14-2.2Z"/><path class="cls-1" d="M93.94,94.27l-3-.09c-.36,0-.73,0-1.09,0-1.29,0-2.58-.14-3.87-.21-.57,0-1.15,0-1.71,0a7.44,7.44,0,0,1-2.2-.17c-.22-.06-.18-.29,0-.53a1.57,1.57,0,0,1,1-.53,38.27,38.27,0,0,1,4.41,0c.89.07,1.82,0,2.73,0l3,0,1.86,0c.94,0,1.88,0,2.81,0,.73,0,1.44-.18,2.16-.26l.48-.06c.61,0,.8.11.9.59,0,.11.06.22.07.33a.73.73,0,0,1-.64.76,20,20,0,0,1-3.91.32l-3,0Z"/><path class="cls-1" d="M39.08,94.87,36,94.68c-.39,0-.77,0-1.15,0l-4-.3c-.59,0-1.19,0-1.78,0a8.82,8.82,0,0,1-2.29-.18c-.23-.06-.19-.34,0-.62a1.46,1.46,0,0,1,1-.61,26.78,26.78,0,0,1,4.64.19,27,27,0,0,0,2.85.07l3.15.1,1.94,0c1,0,2,0,2.93,0,.76,0,1.5-.16,2.24-.25.17,0,.33-.06.49-.07.62,0,.82.15,1,.57a1.57,1.57,0,0,1,.08.29c.06.32-.18.6-.63.76a16.37,16.37,0,0,1-4.16.38c-1.05,0-2.1-.06-3.16-.09Z"/><path class="cls-1" d="M45.72,47.85s-.29,0-.57-1.59c0,0-4.85,0-6.9-.2a5.73,5.73,0,0,1-1.84-.53l9.43-.47Z"/><path class="cls-1" d="M47.28,22l13.19.09c1.6,0,3.21-.05,4.81,0,5.66.05,11.31.22,17,.35,2.51.06,5,.08,7.53.1,1.6,0,3.2,0,4.81.13a24,24,0,0,1,4.83.57c1,.25.8.48-.09.78a8.91,8.91,0,0,1-1.76.45,12.54,12.54,0,0,1-2.48.21q-9.72,0-19.58-.32c-3.93-.14-8,0-12.05,0l-13.28,0H42c-4.13,0-8.27,0-12.37.08-3.19.06-6.3.26-9.46.37-.7,0-1.37.08-2.08.09a14.47,14.47,0,0,1-2.76-.16,3.1,3.1,0,0,1-.76-.29,2.21,2.21,0,0,1-.47-.43,4.47,4.47,0,0,1-.33-.37c-.1-.19.13-.34.6-.56a2.81,2.81,0,0,1,.86-.26,9.89,9.89,0,0,1,1.25-.14C22.07,22.21,28,22.07,34,22l13.31-.07Z"/><path class="cls-1" d="M36.09,65.24c-4.93,0-9.86-.2-14.81-.53-.9-.07-1.81-.13-2.71-.22a6.56,6.56,0,0,1-1.4.05c-.46-.06-.93-.13-1.41-.23-.16,0-.31-.06-.48-.11a4.83,4.83,0,0,1-.57-.18,2.3,2.3,0,0,1-1.18-.84,4.38,4.38,0,0,1-.3-.86,5.1,5.1,0,0,1-.13-.67c0-.38-.08-.76-.11-1.13-.06-.74-.09-1.46-.12-2.19,0-1.45-.07-2.9-.09-4.34,0-2.89,0-5.77.05-8.64s0-5.64.05-8.43c0-1.79,0-3.58,0-5.38a28,28,0,0,1,.5-5.38c.31-1.11.65-.92,1.19.05a10.62,10.62,0,0,1,.82,2A9.61,9.61,0,0,1,15.75,31c-.1,7.27-.45,14.55-.75,21.89-.06,1.58-.07,3.18,0,4.78q0,1.22.12,2.4c0,.4.06.79.1,1.17,0,.17.06.39.08.5a1.05,1.05,0,0,0,.05.19.54.54,0,0,0,.26.16l.76.19.88.15a4.13,4.13,0,0,1,.9.19,6.49,6.49,0,0,0,1.81.26l1.83.1c1.23.06,2.46.1,3.7.13,2.46.06,4.93.08,7.41.09,3,0,6.09,0,9.13,0,4.61-.07,9.25-.13,13.83-.29,3.56-.14,7-.41,10.56-.63.77,0,1.53-.11,2.31-.15,2.91-.13,3.84.06,4.47.7a3.22,3.22,0,0,1,.41.43c.28.47-.89.92-3,1.11-6.27.54-12.9.76-19.57.88-5,.09-9.94.11-14.91.09Z"/><path class="cls-1" d="M100.37,85.38l0-9.9c0-1.2-.08-2.41-.08-3.61l0-12.75c0-1.89,0-3.78-.08-5.66,0-1.2,0-2.41,0-3.62a16.08,16.08,0,0,1,.13-1.83c.12-.6.25-1.21.43-1.83.32-.83.5-.54.75.11.15.33.31.77.53,1.32a6.83,6.83,0,0,1,.28.87,6.14,6.14,0,0,1,.09,1l.09,3.64c0,1.22,0,2.44,0,3.67,0,2.45-.06,4.91-.16,7.38-.11,3,.07,6,.11,9l.08,10,0,6.15c0,3.1,0,6.22,0,9.3,0,2.4.17,4.75.18,7.14,0,.52,0,1,0,1.58-.11,2-.35,2.66-1.06,3a2.93,2.93,0,0,1-.42.19c-.4,0-.69-.72-.67-2.09-.09-4.12-.22-8.58-.26-13,0-3.31-.07-6.65-.1-10Z"/><path class="cls-1" d="M46.88,112.48q6.66,0,13.32-.09l4.86-.14c5.72-.08,11.44-.17,17.15-.32,2.54-.07,5.08-.19,7.6-.32l4.85-.26c.81,0,1.62,0,2.44,0l1.22,0c.41,0,.81.1,1.23.17s.9.26.79.35a5.11,5.11,0,0,1-.77.4,11.22,11.22,0,0,1-4.23,1.22c-3.29.19-6.59.37-9.9.51s-6.62.16-10,.16c-4,0-8.13.27-12.21.38q-6.72.18-13.45.25l-8.28,0c-4.18,0-8.38,0-12.54-.1-3.23,0-6.4,0-9.64-.19-.71-.06-1.43-.08-2.14-.16a7.33,7.33,0,0,1-3-.79,1.48,1.48,0,0,1-.8-1.66,1,1,0,0,1,.37-.49c.25-.13.49.15.74.14a1.82,1.82,0,0,1,.46,0c.24,0,.57.07,1,.12,2.71.3,5.57.42,8.51.49s5.91.14,8.91.16c4.46.05,8.94.08,13.42,0Z"/><path class="cls-1" d="M12.66,86.61l.15-9.13V77a2.57,2.57,0,0,1,.07-.69c.1-.41.1-.94.52-1.16a3.35,3.35,0,0,1,1.3-.46l.35-.06.24,0,.43,0c4-.26,7.89-.09,11.81,0,1.74,0,3.48,0,5.2,0a43.6,43.6,0,0,1,6.65.29c.71.13.56.47,0,.8a6.52,6.52,0,0,1-2.93.76c-4.48,0-9,0-13.5-.1-1.35,0-2.72,0-4.1.09-.69,0-1.38.09-2.05.15s-1.54.18-1.58.2a.59.59,0,0,0-.19,0c-.06,0,0,.12,0,.18l0,.2v.55l0,2.28-.05,4.58-.05,5.65c0,2.84-.07,5.71-.06,8.54,0,2.2.14,4.36.16,6.54,0,.49,0,1,0,1.44,0,1.81-.32,2.39-.86,2.72a1.92,1.92,0,0,1-.39.22c-.42.13-.71-.62-.81-1.91-.19-3.85-.23-7.92-.24-12q0-4.57,0-9.17Z"/><path class="cls-1" d="M73.18,43.28l6.25.24c.76,0,1.52,0,2.28,0l8,.34,3.57.12a22.61,22.61,0,0,1,4.6.38c.27.07.41.23.34.29a1.76,1.76,0,0,1-.43.23,5.77,5.77,0,0,1-2,.51l-4.61.26c-1.55.07-3.1,0-4.66-.09-1.86-.11-3.8,0-5.7.05-2.1,0-4.2,0-6.3,0l-3.87,0c-2,0-3.93-.06-5.87,0-1.51,0-3,.21-4.51.3-.33,0-.66.06-1,.06-1.26,0-1.69-.29-1.88-1a2,2,0,0,1-.09-.47c0-.51.46-.85,1.33-1a59.44,59.44,0,0,1,8.21-.35l6.29.1Z"/><path class="cls-1" d="M47.54,35.69c0,1.69-.06,3.39-.06,5.09,0,.62.05,1.24,0,1.86-.06,2.19-.12,4.38-.12,6.57,0,1,0,1.95.1,2.91a13.5,13.5,0,0,1-.17,3.79c-.1.4-.39.29-.71,0a3.27,3.27,0,0,1-.83-1.6,24.68,24.68,0,0,1-.37-3.74c0-1.26-.07-2.53,0-3.81,0-1.53-.16-3.1-.23-4.66-.09-1.72-.07-3.44-.09-5.16V33.72c0-1.61,0-3.22,0-4.82,0-1.24-.2-2.46-.23-3.72,0-.28,0-.55,0-.83.06-1.06.32-1.38,1-1.48a3,3,0,0,1,.5-.06c.55,0,1,.47,1,1.16a54.69,54.69,0,0,1,.26,6.61c0,1.7,0,3.4,0,5.1Z"/><path class="cls-1" d="M65.64,102.4c0-1.49,0-3,0-4.48,0-.54-.06-1.09,0-1.63,0-1.93.09-3.86.08-5.79,0-.86,0-1.72-.11-2.57a10.81,10.81,0,0,1,.17-3.34c.08-.36.36-.26.66,0a3,3,0,0,1,.78,1.4,21.21,21.21,0,0,1,.34,3.29c.06,1.1.08,2.22.05,3.35-.05,1.34.16,2.73.23,4.1s.08,3,.1,4.54v2.8c0,1.42,0,2.84,0,4.25,0,1.09.17,2.17.2,3.29,0,.24,0,.48,0,.73-.06.93-.29,1.2-1,1.29a3.59,3.59,0,0,1-.46,0,1.07,1.07,0,0,1-1-1,47.63,47.63,0,0,1-.22-5.8c0-1.49,0-3,0-4.48Z"/><path class="cls-1" d="M40.16,46l-2.68-.08c-.32,0-.65.06-1,0-1.16,0-2.31-.1-3.48-.18-.52,0-1,0-1.55,0a3.78,3.78,0,0,1-2.12-.28c-.25-.14,0-.51.28-.88a6.31,6.31,0,0,1,.39-.54.69.69,0,0,1,.44-.26,21.07,21.07,0,0,1,3.81,0,13.11,13.11,0,0,0,2.42-.1l2.68-.09,1.66,0c.84,0,1.68,0,2.52-.13.65-.06,1.25-.31,2.06-.36a3.21,3.21,0,0,1,.54,0,.78.78,0,0,1,.72,1.18,1.05,1.05,0,0,1-.23.4l-.09.07-.05.05a1.89,1.89,0,0,0-.27.34c-.08.12-.1.17-.12.2l-.08.1a.57.57,0,0,1-.17.15,9.91,9.91,0,0,1-1.31.3c-.56.07-1.14.11-1.73.13-.87,0-1.77,0-2.66,0Z"/><path class="cls-1" d="M48.22,86.17l0,2.73v2l0,1.21-.17.59L48,93l0,.07v0h0L47.84,93h0l0,0-.08.12-.17.21a1.17,1.17,0,0,1-.3.12,3.79,3.79,0,0,1-.7.11l-1.73.1c-.44,0-.88,0-1.32,0-3.09,0-6.16-.1-9.24-.13-1.36,0-2.73,0-4.09.07A35,35,0,0,1,25,93.64c-.55-.07-.47-.47,0-.88a4,4,0,0,1,2.29-.94c1.77-.15,3.54-.17,5.32-.17s3.55,0,5.34.12c2.14.1,4.36-.07,6.53-.14.52,0,1.22,0,1.27,0H46c.08,0,0-.18,0-.27l0-3.52,0-4.46c0-2.24,0-4.5,0-6.73,0-1.73-.22-3.43-.32-5.15,0-.38-.07-.75-.08-1.13,0-1.42.27-1.89.87-2.16a2.85,2.85,0,0,1,.41-.18c.46-.1.81.47,1,1.49A71.69,71.69,0,0,1,48.29,79c0,2.4,0,4.81,0,7.21Z"/><path class="cls-2" d="M111.73,15.29a1.61,1.61,0,0,1,2.22.35C116,19,107.48,17.85,111.73,15.29Z"/><path class="cls-3" d="M110.11,40.62a1.3,1.3,0,0,1,1.8.29C113.56,43.65,106.69,42.68,110.11,40.62Z"/><path class="cls-1" d="M82.1,13.22a1.29,1.29,0,0,1,1.79.28C85.54,16.25,78.67,15.28,82.1,13.22Z"/><path class="cls-1" d="M93.51,93.56c-1.12,0-2.24-.1-3.35-.12-.41,0-.82,0-1.22,0-1.44,0-2.89-.12-4.33-.13a17.33,17.33,0,0,0-1.91.09,7.32,7.32,0,0,1-2.47,0c-.27-.06-.22-.38,0-.74a1.81,1.81,0,0,1,1-.86,24.92,24.92,0,0,1,5-.24c1,.06,2.05-.1,3.07-.14s2.26,0,3.39-.06h2.09c1.06,0,2.12,0,3.17-.05.81,0,1.61-.24,2.44-.33.18,0,.36-.07.55-.08.69,0,.91.18,1,.86a3.59,3.59,0,0,1,0,.46,1,1,0,0,1-.75,1,17.68,17.68,0,0,1-4.34.39l-3.36,0Z"/><path class="cls-1" d="M41,46.9c-.77,0-1.55-.09-2.33-.11-.28,0-.56.05-.85,0l-3-.18a8.45,8.45,0,0,0-1.33.05,4,4,0,0,1-1.72,0c-.35-.11.07-1.75.68-1.87a12.52,12.52,0,0,1,3.41-.11A10.79,10.79,0,0,0,38,44.6l2.34-.06,1.45,0c.73,0,1.47,0,2.2-.09a5.44,5.44,0,0,0,.86-.17,6,6,0,0,1,1-.15,3.76,3.76,0,0,1,.48,0c.6.07.86.52.59,1.16a1.19,1.19,0,0,1-.25.39l-.09.07,0,0a1.94,1.94,0,0,0-.24.29,2.05,2.05,0,0,0-.16.26l-.07.11a.71.71,0,0,1-.15.15,4.78,4.78,0,0,1-1.07.28,13.9,13.9,0,0,1-1.48.11c-.76,0-1.54,0-2.31,0Z"/></g></svg>