<svg xmlns="http://www.w3.org/2000/svg" width="128" height="128" viewBox="0 0 128 128"><defs><style>.cls-1{fill:#231f20;}.cls-2{fill:none;stroke:#231f20;stroke-miterlimit:10;stroke-width:1.2px;}</style></defs><title>Free Icons</title><g id="Layer_41" data-name="Layer 41"><path class="cls-1" d="M65.33,31.31a72.6,72.6,0,0,1-8.22-.26c-1-.11-2-.13-3-.31a63.22,63.22,0,0,1-10.28-2.33c-1.47-.51-3-.93-4.41-1.53-.92-.38-1.88-.68-2.78-1.11s-1.78-.88-2.66-1.35c-.54-.3-.39-.4.16-.34a9.61,9.61,0,0,1,2.54.74,77.76,77.76,0,0,0,11.37,3.9c1.18.27,2.39.51,3.61.74l3.69.49a69.39,69.39,0,0,0,8.15.4c1.68,0,3.36-.12,5-.23A65,65,0,0,0,76.07,29c1-.19,1.91-.42,2.84-.69s1.86-.53,2.77-.84l1.21-.4c1.5-.53,2-.54,2.45-.38a1.51,1.51,0,0,1,.28.1c.2.12-.34.56-1.44,1A52.07,52.07,0,0,1,73.6,30.52a74,74,0,0,1-8.27.82Z"/><path class="cls-1" d="M71.23,118q3-.19,6-.61l2.15-.35a66.83,66.83,0,0,0,7.53-1.62c1.1-.3,2.19-.67,3.25-1,1.36-.5,2.72-1,4-1.61.41-.18.39-.1.09.15A8.6,8.6,0,0,1,92.59,114a41.14,41.14,0,0,1-8.53,2.86c-1.77.38-3.59.83-5.41,1.13q-3,.51-6,.78c-1.24.11-2.48.22-3.73.28-1.89.13-3.78.13-5.66.17-1.45,0-2.88.08-4.32,0l-.95,0c-1.18-.09-1.56-.18-1.8-.37a1.12,1.12,0,0,1-.16-.13c-.1-.13.38-.22,1.25-.28,2.57-.1,5.25,0,8-.15,2,0,4-.13,6-.28Z"/><path class="cls-1" d="M88.82,104c.92.2,1.84.41,2.76.64.33.08.67.14,1,.23a29,29,0,0,1,3.47,1.19,13.56,13.56,0,0,1,1.49.72,3.16,3.16,0,0,1,.87.7,1.14,1.14,0,0,1,.18,1.21c-.12.24-.21.11-.31-.09s-.29-.38-.46-.53a5,5,0,0,0-1.51-.93l-1.88-.78a17.18,17.18,0,0,0-2.44-.69c-.9-.23-1.82-.45-2.74-.64l-1.7-.34c-.86-.16-1.73-.32-2.59-.43-.67-.08-1.34-.11-2-.15l-.44,0c-.55-.05-.72-.13-.81-.39a1.77,1.77,0,0,1-.06-.17c0-.2.21-.33.62-.34a22.8,22.8,0,0,1,3.74.3c.94.14,1.88.31,2.81.49Z"/><path class="cls-1" d="M46.26,104.05l1.36-.41c.17,0,.33-.11.5-.15a12.29,12.29,0,0,1,1.81-.34l.82-.11a3.62,3.62,0,0,1,1,0c.22,0-.06.43-.43.49-.67.08-1.32.24-2,.33a7.71,7.71,0,0,0-1.23.33l-1.34.43-.83.28-1.25.45c-.32.11-.62.27-.94.39a1.31,1.31,0,0,1-.21.08c-.27.09-.37.07-.47-.08l-.07-.1c-.06-.12,0-.26.2-.36a14.48,14.48,0,0,1,1.69-.77l1.34-.46Z"/><path class="cls-1" d="M82.68,106.19s3,.36,4.16,1.32c1.34,1.14-8.51,5.79-17.15,5l13.23-4.12Z"/><path class="cls-1" d="M65.78,65a1.74,1.74,0,0,0-.73,1.76A1.67,1.67,0,0,0,66.37,68a1.07,1.07,0,0,0,1.28-1,1.73,1.73,0,0,0-.8-1.45.77.77,0,0,0-1,.27.78.78,0,0,0,.27,1s.11.12.06.11.51-.39.5-.4-.25-.16-.11-.26a.78.78,0,0,0,.26-1,.75.75,0,0,0-1-.27Z"/><path class="cls-1" d="M70.88,74c-.07,0,0,0,0,0a1.25,1.25,0,0,1,.17.2c0,.08,0,0,0,.09s.07.09,0,.06-.1.06,0,0,.14-.14.26-.15c-1,.08-1,1.58,0,1.5a1.34,1.34,0,0,0,1-2.06,1.73,1.73,0,0,0-2.33-.92.76.76,0,0,0-.27,1,.78.78,0,0,0,1,.26Z"/><path class="cls-1" d="M65.43,80.16c.13-.09-.12,0-.17,0s0,0,0,0a.6.6,0,0,0,.08.08c0-.08,0,0,0,.08s0-.15,0,.07,0,0,0,.05.06-.16.09-.21.24-.09.1-.08a.75.75,0,0,0,0,1.5c2.5-.07.84-4-.93-2.74-.78.54,0,1.85.76,1.29Z"/><path class="cls-1" d="M60,110.88c.75-2.86,5.22-9.8,7.36-11.33,1.71-1.22,3.33-1.81,5.3-1a15.52,15.52,0,0,1,5.25,4c1.41,1.59,3.36,3.44,3.77,5.6C81.74,108.69,70.87,114.78,60,110.88Z"/><path class="cls-1" d="M49.34,45.09C47.9,46.26,57,67,71.47,57.73c4.15-2.67,9.73-7.66,9.7-12.24C81.17,45.31,57.24,38.7,49.34,45.09Z"/><path class="cls-1" d="M37.16,54.38a50.58,50.58,0,0,1-4.52-7.3c-.46-.93-1-1.82-1.39-2.79a66.16,66.16,0,0,1-3.51-10.36c-.17-.79-.37-1.58-.56-2.37s-.33-1.58-.51-2.36A17.06,17.06,0,0,1,26.13,23c.12-.66.5-.58,1.08-.09a4.3,4.3,0,0,1,1.52,2.52c.25,1,.27,2,.48,3s.3,2,.52,3,.33,2,.56,3,.41,2,.67,3a35.83,35.83,0,0,0,2.72,7,55.62,55.62,0,0,0,4.13,7.18,45,45,0,0,0,3.15,4c.41.5.87,1,1.32,1.41s.9.94,1.38,1.37a31.2,31.2,0,0,0,3,2.41l1.23.84,1.29.77c.85.5,1.71,1,2.57,1.38.38.18.76.32,1.14.48,1.43.57,1.87.8,2,1.47a2.81,2.81,0,0,1,.13.45c0,.48-.73.71-2,.4a19,19,0,0,1-5.23-2.41l-1.19-.75-1.21-.84-1.2-.85-1.13-.95a41,41,0,0,1-3.18-3c-1-1.1-2-2.17-2.8-3.35Z"/><path class="cls-1" d="M87.53,53.25l1.18-1.63c.37-.56.7-1.15,1.05-1.72a39.74,39.74,0,0,0,1.93-3.58c.47-.87.72-1.84,1.13-2.75a54.53,54.53,0,0,0,3.11-10.06c.19-.76.3-1.54.42-2.32s.23-1.55.31-2.32c.09-1,.13-2,.25-3,0-.5.1-1,.18-1.49a7.07,7.07,0,0,1,.35-1.48c.22-.61.59-.52,1.08.05a4.19,4.19,0,0,1,1.09,2.8A42.62,42.62,0,0,1,98.76,32c-.2,1-.51,2.06-.79,3.08a29.59,29.59,0,0,1-1,3c-.4,1.21-.82,2.43-1.23,3.66a37.38,37.38,0,0,1-1.35,3.66c-.5,1.34-1.21,2.58-1.82,3.87-.32.64-.72,1.24-1.07,1.86s-.7,1.24-1.13,1.82l-1.53,2.15c-.52.7-1.13,1.35-1.69,2l-.64.76-.72.7L84.35,60a18.88,18.88,0,0,1-1.54,1.27c-.53.4-1,.85-1.57,1.23-.87.55-1.71,1.13-2.55,1.71s-1.8,1-2.71,1.46a6.16,6.16,0,0,1-1.23.55c-1.61.56-2.17.58-2.66.12a2.41,2.41,0,0,1-.32-.32c-.26-.4.27-1,1.32-1.45a35.15,35.15,0,0,0,9-5.48,13.27,13.27,0,0,0,1.47-1.34c.48-.47,1-.92,1.43-1.4l1.3-1.54.65-.77.58-.83Z"/><path class="cls-1" d="M39.67,79.29c-.82,1-1.65,1.94-2.39,3-.37.52-.77,1-1.12,1.55l-1,1.62c-.53.77-.89,1.63-1.37,2.44a46.34,46.34,0,0,0-4,9.07,17.2,17.2,0,0,0-.59,2.13c-.16.71-.36,1.42-.47,2.14-.15.93-.25,1.86-.43,2.78-.07.46-.15.93-.24,1.39a5.76,5.76,0,0,1-.42,1.36c-.24.57-.61.46-1.08-.1a3.9,3.9,0,0,1-1-2.72,32.86,32.86,0,0,1,1.27-5.87,28.1,28.1,0,0,1,1-2.83c.19-.47.37-.94.58-1.39l.66-1.36,1.57-3.3c.48-1.12,1.07-2.21,1.66-3.28s1.42-2.28,2.12-3.42,1.55-2.2,2.4-3.24l1.58-1.9,1.67-1.82c.83-.93,1.79-1.74,2.67-2.62s1.88-1.63,2.82-2.44c.75-.6,1.48-1.21,2.2-1.83s1.52-1.16,2.28-1.73a10.64,10.64,0,0,1,1-.73c1.35-.82,1.86-.94,2.43-.58a2.08,2.08,0,0,1,.38.25c.34.33,0,1-.91,1.64-2.64,2-5.41,4-8,6.32-1,.83-1.85,1.77-2.79,2.64s-1.78,1.86-2.57,2.87Z"/><path class="cls-1" d="M89.33,78.45c.84,1.14,1.75,2.23,2.5,3.43L93,83.65c.38.6.72,1.22,1.08,1.82l.81,1.32c.24.46.49.91.72,1.37a55.43,55.43,0,0,1,3.9,10.14l.34,1.15.28,1.18c.19.78.41,1.55.58,2.33.19,1,.43,2,.59,3,0,.51.07,1,.08,1.54a6.7,6.7,0,0,1-.1,1.55c-.12.65-.5.58-1.08.08a4.14,4.14,0,0,1-1.53-2.48c-.22-1-.34-2-.49-2.93s-.4-1.94-.58-2.92c-.39-2-.83-3.92-1.41-5.87a34.14,34.14,0,0,0-3-6.79c-.67-1.19-1.36-2.37-2.09-3.54s-1.48-2.3-2.35-3.37c-.52-.67-1-1.36-1.56-2l-1.66-1.91c-.86-1-1.79-1.84-2.69-2.76s-1.9-1.73-2.9-2.52c-.79-.59-1.6-1.16-2.4-1.71L75,68.84c-.36-.23-.75-.41-1.13-.62-1.39-.78-1.75-1.17-1.76-1.87a2.48,2.48,0,0,1,0-.47c.09-.48.85-.47,2,0a36.32,36.32,0,0,1,9.35,6.27c1.11.91,2.07,2,3.09,3s1.92,2.13,2.84,3.23Z"/><path class="cls-1" d="M70.92,30l-1.39.13-1.39.05-2.78.09c-1.85.05-3.7-.07-5.55-.1-1.35-.08-2.7-.18-4-.3a30,30,0,0,1-3.53-.5c-1.17-.21-2.35-.38-3.51-.64l-3.45-.88c-.57-.15-1.16-.27-1.72-.45l-1.69-.57-3-1c-1-.34-1.95-.78-2.92-1.16A32.68,32.68,0,0,1,32.26,23,40,40,0,0,1,28.79,21c-.7-.45-.43-.69.38-.68a8.74,8.74,0,0,1,3.49.86,75.36,75.36,0,0,0,15,5.42,31.92,31.92,0,0,0,4.83.9c.82.11,1.63.27,2.46.32l2.48.19c.9.05,1.81.19,2.71.18l2.73.05c1.82.09,3.64-.08,5.45-.14,1.13,0,2.24-.18,3.35-.29s2.24-.2,3.34-.42c1.67-.29,3.36-.52,5-.94.83-.19,1.66-.37,2.48-.58l2.42-.75A43.39,43.39,0,0,0,92,22c.49-.27.93-.59,1.42-.87s.83-.46,1.15-.62a4.31,4.31,0,0,1,.8-.38,2.12,2.12,0,0,1,1.2,0,4.29,4.29,0,0,1,.49.13c.21.11.19.36,0,.74a5.06,5.06,0,0,1-1.28,1.46c-4,2.87-8.87,4.48-13.75,5.71l-2.74.63c-.92.22-1.85.33-2.77.49s-1.85.33-2.79.42l-2.79.3Z"/><path class="cls-1" d="M55,9c1.9-.26,3.83-.29,5.74-.36s3.83,0,5.75.07c1.4,0,2.79.18,4.18.29A72.62,72.62,0,0,1,85,12.13c2.07.68,4.13,1.41,6.13,2.24l1.93.81,1.87.94c.61.37,1.21.68,1.81,1.12A6.27,6.27,0,0,1,98.26,19c.23.42.22.69.11.71s-.33-.12-.67-.29a7.63,7.63,0,0,0-1.36-.57c-.29-.1-.53-.13-.89-.24a9.55,9.55,0,0,1-1-.43c-2.47-1.14-5-2.28-7.53-3.25S81.69,13.08,79,12.37c-.81-.21-1.63-.4-2.45-.59s-1.68-.27-2.53-.41-1.69-.27-2.54-.34l-2.56-.22c-1.87-.24-3.75-.19-5.63-.27s-3.76.11-5.64.15c-1.15.08-2.3.25-3.46.36a33.09,33.09,0,0,0-3.44.48c-1.72.35-3.47.61-5.17,1L40.51,14c-1.28.45-2.53,1-3.77,1.47s-2.49,1-3.67,1.62l-1.58.79c-2,.94-2.68,1.11-3.36.82a2,2,0,0,1-.45-.2c-.38-.28.3-1,1.75-1.76,1.07-.59,2.17-1.16,3.29-1.73l.84-.43.88-.36,1.77-.7c1.2-.47,2.4-.94,3.61-1.38l3.75-1.07c.93-.24,1.85-.57,2.8-.73l2.86-.56c1-.17,1.89-.41,2.86-.52L55,8.9Z"/><path class="cls-1" d="M43.06,103.16c.93-.26,1.87-.48,2.81-.7.34-.08.67-.21,1-.28,1.21-.25,2.44-.43,3.65-.63.54-.09,1.08-.19,1.61-.32a3.16,3.16,0,0,1,2.11-.1c.24.1.22.22.09.52l-.28.59a1.1,1.1,0,0,1-.46.45,17.08,17.08,0,0,1-4.1.77A15.69,15.69,0,0,0,47,104c-.92.22-1.84.45-2.75.7-.56.16-1.12.32-1.67.5a23.8,23.8,0,0,0-2.48.93,14.37,14.37,0,0,0-1.72,1l-.36.26a.8.8,0,0,1-1.06-.22,1.31,1.31,0,0,1-.2-.21c-.19-.24-.12-.59.15-1a5.3,5.3,0,0,1,1.56-1.15,16.23,16.23,0,0,1,1.79-.84c.91-.36,1.85-.66,2.78-1Z"/><path class="cls-1" d="M87.54,117.5a72.58,72.58,0,0,1-15.15,3.2c-1.87.19-3.75.38-5.63.43A75.73,75.73,0,0,1,47.08,119c-2.84-.7-5.67-1.54-8.41-2.51a31.15,31.15,0,0,1-5.16-2.34,14.1,14.1,0,0,1-4.39-3.65c-.37-.49-.44-.77-.35-.81s.34.14.79.37a13.11,13.11,0,0,0,1.87.79c.76.31,1.62.71,2.54,1.17a35.65,35.65,0,0,0,4.91,2.28q2.61.95,5.29,1.69a92.3,92.3,0,0,0,10.89,2.44,62.63,62.63,0,0,0,13.71.46,71.78,71.78,0,0,0,14.92-2.48,81.58,81.58,0,0,0,8.84-3c1.09-.46,2.16-1,3.18-1.49a13.09,13.09,0,0,0,2.8-1.89,2.68,2.68,0,0,0,.8-1.15,1,1,0,0,0-.34-1,8,8,0,0,0-2.86-1.52,66.92,66.92,0,0,0-10.53-2.38l-2.35-.36c-2.92-.53-3.81-1-4.38-1.51a3.22,3.22,0,0,1-.37-.39c-.24-.39,1-.56,3.25-.48a47,47,0,0,1,5,.6c1.66.27,3.33.59,5,1a47.22,47.22,0,0,1,5.08,1.43,14.8,14.8,0,0,1,2.62,1.17,5.78,5.78,0,0,1,1.38,1.14,4,4,0,0,1,.59,1,2.89,2.89,0,0,1,.19,1.27,3.4,3.4,0,0,1-.51,1.6,4.22,4.22,0,0,1-.39.56,4.12,4.12,0,0,1-.42.48,10.79,10.79,0,0,1-1.74,1.4,26.83,26.83,0,0,1-3.59,1.95,73.75,73.75,0,0,1-7.34,2.81Z"/><path class="cls-1" d="M82.34,38.8c.24.08.47.16.71.26a5.5,5.5,0,0,1,1.07.56,2.09,2.09,0,0,1,.76.86,1.91,1.91,0,0,1,0,1.11l-.43,1.19c-.1.26-.22.51-.33.77-.21.52-.46,1-.71,1.52A29.44,29.44,0,0,1,81.78,48a37.39,37.39,0,0,1-4,5.25,29.65,29.65,0,0,1-4.32,4,19.24,19.24,0,0,1-4.59,2.56c-.83.32-1.69.5-2.54.75s-1.75.22-2.62.34a17.49,17.49,0,0,1-9.91-2.91A31.29,31.29,0,0,1,47,52a35.67,35.67,0,0,1-6.1-9.7c-.45-1.11,0-1.1.73-.37a25,25,0,0,1,3.06,3.94,37.67,37.67,0,0,0,7.26,8.47,19.07,19.07,0,0,0,9.71,4.65,14.06,14.06,0,0,0,6.5-.94,20.77,20.77,0,0,0,5.69-3.72A33.69,33.69,0,0,0,82.64,42l.15-.4c0-.08.08-.16.07-.24a.35.35,0,0,0-.16-.2L82.48,41,82.36,41l-.24-.09a18.31,18.31,0,0,0-2.06-.62c-1.42-.35-2.87-.62-4.33-.86a94.78,94.78,0,0,0-14.45-1.15,58.53,58.53,0,0,0-11,1.05c-.79.16-1.54.35-2.32.55-2.86.77-3.67,1.13-4.5.93a3.76,3.76,0,0,1-.55-.12c-.47-.17.47-1.24,2.67-2.11a36.49,36.49,0,0,1,10.25-2.08,80.33,80.33,0,0,1,10.64-.08q4,.21,7.92.75a49.22,49.22,0,0,1,7.93,1.63Z"/><path class="cls-1" d="M81.83,107.68a0,0,0,0,0,0-.06,4.83,4.83,0,0,0-.22-.82,10.67,10.67,0,0,0-.5-1.16,16.94,16.94,0,0,0-1.4-2.27c-.53-.75-1.11-1.48-1.7-2.22L77.15,100c-.29-.37-.57-.72-.87-1.07a27,27,0,0,0-3-3,18.41,18.41,0,0,0-3-2.13,6.38,6.38,0,0,0-3.29-.9,7.82,7.82,0,0,0-3.39,1,14.81,14.81,0,0,0-3.07,2.13A47,47,0,0,0,55.71,101a52.78,52.78,0,0,0-5,7.1c-.4.77-.62.63-.65-.24a6.55,6.55,0,0,1,.21-1.75,7.8,7.8,0,0,1,1-2.19A40.8,40.8,0,0,1,54,100.13a40.22,40.22,0,0,1,3.07-3.45,32.19,32.19,0,0,1,3.54-3.1,14,14,0,0,1,2.09-1.26A10.51,10.51,0,0,1,65,91.43a8.24,8.24,0,0,1,3.1-.19,9,9,0,0,1,2.92,1,20.68,20.68,0,0,1,4.7,3.44,45.68,45.68,0,0,1,4.08,4.71,22.5,22.5,0,0,1,3.44,5.32,7.51,7.51,0,0,1,.34.94l.14.5c.06.22.09.46.13.69a1.21,1.21,0,0,1-.29.93,4.44,4.44,0,0,1-.83.63,13.91,13.91,0,0,1-1.32.69,25.22,25.22,0,0,1-2.72,1.08,38.36,38.36,0,0,1-11.41,1.89,40.43,40.43,0,0,1-8.86-.72c-.64-.13-1.28-.24-1.91-.43-2.34-.74-3-1.26-3.29-1.87a2,2,0,0,1-.2-.42c-.08-.41.93-.31,2.61.06,1.24.26,2.49.53,3.76.77s2.55.38,3.85.5a39.2,39.2,0,0,0,7.88-.13,35.34,35.34,0,0,0,5.77-1.17,25.12,25.12,0,0,0,2.77-1c.45-.19.89-.38,1.31-.59l.61-.33.18-.11Z"/><path class="cls-1" d="M64.83,68.17a2.07,2.07,0,0,1-.51-1,3,3,0,0,1-.07-1,2.47,2.47,0,0,1,.19-.79,2.26,2.26,0,0,1,2.36-1.1,3.59,3.59,0,0,1,1.06.31,1.58,1.58,0,0,1,1,.95c0,.14-.18.26-.46.34a1.6,1.6,0,0,1-.74.08,2.19,2.19,0,0,0-1.47-.52.77.77,0,0,0-.67.58,1.72,1.72,0,0,0,.05,1.2.85.85,0,0,0,.48.47,1.51,1.51,0,0,0,1.2-.15.76.76,0,0,0,.42-.65s0,0,0-.06,0-.18.22-.41l.11-.17c.1-.15.38-.22.68.07a1.16,1.16,0,0,1,.19,1,1.71,1.71,0,0,1-.42.79,2.68,2.68,0,0,1-1.29.76,2.32,2.32,0,0,1-2.29-.55Z"/><path class="cls-1" d="M71.93,72.45a2,2,0,0,1,.74.71A2.58,2.58,0,0,1,73,74a1.85,1.85,0,0,1,.08.71,1.91,1.91,0,0,1-1.57,1.57,3.25,3.25,0,0,1-.93.07,1.26,1.26,0,0,1-1-.47c-.08-.11.1-.3.32-.48a1.72,1.72,0,0,1,.58-.37,2.1,2.1,0,0,0,1.14,0,.54.54,0,0,0,.32-.54,1.38,1.38,0,0,0-.34-.85.59.59,0,0,0-.44-.2,1.08,1.08,0,0,0-.83.42c-.16.2-.17.5-.09.56s.05,0,0,0,0,.14-.13.4l-.05.19c0,.18-.26.35-.62.21a1,1,0,0,1-.47-.75,1.41,1.41,0,0,1,.1-.78,2.21,2.21,0,0,1,.81-1A2,2,0,0,1,72,72.43Z"/><path class="cls-1" d="M66.07,82.2a2,2,0,0,1-1,0,2.74,2.74,0,0,1-.84-.3,2.09,2.09,0,0,1-.56-.43,1.93,1.93,0,0,1-.06-2.23,3.71,3.71,0,0,1,.59-.72,1.27,1.27,0,0,1,1.07-.43c.12,0,.14.27.12.56a1.77,1.77,0,0,1-.12.67,2,2,0,0,0-.8.81.51.51,0,0,0,.16.6,1.33,1.33,0,0,0,.85.34.55.55,0,0,0,.45-.17,1.09,1.09,0,0,0,.27-.89c0-.26-.25-.47-.34-.45a.07.07,0,0,0,0,0l-.21-.38-.09-.16c-.1-.16-.08-.44.27-.59a1,1,0,0,1,.86.17,1.46,1.46,0,0,1,.51.61,2.32,2.32,0,0,1,.17,1.29,2,2,0,0,1-1.24,1.65Z"/><path class="cls-2" d="M107.39,8.23a1.6,1.6,0,0,1,2.22.36C111.66,12,103.14,10.79,107.39,8.23Z"/><path class="cls-2" d="M13.33,36.68a1.61,1.61,0,0,1,2.25-.16C18.35,39.36,9.78,40.14,13.33,36.68Z"/><path class="cls-1" d="M113,17.42a1.6,1.6,0,0,1,2.22.36C117.27,21.18,108.75,20,113,17.42Z"/></g></svg>