<svg xmlns="http://www.w3.org/2000/svg" width="128" height="128" viewBox="0 0 128 128"><defs><style>.cls-1{fill:#231f20;}</style></defs><title>Free Icons</title><g id="Layer_40" data-name="Layer 40"><path class="cls-1" d="M23.74,83.66a.31.31,0,0,0-.12.09l.05-.07a2.82,2.82,0,0,0,.25-.37,1.69,1.69,0,0,0,.13-.31.78.78,0,0,0,.09-.34v-.09c-.13,2.58,0,.72-.07,1.29h-.85a11.83,11.83,0,0,0-1.88.27c-1.31.27-2.67.71-4.16,1.07-.6.13-1.24.39-2.12.59a5.45,5.45,0,0,1-1.52.13,3.17,3.17,0,0,1-1.9-.77c-.12-.12-.25-.25-.36-.38a3.43,3.43,0,0,1-.37-.65,2.19,2.19,0,0,1-.13-.91A2.11,2.11,0,0,1,11,82.4a3.54,3.54,0,0,1,1.32-1.34,13.94,13.94,0,0,1,2.19-1l1.82-.72a1.66,1.66,0,0,0,.74-.48.31.31,0,0,0,0-.37.44.44,0,0,0-.3-.1,10.31,10.31,0,0,0-1.56.32l-.57.11a9.82,9.82,0,0,1-1.53.13,4.38,4.38,0,0,1-1.78-.34,3,3,0,0,1-1.49-1.43,2.06,2.06,0,0,1-.21-1.29,2.15,2.15,0,0,1,.61-1.11,4.67,4.67,0,0,1,1.5-1A17.87,17.87,0,0,1,14.54,73l4.85-1L20,71.8l.34-.1a3.18,3.18,0,0,0,.53-.24c.16-.08.33-.27.22-.46a.7.7,0,0,0-.38-.41A1.87,1.87,0,0,0,20,70.4a10.48,10.48,0,0,0-1.42-.06,29.78,29.78,0,0,0-3.06.25,46,46,0,0,0-6.1.85c-1.24.21-1.25-.19-.33-1a9.93,9.93,0,0,1,5.46-2c1-.09,2.13-.24,3.28-.28a14.86,14.86,0,0,1,1.76,0l.46,0,.26,0a2.63,2.63,0,0,1,.39.06,6.76,6.76,0,0,1,1.44.47,2.79,2.79,0,0,1,1.67,1.82l.14.6c0,.2,0,.41-.07.61a2.45,2.45,0,0,1-.59,1,7.51,7.51,0,0,1-2.54,1.33c-.55.18-1.09.33-1.63.47-2.13.48-4.28.82-6.06,1.43a4.49,4.49,0,0,0-1,.44l0,0h0s0,0,0,0l-.05,0a1,1,0,0,0-.25-.15l-.12-.06h0c.05,0,0,0,.1,0s.43-.18.38-.1a.58.58,0,0,0,.36.34,2.82,2.82,0,0,0,1.09.12l.41,0a4.85,4.85,0,0,0,.52-.08A15.63,15.63,0,0,0,16,76c1.11-.31,2.27-.68,3.22-.89a10.43,10.43,0,0,1,2.17-.26,5.58,5.58,0,0,1,1.42.17,2,2,0,0,1,1.32,1.07,1.89,1.89,0,0,1,.14,1,2,2,0,0,1-.3.75A7.12,7.12,0,0,1,21,80.27c-.93.44-2,.89-3.13,1.33l-1.68.64-1.05.42a7.17,7.17,0,0,0-1.61.85s-.09.06-.09.07,0,.07-.16-.07a1,1,0,0,0-.23-.11c-.11,0-.06,0-.11,0s-.09,0-.07,0l.08,0c.64-.4.42-.17.55-.16a2.52,2.52,0,0,0,1.39-.13l1-.3L17,82.48c1.37-.35,2.79-.81,4.31-1.08a11.45,11.45,0,0,1,3-.2,2,2,0,0,1,1.15.59,2.67,2.67,0,0,1,.62.9,2.1,2.1,0,0,1,.1,1.22,2.31,2.31,0,0,1-.54,1,5.9,5.9,0,0,1-2.87,1.44c-.47.14-.94.21-1.4.3a10.75,10.75,0,0,0-1.21.26,11,11,0,0,0-3.35,1.54,4,4,0,0,0-1.14,1.16,2.18,2.18,0,0,0-.23.63.83.83,0,0,0,0,.25v0h0l-.08,0c-.13.06-.14.06-.18.1s0,0,.06-.1a.64.64,0,0,0,.06-.14s0,0,0,0a.71.71,0,0,0,.23,0,3.35,3.35,0,0,0,.79-.16,14.06,14.06,0,0,0,1.79-.67c1.23-.52,2.37-1.15,3.77-1.66A29,29,0,0,1,25,87.06a12.8,12.8,0,0,1,1.72-.22,4.56,4.56,0,0,1,1,.08,2.16,2.16,0,0,1,1.29.72,4.9,4.9,0,0,1,.34.48,4.26,4.26,0,0,1,.25.57,2.49,2.49,0,0,1,0,1.48,3.68,3.68,0,0,1-1.51,1.72,18,18,0,0,1-3,1.46l-2.47,1c-3,1.31-3.55,1.66-4.61,1.67-.24,0-.49.08-.7.07s-.44-.4-.13-1.11a5.93,5.93,0,0,1,2.26-2.37,42,42,0,0,1,5.22-2.52,9,9,0,0,0,2-1.1c.06,0,.05-.06.08-.09h0a1.94,1.94,0,0,0,.29.21c.25.21.55.23.38.21a1.15,1.15,0,0,0-.31.06s-.21,0-.3.09a.88.88,0,0,0-.2.1.1.1,0,0,1-.05-.06h0c2.16-1.55.6-.43,1.08-.78h0l0,0a.12.12,0,0,0,0,0,1.45,1.45,0,0,1-.13.18,1,1,0,0,0-.14.31c0,.08-.14.3-.17.45s0,.17,0,.18H27a2.52,2.52,0,0,0-.37,0,7.58,7.58,0,0,0-1.13.17,22.33,22.33,0,0,0-2.56.7c-.61.21-1.54.68-2.43,1.07a27.6,27.6,0,0,1-2.94,1.19,8.73,8.73,0,0,1-1.42.34,4.94,4.94,0,0,1-1,.05A3.2,3.2,0,0,1,13.6,93a2.93,2.93,0,0,1-1.2-1.72A3.93,3.93,0,0,1,12.34,90,5.17,5.17,0,0,1,13,88.18a7.07,7.07,0,0,1,2.12-2.24,12.5,12.5,0,0,1,2.32-1.25A11.85,11.85,0,0,1,19.83,84c1-.18,1.53-.19,2.15-.31a5.53,5.53,0,0,0,1.47-.44l.1-.06s0,0,0,0,.36.3.51.33a.23.23,0,0,0,.11,0h-.06a.37.37,0,0,0-.18,0,.68.68,0,0,0-.21.1Z"/><path class="cls-1" d="M115.1,26.47a.64.64,0,0,0,.18-.19.13.13,0,0,0-.08-.2.39.39,0,0,0-.28,0l-.13.05-.34.2a8.55,8.55,0,0,0-.73.54A18.9,18.9,0,0,0,111,29.7a26.76,26.76,0,0,1-2.93,3.4,5.94,5.94,0,0,1-1.67,1.15,4.45,4.45,0,0,1-.7.19,2.89,2.89,0,0,1-.92,0,2.78,2.78,0,0,1-.87-.47,2.52,2.52,0,0,1-.85-2.21,4.38,4.38,0,0,1,.3-1.15,8.78,8.78,0,0,1,1-1.61,27.31,27.31,0,0,1,2.31-2.54c.39-.4.75-.72,1.08-1.09s.71-.79,1-1.19a19.4,19.4,0,0,0,1.83-2.44,5.75,5.75,0,0,0,.59-1.2,2,2,0,0,0,.08-.43c0-.11,0-.09,0-.11h.41s0,0,0,.08a.43.43,0,0,0,0,.16s0,0,0,0h-.07l-.14,0a3.45,3.45,0,0,0-.75.45,13.18,13.18,0,0,0-1.54,1.4c-1,1-2,2.15-3,3.27l-1.61,1.86a22.4,22.4,0,0,1-2,2.05,4.34,4.34,0,0,1-1.4.92,2.19,2.19,0,0,1-.72.14,3.41,3.41,0,0,1-.76-.2,2.18,2.18,0,0,1-1.16-1,2.6,2.6,0,0,1-.21-1.52A7,7,0,0,1,99,25.51c.29-.59.52-1,.81-1.48.55-.92,1.14-1.79,1.72-2.64s1.16-1.7,1.69-2.53c.25-.42.52-.83.74-1.23a4.4,4.4,0,0,0,.47-1.1c.13-.3.05-.48.22-.62s.62-.13,1,.57a4.51,4.51,0,0,1,.06,2.75,10.38,10.38,0,0,1-1.43,3.1l-1.73,2.61-.79,1.26c-.3.52-.31.55-.31.54s0,0,0,0,0,0,0,0,0,0,.14-.12c1.38-1.43,2.74-3.09,4.19-4.68a30.74,30.74,0,0,1,2.35-2.36,11.36,11.36,0,0,1,1.44-1.11,5.15,5.15,0,0,1,1-.51,2.77,2.77,0,0,1,1.56-.15,4.79,4.79,0,0,1,.59.23l.19.1.15.18a2.61,2.61,0,0,1,.58,1.75,4.23,4.23,0,0,1-.27,1.33,10.09,10.09,0,0,1-1,1.94,30.61,30.61,0,0,1-2.42,3.21c-.4.48-.93,1.06-1.36,1.49s-.89.9-1.3,1.36a13.74,13.74,0,0,0-1.12,1.37,3.38,3.38,0,0,0-.57,1.15c0,.05,0,.05,0,.07s.15-.15,0,0c0,0-.12.17-.11.15l0,0s0,.1,0,0a1,1,0,0,0,0-.25l0,0a4.11,4.11,0,0,0,1.27-.94,38.19,38.19,0,0,0,2.68-3.21,18.22,18.22,0,0,1,3.26-3.18,9.3,9.3,0,0,1,1-.66,5.54,5.54,0,0,1,1.5-.6,3.68,3.68,0,0,1,2.9.43,1.83,1.83,0,0,1,.79,1.49,3.25,3.25,0,0,1-.51,1.7,8.38,8.38,0,0,1-.56.81l-.31.4-.27.29c-.34.39-.64.69-1,1-1.31,1.26-2.68,2.4-4,3.55a17.84,17.84,0,0,0-2.71,2.6,4.43,4.43,0,0,0-.41.71,1.61,1.61,0,0,0-.1.27c-.06.06.13,0-.19,0-.09,0-.11,0-.18,0s-.11.06-.09,0h0a.3.3,0,0,0,.09-.15s0-.09.06-.23,0,0,0-.05a1.62,1.62,0,0,0,.26,0,4,4,0,0,0,.39-.11l.35-.12a5.13,5.13,0,0,0,.65-.47l.75-.63,1.51-1.31c1-.88,2-1.75,3.14-2.57a13.41,13.41,0,0,1,1.36-.91,5.28,5.28,0,0,1,1.69-.72,1.86,1.86,0,0,1,1.38.23,1.89,1.89,0,0,1,.77,1.2,2.13,2.13,0,0,1,.08.52,1.24,1.24,0,0,1,0,.28,2.57,2.57,0,0,1,0,.4,4,4,0,0,1-.45,1,19.69,19.69,0,0,1-2,2.51c-.71.76-1.43,1.49-2.14,2.22l-1.83,1.92a33,33,0,0,1-2.42,2.39,3.65,3.65,0,0,1-1.36.81,2.69,2.69,0,0,0-.53.34c-.13.08-.23.07-.33-.11a1.54,1.54,0,0,1-.1-.89,6.16,6.16,0,0,1,1.37-2.82c1.19-1.5,2.49-2.84,3.77-4.19l1.9-2q.47-.49.87-1a5.46,5.46,0,0,0,.61-.86l0-.05v0s0,0,0,0l.15.07c.18.09.49.13.6.18l.22.05h-1a.57.57,0,0,1,0-.13s0,0,0,0a3.53,3.53,0,0,0,.44-.14c.46-.08.68-.45.57-.26a.88.88,0,0,0-.06.18c0,.07,0,.14,0,.3a1.33,1.33,0,0,0,0,.4s0,.24,0,.21h0a3.68,3.68,0,0,0-.75.36c-.32.19-.68.45-1,.7-1.41,1-2.81,2.32-4.27,3.61l-.83.72-.46.38-.26.2-.14.11-.22.14a4.07,4.07,0,0,1-.87.41,6.4,6.4,0,0,1-.72.21,4.54,4.54,0,0,1-1,.13,3.93,3.93,0,0,1-.81-.11,2.72,2.72,0,0,1-.58-.26,1.82,1.82,0,0,1-.55-.45,2.48,2.48,0,0,1-.59-1.24,2.39,2.39,0,0,1,0-.45,2.06,2.06,0,0,1,0-.39,3.71,3.71,0,0,1,.28-1,7.05,7.05,0,0,1,.72-1.29,8.45,8.45,0,0,1,.88-1.08c.3-.31.58-.57.86-.83,1.13-1,2.22-1.91,3.28-2.84.53-.46,1-.93,1.54-1.4l.72-.7.34-.36.26-.29Z"/><path class="cls-1" d="M54.77,57.21c1.23-2.58,2.55-5.14,4-7.63.38-.64.68-1.2,1.15-1.9a9.25,9.25,0,0,1,1.66-1.79,25,25,0,0,1,3.69-2.54c1.84-1.07,3.69-2.05,5.58-2.93,3.34-1.56,6.71-3,10.05-4.42,1.66-.73,3.31-1.48,4.92-2.28A31.12,31.12,0,0,0,90.41,31,47.26,47.26,0,0,0,97,24.16c1.3-1.59,2.54-3.23,3.81-4.87.65-.81,1.27-1.64,2-2.41s1.41-1.53,2.16-2.26c.93-.91,1-.62.52.42-.23.51-.57,1.23-1,2.08-.22.42-.44.88-.72,1.34s-.61.93-1,1.41a87.4,87.4,0,0,1-8.08,9.92c-.76.77-1.55,1.51-2.37,2.23a18.08,18.08,0,0,1-2.76,2,54.36,54.36,0,0,1-5.8,2.93c-4.67,2.1-9.51,4.23-14.12,6.52a32.05,32.05,0,0,0-7,4.38,6.44,6.44,0,0,0-1.21,1.45L60.4,51.09c-.71,1.22-1.38,2.47-2,3.73-1.61,3.11-3.06,6.31-4.5,9.51a48.35,48.35,0,0,0-2.73,7.39c-.31,1.26-.7,2.62-.08,3.27s1.84.7,2.93.15a15.78,15.78,0,0,0,4.49-3.73,27.65,27.65,0,0,0,3.43-4.81c.43-.75.8-1.52,1.17-2.31.68-1.46,1-2.46,1.34-3.14a4.31,4.31,0,0,1,.93-1.35,3.59,3.59,0,0,1,.42-.39c.22-.13.33.16.36.81a9.25,9.25,0,0,1-.48,2.87,27.48,27.48,0,0,1-5.85,10A18,18,0,0,1,55,77a7,7,0,0,1-1.72.6,4.21,4.21,0,0,1-1,.09l-.55,0a5.15,5.15,0,0,1-.56-.16,3,3,0,0,1-1-.53,3.11,3.11,0,0,1-.86-.84,3.7,3.7,0,0,1-.63-2.23A11.65,11.65,0,0,1,49,71.4c.18-.73.38-1.45.61-2.16.45-1.41,1-2.79,1.54-4.14,1.14-2.69,2.31-5.27,3.53-7.91Z"/><path class="cls-1" d="M99.36,56.4c1.67-2.45,3.42-4.83,5.2-7.17.65-.86,1.25-1.75,1.91-2.59,1.16-1.48,2.33-3,3.57-4.43s2.5-2.85,3.79-4.24c1.14-1.23,2.29-2.48,3.45-3.69a17.65,17.65,0,0,1,5.1-4.1c.65-.3.7.09.42.71a8.13,8.13,0,0,1-1.65,2.32c-3.05,2.88-5.89,6.14-8.82,9.36-1.77,1.9-3.3,4.14-4.93,6.28-1.78,2.34-3.54,4.7-5.21,7.11-1,1.48-2,3-3,4.52-1.43,2.33-2.89,4.67-4.15,7.08-1,1.87-1.74,3.79-2.51,5.71-.16.42-.31.84-.47,1.27-.61,1.58-.94,2-1.53,2.22a2.48,2.48,0,0,1-.37.14c-.32.08-.52-.74-.22-2a32.45,32.45,0,0,1,1.93-5.56c.82-1.81,1.76-3.59,2.75-5.33,1.48-2.58,3-5.12,4.68-7.63Z"/><path class="cls-1" d="M33.79,65.73q-3.57.78-7.15,1.49c-.88.17-1.74.39-2.61.55-3.08.55-6.17,1-9.26,1.53-1.37.21-2.74.46-4.1.69-.87.16-1.75.29-2.63.41a24,24,0,0,1-2.68,0c-.55,0-.49-.18-.05-.43.21-.14.54-.24.91-.49l.6-.37c.1-.07.22-.11.33-.2l.36-.08c3.51-.64,7.05-1.16,10.63-1.68,2.15-.29,4.34-.84,6.5-1.3q3.57-.77,7.12-1.62l4.37-1.09c2.2-.57,4.42-1.11,6.61-1.71,1.7-.46,3.34-1,5.06-1.45.38-.1.75-.21,1.15-.28,1.46-.27,2.16,0,2.38.64a.86.86,0,0,1,.1.37c0,.16-.18.23-.38.41a2,2,0,0,1-1,.41c-1.39.32-2.91.8-4.44,1.22L40.94,64c-2.35.62-4.75,1.16-7.14,1.74Z"/><path class="cls-1" d="M92.83,86.45c0-.11.07-.24.11-.36s0-.3,0-.31,0,0-.07-.24a6.21,6.21,0,0,0-.36-.64c-.28-.44-.61-.9-1-1.34-.69-.91-1.44-1.79-2.21-2.66s-1.36-1.42-2-2.15C85,76.18,82.57,73.69,80,71.27c-1.13-1.1-2.25-2.18-3.41-3.16a37.29,37.29,0,0,0-4.69-3.27c-.5-.34-.41-.51.22-.68a3.7,3.7,0,0,1,2.91.39,26.35,26.35,0,0,1,5,3.88l2.2,2.07c.76.7,1.47,1.44,2.17,2.2,1.68,1.81,3.58,3.52,5.31,5.36,1,1,1.88,2,2.78,3.11.45.54.89,1.09,1.31,1.66A11.05,11.05,0,0,1,95,84.75a2.5,2.5,0,0,1,.22,1,5.82,5.82,0,0,1-2.36,4.41,8.68,8.68,0,0,1-1.78,1.11,6.09,6.09,0,0,1-2.09.63,5,5,0,0,1-1.16,0,8.53,8.53,0,0,1-1-.31,10.31,10.31,0,0,1-1.84-1,22.87,22.87,0,0,1-2.48-1.81,28.48,28.48,0,0,1-2.23-2c-.3-.32-.6-.63-.88-1-1.09-1.21-1.08-1.89-1-2.4a1.7,1.7,0,0,1,.06-.35c0-.15.23-.14.54,0a4.5,4.5,0,0,1,1.27.67l2,1.65c.66.57,1.31,1.15,2,1.68s1.34,1.05,2,1.48a6,6,0,0,0,1.92.91c.11.05.19,0,.29,0s.19,0,.26,0a.86.86,0,0,1,.23,0,2.68,2.68,0,0,0,.35-.1,6.91,6.91,0,0,0,1.49-.69,4.36,4.36,0,0,0,2-2.19Z"/><path class="cls-1" d="M77.8,93.53a13.69,13.69,0,0,0,3,1.76,6.9,6.9,0,0,0,1.13.28,2.46,2.46,0,0,0,1.71-.14,16.08,16.08,0,0,0,2-1.26,7,7,0,0,0,1.44-1.44,23.32,23.32,0,0,0,1.28-2.17c.13-.23.46-.14.75.2a1.7,1.7,0,0,1,.33,1.56A7.34,7.34,0,0,1,87.64,95a10,10,0,0,1-2.47,1.79,6.45,6.45,0,0,1-2,.84,5.27,5.27,0,0,1-2.1,0A12.5,12.5,0,0,1,77.32,96c-.7-.43-1.36-.9-2-1.38-1-.73-1.9-1.54-2.83-2.31-.72-.6-1.5-1.13-2.22-1.76a4.54,4.54,0,0,1-.48-.41c-.55-.57-.57-.9-.13-1.43.1-.12.2-.25.31-.36a1,1,0,0,1,1.32-.08,36,36,0,0,1,3.73,3,32.07,32.07,0,0,0,2.82,2.26Z"/><path class="cls-1" d="M69.52,99.42a17.66,17.66,0,0,0,3.12,1.93,9.44,9.44,0,0,0,1.17.39,3.56,3.56,0,0,0,.92.16,1.94,1.94,0,0,0,.36,0c.15,0,.36-.14.53-.2a9.85,9.85,0,0,0,2.09-1.08,5.75,5.75,0,0,0,1.42-1.45A12,12,0,0,0,80.2,96.9c.08-.21.48-.24.87.07a1.58,1.58,0,0,1,.53,1.63,6.27,6.27,0,0,1-1.87,2.85A8.73,8.73,0,0,1,77,103.16l-.88.36-.23.1-.31.11c-.21.07-.41.08-.62.13a5.71,5.71,0,0,1-2.15-.24,14.49,14.49,0,0,1-3.71-1.93c-.69-.46-1.36-1-2-1.47-1-.77-1.91-1.62-2.85-2.43-.72-.64-1.51-1.18-2.2-1.88-.16-.15-.32-.3-.46-.46-.52-.63-.55-1-.21-1.39a2.31,2.31,0,0,1,.24-.29c.31-.26.74-.19,1.16.13,1.29.93,2.53,2.06,3.83,3.15,1,.81,1.94,1.62,3,2.33Z"/><path class="cls-1" d="M53.13,97.11c1.26,1.15,2.54,2.3,3.89,3.34.48.4,1,.7,1.52,1.08a31.39,31.39,0,0,0,2.69,1.79,10.46,10.46,0,0,0,2.91,1.12,7.15,7.15,0,0,0,2.75.13,4.34,4.34,0,0,0,2.69-1.66c.23-.27.52-.12.66.36a2,2,0,0,1-.66,2,4.79,4.79,0,0,1-2.18,1,7.77,7.77,0,0,1-2.24.12,11.47,11.47,0,0,1-2.07-.35,6.4,6.4,0,0,1-1-.33,5.55,5.55,0,0,1-1-.47,43,43,0,0,1-4.21-2.58c-1.45-1-2.82-2.17-4.15-3.33-.83-.71-1.62-1.46-2.42-2.19-1.2-1.13-2.36-2.31-3.5-3.48-.9-.91-1.82-1.76-2.69-2.71-.19-.22-.38-.42-.56-.65-.66-.85-.69-1.29-.35-1.71a1.86,1.86,0,0,1,.24-.3c.31-.27.82-.08,1.26.44,1.47,1.52,3.07,3.15,4.71,4.76,1.22,1.2,2.47,2.39,3.75,3.54Z"/><path class="cls-1" d="M27.08,92.1l4.55-1.58c.56-.19,1.09-.44,1.66-.62,2-.65,4-1.19,6-1.67.91-.2,1.82-.45,2.74-.63a10.19,10.19,0,0,1,1.84-.25,4.55,4.55,0,0,1,1.91.44c.38.2.17.47-.21.76a4.9,4.9,0,0,1-1.44.83c-2.05.26-4.33.84-6.64,1.34A37.05,37.05,0,0,0,33.4,92.1l-4.55,1.61-2.81,1-4.26,1.54c-1.1.41-2.15.93-3.3,1.29a6.36,6.36,0,0,1-.78.2c-1,.18-1.44,0-1.62-.52a1.28,1.28,0,0,1-.11-.35.63.63,0,0,1,.21-.52,2.14,2.14,0,0,1,.65-.38c1.71-.78,3.71-1.47,5.71-2.25l4.51-1.68Z"/><path class="cls-1" d="M25.13,83.52a31.37,31.37,0,0,1-1.7-4.31c-.18-.53-.38-1.06-.51-1.61a19.34,19.34,0,0,1-.48-6c.06-.88.17-1.77.31-2.64a11.94,11.94,0,0,1,.4-1.67,5.06,5.06,0,0,1,.85-1.5c.22-.29.56,0,.84.41a2.61,2.61,0,0,1,.43,1.63,21.31,21.31,0,0,0-.84,5.94,12.9,12.9,0,0,0,.69,3.79,27.8,27.8,0,0,0,1.47,4.06c.37.82.78,1.62,1.22,2.4a23.06,23.06,0,0,0,2.29,3.38,14.9,14.9,0,0,0,2.25,2.11l.52.37c.62.48.65.69.6,1.21,0,.12,0,.25,0,.36.06.39-.62.61-1.34.3a9.36,9.36,0,0,1-2.58-1.86,17.17,17.17,0,0,1-2-2.38,31.24,31.24,0,0,1-2.43-4Z"/><path class="cls-1" d="M105.75,37.6a12,12,0,0,0-.86-1.62l-.49-.79-.59-.73a8.89,8.89,0,0,0-1-1l-.85-.88-.94-.8a15.75,15.75,0,0,0-2-1.51,13.33,13.33,0,0,0-2-1,16.18,16.18,0,0,1-2.63-1.18c-.26-.16-.13-.48.23-.75A2,2,0,0,1,96.19,27a7.86,7.86,0,0,1,1.51.42c.48.2,1,.41,1.44.63a8.85,8.85,0,0,1,1.38.77,12.14,12.14,0,0,1,1.3.92c.49.42,1,.81,1.53,1.19s1,.86,1.47,1.3,1,1.08,1.41,1.64.84,1.17,1.17,1.81c.2.39.42.78.61,1.17l.51,1.22a19.39,19.39,0,0,1,1,3.87,17.49,17.49,0,0,1,.33,3.08c0,.24,0,.47,0,.7a2.56,2.56,0,0,1-.15.54,1.32,1.32,0,0,1-.28.33,1,1,0,0,1-.66.22,2,2,0,0,1-.34,0c-.35,0-.61-.46-.79-1-.2-1.59-.41-3.13-.71-4.72a14.89,14.89,0,0,0-1.15-3.43Z"/><path class="cls-1" d="M104.83,95.89c-.14,0-.14-.18,0-.53a1.79,1.79,0,0,1,.26-.42,2.38,2.38,0,0,1,.29-.13c.05,0,.64.11.85.12a1.94,1.94,0,0,1,.55.15c.36.14.73.25,1.1.37a.65.65,0,0,1,.23.13,1.7,1.7,0,0,0,.83.35.18.18,0,0,0,.16,0,2.06,2.06,0,0,1,1,.23,6.8,6.8,0,0,0,.68.52s.08,0,.09.1.12.18.2.22a1.37,1.37,0,0,1,.3.21,1.38,1.38,0,0,1,.11.24.51.51,0,0,1-.09.32c-.07.06-.06.18-.08.28l0,.1a3.09,3.09,0,0,1-.87.3l-.52-.07-.61-.06c-.06,0-.11,0-.16-.09l-.85-.16c-.15-.08-.33-.08-.44-.28,0,0-.05,0-.09,0a3.79,3.79,0,0,1-.78-.39c-.13-.07-.27-.12-.41-.18s0,0-.06-.06,0-.06-.08-.07c-.33-.13-.61-.35-1-.46-.08,0-.35-.36-.44-.39S104.89,95.88,104.83,95.89Z"/><path class="cls-1" d="M92.25,107.53c-.12-.1.1-.19.51-.28a2,2,0,0,1,.6,0,2.67,2.67,0,0,1,.3.17,7.47,7.47,0,0,1,.34.84,1.52,1.52,0,0,1,.09.59c0,.4,0,.8,0,1.19a.63.63,0,0,1-.07.26,1.69,1.69,0,0,0-.17.88.16.16,0,0,0,0,.15,1.92,1.92,0,0,1,0,1,7.43,7.43,0,0,0-.4.73s0,.07-.08.09-.17.14-.19.22a.88.88,0,0,1-.15.31s-.14.09-.23.14a.87.87,0,0,1-.38,0c-.09-.06-.22,0-.33,0H92a2.72,2.72,0,0,1-.48-.76l0-.49c0-.24,0-.5,0-.55s0-.11.07-.16-.07-.76-.06-.78,0-.3.16-.43a.11.11,0,0,0,0-.09,2.76,2.76,0,0,1,.14-.75,2.55,2.55,0,0,0,0-.39l0-.06a.18.18,0,0,0,0-.09,3.94,3.94,0,0,0,0-.91c0-.07.18-.4.16-.48S92.3,107.57,92.25,107.53Z"/><path class="cls-1" d="M31.72,35.15c-.14,0-.12-.17,0-.48a1.13,1.13,0,0,1,.24-.38,1.18,1.18,0,0,1,.27-.11s.6.14.8.18a1.43,1.43,0,0,1,.51.2l1,.53a.7.7,0,0,1,.19.16,1.8,1.8,0,0,0,.69.5s.08,0,.14,0a2.13,2.13,0,0,1,.83.46c.15.22.32.41.49.62,0,0,.06,0,.06.1s.06.19.12.25a1.28,1.28,0,0,1,.22.24.85.85,0,0,1,0,.25.51.51,0,0,1-.16.28c-.08,0-.1.15-.15.24l0,.09a2.49,2.49,0,0,1-.82,0l-.43-.19-.51-.2c-.05,0-.08-.08-.11-.12s-.69-.28-.71-.31-.27-.12-.32-.32c0,0,0,0-.06-.07a3.46,3.46,0,0,1-.6-.47,2.37,2.37,0,0,0-.33-.22s0,0,0-.06a.24.24,0,0,0-.06-.08,6.78,6.78,0,0,0-.77-.5c-.06,0-.27-.34-.35-.37S31.77,35.14,31.72,35.15Z"/><path class="cls-1" d="M49.93,20c-.09-.18.17-.27.63-.31a1.56,1.56,0,0,1,.63.13,2,2,0,0,1,.27.34c0,.06.08,1,.11,1.33a3,3,0,0,1-.07.91l-.29,1.8a1.07,1.07,0,0,1-.13.38,3.33,3.33,0,0,0-.32,1.33.3.3,0,0,0,0,.24,4.75,4.75,0,0,1-.15,1.49,10.15,10.15,0,0,0-.49,1.13c0,.06,0,.12-.08.16s-.18.23-.21.35a2.85,2.85,0,0,1-.14.5.94.94,0,0,1-.24.25.5.5,0,0,1-.38,0c-.09-.08-.22,0-.33,0a.57.57,0,0,1-.13,0,4.57,4.57,0,0,1-.52-1.18L48,27.11a.51.51,0,0,1,.09-.26c0-.05,0-1.26,0-1.31.06-.24,0-.5.25-.71a.2.2,0,0,0,0-.15,7.68,7.68,0,0,1,.32-1.23,6.39,6.39,0,0,0,.13-.63.33.33,0,0,1,.06-.1.91.91,0,0,0,.07-.14,12.48,12.48,0,0,0,.29-1.48c0-.12.32-.62.32-.75S50,20.09,49.93,20Z"/><path class="cls-1" d="M63.72,68.74c-.48.72-1,1.42-1.54,2.09-.19.25-.39.49-.6.73a25.91,25.91,0,0,1-2.39,2.3l-1.12,1a10.73,10.73,0,0,1-1.54,1.05c-.17.09-.2,0-.12-.16a2.21,2.21,0,0,1,.51-.68c.45-.45.92-.85,1.39-1.25s.94-.82,1.4-1.25a14.61,14.61,0,0,0,1.52-1.71,24.86,24.86,0,0,0,1.5-2c.29-.43.57-.88.83-1.33a20.88,20.88,0,0,0,1.07-2.11c.23-.57.41-1.14.6-1.71l.12-.38c.18-.46.3-.58.51-.63l.14,0c.14,0,.19.23.14.61a11.48,11.48,0,0,1-.41,1.66,14,14,0,0,1-.69,1.6,22.47,22.47,0,0,1-1.3,2.29Z"/></g></svg>