<svg xmlns="http://www.w3.org/2000/svg" width="128" height="128" viewBox="0 0 128 128"><defs><style>.cls-1{fill:#231f20;}</style></defs><title>Free Icons</title><g id="Layer_3" data-name="Layer 3"><path class="cls-1" d="M44.7,68.85a8.64,8.64,0,0,0,5.68,10,10.69,10.69,0,0,0,6,.49,9.8,9.8,0,0,0,5.27-3,9.55,9.55,0,0,0,2.26-5,11.67,11.67,0,0,0-1.3-6.75c-.33-.63.18-1,1.08-.72a4.09,4.09,0,0,1,2.55,3,12.22,12.22,0,0,1-1.14,8.72A12.64,12.64,0,0,1,62.3,79a12.11,12.11,0,0,1-3.9,2.1,13.6,13.6,0,0,1-10.3-.7,10.88,10.88,0,0,1-4.23-4A11.46,11.46,0,0,1,42.21,71,12.91,12.91,0,0,1,52,58a10.7,10.7,0,0,1,7.93,1.22,11.76,11.76,0,0,1,1.48,1c1.71,1.47,1.93,2.22,1.72,2.94a2.26,2.26,0,0,1-.16.5c-.14.22-.42.23-.79.06a7.41,7.41,0,0,1-1.36-1c-.38-.36-.82-.63-1.23-1s-.85-.55-1.31-.76a9,9,0,0,0-2.81-.9,8.53,8.53,0,0,0-5.67,1.25,10.73,10.73,0,0,0-5,7.4Z"/><path class="cls-1" d="M33.28,68.51a20.73,20.73,0,0,0,1,9.11,18.52,18.52,0,0,0,4.87,7.72A20,20,0,0,0,44.75,89a22.69,22.69,0,0,0,23-2.46A20.58,20.58,0,0,0,74.07,78a24.34,24.34,0,0,0,1.06-13.54c-.29-1.39.34-1.44,1.26-.34a10,10,0,0,1,1.85,6.45A23.8,23.8,0,0,1,72.76,85a22.66,22.66,0,0,1-13.25,7.79,26,26,0,0,1-18.27-2.9,21.17,21.17,0,0,1-7.31-7.32,20.93,20.93,0,0,1-2.09-4.75,23.69,23.69,0,0,1-.65-2.51c-.14-.85-.28-1.7-.34-2.56a23.46,23.46,0,0,1,.35-6.32,24.2,24.2,0,0,1,1.94-6,26.09,26.09,0,0,1,5.49-7.74,24.88,24.88,0,0,1,7.86-5.26,20.56,20.56,0,0,1,14.43-.75,22.44,22.44,0,0,1,3,1.22c3.57,2,4.31,3.16,4.54,4.15a3.22,3.22,0,0,1,.13.68c0,.3-.42.27-1,0A8.9,8.9,0,0,1,66.42,52c-.46-.26-1-.56-1.55-.93a22.56,22.56,0,0,0-5.5-2.38,19,19,0,0,0-6-.55,20.39,20.39,0,0,0-11.22,4.53,23.81,23.81,0,0,0-8.85,15.84Z"/><path class="cls-1" d="M21.64,66.12a33.59,33.59,0,0,0,.93,14.51,32.67,32.67,0,0,0,2.84,6.73,28.39,28.39,0,0,0,4.39,5.83,31,31,0,0,0,8.68,6.2A35.87,35.87,0,0,0,57,102.88a34.08,34.08,0,0,0,17.71-6.47A32.5,32.5,0,0,0,85,83.17a36.23,36.23,0,0,0,2-21.23c-.47-2.18.18-2.12,1.26-.34a18.62,18.62,0,0,1,2,9.95A36.36,36.36,0,0,1,87.8,83.1a37.4,37.4,0,0,1-6.16,10.11,34.36,34.36,0,0,1-9.2,7.47,35.79,35.79,0,0,1-11.15,3.91,41.58,41.58,0,0,1-14.25,0,40.38,40.38,0,0,1-7-1.94,36,36,0,0,1-6.44-3.32A31.81,31.81,0,0,1,23,87.75a34.92,34.92,0,0,1-4.05-15.17,35.49,35.49,0,0,1,.95-9.64,41,41,0,0,1,3.36-9A41.48,41.48,0,0,1,32.16,42.4,38,38,0,0,1,44.65,35a31.71,31.71,0,0,1,11.08-1.76,30.1,30.1,0,0,1,10.94,2.38c.39.16.78.29,1.15.47l1.1.56a22,22,0,0,1,2.18,1.19,30.79,30.79,0,0,1,5.18,4,7.69,7.69,0,0,1,1.64,2.45,5.24,5.24,0,0,1,.3.9c0,.37-.47.21-1.37-.41-.45-.3-1-.72-1.64-1.24s-1.45-1-2.29-1.68a33.46,33.46,0,0,0-8.38-4.48,29.06,29.06,0,0,0-9.39-1.73,30.75,30.75,0,0,0-18.25,6,37.78,37.78,0,0,0-10,10.69A36.91,36.91,0,0,0,21.7,66.12Z"/><path class="cls-1" d="M11.59,65.54a43.05,43.05,0,0,0,5,27.07,38.71,38.71,0,0,0,5.58,7.46,37.76,37.76,0,0,0,5.12,4.49,44.46,44.46,0,0,0,5.83,3.55c14.3,7.38,32.73,6.61,46.24-2.46a42,42,0,0,0,14-16.09A47.13,47.13,0,0,0,97.71,62.8c-.4-2.81.26-2.61,1.28-.25a22.79,22.79,0,0,1,1.32,5.1,30.3,30.3,0,0,1,0,7.53,46.71,46.71,0,0,1-12.48,26.41A44,44,0,0,1,76,110.37a47.1,47.1,0,0,1-14.11,4.41,57.36,57.36,0,0,1-8.9.56,54.27,54.27,0,0,1-9-1,45.93,45.93,0,0,1-16.7-6.91A40.52,40.52,0,0,1,14,92.78a44.87,44.87,0,0,1-5.16-19,48.51,48.51,0,0,1,5-23.57A54.08,54.08,0,0,1,24.77,35.48a49.53,49.53,0,0,1,15.34-9.87,41.63,41.63,0,0,1,13.77-2.92A38.38,38.38,0,0,1,67.76,24.8l1.48.49c.49.17.94.41,1.42.61.93.43,1.9.82,2.82,1.31,6.8,3.81,8.31,6,9.16,7.43a7.87,7.87,0,0,1,.53,1c.1.42-.5.2-1.65-.55-.57-.37-1.29-.88-2.11-1.51l-3-2a43,43,0,0,0-11-5.07,37.73,37.73,0,0,0-12.12-1.42,38.67,38.67,0,0,0-12.1,2.56,45.13,45.13,0,0,0-10.9,6.2l-.94.7-.89.77L26.72,36.9l-1.66,1.67a20,20,0,0,0-1.6,1.72l-1.54,1.78c-.48.62-.94,1.26-1.41,1.89-1,1.23-1.75,2.61-2.62,3.92a49,49,0,0,0-4,8.53,46.75,46.75,0,0,0-1.38,4.5c-.22.76-.31,1.54-.48,2.31s-.34,1.53-.4,2.31Z"/><path class="cls-1" d="M79.81,54.81c-2.11,1.3-4.22,2.62-6.31,4-.76.49-1.47,1.06-2.24,1.54l-8.1,5.13c-1.2.77-2.34,1.62-3.46,2.47A28.93,28.93,0,0,1,55.27,71c-.48.24-.86-.32-.88-1.15a3.22,3.22,0,0,1,1.1-2.56A72.53,72.53,0,0,1,64.62,61c2-1.1,3.76-2.57,5.64-3.85,2.08-1.4,4.19-2.77,6.29-4.15l3.88-2.52c1.95-1.29,3.95-2.53,5.85-3.87,1.49-1,2.84-2.2,4.28-3.28.32-.23.61-.5.94-.72,1.26-.79,1.8-.83,2.52-.23.16.14.34.27.48.42.47.52.25,1.32-.53,2.06a58,58,0,0,1-7.82,6l-6.29,4.08Z"/><path class="cls-1" d="M97.24,51.54C93.1,52.73,85.36,49,85.36,49s-1.43-9.5,2.39-12.7c.54-.45,4.44-3.54,7-4.43,1-.35-1.52,9.87-.29,10.81,0,0,9.07,1.2,10.63,2.86Z"/><path class="cls-1" d="M92.85,37.84c.23-1.55.62-4,.6-3.63a.43.43,0,0,0,0-.25l-.2,0-.24.1s0,0-.09,0l-.26.15-.52.31c-1,.63-2,1.36-2.92,2.07l-.63.46c-.17.15-.29.29-.45.42a2.83,2.83,0,0,0-.4.5,3.25,3.25,0,0,0-.36.57,9.21,9.21,0,0,0-.94,2.75,23.82,23.82,0,0,0-.35,6.22l0,.46,0,.31.24.12.33.14c.33.15.67.28,1,.42.68.26,1.37.5,2.06.71a21.91,21.91,0,0,0,6.76,1c.63,0,.82.55.26,1.28a4,4,0,0,1-3.56,1.16,24.58,24.58,0,0,1-4.43-1.13c-.71-.24-1.4-.52-2.09-.81l-1-.45-.85-.4L83.93,50c-.06-.51-.12-1-.17-1.54l0-.35v-.21l0-.42c0-.56,0-1.12,0-1.69A25.84,25.84,0,0,1,84,42.4a16.84,16.84,0,0,1,1.39-4.8A7.22,7.22,0,0,1,87,35.4c.65-.53,1.26-1,1.91-1.45s1.43-1,2.18-1.43l.57-.34c.21-.12.58-.34.86-.47A8.09,8.09,0,0,1,94.28,31a2,2,0,0,1,.72,0,1.76,1.76,0,0,1,.31,0,.57.57,0,0,1,.26.25,2.68,2.68,0,0,1,.34,1.48,14.76,14.76,0,0,1-.19,2L95.53,36c-.16,1-.32,2.06-.45,3.07-.06.51-.12,1-.15,1.51,0,.23,0,.54,0,.68a2.69,2.69,0,0,0,0,.4c0,.15.09.35.27.32l1.76.31,2.12.43c.71.15,1.41.31,2.12.49a18.31,18.31,0,0,1,2.35.71l.6.22.53.28a8.13,8.13,0,0,1,1,.62c.16.13.34.25.48.38l-.37.39-.74.81-1,.85-.86.73-1.37,1.17c-.41.34-.79.7-1.21,1-1.55,1.25-2.14,1.51-2.87,1.26a2.79,2.79,0,0,1-.49-.18c-.46-.27-.07-1.09,1-2.09.79-.75,1.6-1.48,2.44-2.21l1.26-1.08.15-.13v0l0,0s0,0,0,0-.1,0-.11,0h0l-.08,0-.77-.22c-.52-.14-1.06-.26-1.59-.38-.82-.18-1.66-.34-2.49-.5l-1.26-.22L95,44.34l-1.29-.18c-.12-.15-.25-.24-.35-.38L93,43.36a2.91,2.91,0,0,1-.38-1.07,6.93,6.93,0,0,1-.09-1.16c0-.24,0-.47,0-.7,0-.91.15-1.76.26-2.59Z"/><path class="cls-1" d="M14.51,93.21a38.81,38.81,0,0,0,14,15,45,45,0,0,0,6.82,3.37A47,47,0,0,0,61.9,114a40.71,40.71,0,0,0,11.28-4,44.28,44.28,0,0,0,6.41-4.17,61.06,61.06,0,0,0,5.66-5.13c1.12-1.12,1.47-.58,1,.85a9.78,9.78,0,0,1-1.41,2.66c-.36.5-.77,1-1.24,1.57A22.23,22.23,0,0,1,82,107.25a45.5,45.5,0,0,1-30.81,9.88,52.69,52.69,0,0,1-19.48-4.57A42.11,42.11,0,0,1,14.9,98.43c-.69-.9-1.21-1.92-1.82-2.88s-1.05-2-1.58-3-.9-2.09-1.3-3.14-.75-2.14-1.08-3.21A46.92,46.92,0,0,1,7.86,65.9a56.24,56.24,0,0,1,1.71-7.66A52,52,0,0,1,12.44,51a32.8,32.8,0,0,1,1.6-3c2.22-3.71,3.3-4.64,4.34-5a4.41,4.41,0,0,1,.7-.21c.32,0,.3.4,0,1.12s-.94,1.71-1.69,3a54.89,54.89,0,0,0-5.62,12.44,48.42,48.42,0,0,0-2.1,13.77,43.13,43.13,0,0,0,4.91,20.09Z"/><path class="cls-1" d="M53.36,72.42a1.8,1.8,0,0,1-1.46-1.69,1.39,1.39,0,0,1,1-1.35,1.47,1.47,0,0,1,1.1.45c0,.15.19.25.28.23l-.13,0h0c-.06,0,0,0,0,0l.07-.07a.55.55,0,0,0,.09-.23c0-.07,0-.07,0,0s0,0-.16-.13a.76.76,0,0,0-.18-.09l-.11-.05h0s0,0,0,0a1.44,1.44,0,0,0,.76-.13c.09-.06,0,0,0,.07a1,1,0,0,0,0,.42,1.44,1.44,0,0,0,.12.45,1.34,1.34,0,0,0,.12.24l0,.06s.07.1-.13-.15l-.23-.24L54.16,70a1.16,1.16,0,0,0-.21-.16l-.14-.11a2.07,2.07,0,0,0-.25-.13c-.29,0,.1,0,.44-.27a2.31,2.31,0,0,0,.66-.82c.05-.13,0,0,0,.28a1,1,0,0,0,.09.43,1.62,1.62,0,0,0-.57-.4L54,68.72h0s0,0,0,0a1.09,1.09,0,0,0,0-.17,3.82,3.82,0,0,0,0-.59c0-.12,0-.29-.09-.34a.39.39,0,0,0-.19-.23,5.62,5.62,0,0,0-.64-.29,2.62,2.62,0,0,0-1.87.24,1.84,1.84,0,0,0-.62.53,3.17,3.17,0,0,0-.45.86,1.07,1.07,0,0,0-.06.71,10.62,10.62,0,0,0,.33,2.21,3.83,3.83,0,0,0,.57,1.11c.22.33.38.47.43.56a1.83,1.83,0,0,0,1.1.84,4.66,4.66,0,0,0,2.09,0c.22,0,.43-.18.71-.09A2,2,0,0,0,57,73.7l2.18-1a7.58,7.58,0,0,1,1.27-.34c.39-.11.63.47.57.61-.18.39.25.41.44.57a.84.84,0,0,1,.18.2A12.57,12.57,0,0,1,59.9,76a10.29,10.29,0,0,1-2.63,2.14c-.05,0-.52.28-1.36.57a10.05,10.05,0,0,1-3.39.64,7.66,7.66,0,0,1-4-1,8.65,8.65,0,0,1-1.89-1.51,4.71,4.71,0,0,1-1-1.6A12.52,12.52,0,0,1,45,73.84a10,10,0,0,1-.06-7.17,10.41,10.41,0,0,1,1.38-2.29,5.24,5.24,0,0,1,2.35-1.61,9.41,9.41,0,0,0,1-.41A7.7,7.7,0,0,1,54,61.84a6.5,6.5,0,0,1,1.17.3,6.1,6.1,0,0,1,1.14.52,6.71,6.71,0,0,1,1.07.79,6.82,6.82,0,0,1,.87,1.06,6.19,6.19,0,0,1,.6,1.21A6,6,0,0,1,59.19,67l.08.6a5.06,5.06,0,0,1,0,.54,6.41,6.41,0,0,1-.06,1.14,3.93,3.93,0,0,1-.27.87,7.28,7.28,0,0,1-.57,1.16,4.2,4.2,0,0,1-1.32,1.41,4.26,4.26,0,0,1-1.83.68,4.83,4.83,0,0,1-3.34-.86,3.92,3.92,0,0,1-1.35-1.64,3.33,3.33,0,0,1,.08-2.76A4.16,4.16,0,0,1,52,66.61a4.7,4.7,0,0,1,1.59-.75,3.34,3.34,0,0,1,1.75,0,3.41,3.41,0,0,1,2.21,2,3.71,3.71,0,0,1,.1,2.42,4.83,4.83,0,0,1-.69,1.44,2.68,2.68,0,0,1-1.79.93A4.35,4.35,0,0,1,53.36,72.42Z"/><path class="cls-1" d="M97.73,21.81c.11.16-.1.29-.5.41a1.18,1.18,0,0,1-.57,0,1.76,1.76,0,0,1-.28-.26c0-.06-.26-.94-.35-1.24a3.26,3.26,0,0,1-.12-.87l-.1-1.77a1.29,1.29,0,0,1,0-.39,3.57,3.57,0,0,0,.08-1.34.35.35,0,0,0-.07-.23,4.35,4.35,0,0,1-.07-1.49,12.15,12.15,0,0,0,.33-1.18s0-.11.08-.16.16-.24.17-.36a3.14,3.14,0,0,1,.12-.51c0-.08.15-.16.24-.24s.37,0,.4,0,.24,0,.36,0h.13a4.82,4.82,0,0,1,.58,1.08l.08.75c0,.38.1.77.12.85a.46.46,0,0,1-.06.25s.16,1.17.15,1.21c0,.24.05.47-.13.7a.24.24,0,0,0,0,.14,7.07,7.07,0,0,1-.11,1.21c0,.2,0,.41,0,.61a.21.21,0,0,1,0,.11.89.89,0,0,0,0,.14,10.17,10.17,0,0,0,0,1.46c0,.11-.19.65-.17.78S97.68,21.74,97.73,21.81Z"/><path class="cls-1" d="M108.62,33.86c-.05.21-.31.13-.73-.09a1.45,1.45,0,0,1-.44-.46,2.29,2.29,0,0,1,0-.47,13.4,13.4,0,0,1,1-1.29,4.28,4.28,0,0,1,.81-.73c.6-.44,1.19-.87,1.8-1.27a1.35,1.35,0,0,1,.44-.2,5.46,5.46,0,0,0,1.48-.76c.08-.05.17-.08.21-.19a5.4,5.4,0,0,1,1.62-.93,15,15,0,0,1,1.52-.23c.07,0,.13-.06.22,0a.53.53,0,0,0,.5,0,2.4,2.4,0,0,1,.66,0,1.34,1.34,0,0,1,.36.14c.11.05.12.32.1.35s0,.21.06.31a.26.26,0,0,1,0,.11,12.09,12.09,0,0,1-.94,1s-.36.2-.72.45-.75.45-.82.51a.57.57,0,0,1-.29.07s-1.13.75-1.17.77c-.25.11-.45.31-.77.28a.28.28,0,0,0-.16.06,11.17,11.17,0,0,1-1.24.64,4.78,4.78,0,0,0-.61.38l-.13,0a.49.49,0,0,0-.16,0,12.12,12.12,0,0,0-1.38,1c-.08.09-.7.29-.79.41S108.64,33.77,108.62,33.86Z"/><path class="cls-1" d="M110.35,47.37c-.22,0-.17-.31,0-.73a1.55,1.55,0,0,1,.44-.47,2.55,2.55,0,0,1,.42-.08c.08,0,.9.33,1.21.38a3.15,3.15,0,0,1,.78.29c.51.23,1,.48,1.53.68a1.11,1.11,0,0,1,.32.21,2.54,2.54,0,0,0,1.19.57c.07,0,.14.05.23,0a4.16,4.16,0,0,1,1.45.35c.34.26.7.48,1,.73,0,0,.12,0,.15.14s.18.26.3.31a1.24,1.24,0,0,1,.46.32,1.53,1.53,0,0,1,.17.34.64.64,0,0,1-.1.42c-.1.07-.08.23-.11.36l0,.13a3.78,3.78,0,0,1-.62.29,3.91,3.91,0,0,1-.67.16l-.81-.08-.91-.14c-.09,0-.16-.08-.24-.15s-1.26-.23-1.31-.27c-.24-.11-.51-.13-.68-.41a.16.16,0,0,0-.13-.08,6.34,6.34,0,0,1-1.2-.65,6,6,0,0,0-.62-.32.44.44,0,0,1-.08-.1s-.07-.09-.12-.11c-.49-.27-.88-.67-1.37-.93-.12-.06-.45-.62-.58-.69S110.43,47.37,110.35,47.37Z"/></g></svg>