<svg xmlns="http://www.w3.org/2000/svg" width="128" height="128" viewBox="0 0 128 128"><defs><style>.cls-1{fill:#231f20;}</style></defs><title>Free Icons</title><g id="Layer_23" data-name="Layer 23"><path class="cls-1" d="M54.41,114.4l-2.69,1c-.06,0-.14.09-.17,0l-.11-.16-.23-.31-.44-.64-.84-1.23-1.84-2.75c-1.23-1.82-2.41-3.69-3.62-5.53s-2.36-3.72-3.54-5.59-2.31-3.75-3.45-5.64c-1.69-2.74-3.32-5.52-4.93-8.3A245.29,245.29,0,0,1,17.94,54.53c-1.75-4.72-3.49-9.48-4.81-14.31-.93-3.08-1.62-6.24-2.29-9.39L10.1,26c-.2-1.6-.27-3.21-.39-4.82-.12-2,.37-1.75,1-.12a26.38,26.38,0,0,1,1,3.38c.32,1.4.8,3,1.09,4.81a135.52,135.52,0,0,0,5,18.67c2.15,6.11,4.62,12.12,7.3,18.1A227.55,227.55,0,0,0,36.52,87.19c4.49,7.59,9.27,15,14.24,22.32l1.15,1.68.41.61c.09.12.16.31.28.36l1.24-.45c.65-.24,1.32-.44,2-.65a70.4,70.4,0,0,1,8-2c8.22-1.47,16.57-1.73,24.74-2.13a112.88,112.88,0,0,0,18.58-2.08c.66-.14,1.29-.33,1.93-.5s1.26-.39,1.87-.61a26.77,26.77,0,0,0,2.84-1.14c.36-.19.72-.33,1-.48s.56-.31.81-.43a12.89,12.89,0,0,1,2.19-1,8.51,8.51,0,0,1,.81-.27c.35,0,.27.39-.23,1.3a10.25,10.25,0,0,1-3.35,3.25,26.56,26.56,0,0,1-8.43,3.14,69.55,69.55,0,0,1-8.84,1.21c-5.92.49-11.86.61-17.76.94-8.74.49-17.52,1.33-25.62,4.17Z"/><path class="cls-1" d="M95.72,51.5c1.41,4.06,3,8.07,4.74,12,.62,1.45,1.38,2.83,2,4.27a159.36,159.36,0,0,0,7.68,14.79l1,1.59,1,1.55c.68,1,1.32,2.09,2,3.06.93,1.26,1.82,2.57,2.82,3.77.49.6,1,1.23,1.41,1.87s1,1.21,1.46,1.82c.59.78.27,1-.59.62a9.51,9.51,0,0,1-3.58-2.53c-1.1-1.24-2.09-2.54-3.07-3.85s-1.9-2.67-2.83-4c-1.74-2.77-3.37-5.61-4.84-8.54l-2.76-5.3c-1-1.76-1.86-3.58-2.72-5.38-1.9-4-3.58-8.06-5.15-12.18-.52-1.25-.93-2.55-1.38-3.82S92,48.7,91.62,47.4c-.58-2-1.23-3.93-1.76-5.91s-1.06-4-1.5-6c-.33-1.55-.7-3.08-1.06-4.61s-.54-3.1-.8-4.66l-.17-1c0-.35-.07-.69-.09-1-.16-2.61,0-3.46.62-4a2.32,2.32,0,0,1,.42-.37c.47-.24.94.8,1.22,2.62a133,133,0,0,0,3.4,16.65c.5,2.09,1.16,4.15,1.8,6.22s1.37,4.12,2.07,6.17Z"/><path class="cls-1" d="M100.53,112.23c-3.18.11-14.3.21-22.71,1.8-10.85,2-22.4,3.94-26.94,5.72-21.8-27-38.56-55.22-42.81-84l3.46-5.67S25,77.38,38.87,94.81l13.06,19.54s10.9-5.4,54.84-6.77C106.77,107.58,102.75,112.15,100.53,112.23Z"/><path class="cls-1" d="M68.57,19.88c-2.31.16-4.62.2-6.92.25-.84,0-1.67.07-2.51.06-3,0-5.9-.17-8.84-.34-1.3-.07-2.62-.08-3.91-.11a24.43,24.43,0,0,1-5-.43c-.52-.13-.43-.46,0-.84a3.6,3.6,0,0,1,2.24-.87A92.52,92.52,0,0,1,53.8,18a56,56,0,0,0,6.21,0c2.28,0,4.56-.14,6.83-.28,1.4-.12,2.8-.21,4.19-.4a52.25,52.25,0,0,0,6.25-1.05,37.32,37.32,0,0,0,4.58-1.54c.33-.13.65-.26,1-.37a6.7,6.7,0,0,1,.8-.24,2.36,2.36,0,0,1,.59,0,1.47,1.47,0,0,1,.81.36,2.82,2.82,0,0,1,.3.25c.24.26-.11.85-1,1.48a26.45,26.45,0,0,1-8.83,2.95c-2.31.39-4.65.67-7,.85Z"/><path class="cls-1" d="M25.9,18.91l-3.44-.5c-.42-.06-.84-.06-1.26-.12-1.47-.21-2.94-.43-4.41-.56a15.89,15.89,0,0,0-1.95,0,16.36,16.36,0,0,1-2.42,0c-.25,0-.31-.3-.16-.66a2.06,2.06,0,0,1,.4-.61,1.29,1.29,0,0,1,.67-.36,14.94,14.94,0,0,1,5.3.14c1,.19,2.12.17,3.18.27l3.49.38,2.14.24c1.08.11,2.16.25,3.24.29.84,0,1.67,0,2.5-.06a2.52,2.52,0,0,1,.55,0,1,1,0,0,1,.7.25,1,1,0,0,1,.29.53c0,.1.06.19.07.28.05.27-.25.6-.77.82a14.15,14.15,0,0,1-4.64.13c-1.16-.11-2.32-.27-3.48-.4Z"/><path class="cls-1" d="M25.53,13.5c-.13.35-.47.47-1,.47-.18,0-.56-.23-.55-.36a5.32,5.32,0,0,1,.12-.8,8.18,8.18,0,0,1,.84-1.24,7.8,7.8,0,0,1,1.58-1.4A5.63,5.63,0,0,1,29,9.3a9.07,9.07,0,0,1,5.09,1A5.38,5.38,0,0,1,35,11a17.59,17.59,0,0,1,2.6,2.88,2.34,2.34,0,0,0,.39.49,6.9,6.9,0,0,1,1,1.79,10.3,10.3,0,0,1,.63,1.94c.15,1,.28,2,.38,3a.78.78,0,0,1,0,.43,1.42,1.42,0,0,0,0,.91c.07.41.13.82.16,1.24a3.14,3.14,0,0,1-.11.66c-.05.2-.37.18-.42.13s-.25,0-.37.08a.33.33,0,0,1-.13,0,14.18,14.18,0,0,1-1.28-2.5l-.51-1.76a18.46,18.46,0,0,0-.67-1.91,2.77,2.77,0,0,1-.13-.57,11,11,0,0,0-.6-1.23,10.17,10.17,0,0,0-.72-1.11,10,10,0,0,1-.81-1.23.59.59,0,0,0-.19-.22,11.93,11.93,0,0,0-2-1.5A5.58,5.58,0,0,0,31,12.12a2,2,0,0,1-.21-.1,1,1,0,0,0-.28-.09,4.36,4.36,0,0,0-2.86.35c-.09.07-.41.15-.71.32a2.54,2.54,0,0,0-.69.45C26.17,13.17,25.57,13.34,25.53,13.5Z"/><path class="cls-1" d="M61.26,10.87c-.11.32-.44.41-1,.4-.18,0-.56-.24-.55-.37a3.74,3.74,0,0,1,.09-.74A5.87,5.87,0,0,1,60.58,9,6.9,6.9,0,0,1,62,7.69a5.1,5.1,0,0,1,2.33-.82,8.4,8.4,0,0,1,4.73,1,5.23,5.23,0,0,1,.87.61,17.08,17.08,0,0,1,2.4,2.66,2.33,2.33,0,0,0,.37.46,6.37,6.37,0,0,1,.92,1.64A10,10,0,0,1,74.24,15c.12.95.23,1.87.32,2.77,0,.13.07.26,0,.39a1.24,1.24,0,0,0,0,.85,10.56,10.56,0,0,1,.13,1.13,2.23,2.23,0,0,1-.13.6c0,.19-.36.18-.41.13s-.25,0-.37.09l-.13,0a12,12,0,0,1-1.22-2.27l-.48-1.62c-.25-.79-.54-1.58-.62-1.73a1.79,1.79,0,0,1-.12-.52,8.9,8.9,0,0,0-.55-1.11,8.35,8.35,0,0,0-.66-1,7.58,7.58,0,0,1-.71-1.12.54.54,0,0,0-.17-.2,11.3,11.3,0,0,0-1.82-1.35,5.82,5.82,0,0,0-1.1-.4A.66.66,0,0,1,66,9.58a1.06,1.06,0,0,0-.25-.09,3.83,3.83,0,0,0-2.55.32c-.08.06-.37.12-.64.27a2.21,2.21,0,0,0-.63.4C61.85,10.58,61.29,10.72,61.26,10.87Z"/><path class="cls-1" d="M60.69,41.6c-3,.16-6.1.22-9.15.22-1.11,0-2.22,0-3.33,0q-5.87-.14-11.72-.6l-5.19-.43a26.39,26.39,0,0,1-6.55-1.28c-.66-.25-.51-.37.1-.45a13.06,13.06,0,0,1,3-.09c4.41.42,8.87.79,13.37,1.08,2.7.19,5.52.12,8.28.09q4.56,0,9.12-.28c1.87-.09,3.73-.23,5.6-.4a72.73,72.73,0,0,0,8.37-1.22,32.41,32.41,0,0,0,6.07-2l1.22-.58c1.51-.72,2-.92,2.49-.91a2.28,2.28,0,0,1,.37,0c.17,0,.17.21,0,.54a4,4,0,0,1-.37.61,8.34,8.34,0,0,1-.67.7,14.38,14.38,0,0,1-1.28.93c-.46.26-.93.52-1.4.73a23.56,23.56,0,0,1-2.94,1.09,49,49,0,0,1-6.12,1.3c-3.07.47-6.15.74-9.23.94Z"/><path class="cls-1" d="M54.83,70c.53,1,1.09,2.08,1.65,3.11s1.16,2.05,1.8,3l1.44,2.14c1.68,2.53,3.42,5,5.34,7.39.85,1,1.76,2.07,2.69,3,1.2,1.24,2.46,2.42,3.58,3.73.35.41.09.59-.46.51a4.34,4.34,0,0,1-2.16-1.09,55.73,55.73,0,0,1-7.11-8.06c-1.25-1.75-2.67-3.49-3.89-5.32-.67-1-1.34-2-2-3.07l-.93-1.56L54,72.25c-.74-1.29-1.36-2.66-2-4-.46-1-.93-2.06-1.36-3.11S49.7,63.07,49.33,62c-.28-.82-.59-1.63-.91-2.44s-.54-1.64-.78-2.48A7.85,7.85,0,0,1,47.35,56c-.23-1.41-.08-1.9.23-2.25a1.28,1.28,0,0,1,.22-.24c.25-.17.61.35,1,1.3.49,1.42,1,2.86,1.47,4.34s1.05,2.94,1.66,4.39A68.68,68.68,0,0,0,54.87,70Z"/><path class="cls-1" d="M74.87,66.78c.52.91,1,1.84,1.6,2.73s1.13,1.8,1.73,2.68c.42.65.91,1.25,1.35,1.88,1.57,2.25,3.17,4.48,4.89,6.62.75,1,1.57,1.87,2.38,2.77A42.84,42.84,0,0,1,89.91,87c.29.39,0,.56-.5.48a3.78,3.78,0,0,1-1.93-1,63.57,63.57,0,0,1-6.27-7.31c-1.15-1.56-2.45-3.09-3.61-4.7Q75.71,71.76,74,69c-.7-1.15-1.37-2.31-2-3.5-1-1.78-1.81-3.65-2.63-5.5-.6-1.45-1.27-2.85-1.74-4.36a8.17,8.17,0,0,1-.32-1c-.23-1.28-.09-1.73.22-2.06a2.28,2.28,0,0,1,.22-.22c.25-.16.61.3,1,1.13,1,2.49,2,5.1,3.19,7.66.45,1,.91,1.9,1.39,2.85s1,1.88,1.54,2.79Z"/><path class="cls-1" d="M68.1,64.35c-2.22.21-4.44.34-6.66.42-.81,0-1.61.1-2.42.11-2.85,0-5.7-.07-8.54-.26l-3.78-.24a26.8,26.8,0,0,1-4.79-.66c-.49-.12-.38-.36.08-.59a5,5,0,0,1,2.17-.41c3.23.19,6.44.3,9.71.53a57.24,57.24,0,0,0,6-.1c2.19-.09,4.39-.22,6.58-.44,1.35-.13,2.7-.27,4-.48a50,50,0,0,0,6-1.15,26.23,26.23,0,0,0,4.32-1.64l.86-.46c1-.56,1.31-.68,1.81-.59.11,0,.24,0,.35,0,.35.05.22.82-.61,1.54a12.48,12.48,0,0,1-4,2.19,36.63,36.63,0,0,1-4.4,1.2,65.71,65.71,0,0,1-6.68,1Z"/><path class="cls-1" d="M76,80.92q-2.89.28-5.79.43c-.7,0-1.4.13-2.11.15q-3.72.1-7.44,0l-3.3-.11a18,18,0,0,1-4.2-.5c-.43-.12-.33-.36.07-.59a4.11,4.11,0,0,1,1.89-.47c2.79.07,5.59,0,8.44.18a48.31,48.31,0,0,0,5.22-.23c1.91-.12,3.83-.28,5.73-.48,1.18-.13,2.35-.28,3.51-.46a41.51,41.51,0,0,0,5.24-1,17.18,17.18,0,0,0,3.67-1.53c.25-.13.43-.31.67-.43s.59-.42.74-.49a1.2,1.2,0,0,1,.25-.09l.28-.08c.11,0,.21-.1.32-.13s.31,0,.4.33a1.61,1.61,0,0,1-.39,1.28A5.24,5.24,0,0,1,87.48,78a12.32,12.32,0,0,1-1.84.87A27.67,27.67,0,0,1,81.79,80,57.78,57.78,0,0,1,76,81Z"/></g></svg>