<svg xmlns="http://www.w3.org/2000/svg" width="128" height="128" viewBox="0 0 128 128"><defs><style>.cls-1{fill:#231f20;}.cls-2{fill:none;stroke:#231f20;stroke-miterlimit:10;stroke-width:0.8px;}</style></defs><title>Free Icons</title><g id="Layer_34" data-name="Layer 34"><path class="cls-1" d="M99.76,83.77c-.75-1.45-1.46-2.93-2.25-4.36S95.92,76.54,95,75.17c-.64-1-1.29-2-2-3A114.9,114.9,0,0,0,85.56,62c-.61-.71-1.22-1.43-1.85-2.12l-1.95-2c-.83-.86-1.75-1.64-2.6-2.47-.42-.43-.88-.81-1.3-1.24s-.81-.88-1.21-1.33-.18-.79.57-.69a6.53,6.53,0,0,1,1.43.38,4.79,4.79,0,0,1,1.66,1,70.06,70.06,0,0,1,10,11.18c.85,1.24,1.76,2.46,2.69,3.69s1.81,2.49,2.64,3.77c1.83,2.83,3.57,5.71,5.13,8.69,1,1.81,1.87,3.7,2.78,5.56.65,1.42,1.25,2.88,1.87,4.32L107,95.06c.39,1.15.81,2.27,1.24,3.4s.75,2.28,1.12,3.43a13.22,13.22,0,0,1,.44,1.52c.44,2,.36,2.61-.23,3.13a3.13,3.13,0,0,1-.4.35c-.46.26-1.08-.44-1.49-1.79-1.21-4-2.46-8.16-4.07-12.27-.54-1.54-1.24-3-1.86-4.55s-1.38-3-2.08-4.48Z"/><path class="cls-1" d="M45.6,119.11A61.72,61.72,0,0,1,33.89,116a20.14,20.14,0,0,1-5.49-3.09,8.32,8.32,0,0,1-2.15-2.68c-.06-.14-.13-.27-.18-.41l-.17-.53c-.24-.41,0-.9,0-1.16l.34-1.52a59.31,59.31,0,0,1,2.92-8.32A142.59,142.59,0,0,1,44.62,71.81c1.32-1.84,2.75-3.62,4.13-5.42l2.18-2.62L52,62.47l1.15-1.25c3.86-4.3,8.05-8.49,13.09-11.46,1.55-.95,1.55-.46.58.8a19.25,19.25,0,0,1-2.13,2.35c-.92.91-2,2-3.21,3-8.61,7.69-15.73,17-22,27-.47.75-1,1.49-1.4,2.26l-1.32,2.32c-.91,1.54-1.71,3.15-2.53,4.76s-1.54,3.26-2.32,4.89-1.45,3.31-2,5c-.34.93-.71,1.84-1,2.78a24.23,24.23,0,0,0-.78,2.79,8.76,8.76,0,0,0-.22,1.12,3.29,3.29,0,0,0,.17.45,3.2,3.2,0,0,0,.3.54,7.32,7.32,0,0,0,1.84,1.89,20.38,20.38,0,0,0,5.08,2.57,49.2,49.2,0,0,0,5.63,1.66,107.52,107.52,0,0,0,14.42,2.22,174.49,174.49,0,0,0,22.15.59,122.49,122.49,0,0,0,16.79-1.83c1.21-.23,2.38-.5,3.58-.79,2.22-.53,3.61-1,4.58-1.26a11.24,11.24,0,0,1,2.12-.4c.27,0,.56-.12.76-.12s.22.09.16.29a2.42,2.42,0,0,1-.58.87,9.42,9.42,0,0,1-3.6,2.08,69.2,69.2,0,0,1-15.53,2.94,156.76,156.76,0,0,1-16.11.62,154.79,154.79,0,0,1-24.08-2Z"/><path class="cls-1" d="M71.86,77c2.61-.31,5.22-.64,7.75-1.1A27.54,27.54,0,0,0,83.24,75c.28-.09.55-.19.79-.29l.25-.11.07,0c.1,0,.21-.15.17-.28a.35.35,0,0,0-.12-.2s0,0,0,0L84.28,74c-.11-.09-.28-.17-.42-.26a13.36,13.36,0,0,0-2.15-.9c-1.56-.51-3.25-.9-4.94-1.27-3.11-.65-6.3-1.22-9.47-2.11a26.76,26.76,0,0,1-4.86-1.91,13,13,0,0,1-2.33-1.51,4.8,4.8,0,0,1-1.69-2.65,3.33,3.33,0,0,1,.36-2.12,7.65,7.65,0,0,1,.92-1.45,21.54,21.54,0,0,1,2.15-2.3,60.93,60.93,0,0,1,4.7-3.89L69,51.83l.41-.31c.12-.05.12-.16.11-.27l0-.6c0-.24,0-.5,0-.74,0-2,0-4-.09-6-.13-5-.41-10.06-.69-15-.18-3.19-.35-6.4-.53-9.6s-.27-6.42-.15-9.64c.1-2,.39-1.73.82-.05.23.83.49,2,.77,3.46a47.09,47.09,0,0,1,.57,5q.66,9.78,1.05,19.61c.13,3.27.27,6.55.31,9.86,0,.82,0,1.66,0,2.49,0,.43,0,.8,0,1.32s0,.75-.06,1.11a10.47,10.47,0,0,1-.83.71l-4,3a40.86,40.86,0,0,0-3.85,3.33,15.44,15.44,0,0,0-1.62,1.85,3,3,0,0,0-.69,1.6,3.56,3.56,0,0,0,1.65,1.91A11.58,11.58,0,0,0,65,66.06c2.09.62,4.28,1.1,6.48,1.55,2.67.54,5.37,1.06,8.1,1.72a32.47,32.47,0,0,1,4.1,1.24,10.91,10.91,0,0,1,2.07,1.05l.61.46a6.2,6.2,0,0,1,.54.61,2.2,2.2,0,0,1,.41.67,3,3,0,0,1,.27.73,2.24,2.24,0,0,1,0,.93,2.46,2.46,0,0,1-.4.85,4.35,4.35,0,0,1-1.51,1.22,10.92,10.92,0,0,1-1.37.57c-.43.15-.86.27-1.28.39a49.16,49.16,0,0,1-5.09,1c-5.45.85-10.9,1.25-16.25,2.07a38.55,38.55,0,0,0-4.25.9c-.34.1-.67.21-1,.33l-.23.1-.15.06a1.74,1.74,0,0,0-.26.15.8.8,0,0,0-.39.44.67.67,0,0,0,.17.55,2.11,2.11,0,0,0,.37.51,7.36,7.36,0,0,0,.62.63c.24.18.46.39.71.56l.77.49a18.06,18.06,0,0,0,3.51,1.43,50,50,0,0,0,7.64,1.44c6.3.77,12.58.83,18.93,2.05a30.71,30.71,0,0,1,4.16,1.08,12.67,12.67,0,0,1,5.09,3c.22.25.41.48.58.69a4.26,4.26,0,0,1,.35.66,2.36,2.36,0,0,1,.26,1.11,3.39,3.39,0,0,1,0,.87c-.11.33-.54.08-1.14-.51a17.51,17.51,0,0,0-3.19-2.2,18.15,18.15,0,0,0-3.7-1.4,39.58,39.58,0,0,0-4-.87c-2.77-.45-5.63-.74-8.54-1s-5.86-.5-8.86-.85a48.49,48.49,0,0,1-9.1-1.8c-.61-.18-1.22-.46-1.83-.69a16.3,16.3,0,0,1-1.8-.94,12.69,12.69,0,0,1-1.72-1.27c-.26-.27-.51-.55-.77-.83-.06-.08-.14-.15-.21-.25l-.25-.37L53,84.43a4,4,0,0,1-.33-1.05,2.66,2.66,0,0,1,.11-1.08,3.27,3.27,0,0,1,1.38-1.72,7.09,7.09,0,0,1,1-.57,5.45,5.45,0,0,1,.69-.27c.44-.17.87-.29,1.3-.41a49.32,49.32,0,0,1,5-1c3.27-.54,6.5-1,9.72-1.38Z"/><path class="cls-1" d="M68.4,12.17s14.25-2,18.16,1.06a1.75,1.75,0,0,1,.63,1.9c-.27,1.09-3,7.56-3.72,9.29a80.91,80.91,0,0,1-13.63.65C69.49,25,68.22,13.25,68.4,12.17Z"/><path class="cls-1" d="M87.91,17.68c-.16.39-3.09,7.52-3.71,8.09s-7.12.63-7.12.63.17,2.53,1.82,2.61,13.54.61,14.49-.81c.63-.94-2.27-3.75-2.82-4.22,0,0,4-2.3,4-3.35C94.54,19.06,87.91,17.68,87.91,17.68Z"/><path class="cls-1" d="M27.47,104.87s-12.53,4.1-12.11,8.21c0,0-.42,6,25.06,6.47a113.29,113.29,0,0,0,12.84,0S30,116.33,28,110.85,27.47,104.87,27.47,104.87Z"/><path class="cls-2" d="M111.18,25.22a1,1,0,0,1,1.34.63C113.5,28.55,108.35,26.24,111.18,25.22Z"/><path class="cls-1" d="M93.48,45.39a1,1,0,0,1,1.14-.94C97.47,44.71,93.19,48.39,93.48,45.39Z"/><path class="cls-1" d="M49,20.93A1,1,0,0,1,50.13,20C53,20.25,48.71,23.93,49,20.93Z"/><path class="cls-2" d="M57.81,36.76A1,1,0,0,1,59,35.81C61.81,36.08,57.53,39.76,57.81,36.76Z"/></g></svg>