<svg xmlns="http://www.w3.org/2000/svg" width="128" height="128" viewBox="0 0 128 128"><defs><style>.cls-1{fill:#231f20;}.cls-2{fill:#232020;}</style></defs><title>Free Icons</title><g id="Layer_39" data-name="Layer 39"><path class="cls-1" d="M66.61,116c-.37.09-.58-.15-1-.38-.13-.08-.32-.37-.19-.48a2.78,2.78,0,0,1,.4-.3l.4-.21a11.86,11.86,0,0,1,3.54-.11,10.53,10.53,0,0,1,2.35.6,17.51,17.51,0,0,1,2.3,1.06,6.84,6.84,0,0,1,1.11.73,4.24,4.24,0,0,1,.54.43l.36.36a3.1,3.1,0,0,1,.4.42,4.15,4.15,0,0,1,.47.81,3.1,3.1,0,0,1,.35.81c0,.47.16.88.2,1.36l.08.7a3.4,3.4,0,0,1,0,.53,16.18,16.18,0,0,0-3.18.65l-.35.11a.82.82,0,0,0-.25.16,9.86,9.86,0,0,1-1.8.66c-.44.11-.86.34-1.22.44a4.23,4.23,0,0,1-.76.16,26.39,26.39,0,0,1-3.33,0c-.16,0-.33,0-.48-.11a1.75,1.75,0,0,0-1-.32,4,4,0,0,1-1.39-.47c-.22-.11-.38-.4-.55-.58s.05-.39.13-.42.12-.23.15-.34a.5.5,0,0,1,0-.13,3.29,3.29,0,0,1,.43-.14,5.74,5.74,0,0,0,.83-.18c.59-.1,1.18-.29,1.3-.3l.53-.07c.31,0,.72-.08,1.16-.17a19.49,19.49,0,0,0,2-.49,2.2,2.2,0,0,1,.63,0,2.77,2.77,0,0,0,.48-.09l1-.32,1.46-.51c.06,0,.19-.06.16,0s0,0,.17.1h0s0,0,0,0a.25.25,0,0,1,0-.14l0-.09c0-.06.06,0-.13-.18a6.78,6.78,0,0,0-1.07-.8,1.07,1.07,0,0,1-.19-.18,1.79,1.79,0,0,0-.26-.2A12.85,12.85,0,0,0,69.2,117c-.26,0-1.44-.66-1.75-.66a1.91,1.91,0,0,1-.42-.22A1.12,1.12,0,0,0,66.61,116Z"/><path class="cls-1" d="M45.36,30.18a2.73,2.73,0,0,1-.76-1.68.27.27,0,0,1,.4-.26A11.44,11.44,0,0,1,46,29a20.52,20.52,0,0,1,1.57,1.8,14.48,14.48,0,0,1,1.78,2.81,7.78,7.78,0,0,1-1.12,8.53,12.49,12.49,0,0,1-3.36,2.68c-.5.31-1,.57-1.46.82a7.18,7.18,0,0,0-2,1.5,3.38,3.38,0,0,0-.83,2.05,2.81,2.81,0,0,0,0,.87,10.42,10.42,0,0,1,0,1.09,13.1,13.1,0,0,1-.19,2.29,7.17,7.17,0,0,1-1,2.43,6.82,6.82,0,0,1-1,1.17A14.71,14.71,0,0,1,36,58.68a16.3,16.3,0,0,1-2.49,1.2,2.15,2.15,0,0,1-.76.23,7.81,7.81,0,0,0-1.68.33,6.62,6.62,0,0,1-2.39.11,4.21,4.21,0,0,1-1.13-.39c-.32-.14-.07-.39,0-.41.34,0,.1-.23.09-.35a.27.27,0,0,1,0-.13,3.91,3.91,0,0,1,.64-.07l.64-.11c.23-.05.47-.14.71-.19a15,15,0,0,0,2.12-.83s.36-.15.86-.4a13.21,13.21,0,0,0,1.75-1.05,12.7,12.7,0,0,0,1.63-1.33,4.1,4.1,0,0,0,.67-.85c.15-.24.34-.45.48-.69a5.09,5.09,0,0,0,.37-2.09c0-1.17.07-2.67.11-2.77a9.47,9.47,0,0,1,.44-1.81,5.58,5.58,0,0,1,.47-.91,4.6,4.6,0,0,1,.64-.74c.19-.16.34-.38.52-.54a21.4,21.4,0,0,1,4.58-3.1,8.49,8.49,0,0,0,1.81-1.46,2.72,2.72,0,0,1,.29-.3,1.59,1.59,0,0,0,.34-.39,5.38,5.38,0,0,0,.49-5.12c-.07-.2-.26-.81-.5-1.44a8.83,8.83,0,0,0-.71-1.47A13.6,13.6,0,0,0,45.36,30.18Z"/><path class="cls-1" d="M82.28,59.58a6.1,6.1,0,0,0-2-1.22c-.24-.1-.21-.35.11-.38a3.75,3.75,0,0,1,1.95.25,3.15,3.15,0,0,1,1.09.89,3.48,3.48,0,0,1,.48,2.78,5.85,5.85,0,0,1-1.49,2.64,7,7,0,0,1-1.91,1.36c-.87.47-.91.59-1.15,1.32a11.42,11.42,0,0,0-.3,2.42,23.59,23.59,0,0,1-.6,6,7.79,7.79,0,0,1-.74,1.61,5.51,5.51,0,0,1-.54.73l-.31.34-.29.27a14.69,14.69,0,0,1-2.47,1.93,13.56,13.56,0,0,1-2.44,1.22,27.56,27.56,0,0,1-9,1.85c-.51,0-1,0-1.54.06a15.39,15.39,0,0,1-5.09-.81A9.3,9.3,0,0,1,53,81a7.83,7.83,0,0,1-1.36-1.68,7.67,7.67,0,0,1-1.12-4.39l.07-.59c0-.19.1-.39.16-.59a5,5,0,0,1,.47-1.13,5.77,5.77,0,0,1,1.6-1.69,4.2,4.2,0,0,1,1.05-.61,16.22,16.22,0,0,0,2.25-.89A14.7,14.7,0,0,0,58.83,68c.19-.14.39-.28.57-.43a2.06,2.06,0,0,0,.51-.51c.29-.34.4,0,.34.13-.17.47.13.18.26.18s.09,0,.1,0a2,2,0,0,1-.11.3,4.78,4.78,0,0,1-.43.71A7.67,7.67,0,0,1,58.22,70c-.74.47-1.49.89-2.08,1.22s-1,.6-1.11.68a6.86,6.86,0,0,0-1.08.77,3.86,3.86,0,0,0-.71.88c-.06.19-.16.36-.21.57a5.8,5.8,0,0,0-.09.64,4.77,4.77,0,0,0,.67,2.61,5.56,5.56,0,0,0,1,1.32c.32.32.64.63,1,.93a8.74,8.74,0,0,0,1,.52,9.92,9.92,0,0,0,2.2.6,19.15,19.15,0,0,0,3.66.23c1.42,0,2.83-.21,4.25-.33a4,4,0,0,0,.83-.17,18.23,18.23,0,0,0,6.55-3c.25-.17.45-.4.68-.59a4.56,4.56,0,0,0,.58-.6A5,5,0,0,0,76,74.86c0-.2.14-.38.19-.58a5.29,5.29,0,0,0,.17-.79c.19-1.43.14-3,.29-4.66a9.18,9.18,0,0,1,.57-2.59,4,4,0,0,1,.86-1.34,4.24,4.24,0,0,1,1.27-.83,6.4,6.4,0,0,0,1.89-1,3.54,3.54,0,0,0,1.17-1.72,2.89,2.89,0,0,0,.15-.93A1.42,1.42,0,0,0,82.28,59.58Z"/><path class="cls-2" d="M44.57,21.1a38.16,38.16,0,0,0-12.94,9,40.3,40.3,0,0,0-8.31,13.41,41.78,41.78,0,0,0,.55,30.94,40.39,40.39,0,0,0,8.85,13A42.27,42.27,0,0,0,61.2,99.64,40.39,40.39,0,0,0,90.09,88.57a39.39,39.39,0,0,0,9-12.95,40.7,40.7,0,0,0,3.3-15.41,42.79,42.79,0,0,0-2.64-15.53,41.41,41.41,0,0,0-8-13.59,39.25,39.25,0,0,0-12.67-9.38,43.15,43.15,0,0,0-30.89-2c-2.82.87-1.84,3.24.75,2.41A40.6,40.6,0,0,1,78.07,24a36.64,36.64,0,0,1,11.86,8.77,38.84,38.84,0,0,1,7.46,12.77,40.52,40.52,0,0,1,2.49,14.62,38.3,38.3,0,0,1-3.1,14.47,37,37,0,0,1-8.43,12.12A37.83,37.83,0,0,1,61.27,97.12,39.85,39.85,0,0,1,46.79,94a38.78,38.78,0,0,1-20.6-20.47,39.26,39.26,0,0,1-.51-29.07,37.74,37.74,0,0,1,7.79-12.57,35.75,35.75,0,0,1,12.09-8.43,1.51,1.51,0,0,0,1-1.83C46.38,21,45.62,20.62,44.57,21.1Z"/><path class="cls-2" d="M47.63,10.64A48.6,48.6,0,0,0,25.41,23.05c-.23.2,1.44,1.87,1.63,1.67A46.3,46.3,0,0,1,48.21,12.9C48.42,12.84,47.85,10.56,47.63,10.64Z"/><path class="cls-2" d="M18.7,31.27a49.67,49.67,0,0,0-6.84,16.39,4.61,4.61,0,0,0,2.28.5,47.71,47.71,0,0,1,6.51-15.62A5.87,5.87,0,0,0,18.7,31.27Z"/><path class="cls-2" d="M10.7,56.91a51,51,0,0,0,1.91,15.53,5.21,5.21,0,0,0,2.25-.64A48.16,48.16,0,0,1,13,57,6.58,6.58,0,0,0,10.7,56.91Z"/><path class="cls-2" d="M17.07,83.15a48.83,48.83,0,0,0,13.09,15A51.75,51.75,0,0,0,48,106.85a52.84,52.84,0,0,0,19.83,1.37l2.48-.33c.83-.09,1.63-.34,2.45-.5l2.44-.54c.8-.22,1.59-.5,2.38-.75a45.86,45.86,0,0,0,9.2-3.87c.82-.44-.37-2.49-1.12-2a43.78,43.78,0,0,1-8.79,3.7c-.76.23-1.51.5-2.28.71l-2.33.52c-.78.15-1.54.39-2.34.48l-2.36.31a50.49,50.49,0,0,1-19-1.3,49.5,49.5,0,0,1-17-8.34A46.52,46.52,0,0,1,19.11,82C18.75,81.42,16.68,82.52,17.07,83.15Z"/><path class="cls-1" d="M23.32,57.68c0,.63,0,1.25.08,1.88l0,.46,0,.38s0,.1,0,.11l0,0,.39.16c.26.12.54.21.82.31a10,10,0,0,0,1.72.4,12.14,12.14,0,0,0,7-1.09,19.37,19.37,0,0,0,2.25-1.4l1-.84c.35-.28.63-.61,1-.91a8.82,8.82,0,0,0,2.23-3.85,21.91,21.91,0,0,0,.4-4.82l.08-.7c0-.25.1-.5.17-.76a3.14,3.14,0,0,1,.42-.81,2.54,2.54,0,0,1,.67-.62c.82-.51,1.54-.84,2.25-1.25a9.79,9.79,0,0,0,3.52-3c1.56-2.25,1.37-5.38.44-8a16.32,16.32,0,0,0-2.73-4.68,13.44,13.44,0,0,0-4-3.44c-.24-.12-.39-.16-.5-.23s-.15-.13-.14-.21.07-.14.22-.21a1.51,1.51,0,0,1,.65-.13,7.26,7.26,0,0,1,4.8,2.43,17.28,17.28,0,0,1,3.43,5.21,13.35,13.35,0,0,1,.95,6.32,9,9,0,0,1-3,5.83,14.37,14.37,0,0,1-2.6,1.82l-1.32.69c-.21.11-.42.22-.59.33s-.34.21-.4.24-.09.15-.17.32a3.28,3.28,0,0,0-.13.68c-.06.49,0,1.09-.06,1.68a15.71,15.71,0,0,1-.36,3.8,11.16,11.16,0,0,1-1.63,3.6,12.09,12.09,0,0,1-1.26,1.49c-.23.23-.45.47-.69.68l-.74.6a15.22,15.22,0,0,1-1.69,1.2,10.67,10.67,0,0,1-1.85,1,14.15,14.15,0,0,1-4.07,1.07,13.64,13.64,0,0,1-4.18-.16,11.92,11.92,0,0,1-2-.54c-.34-.12-.65-.25-1-.4L22,62l-.34-.17c-.07,0-.07-.09-.08-.15l0-.19c-.05-.3-.1-.64-.13-.91L21.38,60c0-.41-.07-.83-.09-1.24,0-.83-.06-1.66,0-2.48a35.37,35.37,0,0,1,.4-4.93,35.86,35.86,0,0,1,1.87-7.26l.72-1.73c.26-.57.55-1.13.82-1.69s.6-1.09.91-1.63l.48-.81c.1-.15.24-.49.39-.76a39.1,39.1,0,0,1,6.59-9.36,20.71,20.71,0,0,1,1.88-1.74A17.15,17.15,0,0,1,37,25.19c.51-.26.92-.46,1.27-.6a2.45,2.45,0,0,1,1.62-.1,3,3,0,0,1,.55.18c.22.15.07.44-.34.83a8.93,8.93,0,0,1-.82.63c-.32.27-.7.56-1.13.86a29.25,29.25,0,0,0-3.57,3.22,38.14,38.14,0,0,0-3.11,3.87,40.77,40.77,0,0,0-2.64,4.29l-.28.55,0,.06a.61.61,0,0,1-.07.14l-.14.24-.16.27-.64,1.08c-.44.71-.77,1.49-1.16,2.24a34,34,0,0,0-3,14.72Z"/><path class="cls-1" d="M61.84,20.19a3,3,0,0,0-.39,0c-.06,0-.15,0-.2,0a.24.24,0,0,0,.12.07l.35.13.91.31a10.73,10.73,0,0,1,1.32.57,4.41,4.41,0,0,1,1.39,1,1.82,1.82,0,0,1,.32,2.16l-.24.39a1.79,1.79,0,0,1-.25.31,2.5,2.5,0,0,1-.65.55,3.68,3.68,0,0,1-1.44.46,2.28,2.28,0,0,0-1.93,1,4.6,4.6,0,0,0-.88,2.27,4.12,4.12,0,0,0,2,3.65,8.59,8.59,0,0,0,2.12,1.06,7.44,7.44,0,0,0,2.34.34,41.68,41.68,0,0,0,5.1-.47,10.3,10.3,0,0,1,2.78,0,3.5,3.5,0,0,1,1.45.6,8.64,8.64,0,0,1,1,.92c1.13,1.11,2.15,2.25,3.27,3.27A13.49,13.49,0,0,0,84,41.31a5.67,5.67,0,0,0,2.6.41,22.83,22.83,0,0,0,2.84-.4,23.17,23.17,0,0,0,2.75-.73,7.76,7.76,0,0,0,2.38-1.15l.17-.15s.07,0,.08,0,.13,0,.2-.07.17,0,.29.13a.89.89,0,0,1,0,.32,2.23,2.23,0,0,1-.12.41c-.56,1.18-2.41,2.37-4.72,2.91a25.35,25.35,0,0,1-3.12.51l-.79.06c-.26,0-.6,0-.89,0a4.54,4.54,0,0,1-.9-.13,4.11,4.11,0,0,1-.85-.23,10.19,10.19,0,0,1-3-1.59,22,22,0,0,1-2.38-2.09c-.74-.72-1.43-1.47-2.11-2.19a6.82,6.82,0,0,0-1.91-1.59,8,8,0,0,0-2.62,0c-1,.1-2,.24-3,.32a15.69,15.69,0,0,1-3.87,0,9.24,9.24,0,0,1-3.73-1.54,6.26,6.26,0,0,1-2.54-3.32,5.91,5.91,0,0,1,1.66-5.55,3.56,3.56,0,0,1,1.67-.83,12.09,12.09,0,0,0,1.35-.26,1.36,1.36,0,0,0,.4-.25l.16-.19a1.13,1.13,0,0,1,.13-.19.38.38,0,0,0,0-.45,3.19,3.19,0,0,0-.82-.55,9.28,9.28,0,0,0-1.11-.48l-.59-.21-.79-.25a17,17,0,0,1-3.41-1.16,8.11,8.11,0,0,1-.68-.55.86.86,0,0,1-.15-.2c0-.12,0-.1.07-.16a2.75,2.75,0,0,0,.22-.26l.12-.16c.52-.12,1-.25,1.6-.36s1.13-.21,1.73-.29l.9-.12.77-.07c.41,0,.82-.06,1.23-.07a29.12,29.12,0,0,1,4.94.18,24.7,24.7,0,0,1,7.47,2.05,44.05,44.05,0,0,1,6.54,4,69.61,69.61,0,0,1,9.1,7.41c.6.62,1.2,1.23,1.77,1.91,2.07,2.54,2.36,3.7,2.24,4.49a2.37,2.37,0,0,1-.1.54c-.26.39-.8-.73-2.17-2.5a45.79,45.79,0,0,0-7.4-7.24,82.87,82.87,0,0,0-8.78-6.17,22.09,22.09,0,0,0-7.27-2.63,27,27,0,0,0-3.91-.42c-.66,0-1.32,0-2,0l-1,0-.84.07Z"/><path class="cls-1" d="M54,81.05c1.93,1.09,4.53,1.32,7.11,1.51a30.61,30.61,0,0,0,7.61-.22,14.75,14.75,0,0,0,5-1.9,12.18,12.18,0,0,0,1.88-1.39,11.9,11.9,0,0,0,1.6-1.67,9.47,9.47,0,0,0,1.54-4.29c.12-.8.2-1.63.28-2.48a9.73,9.73,0,0,1,.4-2.77,2.66,2.66,0,0,1,.5-.8,3.79,3.79,0,0,1,.63-.51l1.07-.72a21,21,0,0,0,2-1.47A7.07,7.07,0,0,0,86,61.1a2.22,2.22,0,0,0-.07-1.65,3.49,3.49,0,0,0-1.23-1.32,7.19,7.19,0,0,0-1.13-.61c-.2-.09-.41-.17-.61-.24l-.31-.1a1.07,1.07,0,0,0-.23,0,5,5,0,0,0-2.41.28,12.21,12.21,0,0,0-4.31,3c-.4.4-.65.5-.82.35s-.23-.54-.1-1.11a6.62,6.62,0,0,1,3.67-4.22,8,8,0,0,1,3.52-.75l.94.11a5,5,0,0,1,1,.29,10.89,10.89,0,0,1,1.55.73A8.22,8.22,0,0,1,86.86,57,5.32,5.32,0,0,1,88,58.65a4.32,4.32,0,0,1,.27,2.18,6.2,6.2,0,0,1-.56,1.84,12.84,12.84,0,0,1-4.59,4.69c-.79.55-1.89,1.17-1.79,1.28a3.41,3.41,0,0,0-.19,1.06c0,.46-.09,1.07-.15,1.52a34.08,34.08,0,0,1-.56,3.69,10.4,10.4,0,0,1-1.59,3.68,11.36,11.36,0,0,1-1.31,1.5,16.21,16.21,0,0,1-1.45,1.3,14.91,14.91,0,0,1-3.36,2,21.49,21.49,0,0,1-8.17,1.47c-1.37,0-2.72-.06-4.06-.16a34.23,34.23,0,0,1-4.07-.5A10,10,0,0,1,51.65,82a5.87,5.87,0,0,1-1.57-2.3,12.49,12.49,0,0,1-.39-1.28,9.39,9.39,0,0,1-.19-1.31,7.82,7.82,0,0,1,.68-4A8.2,8.2,0,0,1,52.72,70a10.88,10.88,0,0,1,3.53-1.74c.28-.08.72-.18.8-.23a5.85,5.85,0,0,0,.71-.41A7.14,7.14,0,0,0,59,66.53a6.45,6.45,0,0,0,1.35-2.2,14,14,0,0,1,1.23-2.73,6.19,6.19,0,0,1,2.31-2.23,8.9,8.9,0,0,1,3-.94,17.78,17.78,0,0,1,2.63-.16A9.23,9.23,0,0,1,73,59a2.24,2.24,0,0,1,1.24,1.12,1.58,1.58,0,0,1,.2.56c0,.54-1.11.14-3.19-.12a15.35,15.35,0,0,0-4.69.2A4.51,4.51,0,0,0,63.33,63a13.42,13.42,0,0,0-1,2.2,9.2,9.2,0,0,1-1.66,2.71,9.38,9.38,0,0,1-2.49,2L58,70l-.3.14-.47.13-.57.15a10,10,0,0,0-1.07.43A7.44,7.44,0,0,0,53,72.75,5.76,5.76,0,0,0,51.7,75.6a7,7,0,0,0,.4,3.24A4,4,0,0,0,54,81Z"/><path class="cls-2" d="M67.2,114.91v-6.75a11.34,11.34,0,0,0-2.33,0v6.75A15.1,15.1,0,0,0,67.2,114.91Z"/><path class="cls-1" d="M71.4,121.46c1-.12,2-.25,3-.4.5-.07,1-.16,1.48-.22l.75-.1s.11,0,.14,0,.25,0,.26-.09a.47.47,0,0,0-.08-.27,1.33,1.33,0,0,0-.14-.17,6.08,6.08,0,0,0-.5-.52c-.35-.33-.72-.66-1.11-1a12.88,12.88,0,0,0-9.91-2.89,10.56,10.56,0,0,0-4.33,1.85A26,26,0,0,0,56.56,122c-.42.5-.67.24-.64-.43a5.06,5.06,0,0,1,1.17-2.79,14,14,0,0,1,5.64-4.12,12,12,0,0,1,7-.49,17.82,17.82,0,0,1,7.61,3.71,11,11,0,0,1,.92.89,6.23,6.23,0,0,1,1.07,1.5,2,2,0,0,1,.15,1.57c-.22.54-.8.61-1.28.86l-1.46.32-1,.21-2.08.33c-1.81.28-3.63.49-5.46.66-1.39.13-2.79.2-4.19.22a31.05,31.05,0,0,1-4.22-.26c-2.15-.27-4.22-.55-6.27-.73l-1.33-.08c-1.65-.13-2.14-.24-2.52-.92a4.23,4.23,0,0,1-.25-.46c-.19-.51.53-1,1.88-1.07,4-.19,7.9,1,11.53,1.08a61.19,61.19,0,0,0,8.55-.6Z"/><path class="cls-1" d="M79.82,4.86c-.15-.12,0-.29.36-.51a1.27,1.27,0,0,1,.54-.15,1.54,1.54,0,0,1,.34.17c.06,0,.48.8.63,1a3.33,3.33,0,0,1,.31.79l.44,1.63a1.14,1.14,0,0,1,0,.37,3.56,3.56,0,0,0,.18,1.26.33.33,0,0,0,.09.2A4.11,4.11,0,0,1,83.07,11c0,.38-.06.76-.08,1.13,0,.06,0,.11,0,.17s-.1.25-.09.37a2,2,0,0,1,0,.48.82.82,0,0,1-.15.27c0,.08-.3.1-.33.08s-.19,0-.29.06l-.1,0a5,5,0,0,1-.75-.87s-.44-1.3-.51-1.44a.49.49,0,0,1,0-.24s-.37-1-.37-1.08c0-.22-.14-.42,0-.66a.23.23,0,0,0,0-.14,6.89,6.89,0,0,1-.15-1.11A5.59,5.59,0,0,0,80,7.51a.36.36,0,0,1,0-.1.65.65,0,0,0,0-.14A8.2,8.2,0,0,0,79.75,6a6.06,6.06,0,0,0,0-.73C79.68,5.18,79.88,4.9,79.82,4.86Z"/><path class="cls-1" d="M111.28,28.8c-.11.18-.33,0-.62-.39a2,2,0,0,1-.24-.64,3.56,3.56,0,0,1,.12-.42c0-.06.71-.62.93-.84a3,3,0,0,1,.7-.49c.5-.27,1-.58,1.51-.87a1,1,0,0,1,.38-.13,3.44,3.44,0,0,0,1.27-.55c.06,0,.14-.07.17-.18a3.62,3.62,0,0,1,1.38-.75c.45,0,.88-.08,1.32-.11.06,0,.11-.05.19,0s.3.09.43.07a1.67,1.67,0,0,1,.55,0,.88.88,0,0,1,.32.18c.1.06.15.4.14.44s.06.26.1.39l0,.14a4.93,4.93,0,0,1-.77.95l-.2.11-.42.24a7,7,0,0,0-.68.45c-.06.05-.16,0-.25,0s-1,.62-1,.64c-.21.07-.38.25-.68.18-.06,0-.09,0-.13,0a6.92,6.92,0,0,1-1.12.46,5.85,5.85,0,0,0-.56.28h-.12a.66.66,0,0,0-.15,0c-.43.24-.93.36-1.35.65-.1.07-.7.09-.82.17S111.32,28.73,111.28,28.8Z"/><path class="cls-2" d="M87,104.78,81.1,92.22a8,8,0,0,0-2.46,1.15l5.87,12.55A9.66,9.66,0,0,0,87,104.78Z"/><path class="cls-2" d="M48.31,21.64,43,9.86A8,8,0,0,0,40.48,11l5.37,11.81A10.15,10.15,0,0,0,48.31,21.64Z"/><path class="cls-1" d="M64.59,24.27c.2-.4.5-.75.79-1.23a.22.22,0,0,1,.4.06,2.92,2.92,0,0,1,.11,1.27,2.15,2.15,0,0,1-.36.82,5,5,0,0,1-1.17,1.13c-.44.34-.89.65-1.21.93a3.75,3.75,0,0,0-.67.73A2.11,2.11,0,0,0,62,30.06a2.42,2.42,0,0,0,.26.47l.48.55a2.56,2.56,0,0,0,.51.48,2.84,2.84,0,0,0,.54.39,4.37,4.37,0,0,0,2.59.68c.44,0,.89,0,1.37,0,1.63-.07,3.34-.59,5.27-.81a8.44,8.44,0,0,0,1-.09,4.77,4.77,0,0,1,1.25,0c.32.07.7.18,1.08.3a7.12,7.12,0,0,1,1.1.56,8.86,8.86,0,0,1,2.39,2.5,13.86,13.86,0,0,0,1.18,1.81,9.18,9.18,0,0,0,1.48,1.44,2.33,2.33,0,0,1,.46.37,2.26,2.26,0,0,0,1.09.71,14.28,14.28,0,0,0,1.73.64l.91.3c.28.08.13.27,0,.3-.3.06-.06.17,0,.26a.15.15,0,0,1,0,.09l-.19,0a3.45,3.45,0,0,1-.47.06,10.4,10.4,0,0,1-1.47,0,6.82,6.82,0,0,1-2.42-.62s-.39-.19-.91-.51a11.21,11.21,0,0,1-1.74-1.38,12.4,12.4,0,0,1-1.48-1.74,10.91,10.91,0,0,0-.73-.9c-.2-.22-.35-.46-.52-.67a3.7,3.7,0,0,0-1.56-.9,5.68,5.68,0,0,0-1.86-.11c-.8,0-1.64.27-2.56.29a2.65,2.65,0,0,0-.54.09,13.13,13.13,0,0,1-5.1.34,7,7,0,0,1-1.39-.37A5.48,5.48,0,0,1,62.48,34a1.64,1.64,0,0,1-.4-.34c-.15-.15-.3-.32-.46-.46a7.73,7.73,0,0,1-1-1.25,4.08,4.08,0,0,1-.71-1.69,4.42,4.42,0,0,1,1-3.45,5.41,5.41,0,0,1,1.35-1.1c.61-.36,1.18-.64,1.36-.78S64.54,24.48,64.59,24.27Z"/></g></svg>