<svg xmlns="http://www.w3.org/2000/svg" width="128" height="128" viewBox="0 0 128 128"><defs><style>.cls-1{fill:#231f20;}</style></defs><title>Free Icons</title><g id="Layer_37" data-name="Layer 37"><path class="cls-1" d="M105.61,55.71a2.41,2.41,0,0,0,.54,0s0,0,0,0h0l.08.07h0c-.08-.06,0,0,0,0a.2.2,0,0,0,.1-.07.74.74,0,0,0,.19-.3.63.63,0,0,0,0-.36.59.59,0,0,1,0-.47.93.93,0,0,1,.49-.21c.25-.05.56,0,.65.09a1.48,1.48,0,0,1,.12,1.46,2.61,2.61,0,0,1-.62,1,2.42,2.42,0,0,1-.94.39l-.52.08a5.58,5.58,0,0,0-.73.1,1.6,1.6,0,0,0-.47.31.87.87,0,0,0-.1.08c-.12.05-.16,0-.32-.48l-.11-.29a.94.94,0,0,1,0-.77,1.51,1.51,0,0,1,1-.55,5.5,5.5,0,0,1,.66-.07Z"/><path class="cls-1" d="M105.91,61.94a4.8,4.8,0,0,0,.54,0l0,0h0l.07.08h0c-.07-.06,0,0,0,0a.14.14,0,0,0,.1-.06.78.78,0,0,0,.19-.31.6.6,0,0,0,0-.35.61.61,0,0,1,0-.48,1,1,0,0,1,.49-.2c.25,0,.56,0,.65.08a1.5,1.5,0,0,1,.12,1.47,2.69,2.69,0,0,1-.62,1,2.19,2.19,0,0,1-.94.38l-.52.09a5.58,5.58,0,0,0-.73.1,1.6,1.6,0,0,0-.47.31.87.87,0,0,0-.1.08c-.12,0-.16,0-.32-.48l-.11-.29a.94.94,0,0,1,0-.77,1.42,1.42,0,0,1,.95-.55,4,4,0,0,1,.66-.07Z"/><path class="cls-1" d="M21.23,97.82s1.11,0,1.28-.71c.25-1.06.28-6.93.28-6.93,27.08,1.26,26.6,1.29,33.86.5.46-.05,1.72-1.56.05-1.56-1.18,0-34.47-.73-34.47-.73S21,87.26,20.78,90.52C20.7,92.09,21.23,97.82,21.23,97.82Z"/><path class="cls-1" d="M86.56,29.36a23.15,23.15,0,0,1,.82-2.24c.11-.27.19-.55.32-.81a15,15,0,0,1,1.62-2.61c.28-.35.55-.72.84-1.06a4.92,4.92,0,0,1,1.25-1.2c.31-.19.53.77.14,1.21-.73.8-1.35,1.68-2,2.56A8.66,8.66,0,0,0,88.59,27a21.64,21.64,0,0,0-.79,2.13c-.14.45-.27.9-.38,1.36a19.12,19.12,0,0,0-.4,2.11c-.07.55,0,1.1,0,1.65,0,.12,0,.24,0,.36,0,.45-.18.58-.44.65l-.19.06c-.19,0-.36-.17-.45-.52A9.72,9.72,0,0,1,86,31.7c.14-.79.32-1.57.53-2.34Z"/><path class="cls-1" d="M78.35,38.4q-5.91-.3-11.83-.48l-4.31-.06c-5.07-.14-10.15-.33-15.22-.33-2.25,0-4.51.07-6.73.16-2.84.15-5.78.37-8.46.62a.77.77,0,0,1-.38,0c0-.05-.08-.08-.14-.13a.22.22,0,0,1-.06-.25,1.29,1.29,0,0,1,.33-.44A6.69,6.69,0,0,1,35.3,36,132.72,132.72,0,0,1,53,35.58c3.55.13,7.23,0,10.86.09,4,.08,8,.21,11.95.36l7.35.31,11.11.54,8.52.26c.63,0,1.24,0,1.87.07a10.75,10.75,0,0,1,2.46.37,1.9,1.9,0,0,1,1,.77,2.46,2.46,0,0,1,.28.44c.09.23-.12.42-.56.56a6.45,6.45,0,0,1-2,.23c-5-.07-10.33-.33-15.66-.59-4-.19-7.94-.39-11.92-.54Z"/><path class="cls-1" d="M9.47,51.05l.91-1.18c.32-.39.66-.75,1-1.13.64-.76,1.37-1.45,2.08-2.14A18.56,18.56,0,0,1,15,45.12a32.06,32.06,0,0,1,3.1-2.24c.55-.33,1.12-.63,1.67-.94l.83-.47.87-.38c.51-.22,1-.46,1.53-.7s1-.41,1.56-.62a14.67,14.67,0,0,1,2-.71,12.72,12.72,0,0,1,2.13-.31c.44,0,.43.23.14.62a5.6,5.6,0,0,1-1,1l-.23.18-.27.1a48.82,48.82,0,0,0-7.5,3.36,20.38,20.38,0,0,0-4,3.11c-.72.6-1.33,1.32-2,2S12.58,50.56,12,51.3a29.92,29.92,0,0,0-2,2.87,28.37,28.37,0,0,0-2.43,4.71,25.9,25.9,0,0,0-1.06,3.9c-.07.29-.11.58-.18.86-.32,1-.69,1.32-1.25,1.45a3,3,0,0,1-.36.08c-.34,0-.65-.49-.74-1.4a11.84,11.84,0,0,1,.68-3.89,27.43,27.43,0,0,1,1.57-3.72A38.23,38.23,0,0,1,9.42,51Z"/><path class="cls-1" d="M90,51.07c.72-.71,1.44-1.43,2.23-2.07l1.15-1,1.2-.92a19,19,0,0,1,1.76-1.34,39.44,39.44,0,0,1,6.82-3.7c.52-.24,1-.47,1.58-.67a16.75,16.75,0,0,1,1.62-.61,9.21,9.21,0,0,1,4.39-.64c.47,0,.39.31,0,.65a6.17,6.17,0,0,1-1.68,1.08,53.51,53.51,0,0,0-7.83,3.07A18.5,18.5,0,0,0,99,46.24c-.73.5-1.42,1.06-2.15,1.56S95.34,49,94.59,49.61s-1.48,1.26-2.16,2A33.88,33.88,0,0,0,90,54.2l-.88,1-.8,1.1-.79,1.11-.68,1.17a30.89,30.89,0,0,0-1.66,3.79,8.57,8.57,0,0,1-.27.86c-.41,1-.74,1.31-1.28,1.4-.13,0-.25,0-.36,0-.35,0-.54-.55-.42-1.44a18,18,0,0,1,3.21-7.48A36.75,36.75,0,0,1,90,51Z"/><path class="cls-1" d="M9.27,66.08q9,.3,18.06.52l6.59.07,23.23.45c3.44,0,6.89,0,10.3-.1,4.36-.12,8.78-.3,13.08-.57,1.32-.13,1.22.07.12.55a15.26,15.26,0,0,1-2.34.79,16.16,16.16,0,0,1-3.41.6c-9,.71-17.94.82-27,.67-5.4-.17-11-.13-16.54-.23-6.08-.12-12.15-.29-18.22-.47l-6.31-.21H6.56c-.08,0-.09.16-.12.25l-.06.28,0,.43c-.08.74-.13,1.5-.18,2.26-.26,5.61-.22,11.3,0,16.9.09,1.84.25,3.67.46,5.48.1.9.22,1.8.37,2.68.07.44.15.88.25,1.29l.07.3,0,.14a1,1,0,0,0,.13.25,1.93,1.93,0,0,0,.42.12l.91.18c.91.16,1.82.27,2.75.4,3.48.41,4.49.81,5.23,1.38.17.14.39.23.53.34s.1.19,0,.31a2.14,2.14,0,0,1-.74.34,9.67,9.67,0,0,1-3.09.28c-1.17-.08-2.34-.2-3.53-.36-.59-.09-1.19-.18-1.8-.29l-.95-.2a4.51,4.51,0,0,1-1.5-.66,3.42,3.42,0,0,1-.78-1.71c-.09-.4-.15-.76-.2-1.13-.11-.73-.18-1.44-.24-2.16-.12-1.43-.2-2.85-.25-4.29L4.12,88.8,4,86.65c-.07-1.44-.1-2.88-.13-4.32,0-2.61-.06-5.22,0-7.84,0-1.32.07-2.63.15-4,0-.69.09-1.3.19-2.08A4.52,4.52,0,0,1,4.7,66.7a1.29,1.29,0,0,1,.6-.53L6.08,66,9.26,66Z"/><path class="cls-1" d="M85.62,90.76c-.09,2.39-.21,4.78-.47,7.21l-.07.82L85,100a1.73,1.73,0,0,1-.92,1.26,4.85,4.85,0,0,1-.92.35l-.41.09-.3.06c-.4.08-.8.14-1.19.19-.78.11-1.55.18-2.32.25-1.54.14-3.08.23-4.61.32l-4.07.28a25.39,25.39,0,0,1-5.23,0c-.55-.08-.46-.51,0-.94a3.93,3.93,0,0,1,2.24-1c3.46-.36,6.93-.59,10.44-.75a23.65,23.65,0,0,0,3.14-.4c.5-.09,1.07-.23,1.46-.34.14,0,.4-.08.36-.29l0-.14.06-.42.08-.87c.06-.57.08-1.16.13-1.75.07-1.18.11-2.36.14-3.55,0-1.46.06-2.92.06-4.39,0-2.22,0-4.45-.08-6.66-.05-1.72-.31-3.4-.36-5.11,0-.38-.06-.75-.05-1.13,0-1.42.23-1.88.83-2.15a2.05,2.05,0,0,1,.41-.18c.45-.11.83.47,1,1.47a63.28,63.28,0,0,1,.83,9.38c.06,2.39,0,4.8,0,7.21Z"/><path class="cls-1" d="M112.16,70.91l0-6.6-.06-2.41c0-2.83,0-5.66,0-8.49,0-1.25-.1-2.51-.21-3.75-.11-1.58-.26-3.22-.28-4.72,0-.43.18-.53.55-.18a4,4,0,0,1,1.06,2.06c.14.82.29,1.64.39,2.46s.15,1.64.2,2.46c.11,1.65.14,3.29.12,4.95,0,2,.16,4,.22,6.05q.09,3.34.1,6.67l0,4.11c0,2.07,0,4.15,0,6.21,0,1.6.2,3.17.28,4.76,0,.35.06.69.06,1.05,0,1.32-.19,1.74-.8,2a2.66,2.66,0,0,1-.41.16c-.46.09-.85-.46-.94-1.39-.3-2.79-.36-5.75-.38-8.72,0-2.21,0-4.43,0-6.65Z"/><path class="cls-1" d="M98.19,95.1c1.3-.58,2.6-1.18,3.88-1.82l1.38-.73q2.47-1.23,4.92-2.53c.71-.4,1.42-.83,2.09-1.28.44-.28.85-.59,1.29-.87s.9-.53,1.33-.77c.27-.14.42.06.38.45a2.41,2.41,0,0,1-.77,1.37,34.31,34.31,0,0,1-5.54,3.35c-1.18.56-2.31,1.29-3.48,1.91s-2.59,1.32-3.91,2l-2.44,1.13c-1.23.56-2.49,1.08-3.73,1.63-1,.42-1.88.91-2.85,1.32a6.14,6.14,0,0,1-.64.27c-.83.25-1.13.21-1.42-.14-.06-.08-.14-.16-.19-.24-.15-.29.11-.65.65-.94,1.61-.83,3.36-1.54,5.11-2.33,1.31-.57,2.62-1.15,3.92-1.78Z"/><path class="cls-1" d="M113.66,80.07A18.6,18.6,0,0,1,121.72,82c3.76,2-.63,5-2.2,6C116.6,89.7,99.39,98.2,92.91,97.81c0,0,20.09-9.22,20.59-10.55S113.66,80.07,113.66,80.07Z"/><path class="cls-1" d="M60.8,96.36c.05-.55.09-1.11.16-1.66,0-.2,0-.4,0-.6.08-.72.18-1.43.25-2.15a7.37,7.37,0,0,0,0-.94,2.75,2.75,0,0,1,0-1.21c.09-.25,1.32.06,1.38.51a9.07,9.07,0,0,1,0,2.44,7.54,7.54,0,0,0,0,1.5c0,.56,0,1.11,0,1.67l0,1c0,.52,0,1,0,1.56s.17.79.2,1.19a2.48,2.48,0,0,1,0,.27c0,.33-.14.44-.54.5l-.28,0a.71.71,0,0,1-.68-.34A4.82,4.82,0,0,1,60.73,98c0-.55,0-1.1,0-1.66Z"/><path class="cls-1" d="M35.61,87.6l6.06.27c.74,0,1.48,0,2.21,0,2.6.09,5.2.25,7.81.38,1.15,0,2.31,0,3.46.06a17.81,17.81,0,0,1,4.46.37c.47.11.35.34-.07.58a5.14,5.14,0,0,1-1.95.65,18.49,18.49,0,0,1-2.23.1H53.11c-1.5,0-3,0-4.52-.14-1.81-.12-3.7,0-5.55-.07l-6.12-.16-3.77-.12c-1.9,0-3.81-.15-5.7-.17-1.47,0-2.92.08-4.38.07-.32,0-.64,0-1,0a2.51,2.51,0,0,1-1.26-.27,1.05,1.05,0,0,1-.51-.61,3.19,3.19,0,0,1-.14-.35c-.07-.37.45-.68,1.32-.84a73.3,73.3,0,0,1,8-.06l6.1.21Z"/><path class="cls-1" d="M20.11,95.12c0-.47.07-1,.11-1.42,0-.17,0-.34,0-.51,0-.62.1-1.24.11-1.85a7.4,7.4,0,0,0,0-.82,2.57,2.57,0,0,1,0-1.07c.06-.22.91.06,1,.43A9.32,9.32,0,0,1,21.35,92a9.67,9.67,0,0,0,.07,1.31c0,.49,0,1,0,1.46,0,.3,0,.61,0,.9L21.33,97c0,.36.07.72.07,1.1a2.09,2.09,0,0,1,0,.25c-.08.31-.2.39-.56.34l-.22,0a.69.69,0,0,1-.49-.43A4.69,4.69,0,0,1,20,96.52c0-.46.05-.93.07-1.4Z"/><path class="cls-1" d="M50.88,105.53a23.08,23.08,0,0,0,2.52-2.11c.29-.27.52-.61.79-.9a18.63,18.63,0,0,0,2.59-3.37,12.26,12.26,0,0,0,.79-1.73,22.57,22.57,0,0,1,.84-2.29c.12-.23.35-.14.55.14a1.79,1.79,0,0,1,.29,1.25,13,13,0,0,1-2.19,4.79,32,32,0,0,1-1.94,2.61,22,22,0,0,1-2.58,2.43c-.56.46-1.13.89-1.72,1.31-.89.63-1.82,1.2-2.72,1.79-.69.47-1.35,1-2,1.45-.15.1-.29.21-.45.31-.58.35-.85.32-1.18,0a1.79,1.79,0,0,1-.23-.25c-.22-.29-.12-.69.25-1a34.91,34.91,0,0,1,3.67-2.51c.92-.61,1.86-1.22,2.73-1.9Z"/><path class="cls-1" d="M23.53,110.63l5,.27c.61,0,1.22,0,1.82,0q3.21.21,6.42.49c1,.08,1.91.13,2.86.18a8.29,8.29,0,0,1,3.62.67c.36.15.28.28-.08.48l-.71.4a2.65,2.65,0,0,1-1,.23,15.75,15.75,0,0,1-1.82,0l-1.82-.09c-1.23,0-2.45-.16-3.69-.3-1.48-.18-3-.11-4.54-.15l-5-.16-3.09-.11c-1.56,0-3.13-.11-4.68-.11-1.21,0-2.4.12-3.62.13a7.27,7.27,0,0,1-.81,0,2.14,2.14,0,0,1-1.09-.28.93.93,0,0,1-.39-.67,1.88,1.88,0,0,1,0-.33.64.64,0,0,1,.35-.42,1.53,1.53,0,0,1,.75-.29c2-.18,4.27-.18,6.51-.15l5,.14Z"/><path class="cls-1" d="M16.25,104.06c1-.75,2-1.52,2.93-2.35.35-.29.66-.63,1-.94a40.67,40.67,0,0,0,3.46-3.36,13.83,13.83,0,0,0,1.29-1.7c.46-.77,1-1.51,1.44-2.25.17-.23.42-.11.6.24a1.79,1.79,0,0,1,.08,1.47,9.11,9.11,0,0,1-1.53,2.55,18.42,18.42,0,0,1-2,2.14c-.86.79-1.64,1.7-2.5,2.52s-1.94,1.72-2.95,2.54c-.63.49-1.25,1-1.88,1.47-1,.74-2,1.43-2.91,2.15-.74.56-1.41,1.2-2.15,1.76-.16.12-.32.25-.49.36-.65.39-1,.36-1.31.09-.08-.07-.17-.13-.24-.2-.22-.23-.11-.63.25-1.07a24.84,24.84,0,0,1,3.86-3.18c1-.75,2-1.48,3-2.27Z"/><path class="cls-1" d="M85.29,28.33a28.05,28.05,0,0,1,1.17-2.83c.16-.33.28-.68.46-1a26.19,26.19,0,0,1,2.13-3.27c.35-.45.67-.93,1-1.38a6.35,6.35,0,0,1,1.46-1.64c.38-.27.93,1,.49,1.67-.84,1.12-1.59,2.28-2.51,3.39a11.74,11.74,0,0,0-1.26,2.28,28.22,28.22,0,0,0-1.12,2.66c-.2.56-.39,1.12-.54,1.7a15.92,15.92,0,0,0-.52,2.65,15.87,15.87,0,0,0,0,2.07c0,.15,0,.3,0,.45a.72.72,0,0,1-.58.86l-.28.09c-.29,0-.56-.18-.73-.62a9.46,9.46,0,0,1,0-4.07,23.64,23.64,0,0,1,.75-3Z"/><path class="cls-1" d="M55,14.21c3.1-.11,6.06,0,9.07.06,1.1,0,2.19,0,3.28.05,3.85.16,7.69.4,11.54.64,1.7.11,3.42.19,5.11.27a37.17,37.17,0,0,1,6.55.64c.68.16.51.57-.12.92a5.53,5.53,0,0,1-2.92.6c-4.38-.26-8.8-.43-13.26-.83-2.66-.23-5.44-.19-8.17-.25-3-.06-6-.12-9-.07l-1.72.05c-.27,0-.57,0-.83.07l-.2,0h-.11a.44.44,0,0,0-.2.08l-.7.57c-.23.22-.45.46-.68.69A17.15,17.15,0,0,0,49,24.85a29.82,29.82,0,0,0-.83,6.22c0,.46,0,.92,0,1.38,0,1.72-.22,2.26-.83,2.63a2.25,2.25,0,0,1-.41.25c-.43.17-.87-.56-1-1.88a28.29,28.29,0,0,1,2-12.17,20.62,20.62,0,0,1,2-3.55,14.28,14.28,0,0,1,1.33-1.6c.25-.24.48-.51.75-.73l.92-.75.16-.1c.07,0,.11,0,.17-.06a1.61,1.61,0,0,1,.35-.12,3.85,3.85,0,0,1,.62-.14l.84-.07Z"/><path class="cls-1" d="M66.35,20l-2.57-.1h-.94l-3.32-.12c-.49,0-1,0-1.47,0a9.85,9.85,0,0,1-1.88-.05c-.39-.06.1-.86.82-.92a22.28,22.28,0,0,1,3.83,0c.77.06,1.57,0,2.36,0l2.6,0,1.6,0c.81,0,1.63.06,2.43.05.62,0,1.24-.06,1.86-.09a2.81,2.81,0,0,1,.41,0c.51,0,.66.11.76.41,0,.07,0,.14.06.2,0,.23-.18.41-.55.48a17.57,17.57,0,0,1-3.41.14L66.35,20Z"/><path class="cls-1" d="M59.9,22.54l1.46.1c.17,0,.35,0,.53,0,.62.07,1.24.14,1.87.19.27,0,.55,0,.83,0a4.72,4.72,0,0,1,1.06,0c.22,0-.06.56-.47.6a12.1,12.1,0,0,1-2.17,0c-.43,0-.88,0-1.33,0l-1.46-.06-.9,0c-.46,0-.91,0-1.37,0l-1,.07-.23,0c-.28,0-.37-.08-.44-.27l0-.13c0-.13.09-.28.3-.34a6,6,0,0,1,1.93-.27l1.47.06Z"/><path class="cls-1" d="M28.9,107l-2.57-.11h-.94l-3.32-.13c-.49,0-1,0-1.47,0a9.83,9.83,0,0,1-1.88,0c-.39-.07.1-.92.82-1a21.32,21.32,0,0,1,3.83,0c.77.07,1.57,0,2.36,0l2.6,0,1.6,0c.81,0,1.62.06,2.43.06.62,0,1.24-.08,1.86-.11a2.81,2.81,0,0,1,.41,0c.51,0,.66.12.76.44a1.66,1.66,0,0,1,.06.21c0,.25-.19.44-.56.51a16,16,0,0,1-3.4.16L28.9,107Z"/><path class="cls-1" d="M28.27,103.46l1.46.11c.17,0,.35,0,.53,0,.62.07,1.24.14,1.87.18.27,0,.55,0,.82,0a5.35,5.35,0,0,1,1.06,0c.22,0-.06.56-.46.6a13.11,13.11,0,0,1-2.17,0,11.8,11.8,0,0,0-1.33,0l-1.46,0-.9,0c-.46,0-.92,0-1.37,0l-1,.07-.23,0c-.29,0-.38-.08-.44-.27s0-.09,0-.13.09-.28.3-.35a5.74,5.74,0,0,1,1.93-.26l1.47,0Z"/><path class="cls-1" d="M68.72,55.13c.54-.64,1.1-1.27,1.68-1.88.2-.22.39-.47.61-.68a18.22,18.22,0,0,1,2.57-2,5.91,5.91,0,0,0,.61-.41l.65-.37a2.85,2.85,0,0,1,1.93-.51c.22,0,.16.42,0,.82s-.27.78-.49.87a19.55,19.55,0,0,0-2.77,1.51A8.81,8.81,0,0,0,72,53.9c-.55.57-1.08,1.16-1.59,1.78-.32.38-.62.77-.91,1.17a15,15,0,0,0-1.2,1.89,14.47,14.47,0,0,0-.59,1.58,1.27,1.27,0,0,1-.13.32c-.21.39-.32.47-.67.51l-.22,0c-.24,0-.4-.22-.44-.66a5.37,5.37,0,0,1,1-3.31,23,23,0,0,1,1.44-2.1Z"/><path class="cls-1" d="M22.91,55.11c.54-.67,1.11-1.32,1.7-2,.21-.23.4-.49.63-.71a15.8,15.8,0,0,1,2.66-2.07l1.25-.83c.28-.16.55-.34.83-.49a2.8,2.8,0,0,1,.94-.26c.21,0,.32.41.32.88s-.09,1-.35,1.1c-1,.51-1.84,1.13-2.88,1.7A7.09,7.09,0,0,0,26.44,54c-.56.57-1.09,1.18-1.61,1.82-.31.4-.63.79-.92,1.21-.44.62-.89,1.26-1.28,1.92s-.47,1.09-.78,1.6a2.33,2.33,0,0,1-.2.34c-.29.4-.48.47-.84.37a1.68,1.68,0,0,1-.24-.06c-.24-.09-.34-.38-.29-.77a8,8,0,0,1,1.13-3.18c.44-.73.95-1.43,1.46-2.12Z"/><path class="cls-1" d="M30.85,66.9l9.72.48,3.55.1,6.25.29,6.25.33c1.85.08,3.71.09,5.55.09a66.92,66.92,0,0,1,7.08.14c.74.07.65.24,0,.52-.3.13-.74.3-1.28.48a6.6,6.6,0,0,1-1.84.36,132.84,132.84,0,0,1-14.53.08c-2.91-.21-5.94-.21-8.92-.33L32.9,69l-6-.3c-3.05-.14-6.11-.29-9.13-.39-2.35,0-4.66.14-7,.18l-1.53,0c-1.91.06-2.51-.32-2.91-.85a3.16,3.16,0,0,1-.26-.36c-.09-.2.06-.37.42-.54a4.36,4.36,0,0,1,1.6-.44,52.23,52.23,0,0,1,6.39-.08l3.27.18c1.09,0,2.19,0,3.29.06l9.83.37Z"/><path class="cls-1" d="M51.7,106.05a24.26,24.26,0,0,0,2.3-1.77c.27-.22.49-.49.75-.73a19.38,19.38,0,0,0,2.52-2.76,10.39,10.39,0,0,0,.87-1.42c.32-.63.61-1.28,1-1.89.12-.19.28-.1.38.15a1.59,1.59,0,0,1,0,1.07,12.51,12.51,0,0,1-2.37,3.88c-.61.68-1.18,1.44-1.85,2.09a24.39,24.39,0,0,1-2.34,2c-.5.37-1,.73-1.52,1.08-.78.53-1.6,1-2.38,1.5l-1.79,1.22c-.14.08-.26.18-.4.25-.51.3-.73.29-1,0a1.53,1.53,0,0,1-.18-.18c-.17-.21-.06-.52.27-.79a37.33,37.33,0,0,1,3.26-2.13c.82-.52,1.65-1,2.44-1.61Z"/><path class="cls-1" d="M108.46,55.11l0,.58,0,.29,0,.48c.07.11,0,.18,0,.27l0,.07v0h0l-.07,0h0l-.07.11a.52.52,0,0,1-.18.18.48.48,0,0,1-.24.14c-.43.17-.52.21-.77.29s-.77.2-1.16.28a7.12,7.12,0,0,1-1.36.22c-.54,0-.64-.73-.7-1.1a6.41,6.41,0,0,1-.1-1.28c0-.09.18-.18.41-.11a.82.82,0,0,1,.52.55l.12.65,0,.15c0,.05,0,0,0,0v0a0,0,0,0,0,0,.06s.11,0,.21,0l.32,0a8.49,8.49,0,0,0,1.52-.51l.21-.08.1,0,.1,0s0-.07,0-.09a2.48,2.48,0,0,1,0-.58c0-.16,0-.43,0-.5s0-.2,0-.3v-.12s0-.1,0-.08a.76.76,0,0,0-.21,0l-.23,0-.38.09c-.44.11-.85.28-1.3.39l-.3.07c-.38.05-.51-.07-.59-.4,0-.08,0-.15,0-.21a.6.6,0,0,1,.35-.58c.34-.13.69-.24,1.05-.34l1.38-.35c1.31-.41,1.66.55,1.57,1.76Z"/><path class="cls-1" d="M108.76,61.34l0,.94v.41l-.09.35c-.19,0-.14.17-.26.24a.87.87,0,0,1-.32.2c-.43.17-.52.21-.77.29s-.77.2-1.16.28a8,8,0,0,1-1.36.22c-.54,0-.64-.74-.7-1.1a6.52,6.52,0,0,1-.1-1.28c0-.09.18-.18.41-.11a.76.76,0,0,1,.52.55L105,63l0,.15c0,.05,0,0,0,0v0a.06.06,0,0,0,0,.06s.11,0,.21,0l.32-.05a8.53,8.53,0,0,0,1.52-.52l.2-.07.08,0s.14,0,.14-.08v-.65c0-.16,0-.42,0-.49s0-.21,0-.31V60.9s0-.09,0-.08l-.21,0-.23,0-.38.09c-.44.11-.85.28-1.3.38l-.3.08c-.38,0-.51-.07-.59-.41,0-.07,0-.14,0-.21a.59.59,0,0,1,.35-.57c.34-.13.69-.24,1-.34l1.38-.35c1.31-.41,1.66.55,1.57,1.76Z"/></g></svg>