<svg xmlns="http://www.w3.org/2000/svg" width="128" height="128" viewBox="0 0 128 128"><defs><style>.cls-1{fill:#221f1f;}.cls-2{fill:#231f20;}</style></defs><title>Free Icons</title><g id="Layer_19" data-name="Layer 19"><path class="cls-1" d="M41,35.06l1.86-.75c.61-.26,1.21-.57,1.81-.85,1.23-.55,2.39-1.22,3.56-1.88.87-.46,1.64-1.07,2.48-1.59A64.4,64.4,0,0,0,59,23.71c1.14-1.05,2.27-2.12,3.3-3.25.69-.71,1.33-1.46,2-2.2s1.37-1.43,2.09-2.12c.45-.43.58-.21.47.37A6.55,6.55,0,0,1,65.69,19a50.35,50.35,0,0,1-8.85,8.59c-.49.37-1,.76-1.48,1.15L53.84,29.9c-1,.79-2.06,1.5-3.11,2.2s-2.4,1.43-3.59,2.14-2.48,1.28-3.75,1.85c-1.58.67-3.16,1.36-4.79,1.88-.62.2-1.22.43-1.85.62l-1.88.5c-.63.16-1.24.36-1.88.49L31.1,40l-1.46.33c-.49.11-1,.17-1.47.26-1,.17-2,.35-2.93.49-.44,0-.86.09-1.31.11-1.63.1-2.16,0-2.51-.56a1.92,1.92,0,0,1-.23-.35c-.15-.39.5-.75,1.65-1L25.42,39c.87-.17,1.73-.32,2.61-.44A26.39,26.39,0,0,0,30.66,38c.88-.19,1.77-.31,2.64-.55A56,56,0,0,0,41,35Z"/><path class="cls-2" d="M44.85,102.51a52.8,52.8,0,0,1-4.42-6.79c-1.32-2.31-2.52-4.68-3.67-7.06-.84-1.74-1.71-3.47-2.49-5.22l-8-18.63c-1.18-2.76-2.4-5.52-3.54-8.28C22,54.76,21.22,53,20.54,51.19c-.34-.9-.66-1.8-1-2.71s-.52-1.86-.75-2.79c-.27-1.17.07-1.11.78-.29.36.41.82,1,1.34,1.73a15.21,15.21,0,0,1,1.36,2.65c1.44,3.6,3,7.16,4.5,10.74l4.51,10.84c1.79,4.36,3.84,8.81,5.85,13.15a121.48,121.48,0,0,0,7.38,13.91,28.59,28.59,0,0,0,6.36,7A56.81,56.81,0,0,0,63.37,113a65.92,65.92,0,0,0,10.57,3.61l2.36.58c3,.7,3.87,1,4.46,1.64.13.14.31.28.39.39s-.14.33-.72.41a9,9,0,0,1-2.66,0,44.34,44.34,0,0,1-10.2-2.56,68,68,0,0,1-9.84-4.5,49,49,0,0,1-12.91-10Z"/><path class="cls-1" d="M106.83,74.37c-.34,4.14-.62,8.28-.81,12.43,0,.76,0,1.48-.11,2.33a13.45,13.45,0,0,1-.45,2.42c-1.59,5.45-4.76,10-8.1,14.21-1.49,1.89-3.06,3.72-4.67,5.47a38.9,38.9,0,0,1-6.89,6.1c-.81.52-.94.1-.56-.73a12.13,12.13,0,0,1,2.43-3.24A97.92,97.92,0,0,0,99.48,99.5c.5-.77,1-1.54,1.44-2.35.22-.41.45-.81.66-1.23l.58-1.26c.41-.84.65-1.73,1-2.59a21.35,21.35,0,0,0,.59-2.62,7.61,7.61,0,0,0,.14-1.46l.06-1.58.14-3.15q.17-3.15.37-6.3c.17-2.58.38-5.17.59-7.74.34-3.91.8-7.82,1.27-11.69.43-3,.73-6,1.42-8.94a17.32,17.32,0,0,1,.48-2c.84-2.38,1.55-3,2.1-3.32a3.12,3.12,0,0,1,.39-.18c.37,0,.15,1-.24,2.62-1.07,5.06-1.73,10.58-2.4,16.13-.46,4.14-.86,8.31-1.16,12.48Z"/><path class="cls-1" d="M93,24.17c-1-.41-2.06-.84-3.05-1.33s-2-1-2.94-1.51c-.72-.36-1.42-.74-2.11-1.16a58.73,58.73,0,0,1-6.82-5c-1-.78-1.92-1.6-2.87-2.38l-1.8-1.55a16.8,16.8,0,0,1-1.61-1.76c-.61-.77,1.46-1,2.78.1,2.37,2,4.8,4,7.25,6a16.61,16.61,0,0,0,2.37,1.64c.82.52,1.69,1,2.53,1.44s1.88,1,2.82,1.48,1.93.9,2.91,1.29l1.84.7c.61.22,1.24.4,1.87.59.94.32,1.92.5,2.88.74s2,.33,2.92.46c.76,0,1.52,0,2.27,0s1.5-.11,2.24-.14c.33,0,.65-.07,1-.11,1.22-.12,1.62,0,2,.63a3.42,3.42,0,0,1,.23.42c.18.47-.29.92-1.24,1.15a19.35,19.35,0,0,1-4.4.56c-.75,0-1.5-.07-2.26-.12s-1.51-.21-2.26-.33c-1.11-.19-2.21-.49-3.3-.77S94,24.66,93,24.23Z"/><path class="cls-1" d="M40.33,32.24a61.14,61.14,0,0,0,8.09-4.78c.94-.67,1.82-1.41,2.73-2.11a75.59,75.59,0,0,0,9.14-8.12,46.1,46.1,0,0,0,3.52-4.14c.7-.92,1.36-1.87,2-2.81s1.42-1.82,2.1-2.73c.43-.56.75-.33.89.46a5.42,5.42,0,0,1,0,1.52,4.68,4.68,0,0,1-.57,1.88,53.24,53.24,0,0,1-4.32,6,45.6,45.6,0,0,1-5.2,5.2c-2.23,1.92-4.4,4.07-6.77,5.92A67.92,67.92,0,0,1,43.72,34c-1.78,1-3.59,1.92-5.45,2.74a64.76,64.76,0,0,1-8.7,3.09,62.7,62.7,0,0,1-6.9,1.73c-.52.08-1,.19-1.55.25A4.65,4.65,0,0,1,19,41.68a1.52,1.52,0,0,1-.93-.86,3.09,3.09,0,0,1-.27-.59c-.18-.65.58-1.25,1.9-1.53,1-.18,2-.45,3-.63s2-.44,3-.69c2-.44,4-1,6-1.63a58.25,58.25,0,0,0,8.64-3.57Z"/><path class="cls-1" d="M53.27,56a19.64,19.64,0,0,0,2.6,15.44A23.8,23.8,0,0,0,59.67,76a21.59,21.59,0,0,0,9,5.19A16.93,16.93,0,0,0,79,80.85a19.4,19.4,0,0,0,7.58-5.41,21.69,21.69,0,0,0,4.58-10.9c.12-1.23.57-1.12,1.06,0A7.88,7.88,0,0,1,92.74,67a8.37,8.37,0,0,1-.5,3.48,20.73,20.73,0,0,1-3.32,6A18.3,18.3,0,0,1,86.53,79l-1.31,1.12-1.42,1a19.63,19.63,0,0,1-6.39,2.65A18.48,18.48,0,0,1,70.5,84,24.51,24.51,0,0,1,56.28,76a23.14,23.14,0,0,1-6-16.7A20.44,20.44,0,0,1,54,48.89a20.61,20.61,0,0,1,6.43-5.35,26.75,26.75,0,0,1,3.76-1.76,29,29,0,0,1,3.94-1.23,25.6,25.6,0,0,1,6.35-.76,16.08,16.08,0,0,1,6.39,1.32c.45.2.87.45,1.31.68a11.33,11.33,0,0,1,1.23.86,7.64,7.64,0,0,1,2.38,3.12,3.88,3.88,0,0,1,.27,1,3.49,3.49,0,0,1-.09.78,5.62,5.62,0,0,1-.13.57c-.09.22-.35,0-.81-.41s-1-1.15-1.78-1.94a11.47,11.47,0,0,0-4.09-2.69,15.06,15.06,0,0,0-5-.89,25,25,0,0,0-10.54,2.33,22.15,22.15,0,0,0-6.62,4.56,17.17,17.17,0,0,0-1.24,1.49c-.18.27-.33.54-.51.8l-.44.89-.45.89-.36.94a14.24,14.24,0,0,0-.6,1.92Z"/><path class="cls-1" d="M85.47,57.83a53.44,53.44,0,0,0-3.68,6.44c-.41.82-.71,1.69-1.1,2.53l-1,2.23a10.4,10.4,0,0,1-1.76,3.28,1.33,1.33,0,0,1-.57.38l-.18,0h-.07s0,.09,0,0H77a1.86,1.86,0,0,1-.34-.07,4.06,4.06,0,0,1-1.36-.8A13,13,0,0,1,74,70.5l-.55-.67L73,69.34a43.32,43.32,0,0,0-2.92-3.24c-.65-.65-1.33-1.26-2-1.88l-.48-.45-.24-.21-.12-.11a.75.75,0,0,0-.09-.15,1.65,1.65,0,0,0-.42-.48,4.22,4.22,0,0,0-.47-.34c-.3-.18-.44-.53.22-.84a3,3,0,0,1,1.37-.14,6,6,0,0,1,.94,0,3.06,3.06,0,0,1,.79.39,25.59,25.59,0,0,1,4.43,4L75,67l.47.54.23.27c.07.08,0,.06.06.1a2.34,2.34,0,0,0,.34.7c.08.12.14,0,.19,0a.84.84,0,0,0,.13-.17,3.06,3.06,0,0,0,.24-.53c.4-1.11.78-2.26,1.25-3.37a50.42,50.42,0,0,1,3.63-7.09,48.66,48.66,0,0,1,2.79-4.06A33.94,33.94,0,0,1,89.56,48a25.1,25.1,0,0,1,4.74-3.36,10.3,10.3,0,0,1,1.16-.56,3.62,3.62,0,0,1,1.7-.31,1.32,1.32,0,0,1,.9.46,2.67,2.67,0,0,1,.32.36c.26.41-.24,1-1.12,1.58a36.94,36.94,0,0,0-7.26,6,41.21,41.21,0,0,0-4.45,5.7Z"/><path class="cls-2" d="M77.53,119.17c-12.55-3.7-27.41-9.12-33.1-17.57-5.3-7.84-9.14-16.81-13-25.44-4.39-9.71-8.9-19.5-12.31-29.58L17.35,50C20.75,60.1,25.27,69.9,29.66,79.6c3.91,8.63,7.75,17.6,13.05,25.45,4.92,7.29,26.94,16.61,31.09,15.45Z"/><path class="cls-1" d="M95.12,27.69a43.77,43.77,0,0,1-5.29-1.77c-.63-.24-1.27-.49-1.88-.77a36.86,36.86,0,0,1-6.11-3.71c-.43-.3-.82-.66-1.24-1s-.85-.63-1.23-1-1-.87-1.51-1.34a17.46,17.46,0,0,1-1.31-1.54c-.49-.67,1.21-.74,2.25.27A56.1,56.1,0,0,0,85,21.7a13.83,13.83,0,0,0,2.09,1.2l1.11.52,1.13.46a45.56,45.56,0,0,0,5.08,1.77c1.08.26,2.15.55,3.25.73a36.78,36.78,0,0,0,5,.65c1.3,0,2.57,0,3.85-.11l.84-.06c1.06-.05,1.39.07,1.65.56a2.49,2.49,0,0,1,.16.33c.13.38-.3.71-1.09.86a22.67,22.67,0,0,1-3.63.36,29.57,29.57,0,0,1-3.75-.21,43.55,43.55,0,0,1-5.54-1Z"/></g></svg>