<svg xmlns="http://www.w3.org/2000/svg" width="128" height="128" viewBox="0 0 128 128"><defs><style>.cls-1{fill:#221f1f;}</style></defs><title>Free Icons</title><g id="Layer_32" data-name="Layer 32"><path class="cls-1" d="M82,29a15.79,15.79,0,0,1,11.64-12L92,16.26a20.85,20.85,0,0,0,0,6.11c.11,1.07,3,.41,2.9-.77a19.17,19.17,0,0,1,.06-5.66c.16-.85-1.24-.75-1.67-.64-6.78,1.72-12.77,7-14.12,14-.23,1.21,2.7.76,2.91-.32Z"/><path class="cls-1" d="M18.52,66a37.37,37.37,0,0,1-.05-6.69,35.85,35.85,0,0,1,1.24-6.58,31.66,31.66,0,0,1,6.23-11.8,25.75,25.75,0,0,1,5-4.56,24.46,24.46,0,0,1,2.91-1.76c.25-.12.5-.27.76-.38l.82-.31c.55-.2,1.09-.43,1.64-.6,4.44-1.18,8.82-1.18,13.12-1.15,6.28.11,12.47.47,18.63.45A97.82,97.82,0,0,0,80.05,32l2.77-.36c.93-.13,1.83-.35,2.75-.52l1.37-.26c.46-.1.9-.24,1.35-.36l2.31-.63.6-.76c.28-.36.58-.71.88-1.06.6-.7,1.22-1.38,1.87-2a39.16,39.16,0,0,1,4.13-3.68,23.28,23.28,0,0,1,10.14-4.69,16.23,16.23,0,0,1,2.87-.19c.24,0,.48,0,.72,0l.81.08.52.08.46.15.91.29c.34,0,.46.38.54.65a3.68,3.68,0,0,1,.06.95c0,.33-.11.68-.16,1l-.12.48-.1.34c-.25.9-.55,1.76-.85,2.62-1.24,3.41-2.64,6.71-4.09,10l-.31.72L110.1,36c.28.52.54,1,.8,1.58.52,1.06,1,2.12,1.49,3.21q1.41,3.24,2.54,6.6a55.79,55.79,0,0,1,2.86,13.83,34.81,34.81,0,0,1-.62,9.54,25.64,25.64,0,0,1-3.72,8.92,26.24,26.24,0,0,1-6.86,6.8,33.19,33.19,0,0,1-4.14,2.43c-.72.35-1.46.63-2.19,1A20,20,0,0,1,98,90.7c-3.77,1.2-3.4.35-.57-1.34s8.07-4.57,12.3-9.66a23.24,23.24,0,0,0,4.72-10.12,35.51,35.51,0,0,0,.17-11.51,59,59,0,0,0-2.86-11.45q-1-2.8-2.2-5.54c-.41-.9-.83-1.81-1.27-2.7l-.67-1.32-.41-.75L106.51,35l1.71-3.88c.44-1,.9-2.08,1.33-3.12.86-2.08,1.71-4.18,2.4-6.27l.24-.77.15-.53a.57.57,0,0,0,0-.29,1.7,1.7,0,0,0-.28-.06c-.14,0-.48-.07-.71-.07l-.76,0a15.66,15.66,0,0,0-6.09,1.36,26.36,26.36,0,0,0-6.62,4.32A35.49,35.49,0,0,0,95,28.52c-.47.5-.92,1-1.36,1.54l-.64.8-.34.45-.53.73-4.05,1.13c-1.24.3-2.49.51-3.74.78-2.5.43-5,.76-7.56.94a139.06,139.06,0,0,1-15.13.19c-4.3-.13-8.59-.37-12.84-.4s-8.54.13-12.28,1.54A22.53,22.53,0,0,0,27,43.72a29.67,29.67,0,0,0-5.18,11.22,32.81,32.81,0,0,0,7.09,28.84c.74.83,1.48,1.67,2.3,2.43a14.69,14.69,0,0,0,1.23,1.14l1.61,1.4-.06.88,0,.73,0,1.17c0,.78,0,1.57,0,2.35a36.06,36.06,0,0,0,.45,4.65A21.12,21.12,0,0,0,35.57,103,9,9,0,0,0,38,106.53a5.4,5.4,0,0,0,3.87,1.21,5.27,5.27,0,0,0,3.58-1.89,9.63,9.63,0,0,0,1.89-3.94c.09-.37.2-.73.27-1.1l.17-1.13a22.32,22.32,0,0,0,.24-2.63,4.51,4.51,0,0,1,.21-.91c0-.14.18-.25.31-.3A2.06,2.06,0,0,1,49,95.7a5.22,5.22,0,0,1,1-.06l1,.06c4.21.36,8.31.78,12.42.86,2.05,0,4.09,0,6.12-.1,1-.06,2-.14,3-.26L74,96l.79-.13L76,95.67a2.49,2.49,0,0,1,.53,0l.45.06a.47.47,0,0,1,.41.21,1.84,1.84,0,0,1,.26.4,7.28,7.28,0,0,1,.45,2.11c.13,1,.26,1.92.44,2.85a13.73,13.73,0,0,0,1.87,5.07,4.82,4.82,0,0,0,2.53,2,4,4,0,0,0,.78.18,3,3,0,0,0,.39,0,1.66,1.66,0,0,0,.27,0A5.08,5.08,0,0,0,85.9,108a6.85,6.85,0,0,0,2.26-1.77c.25-.38.53-.71.73-1.08s.41-.73.55-1.09l.41-1.07a10,10,0,0,0,.28-1c.08-.33.19-.63.25-.92l.15-.86c.24-1.08.3-2,.46-2.71s.24-1.33.41-1.87a12.08,12.08,0,0,1,.42-1.45c.25-.5.54.26.82,2.12a18.64,18.64,0,0,1-.9,8.72,9.69,9.69,0,0,1-4.88,5.43,7.72,7.72,0,0,1-1.87.6,4.36,4.36,0,0,1-1.17.09,8.3,8.3,0,0,1-1-.14,7.23,7.23,0,0,1-3.57-1.9A13,13,0,0,1,76,102.5c-.26-1.14-.43-2.29-.57-3.4l-.06-.41v-.07l0-.07c0-.07-.07,0-.12,0l-.14,0-.88.13c-.59.09-1.18.16-1.77.22-1.18.12-2.36.21-3.54.26-2.36.1-4.72.08-7.07,0s-4.7-.27-7-.48l-3.47-.32-.73,0h0v.15c0,.3,0,.61-.08.91l-.28,1.86c-.11.63-.3,1.25-.45,1.88s-.46,1.25-.68,1.87a10.29,10.29,0,0,1-2.49,3.46,7.8,7.8,0,0,1-4.1,1.89,8.18,8.18,0,0,1-2,0l-.53-.09-.44-.11a4.81,4.81,0,0,1-.9-.27,8.36,8.36,0,0,1-3.18-2.14,14.28,14.28,0,0,1-3.13-6.11,31.59,31.59,0,0,1-1-6.32c-.07-1.06-.1-2.11-.1-3.15,0-.53,0-1,0-1.58l0-.67h0l-.62-.54c-.47-.38-.89-.8-1.32-1.22-.88-.81-1.67-1.71-2.47-2.6a39.47,39.47,0,0,1-4.12-5.9A35.47,35.47,0,0,1,18.46,66Z"/><path class="cls-1" d="M46.94,106.94s5.85,0,7.16,2.32-16.19,3.57-16.19-.64C37.91,108.62,45.82,109.19,46.94,106.94Z"/><path class="cls-1" d="M89.77,107.43s5.66,0,7,2.32-16.19,3.57-16.19-.64C80.55,109.11,88.64,109.67,89.77,107.43Z"/><path class="cls-1" d="M8.83,61.45c-.08-.3-.21-.51-.2-.54s0,0,.06-.12a.64.64,0,0,1,.06-.12l0-.11s0,0,0,0a.53.53,0,0,0,.1.24.65.65,0,0,0-.29.38,2.41,2.41,0,0,0-.15,1,5.75,5.75,0,0,0,.42,1.68,5.85,5.85,0,0,0,.73,1.35,3.16,3.16,0,0,0,1,.86,1.33,1.33,0,0,0,1.07.08,3.14,3.14,0,0,0,1.16-.88,5.39,5.39,0,0,0,1.09-2.77,9.75,9.75,0,0,0-.39-3.79c-.11-.36.3-.64,1-.54a2.36,2.36,0,0,1,1.76,1.77,8.4,8.4,0,0,1-.54,5.25,6.67,6.67,0,0,1-1.66,2.32A4,4,0,0,1,11,68.6a5,5,0,0,1-3.21-1.82,7.51,7.51,0,0,1-1.51-2.89,5.81,5.81,0,0,1,.1-3.7A3,3,0,0,1,7.88,58.5a2.28,2.28,0,0,1,1.37-.14,2.75,2.75,0,0,1,1.12.61,4.31,4.31,0,0,1,1.15,2.11,5.46,5.46,0,0,1,.1,2.23,9.42,9.42,0,0,1-1,3,9.69,9.69,0,0,1-1.8,2.56A3.77,3.77,0,0,1,6.24,70,4.25,4.25,0,0,1,3.6,68.88a5.48,5.48,0,0,1-.79-.81C2,67,2.06,66.46,2.55,65.92a4.08,4.08,0,0,1,.36-.36c.44-.33,1-.08,1.59.45.78.81,1.87,1.34,2,1.11a2.58,2.58,0,0,0,.45-.35,5.53,5.53,0,0,0,.87-1.15,8.63,8.63,0,0,0,1-2.22,5.89,5.89,0,0,0,.16-1,2.82,2.82,0,0,0,0-.42,4.68,4.68,0,0,0-.11-.48Z"/><path class="cls-1" d="M108,51a3.18,3.18,0,0,1,0,.92,4.44,4.44,0,0,1-.13.9,4.94,4.94,0,0,1-.3.84l-.09.2-.15.24-.32.47a2.55,2.55,0,0,1-1.28.94,2.49,2.49,0,0,1-2.46-1,3.75,3.75,0,0,1-.75-2.11,4.15,4.15,0,0,1,.34-1.87A2.72,2.72,0,0,1,104.53,49c.24-.06.41.4.52.9a1.85,1.85,0,0,1,0,1.17,1.74,1.74,0,0,0-.47.85,2.5,2.5,0,0,0,0,1.05.4.4,0,0,0,.6.34.59.59,0,0,0,.18-.14.65.65,0,0,0,.16-.28,1.61,1.61,0,0,0,.15-.47,1.59,1.59,0,0,0,.07-.48,2.33,2.33,0,0,0-.26-1.21,2,2,0,0,0-1.37-1.15,1.22,1.22,0,0,0-1.06.49,1.94,1.94,0,0,1-.15.24c-.15.07-.24.19-.41.16a3.36,3.36,0,0,1-.64-.23l-.32-.14a.79.79,0,0,1-.37-.41.94.94,0,0,1,0-.72,2.85,2.85,0,0,1,2-1.66,3.69,3.69,0,0,1,2.83.51A4.72,4.72,0,0,1,108,51Z"/><path class="cls-1" d="M123.37,61.11s0,0,.06-.11a3.58,3.58,0,0,0,.09-.35c.06-.24.12-.48.16-.74.1-.51.17-1,.22-1.57s0-.77,0-1.15,0-.74.06-.85c0-.34-.09-.66-.16-.94a2,2,0,0,0-.26-.66.81.81,0,0,0-.47-.32,3.17,3.17,0,0,0-1.56.12c-.71.2-1.32.56-2,.78-.19.06-.51-.27-.62-.78a1.38,1.38,0,0,1,.57-1.47,6.36,6.36,0,0,1,2.85-.82,3.86,3.86,0,0,1,1.82.34,2.77,2.77,0,0,1,.87.68,3,3,0,0,1,.49.83c.24.65.37,1.17.54,1.69a6.75,6.75,0,0,1,.15,1c0,.28,0,.54.06.81a22.08,22.08,0,0,1-.26,3.51l-.12.6a5.77,5.77,0,0,1-.22.74,1.75,1.75,0,0,1-.95,1.09,3.39,3.39,0,0,1-.53.2c-.09,0-.19,0-.27.09l-.2.05c-.28.07-.54.11-.81.16-.53.08-1.06.17-1.57.28-.81.17-1.57.49-2.38.71a4.81,4.81,0,0,1-.54.16c-.7.11-1-.09-1.18-.9a1.62,1.62,0,0,1,0-.54l0-.14.06-.19.06-.19,0-.09a.62.62,0,0,0,0-.18.64.64,0,0,1,.38-.49,15.5,15.5,0,0,1,4.07-1.13l.77-.14c.13,0,.23-.06.36-.07h.16a.06.06,0,0,0,.08,0Z"/><path class="cls-1" d="M55.71,41a49.23,49.23,0,0,0,16.95.09c1.55-.26,2.25-2.37.28-2a46.94,46.94,0,0,1-16.21-.08c-1.38-.25-2.95,1.69-1,2Z"/></g></svg>