<svg xmlns="http://www.w3.org/2000/svg" width="128" height="128" viewBox="0 0 128 128"><defs><style>.cls-1{fill:#231f20;}</style></defs><title>Free Icons</title><g id="Layer_24" data-name="Layer 24"><path class="cls-1" d="M102,75.79l-9.31,6.4c-1.14.77-2.25,1.58-3.39,2.34-2,1.33-4,2.66-6.18,3.9-.27.15-.54.3-.84.45a3.65,3.65,0,0,1-.58.23,1,1,0,0,1-.35.07h-.11s0,0,0,0h-.05l-.18,0L80.34,89l-.48-.21a6.21,6.21,0,0,1-.89-.54A7.34,7.34,0,0,1,76.66,85a18.4,18.4,0,0,1-1-6.56,24.74,24.74,0,0,1,.37-4.2,10.76,10.76,0,0,1,1.51-4c.28-.4.56-.48.64-.36s.09.42.09.81a21.92,21.92,0,0,1-.39,3.47A22.46,22.46,0,0,0,77.65,82a9.57,9.57,0,0,0,1.23,3.52A4.63,4.63,0,0,0,80,86.84a4.78,4.78,0,0,0,.72.44,2.21,2.21,0,0,0,.37.15.12.12,0,0,0,.1,0,4.7,4.7,0,0,0,.82-.4c.36-.19.72-.41,1.08-.63.72-.44,1.43-.9,2.15-1.38l4.26-2.92q4.68-3.21,9.32-6.48l5.69-4,4.28-3.12,2.09-1.59.5-.41c.12-.11.22-.15.27-.28a1.17,1.17,0,0,0,0-.39c0-.19,0-.4,0-.61a60.76,60.76,0,0,1-.86-8.13,13,13,0,0,1,.13-1.86,5.69,5.69,0,0,1,.8-2.39,1.81,1.81,0,0,1,.9-.8,1.85,1.85,0,0,1,.39-.14c.37,0,.07.84-.09,2.33a24.53,24.53,0,0,0,.19,7c.16,1.22.35,2.42.49,3.78l0,.53a5.73,5.73,0,0,1,0,.7,2.21,2.21,0,0,1-.8,1.62l-.47.39-.39.31-.76.59c-3,2.31-6.14,4.51-9.24,6.72Z"/><path class="cls-1" d="M13.74,89.59c-1-.1-2-.21-3.06-.41L9.88,89c-.29-.08-.59-.18-.88-.28a4.63,4.63,0,0,1-.58-.3l-.28-.19L8,88.11l-.58-.58a12.5,12.5,0,0,1-3.24-5.65A14.62,14.62,0,0,1,4,75.47a17.85,17.85,0,0,1,2.29-5.9A13.15,13.15,0,0,1,9.45,66c.17-.12.3-.24.56-.4a3,3,0,0,1,.78-.27c.4-.1.77-.16,1.15-.22a19.2,19.2,0,0,1,2.26-.22c10.24-.36,20.41-.17,30.6.1,4.52.12,9.06.24,13.55.43,2.88.12,5.77.25,8.66.49,1.44.12,2.89.27,4.33.47a24.19,24.19,0,0,1,4.33,1,2.71,2.71,0,0,1,1,.57c.19.2.23.37.15.4s-.63-.1-1.38-.11c-1.5-.07-4.26,0-7.53-.3-5.81-.47-11.68-.65-17.55-.83L32.66,66.7c-3.54-.08-7.15-.06-10.78,0-1.81,0-3.63.09-5.44.16a29.92,29.92,0,0,0-5.23.51.67.67,0,0,0-.36.17l-.52.39a10.62,10.62,0,0,0-1,.94,12.27,12.27,0,0,0-1.6,2.28A15.33,15.33,0,0,0,6,76.47,12,12,0,0,0,6.39,82a10.31,10.31,0,0,0,3,4.57.55.55,0,0,0,.23.16l.11.06.18.06a5.32,5.32,0,0,0,.79.21c.56.13,1.16.19,1.75.28,1.19.14,2.4.24,3.62.32,2.43.15,4.88.23,7.33.29,7.41.17,14.88.2,22.26.18,5.73,0,11.36-.16,17-.11,1.26,0,2.48,0,3.75.05,4.69.18,6.22.57,7.13,1.28a3.43,3.43,0,0,1,.58.5c.33.52-1.5.46-4.88.39-5-.11-10.22,0-15.49,0l-16,.07c-4,0-8,0-12-.09s-8-.18-12.08-.53Z"/><path class="cls-1" d="M34.44,51,29,54.54c-.67.43-1.31.9-2,1.32l-7.16,4.36-3.16,2a17.52,17.52,0,0,1-4.26,2.19c-.48.16-.55-.19-.33-.69a4.06,4.06,0,0,1,1.47-1.64c2.71-1.6,5.41-3.3,8.22-4.92,1.69-1,3.34-2.15,5-3.23l5.46-3.6,3.35-2.24,5.07-3.42c1.29-.89,2.52-1.84,3.79-2.75.28-.2.56-.38.86-.56,1.1-.66,1.53-.74,2-.54a2.09,2.09,0,0,1,.3.14c.25.18,0,.7-.76,1.31a38,38,0,0,1-3.37,2.59l-3.57,2.48L34.46,51Z"/><path class="cls-1" d="M108.73,48a14.51,14.51,0,0,0-6.19-3,39.56,39.56,0,0,0-7.26-1C93.47,44,91.65,44,89.83,44c-3.22,0-6.45.12-9.69.27s-6.48.35-9.78.29a51,51,0,0,1-8.67-1,40.76,40.76,0,0,1-10.58-3.35c-1-.52-.82-.6.15-.44l2,.35a26.75,26.75,0,0,1,2.78.58,66.09,66.09,0,0,0,10.88,1.82,79.07,79.07,0,0,0,11.1,0c4.51-.17,9.22-.64,13.9-.63a55.68,55.68,0,0,1,7.72.49,25.9,25.9,0,0,1,7.58,2.11c.37.19.73.4,1.09.59s.7.46,1,.7.67.52,1,.82l.44.45a3.06,3.06,0,0,1,.49.63l.46.7a.76.76,0,0,1,0,.77,3.87,3.87,0,0,1-1.08,1.27c-.63.54-1.28,1-1.93,1.46-4,2.69-8.12,5-12.14,7.46-3.14,1.88-6.16,3.82-9.19,5.77l-2,1.3c-2.48,1.61-3.29,2-4.1,1.93-.19,0-.4,0-.56,0s-.26-.38.1-.89a8.68,8.68,0,0,1,1.86-1.81C88,61.82,93.91,58.47,99.75,54.94c2.17-1.31,4.34-2.61,6.43-4a35.37,35.37,0,0,0,3-2.12l.13-.11s0,0,0,0,0,0,0,0l-.55-.56Z"/><path class="cls-1" d="M23,108.77c5-.09,10-.23,15-.39l5.48-.24q9.66-.3,19.33-.46l8.59-.2c1.82,0,3.66-.07,5.49,0a27.7,27.7,0,0,1,5.54.64c1.21.5.82.64-.14.77a28.26,28.26,0,0,1-4.79.52l-22.3.3c-4.48,0-9.14.31-13.73.47q-7.57.27-15.15.46-4.67.12-9.34.14a57.65,57.65,0,0,1-7.15-.3l-.46-.07-.51-.15a5,5,0,0,1-.87-.43,6,6,0,0,1-.81-.49l-.73-.59a13.82,13.82,0,0,1-1.29-1.36,18,18,0,0,1-1-1.57,15.35,15.35,0,0,1-1.67-5.36,19.4,19.4,0,0,1,.08-5.59,17.16,17.16,0,0,1,.58-2.43,9,9,0,0,1,1.58-2.94,2.13,2.13,0,0,1,1.3-.85,2,2,0,0,1,.54-.09c.24,0,.24.34,0,.83l-.93,2.11a17.93,17.93,0,0,0-1.13,9c.35,3,1.71,6.07,4.13,7.54l.69.38c.11.06.17,0,.25.08l.12,0,.21,0c.52.09,1.13.12,1.73.17,1.22.06,2.47.09,3.72.1,2.51,0,5,0,7.55-.09Z"/><path class="cls-1" d="M83.69,101.55c-.19-.8-.34-1.63-.45-2.45,0-.3-.13-.59-.15-.89a21.2,21.2,0,0,1,0-3.19c.06-.46.07-.93.12-1.39a4.73,4.73,0,0,1,.34-1.74c.14-.34,1.19.34,1.19,1a26.76,26.76,0,0,1-.22,3.34,8.46,8.46,0,0,0,.19,2.06c.12.76.26,1.51.45,2.26.12.47.25.93.4,1.38a16.37,16.37,0,0,0,.79,2c.25.51.62,1,.9,1.45.06.11.14.21.2.32.21.42.1.64-.26.9l-.25.19a.78.78,0,0,1-.92-.12,7.4,7.4,0,0,1-1.66-2.75c-.29-.77-.54-1.56-.76-2.36Z"/><path class="cls-1" d="M109.67,90.33c-1.57,1.33-3.2,2.57-4.79,3.85-.58.46-1.12,1-1.71,1.43-2.06,1.62-4.14,3.22-6.15,4.88-.9.74-1.77,1.51-2.59,2.31-.53.51-1,1-1.55,1.56s-.95,1-1.45,1.48c-.15.16-.64.16-.82-.49a2.61,2.61,0,0,1,.63-2.2,43.34,43.34,0,0,1,7-6.07c1.49-1.07,2.88-2.37,4.34-3.55l4.79-3.87c1-.79,2-1.58,2.92-2.4.71-.62,1.45-1.25,2.05-1.89.12-.14.2-.22.21-.36v-.58c0-.46,0-.92-.1-1.39-.17-1.43-.56-2.87-.65-4.39,0-.33,0-.65,0-1,.08-1.24.27-1.62.65-1.85a2.43,2.43,0,0,1,.26-.15c.28-.09.47.41.61,1.27.2,1.28.37,2.52.62,3.82.12.66.25,1.34.35,2q.07.54.12,1.08l0,.56c0,.2,0,.29,0,.71a2.54,2.54,0,0,1-.57,1.36c-.23.27-.41.46-.6.66-.39.4-.78.76-1.16,1.12-.78.71-1.56,1.4-2.34,2.08Z"/><path class="cls-1" d="M25.59,77.8C21.69,82.33,23.82,97,23.82,97c-4.08,1-7.4-3.37-7.4-3.37-2.13-8.11,1.2-15.85,1.2-15.85Z"/><path class="cls-1" d="M113,81c28.93,3.56-1.91,18.95-19.47,21.72l19.56-16.41Z"/><path class="cls-1" d="M6.62,79.06a10.58,10.58,0,0,1,0-3.13,6,6,0,0,1,.2-1.12,10,10,0,0,1,1.79-3.5c.35-.45.69-.92,1.08-1.33a5.24,5.24,0,0,1,1.71-1.39c.22-.1.33.16.33.5a1.34,1.34,0,0,1-.35,1A15.53,15.53,0,0,0,9,73.17a6.75,6.75,0,0,0-.84,2.31A9.17,9.17,0,0,0,8,78.2a8.88,8.88,0,0,0,.3,1.67l.44,1.22c.19.39.4.77.62,1.15a10.58,10.58,0,0,0,1.32,1.51c.11.1.23.18.33.29.38.39.43.58.24.94-.05.08-.08.17-.13.24-.18.25-.51.25-.86,0a6.84,6.84,0,0,1-1.47-1.38A8.48,8.48,0,0,1,8.12,83l-.53-.92a10.85,10.85,0,0,1-1-3Z"/><path class="cls-1" d="M7.66,98.42a10.56,10.56,0,0,0,.3,2.41,6.55,6.55,0,0,0,.29.85,9.62,9.62,0,0,0,1.41,2.83,4.89,4.89,0,0,0,1,1,5.27,5.27,0,0,1,.72.52,4,4,0,0,1,.72.55c.12.19,0,.34-.23.51a1.38,1.38,0,0,1-1.11.16A4.93,4.93,0,0,1,9,105.93a6.52,6.52,0,0,1-1.18-1.77,18,18,0,0,1-1-2.33c-.16-.44-.23-.9-.35-1.35s-.14-.91-.17-1.37a12.2,12.2,0,0,1,0-1.71,13.55,13.55,0,0,1,.45-2.53A12.6,12.6,0,0,1,7.38,93a1.92,1.92,0,0,1,.19-.41c.35-.46.55-.53.91-.36a1.79,1.79,0,0,1,.24.12.66.66,0,0,1,.19.82,18.44,18.44,0,0,0-1,2.9,10.53,10.53,0,0,0-.18,2.38Z"/><path class="cls-1" d="M33.27,78.43l-4.64,0c-.57,0-1.13,0-1.7,0-2,0-4-.11-6-.18l-2.67-.07a8.49,8.49,0,0,1-3.43-.6c-.36-.21-.17-.33.16-.42a5.9,5.9,0,0,1,1.48-.25c2.21,0,4.5,0,6.81.11,1.38.06,2.81-.09,4.23-.12l4.67-.08,2.88,0,4.36-.06c1.13,0,2.23-.13,3.36-.15.25,0,.49,0,.74,0,.93.07,1.23.24,1.38.63a1.43,1.43,0,0,1,.09.27c0,.29-.34.46-1,.54-1.93.24-4,.33-6.07.39l-4.67,0Z"/><path class="cls-1" d="M47.54,100.84l-4.24,0c-.51,0-1,0-1.54,0l-5.47-.15c-.81,0-1.62,0-2.42,0a13.55,13.55,0,0,1-3.11-.23c-.32-.06-.26-.24,0-.44a3.08,3.08,0,0,1,1.37-.49c1-.13,2.08-.09,3.12-.12s2.1,0,3.15,0c1.27,0,2.58-.1,3.87-.12l4.27-.07,2.63,0,4,0c1,0,2-.12,3.07-.13.23,0,.45,0,.68,0,.85.08,1.12.25,1.25.63a1.12,1.12,0,0,1,.08.26c0,.28-.33.49-.92.55a49.22,49.22,0,0,1-5.54.37H47.54Z"/><path class="cls-1" d="M73.55,57.15c-1.65-.1-3.3-.2-4.94-.23s-3.36-.2-5-.36-3.29-.33-4.92-.4c-.81,0-1.62,0-2.43,0-.4,0-.8,0-1.19.1l-.3,0-.21,0-.21,0-.23.06c-.09,0,0,.13,0,.16a.72.72,0,0,0,.2.09,3.64,3.64,0,0,0,.48.12c1.13.25,2.33.4,3.51.54,6.05.72,12.19.87,18.3,2.08l.24,0,.12.19a.79.79,0,0,1,.13.33.68.68,0,0,1-.1.43,1.06,1.06,0,0,1-.17.2l-.13.08a1.46,1.46,0,0,1-.36.13,3.67,3.67,0,0,1-.51.09c-.33,0-.64.06-.94.07-.62,0-1.22,0-1.83,0-1.21,0-2.41,0-3.61-.05l-11.34-.3c-4.82-.1-9.66-.06-14.45-.28-1.48-.06-1.29-.78,0-1.41a13.55,13.55,0,0,1,6.43-.94l13.29.9,6.63.43c1.1,0,2.21.11,3.31.13.54,0,1.09,0,1.63,0l.76,0,.31,0h0l0,0,.06.14a.78.78,0,0,0,.09.21c.11.15.12.21.2.24s0,0,0,0a.08.08,0,0,0-.07,0l0,.7c-.92-.23-1.88-.42-2.84-.59-2.9-.5-5.91-.78-8.94-1.07s-6.09-.51-9.13-1.06c-.44-.09-.79-.15-1.32-.3A3.78,3.78,0,0,1,52.51,57a1,1,0,0,1-.32-.63.6.6,0,0,1,.07-.36l.28-.17a2.92,2.92,0,0,1,.61-.33l.93-.2a6.91,6.91,0,0,1,.75-.12l.64-.07c.43,0,.86-.07,1.28-.06.86,0,1.7,0,2.54,0,3.38.19,6.66.75,10,.75,4.12.11,8.23.52,12.3.54.35,0,.7,0,1,0a3.65,3.65,0,0,0,.49-.06l.17,0,0,0,.09.1a.05.05,0,0,0,0,0s.11,0,0,0a.07.07,0,0,0-.07,0l.16-.48.17,0a1.16,1.16,0,0,0,.06.17c0,.08,0,.1,0,.14s0,0,0,0a.32.32,0,0,0-.1.1s-.09.14-.11.18h0l0,0-.45-.13-1-.24-2-.42L76.08,55l-4-.86-2-.47-1-.25-.5-.14-.67-.19a9,9,0,0,1-1.72-.65,2.49,2.49,0,0,1-1-.83.62.62,0,0,1,.1-.72,1.73,1.73,0,0,1,.57-.34,5.2,5.2,0,0,1,1.68-.33l1,0h.86l1.45,0c1.94.06,3.85.18,5.77.3l3.12.18c3.89.25,5.07.37,5.89,1a2.83,2.83,0,0,1,.55.42c.41.48-1.27.92-4.15.73s-5.6-.44-8.43-.7c-1.41-.13-2.84-.25-4.25-.32l-.43,0h-.15s0,0,0,0h.06s0,0,0,0l.32.09,1.1.31c1.48.39,3,.75,4.5,1.09l4.84,1.05L82,55l1.24.29c.21.06.41.11.66.2l.22.08.09,0,.05,0,.1.07a1,1,0,0,1,.14.15c0,.06.07,0,.16.35a.85.85,0,0,1-.16.67.86.86,0,0,1-.2.18,1,1,0,0,1-.52.16h-.21L84.25,56a1,1,0,0,1,.1.6,1,1,0,0,1-.26.5.88.88,0,0,1-.23.17l-.19.09a2.72,2.72,0,0,1-.46.11,6.3,6.3,0,0,1-.71.07c-.45,0-.88,0-1.32,0-.86,0-1.71-.05-2.56-.09l-5.07-.29Z"/><path class="cls-1" d="M97,70.44l2.19-1.37c.26-.17.51-.37.77-.53l2.84-1.74c.41-.26.81-.56,1.2-.85a8.67,8.67,0,0,1,1.55-1.06c.37-.16.6,1,0,1.43a25.26,25.26,0,0,1-3.23,2.11c-.68.37-1.31.87-2,1.31l-2.18,1.42L96.89,72c-.68.45-1.36.89-2,1.37-.5.37-.95.79-1.43,1.19l-.31.27c-.4.3-.58.33-.86.11-.06,0-.13-.09-.18-.14s-.13-.48.13-.76a15.71,15.71,0,0,1,2.64-2.21c.71-.5,1.44-1,2.16-1.45Z"/><path class="cls-1" d="M101.51,84.07c.57-.3,1.13-.64,1.67-1,.2-.13.38-.3.57-.42.71-.47,1.4-1,2.08-1.47a9.9,9.9,0,0,0,.85-.73,7.07,7.07,0,0,1,1.09-.95c.26-.16.56.7.21,1.14a10.39,10.39,0,0,1-2.22,2c-.51.32-1,.77-1.44,1.14s-1.11.79-1.68,1.16c-.36.22-.71.44-1.08.65-.54.33-1.13.6-1.7.88s-.85.5-1.31.69a1.63,1.63,0,0,1-.31.11c-.41.08-.56,0-.71-.23l-.1-.17c-.08-.2,0-.42.25-.6s.34-.27.51-.41l.53-.31L99.81,85c.55-.31,1.13-.57,1.68-.91Z"/><path class="cls-1" d="M47.47,91.34l-9.14-.16-3.34,0c-3.92-.09-7.83-.19-11.75-.36L18,90.62A40.52,40.52,0,0,1,11.35,90c-.69-.14-.54-.4.08-.59a9,9,0,0,1,3-.27c4.47.26,9,.3,13.54.51,2.72.14,5.56.08,8.35.11l9.21.1,5.66.07,8.58.13c2.21,0,4.38,0,6.57,0h1.44c1.81.09,2.37.24,2.73.64a1.42,1.42,0,0,1,.23.28c.15.3-.6.5-1.91.5-3.88,0-8,0-12.1,0l-9.21-.11Z"/><path class="cls-1" d="M102.15,76.85l-4.27,2.9-1.53,1.08-5.54,3.66c-.82.53-1.63,1.1-2.42,1.67a30.93,30.93,0,0,1-3.14,2.07c-.69.37-.43-1,.73-1.87,2.08-1.46,4.17-2.92,6.36-4.27,1.31-.81,2.58-1.78,3.87-2.68l4.26-3,2.61-1.84c1.31-.94,2.64-1.87,3.91-2.84,1-.76,1.91-1.56,2.85-2.34.21-.18.4-.36.62-.52.79-.63,1.14-.66,1.46-.61.08,0,.18,0,.25,0,.25,0,0,.55-.46,1.13a39.84,39.84,0,0,1-5.29,4.4c-1.4,1-2.83,2-4.25,3Z"/><path class="cls-1" d="M37,109.46c3.42,0,6.84-.12,10.26-.21L51,109.1c4.4-.12,8.81-.19,13.22-.24l5.87-.12,1.88,0,1.88,0a29.84,29.84,0,0,1,3.76.34c.77.18.64.37,0,.67a10.11,10.11,0,0,1-3.3.64c-2.52.11-5.05.07-7.59.12s-5.09,0-7.65,0c-3.07,0-6.26.18-9.39.29l-10.36.26-6.38.09c-3.22,0-6.46,0-9.66,0-2.49,0-4.94,0-7.42-.15l-1.64-.11a7.68,7.68,0,0,1-2.14-.48,1.53,1.53,0,0,1-.85-.65,1.68,1.68,0,0,1-.21-.36c-.09-.38.78-.51,2.2-.37,4.26.32,8.86.44,13.47.48,3.43,0,6.89,0,10.34-.11Z"/><path class="cls-1" d="M63.29,23.49c-.12-.11,0-.28.24-.47a.78.78,0,0,1,.4-.13,1.87,1.87,0,0,1,.28.16c.05,0,.45.71.61.92a3.61,3.61,0,0,1,.36.67c.22.47.45.92.69,1.38a1.73,1.73,0,0,1,.11.32,3.73,3.73,0,0,0,.47,1.08c0,.06.06.13.13.16a4.72,4.72,0,0,1,.66,1.14c.09.34.13.72.22,1.07,0,.05.05.09,0,.16a.39.39,0,0,0,0,.34c0,.14.1.29.14.44a1.15,1.15,0,0,1,0,.26c0,.08-.15.12-.18.11s-.11,0-.16.08l0,0a6.9,6.9,0,0,1-.83-.64L66,30.05a6.46,6.46,0,0,1-.47-.61.53.53,0,0,1-.08-.22l-.61-.92a1.15,1.15,0,0,1-.21-.61.25.25,0,0,0,0-.12,6,6,0,0,1-.41-1c-.06-.18-.15-.34-.23-.52a.34.34,0,0,1,0-.1.61.61,0,0,0,0-.13c-.18-.4-.29-.84-.49-1.24,0-.09-.09-.6-.14-.7S63.34,23.53,63.29,23.49Z"/><path class="cls-1" d="M93.35,31.93c-.1.17-.33.13-.62-.05-.1-.05-.27-.31-.25-.38a2.17,2.17,0,0,1,.12-.36c0-.07.78-.79,1-1.05a6,6,0,0,1,.78-.65l1.68-1.22a2,2,0,0,1,.4-.23,6.23,6.23,0,0,0,1.36-.82.57.57,0,0,0,.2-.18A6.88,6.88,0,0,1,99.54,26c.45-.16.92-.27,1.37-.42.07,0,.12-.06.2,0a.63.63,0,0,0,.44-.08,4.23,4.23,0,0,1,.57-.19,1.13,1.13,0,0,1,.32,0c.1,0,.12.16.1.18s0,.12.08.17l0,.06s-.21.22-.42.44-.44.46-.49.5l-.68.53c-.33.3-.7.54-.77.61a.74.74,0,0,1-.27.12s-1.06.83-1.1.85a2.17,2.17,0,0,1-.73.36.41.41,0,0,0-.15.07,13,13,0,0,1-1.19.72c-.21.12-.39.27-.59.4l-.12.05a.69.69,0,0,0-.15.07c-.46.33-1,.6-1.39,1-.1.08-.69.32-.8.42S93.39,31.85,93.35,31.93Z"/><path class="cls-1" d="M82.64,24.36c0,.16-.2.16-.53.06a1,1,0,0,1-.39-.27,1.36,1.36,0,0,1-.08-.32c0-.06.27-.76.35-1a2.65,2.65,0,0,1,.33-.65l.77-1.25a1.09,1.09,0,0,1,.22-.26,3,3,0,0,0,.67-.9.27.27,0,0,0,.07-.18,4.18,4.18,0,0,1,.63-1.07c.25-.23.52-.45.78-.66,0,0,.06-.08.13-.09s.21-.09.28-.17a2.91,2.91,0,0,1,.31-.3,1.1,1.1,0,0,1,.24-.09c.07,0,.2.1.2.13s.11.08.17.12l.06,0a6.42,6.42,0,0,1-.13,1l-.24.59c-.12.3-.29.58-.3.65s-.1.1-.15.15-.44.88-.46.91-.18.35-.39.44c-.05,0-.06.05-.08.09a6.51,6.51,0,0,1-.6.81c-.1.13-.18.29-.27.43l-.08.06-.08.08a10,10,0,0,0-.66,1c0,.08-.41.37-.45.47S82.64,24.29,82.64,24.36Z"/></g></svg>