<svg xmlns="http://www.w3.org/2000/svg" width="128" height="128" viewBox="0 0 128 128"><defs><style>.cls-1{fill:none;stroke:#231f20;stroke-miterlimit:10;}.cls-2{fill:#221f1f;}</style></defs><title>Free Icons</title><g id="Layer_28" data-name="Layer 28"><path class="cls-1" d="M102.45,16.48a1.06,1.06,0,0,1,1.16-1C106.52,15.79,102.16,19.54,102.45,16.48Z"/><path class="cls-1" d="M118.28,25.71a1.08,1.08,0,0,1,1.17-1C122.36,25,118,28.76,118.28,25.71Z"/><path class="cls-1" d="M114,56.81a1.07,1.07,0,0,1,1.16-1C118.11,56.12,113.75,59.87,114,56.81Z"/><path class="cls-2" d="M13.14,86.93c.21-.29.41-.58.57-.85a2.87,2.87,0,0,0,.2-.36l0-.09a2.18,2.18,0,0,0,.47.09.61.61,0,0,0,.19,0h.15s-.15,0-.07,0h0c.22,0,.34-.18.25,0a1.52,1.52,0,0,0,0,.76,1.3,1.3,0,0,1,0,.13l0,.08h0l0,0-.16.06a9.89,9.89,0,0,0-.87.48l-.45.29-.63.43L11.2,89.1a16,16,0,0,1-1.56,1,3.57,3.57,0,0,1-1.14.38l-.61,0a1.46,1.46,0,0,1-.43-.08A1.28,1.28,0,0,1,6.93,90a1.49,1.49,0,0,1-.21-1,4.06,4.06,0,0,1,.45-1.4,13.36,13.36,0,0,1,1.24-1.87l1.46-1.83.91-1.13a21.91,21.91,0,0,0,1.63-2.3,4.68,4.68,0,0,0,.84-2.27,1.13,1.13,0,0,0-.11-.43L13,77.3l.66.1a.07.07,0,0,0,.09-.06s0,.08,0,.09c0,.18.23.36.33.49L14,78c-.09.11-.19.26-.29.4l-.61.9c-.41.62-.82,1.25-1.27,1.86a11.73,11.73,0,0,1-2.45,2.6,4.33,4.33,0,0,1-1.88.8,3,3,0,0,1-2.11-.48c-.71-.55-.14-.85.56-1a3.55,3.55,0,0,0,1-.46A9.7,9.7,0,0,1,7.76,82a10,10,0,0,0,2.43-2.46c.39-.5.76-1,1.15-1.59l.61-.85.39-.5a3.92,3.92,0,0,1,.35-.34A1.7,1.7,0,0,1,13,76.1l.14-.07.08,0a.86.86,0,0,1,.23-.06,1.46,1.46,0,0,1,1,.13,1.52,1.52,0,0,1,.66.69L15,76.6a3.27,3.27,0,0,1,.36,2.22,6.12,6.12,0,0,1-.55,1.63,15,15,0,0,1-1.62,2.48l-2.1,2.62c-.14.18-.27.35-.4.54a1.21,1.21,0,0,0-.26.65c0,.16.2.12.3.07a11.76,11.76,0,0,0,1.15-.71l.6-.38c.28-.19.58-.38.89-.56a5.92,5.92,0,0,1,1.09-.5,3.4,3.4,0,0,1,.45-.08,1.53,1.53,0,0,1,.36,0,1.16,1.16,0,0,1,.46.25,1.11,1.11,0,0,1,.35.78,1.63,1.63,0,0,1-.06.49,5.5,5.5,0,0,1-.76,1.48c-.28.42-.56.81-.85,1.19-.56.75-1.17,1.54-1.66,2.23-.16.22-.32.46-.47.71s-.34.53-.23.82a.64.64,0,0,0,.64.29,1.78,1.78,0,0,0,.67-.31,5.38,5.38,0,0,0,.59-.48L15,91a4.46,4.46,0,0,1,1.82-1.08,1,1,0,0,1,.91.11,1.65,1.65,0,0,1,.4.76,4.08,4.08,0,0,1,.11,1c0,.39-.05.87,0,1.2a1.05,1.05,0,0,0,.09.45.49.49,0,0,0,.22.23c.2.06.28,0,.66-.06.7-.17,1.23-.39,1.63-.45a1.34,1.34,0,0,1,1,.16,2.2,2.2,0,0,1,.4.23c.35.3-.09,1-1.38,1.65a5.8,5.8,0,0,1-1.68.57,2.58,2.58,0,0,1-2.39-.74,2.7,2.7,0,0,1-.58-1.23c-.05-.25-.07-.44-.09-.61l0-.24s0-.06-.05-.07-.1.07-.09.08l-.13.13-.28.28-.42.39a7.33,7.33,0,0,1-2.36,1.5,2.79,2.79,0,0,1-1.59,0,3,3,0,0,1-1.37-.92,2.18,2.18,0,0,1-.39-1,2.51,2.51,0,0,1,.16-1.16,6.76,6.76,0,0,1,.68-1.38c.15-.24.29-.48.45-.71l.4-.57c.68-1,1.39-1.86,2-2.75Z"/><path class="cls-2" d="M46.28,115.47a16.46,16.46,0,0,1-8,1.1,15,15,0,0,1-2.9-.56c-.4-.15-.81-.28-1.2-.46l-.59-.26-.64-.35a13.61,13.61,0,0,1-2.06-1.61,44.3,44.3,0,0,1-3.32-3.57c-.92-1.08-1.86-2.14-2.79-3.19a27.75,27.75,0,0,1-3.38-4.15c-.59-1,2.31-1.56,3.64,0,2.34,2.78,4.52,5.64,6.82,8.31a9.8,9.8,0,0,0,2.32,2,8.31,8.31,0,0,0,1.36.57c.49.17,1,.31,1.48.43a13.05,13.05,0,0,0,6.76-.19,13.26,13.26,0,0,0,3.83-1.73,3,3,0,0,0,.91-1l.17-.29a1.81,1.81,0,0,0,.09-.31l.09-.31v-.32A4.21,4.21,0,0,0,47.72,107a21.4,21.4,0,0,0-4-3.22c-.31-.22-.65-.43-1-.67-1.17-.92-1.44-1.52-1.11-2.22a2.58,2.58,0,0,1,.24-.47.81.81,0,0,1,.75-.25,2.64,2.64,0,0,1,1.07.45,42.63,42.63,0,0,1,4,2.77,16,16,0,0,1,2,1.91,7.85,7.85,0,0,1,1.6,2.73,4.74,4.74,0,0,1,.24,1.37c0,.24,0,.49,0,.73a5.59,5.59,0,0,1-.15.71,6.41,6.41,0,0,1-.21.7l-.32.6a4.5,4.5,0,0,1-.78,1.09,10.38,10.38,0,0,1-3.78,2.34Z"/><path class="cls-2" d="M25.1,97.76l-7.91.9-1,.11-.62.06a3,3,0,0,1-.69,0,14.85,14.85,0,0,1-2.18-.38,11.17,11.17,0,0,1-2.13-.73,9.63,9.63,0,0,1-1-.5l-1-.61a11.24,11.24,0,0,1-3.11-3.3,12.46,12.46,0,0,1-1.67-4.12,14,14,0,0,1-.33-4.37,8.42,8.42,0,0,1,.14-1.11,6.34,6.34,0,0,1,.23-1.1,6.67,6.67,0,0,1,.35-1.1l.31-.77a5.88,5.88,0,0,1,.64-.58c2.92-2.49,5.75-5.1,8.6-7.69C23.81,63.3,33.66,53.9,43.58,44.57L56.72,32.09C62.33,26.82,67.9,21.4,74.23,16.86c2-1.41,2.11-.64.92,1.12a35.26,35.26,0,0,1-2.69,3.31c-.59.65-1.24,1.33-2,2S69,24.75,68.2,25.48c-11.68,10.4-23,21.34-34.68,32-7,6.4-14,13.33-21.28,19.82-1,.89-2,1.79-3,2.66L7.7,81.31,6.94,82l-.21.18c-.05,0-.05.1-.08.16A9.89,9.89,0,0,0,6,85.75a12.84,12.84,0,0,0,.51,3.6,10.73,10.73,0,0,0,1.6,3.21,9.26,9.26,0,0,0,2.67,2.32,12.09,12.09,0,0,0,1.64.74l.88.24a3.9,3.9,0,0,0,.9.19l.92.13c.15,0,.31,0,.36,0l.42,0,2-.22q9.78-1.11,19.53-2.41c9.84-1.32,19.72-2.72,29.43-4.45,7.53-1.35,14.88-2.93,22.17-4.85,1.6-.43,3.15-.9,4.74-1.38,2.94-.89,4.82-1.57,6.12-2a15.47,15.47,0,0,1,2.74-.8c.15,0,.33-.09.5-.14a4.06,4.06,0,0,1,.44-.16c.21,0,.3.06.23.34a2.74,2.74,0,0,1-.77,1.19A14.52,14.52,0,0,1,98.29,84a87.22,87.22,0,0,1-10,3.17C85,88.08,81.51,88.87,78,89.6c-6.94,1.45-14,2.68-21.12,3.81-10.56,1.67-21.18,3.09-31.8,4.41Z"/><path class="cls-2" d="M26.14,95.79a18.61,18.61,0,0,1-6.52-4.28,17.06,17.06,0,0,1-4.17-6.77,16.77,16.77,0,0,1-.57-8,19.26,19.26,0,0,1,2.88-7.44c.44-.76,2.27.42,1.92,1.12L18.84,72c-.22.56-.43,1.13-.69,1.67s-.38,1.14-.59,1.7a10.53,10.53,0,0,0-.43,1.74,15.78,15.78,0,0,0,.16,7.07,15.94,15.94,0,0,0,3.41,6.31,22.11,22.11,0,0,0,5.75,4.61C27.38,95.7,27.22,96.16,26.14,95.79Z"/><path class="cls-2" d="M92.21,26.84a31.78,31.78,0,0,0-7-7.26,11.9,11.9,0,0,0-2-1.14,3.76,3.76,0,0,0-1.76-.3.71.71,0,0,0-.43.22c-.1,0-.3.47-.46.75a3.76,3.76,0,0,0-.41,1c-.06.18-.13.35-.18.53l-.09.59a20.77,20.77,0,0,0,.39,7.24A50.34,50.34,0,0,0,81.9,35c.68,2.14,1.49,4.26,2.35,6.36a133.24,133.24,0,0,0,5.87,12.31c1.92,3.56,4,7,6.29,10.36,1.44,2.13,3,4.21,4.54,6.24.78,1,1.58,2,2.4,3a25,25,0,0,0,2.52,2.68,3.24,3.24,0,0,1,.51.53.44.44,0,0,1,0,.41.57.57,0,0,1-.43.27,2,2,0,0,1-1,0,11.69,11.69,0,0,1-5.82-4.29,116.71,116.71,0,0,1-8.95-13.41A129.21,129.21,0,0,1,83.06,45c-1.24-3-2.49-6-3.56-9.19A46.35,46.35,0,0,1,77.14,26a18.92,18.92,0,0,1,.21-5.75c.11-.49.3-1,.45-1.45a8.11,8.11,0,0,1,.68-1.39c.07-.12.12-.23.2-.35l.33-.38a4,4,0,0,1,.35-.36l.43-.27a3.58,3.58,0,0,1,1.83-.48,6.89,6.89,0,0,1,3.07.77,14.64,14.64,0,0,1,2.48,1.51,28.47,28.47,0,0,1,4.12,3.77A55,55,0,0,1,99,32.65a86.38,86.38,0,0,1,7.25,18.89,110.3,110.3,0,0,1,3,15.17c.12,1.13.28,2.24.38,3.38a26.06,26.06,0,0,1,0,4.56,3.81,3.81,0,0,1-.76,2c-.16.2-.31.46-.44.62s-.6-.11-.78-.92a11.67,11.67,0,0,1-.21-1.48c0-.58-.13-1.16-.22-2a118.06,118.06,0,0,0-5.58-27.32,69.64,69.64,0,0,0-9.49-18.67Z"/><path class="cls-2" d="M83.13,39.3c6.39-5.95,14.94,10.56,10.26,18.75C91.82,60.8,80.93,41.35,83.13,39.3Z"/><path class="cls-2" d="M108,24.06c-.11.27-.41.28-.82.16-.14,0-.39-.31-.38-.4a4,4,0,0,1,.12-.52c0-.09.94-1.29,1.23-1.71a9.3,9.3,0,0,1,1-1.12c.7-.7,1.41-1.41,2.13-2.1a3.54,3.54,0,0,1,.52-.42,11.76,11.76,0,0,0,1.76-1.46.85.85,0,0,0,.24-.29,10.93,10.93,0,0,1,1.88-1.69c.6-.32,1.16-.67,1.74-1,.08-.05.14-.13.26-.13a.89.89,0,0,0,.58-.25,4.93,4.93,0,0,1,.75-.41,3.27,3.27,0,0,1,.45-.1c.14,0,.2.15.18.2s.09.14.15.19a.18.18,0,0,1,0,.07,11.25,11.25,0,0,1-1,1.61s-.44.44-.89.88-.92.91-1,1a1.48,1.48,0,0,1-.36.23c-.06,0-1.38,1.37-1.44,1.41a3.41,3.41,0,0,1-.94.69A.43.43,0,0,0,114,19c-.47.46-1,.87-1.52,1.29-.26.22-.5.47-.74.71l-.16.1a.91.91,0,0,0-.19.13c-.57.58-1.21,1.08-1.75,1.69-.12.14-.89.64-1,.81S108.06,24,108,24.06Z"/><path class="cls-2" d="M113.43,49.85c-.14.08-.23-.08-.35-.39a.93.93,0,0,1,0-.44,2.53,2.53,0,0,1,.26-.22c.06,0,.89-.16,1.16-.21a3.57,3.57,0,0,1,.8,0l1.58.11a1.1,1.1,0,0,1,.34.1,3.57,3.57,0,0,0,1.16.27.39.39,0,0,0,.21,0,4,4,0,0,1,1.31.16,9.9,9.9,0,0,0,1,.5s.1,0,.13.09.18.17.28.21a1.2,1.2,0,0,1,.41.23,1,1,0,0,1,.18.22c.06.06,0,.19,0,.2s0,.12,0,.18a.17.17,0,0,1,0,.07,4,4,0,0,1-.49.21,2.7,2.7,0,0,1-.54.15l-1.42,0a.32.32,0,0,1-.2-.08s-1,0-1.07-.06c-.2-.05-.41,0-.59-.2a.14.14,0,0,0-.11,0,5.33,5.33,0,0,1-1-.25,4.51,4.51,0,0,0-.53-.09l-.09-.05-.11,0a10.66,10.66,0,0,0-1.24-.2c-.1,0-.54-.2-.64-.19S113.48,49.82,113.43,49.85Z"/><path class="cls-2" d="M107.94,37.61a.37.37,0,0,1-.33.11,2.12,2.12,0,0,1-.42-.16c-.11-.05-.31-.28-.25-.37a2.42,2.42,0,0,1,.35-.46c.08-.1,1.42-.83,1.87-1.07a9.45,9.45,0,0,1,1.34-.6c.93-.36,1.86-.71,2.79-1a3.75,3.75,0,0,1,.64-.16,11.79,11.79,0,0,0,2.18-.62,1,1,0,0,0,.34-.16,15,15,0,0,1,2.37-.81c.66-.08,1.3-.21,2-.3a.41.41,0,0,1,.29,0,.88.88,0,0,0,.62,0,5.66,5.66,0,0,1,.84-.13,1.45,1.45,0,0,1,.45.07c.14,0,.14.28.1.32s0,.19.07.28a.93.93,0,0,1,0,.1,12.1,12.1,0,0,1-1.58,1l-2.5.91a1.49,1.49,0,0,1-.42.08c-.06,0-1.82.68-1.89.69a3.69,3.69,0,0,1-1.15.25.79.79,0,0,0-.22.05c-.64.22-1.29.37-1.94.54-.33.09-.64.21-1,.31a1.08,1.08,0,0,1-.19,0l-.23,0c-.76.25-1.55.43-2.29.75-.17.07-1,.21-1.24.31S108,37.54,107.94,37.61Z"/></g></svg>