<svg xmlns="http://www.w3.org/2000/svg" width="128" height="128" viewBox="0 0 128 128"><defs><style>.cls-1{fill:#231f20;}.cls-2{fill:#221f1f;}</style></defs><title>Free Icons</title><g id="Layer_36" data-name="Layer 36"><path class="cls-1" d="M71.55,55.74l-4.63-.08H65.23l-6-.16c-.88,0-1.77,0-2.64,0a15.25,15.25,0,0,1-3.41-.28c-.35-.08-.24-.28.08-.45a2.81,2.81,0,0,1,.62-.21,3,3,0,0,1,.87-.1c2.25,0,4.53,0,6.83.09,1.38.07,2.82,0,4.22,0l4.66,0,2.86,0c1.45,0,2.9,0,4.34-.07,1.12,0,2.21-.15,3.32-.22.24,0,.49,0,.74,0,.91,0,1.25.12,1.4.52,0,.09.08.18.1.27,0,.31-.33.52-1,.58a57.33,57.33,0,0,1-6.1.32H71.55Z"/><path class="cls-2" d="M47,106.27c.86,0-6.9,2.33-8.32.46s-.78-11-.78-11,2.8-.64,3.16.28-1.73,4.34-1.73,6C39.29,106.55,46.52,106.27,47,106.27Z"/><path class="cls-2" d="M66.75,106.27c.87,0-6.89,2.33-8.32.46s-.78-11-.78-11,1.29-1.42,1.65-.49-.21,5.11-.21,6.81C59.09,106.55,66.31,106.27,66.75,106.27Z"/><path class="cls-2" d="M86.51,105.75c.87,0-6.89,2.33-8.32.46s-.78-11-.78-11,1.29-1.42,1.65-.5-.21,5.12-.21,6.82C78.85,106,86.07,105.75,86.51,105.75Z"/><path class="cls-2" d="M45.48,79.23c.86,0-6.9,2.33-8.32.46s-.1-11.43-.1-11.43,4.41-.67,4.78.26-3,4.82-3,6.51C38.86,79.5,45,79.23,45.48,79.23Z"/><path class="cls-2" d="M95.63,6.38c0-.07,0-.15.09-.24s.14,0,.16,0l.11.12s.16.47.21.62a3.17,3.17,0,0,1,.12.44c.06.3.13.6.19.9a1.49,1.49,0,0,1,0,.21,4.16,4.16,0,0,0,.12.69.2.2,0,0,0,0,.11,4.56,4.56,0,0,1,.17.77c0,.2,0,.41,0,.62a.11.11,0,0,1,0,.08.28.28,0,0,0,0,.2l0,.26a.7.7,0,0,1,0,.14s-.09,0-.1,0-.05,0-.08,0h0a5.11,5.11,0,0,1-.25-.52s-.18-.73-.21-.81a.57.57,0,0,1,0-.13s-.16-.6-.17-.62a1.11,1.11,0,0,1,0-.36s0-.05,0-.08a6.17,6.17,0,0,1-.11-.62l-.06-.31a.13.13,0,0,1,0-.06V7.74c-.06-.25-.09-.51-.16-.75,0-.06,0-.34,0-.41S95.65,6.41,95.63,6.38Z"/><path class="cls-2" d="M93.94,9.37c-.07.05-.16,0-.24-.1s0-.14,0-.16L93.8,9l.64-.21a3.45,3.45,0,0,1,.46-.12l.94-.2.21,0a4.16,4.16,0,0,0,.72-.12l.12,0a5,5,0,0,1,.79-.17l.64,0a.12.12,0,0,1,.1,0,.34.34,0,0,0,.2,0,2.48,2.48,0,0,1,.27,0,.7.7,0,0,1,.14,0s0,.08,0,.09,0,.06,0,.09v0s-.5.24-.55.25l-.84.22h-.14l-.64.17a1.52,1.52,0,0,1-.38.05.09.09,0,0,0-.07,0c-.21,0-.43.08-.65.11l-.32.07h-.14c-.26.06-.52.09-.78.16,0,0-.35,0-.42.05S94,9.35,93.94,9.37Z"/><path class="cls-2" d="M94.39,7.51c-.08,0-.1-.1-.08-.23a.22.22,0,0,1,.09-.13.43.43,0,0,1,.16,0l.54.26a2.12,2.12,0,0,1,.36.21l.72.47a.79.79,0,0,1,.15.12,2.85,2.85,0,0,0,.53.38l.1.05a4.15,4.15,0,0,1,.61.39l.43.38s0,0,0,.06.08.09.12.13l.19.16a.3.3,0,0,1,.07.11s0,.08-.05.08,0,0,0,.07v0a2.35,2.35,0,0,1-.51-.17l-.68-.39s-.06-.05-.09-.07-.49-.28-.51-.3a.9.9,0,0,1-.27-.21.1.1,0,0,0-.05,0c-.17-.1-.32-.22-.48-.33l-.25-.17,0,0,0,0c-.2-.12-.38-.27-.59-.39,0,0-.23-.21-.29-.24S94.43,7.51,94.39,7.51Z"/><path class="cls-2" d="M95.26,10.59c0,.08-.1.09-.23.06s-.13-.07-.12-.1a.76.76,0,0,1,0-.15,5.59,5.59,0,0,1,.27-.5,2.37,2.37,0,0,1,.22-.33l.48-.65A.71.71,0,0,1,96,8.79a2.5,2.5,0,0,0,.39-.47s0-.06,0-.09a3.5,3.5,0,0,1,.4-.55l.39-.38s0,0,.06,0a.24.24,0,0,0,.13-.11L97.59,7l.12,0s.08,0,.07,0,0,0,.07.06h0a2.2,2.2,0,0,1-.18.48s-.37.55-.4.61l-.08.08s-.29.45-.31.47-.11.18-.21.24,0,0,0,0-.23.29-.35.43-.11.15-.17.23l0,0,0,0c-.13.18-.28.34-.4.53,0,0-.21.21-.24.26S95.27,10.56,95.26,10.59Z"/><path class="cls-2" d="M113.73,23.79c0-.05,0-.1.06-.15a.15.15,0,0,1,.11,0l.07.08s.1.28.14.37a2.29,2.29,0,0,1,.07.28c0,.18.08.37.11.55a.59.59,0,0,1,0,.13,2.14,2.14,0,0,0,.07.43.19.19,0,0,0,0,.07,3,3,0,0,1,.11.47c0,.12,0,.25,0,.38s0,0,0,.05,0,.08,0,.12a.88.88,0,0,1,0,.16s0,.06,0,.09-.06,0-.07,0,0,0,0,0h0a3.17,3.17,0,0,1-.16-.32s-.12-.45-.13-.5a.25.25,0,0,1,0-.08s-.1-.37-.1-.38a.61.61,0,0,1,0-.23.06.06,0,0,0,0,0c0-.13,0-.25-.06-.38s0-.13,0-.2v0a.09.09,0,0,0,0-.05c0-.15,0-.31-.09-.46a2.42,2.42,0,0,0,0-.25S113.74,23.81,113.73,23.79Z"/><path class="cls-2" d="M112.7,25.63s-.1,0-.15-.06a.15.15,0,0,1,0-.11l.08-.07.39-.14.28-.07.58-.12.13,0a2.34,2.34,0,0,0,.45-.07s0,0,.07,0a3.26,3.26,0,0,1,.49-.1l.39,0h.06a.25.25,0,0,0,.12,0l.17,0,.09,0s0,.06,0,.06,0,0,0,.06,0,0,0,0l-.34.16-.51.14h-.09l-.39.1a.91.91,0,0,1-.23,0h0a2.57,2.57,0,0,1-.4.07l-.2.05h-.08c-.16,0-.32.05-.48.1a2.3,2.3,0,0,0-.26,0S112.72,25.62,112.7,25.63Z"/><path class="cls-2" d="M113,24.49s-.06-.07,0-.15,0-.09.07-.09h.09l.34.16a1.34,1.34,0,0,1,.23.13l.44.28.09.08a2.35,2.35,0,0,0,.32.23l.06,0a4,4,0,0,1,.38.24l.26.24,0,0a.13.13,0,0,0,.07.09.52.52,0,0,1,.11.1s0,0,0,.07,0,.05,0,.05,0,0,0,.05h0a1.65,1.65,0,0,1-.32-.1l-.41-.23s0,0-.06-.05l-.32-.18a.65.65,0,0,1-.16-.13l0,0a3.13,3.13,0,0,1-.3-.2l-.15-.1s0,0,0,0l0,0c-.12-.08-.23-.17-.36-.24s-.14-.13-.18-.15S113,24.49,113,24.49Z"/><path class="cls-2" d="M113.52,26.38c0,.05-.07.05-.15,0a.19.19,0,0,1-.08-.07.33.33,0,0,1,0-.1s.12-.23.16-.31a1.43,1.43,0,0,1,.14-.2l.29-.4.08-.08a2.17,2.17,0,0,0,.24-.29s0,0,0-.06a2,2,0,0,1,.25-.34l.24-.23s0,0,0,0a.17.17,0,0,0,.08-.06l.1-.1.07,0s0,0,0,0,0,0,0,0h0a1.31,1.31,0,0,1-.11.29s-.22.34-.24.38a.12.12,0,0,1,0,.05l-.19.29a.44.44,0,0,1-.13.14l0,0c-.07.1-.15.18-.22.27a.71.71,0,0,0-.1.14l0,0,0,0c-.08.12-.18.22-.25.33s-.13.13-.15.16S113.52,26.36,113.52,26.38Z"/><path class="cls-2" d="M13.72,22.75c0-.06,0-.13.09-.2s.13,0,.14,0a.47.47,0,0,1,.1.1s.13.38.18.5a2.37,2.37,0,0,1,.09.36c0,.25.11.49.16.74,0,.05,0,.11,0,.16a2.12,2.12,0,0,0,.09.57.14.14,0,0,0,0,.09,5.82,5.82,0,0,1,.14.63c0,.17,0,.33,0,.5a.22.22,0,0,1,0,.08s0,.1,0,.15a1.8,1.8,0,0,1,0,.22.45.45,0,0,1,0,.11s-.07,0-.08,0,0,0-.08,0,0,0,0,0a1.91,1.91,0,0,1-.21-.43s-.16-.59-.18-.66a.34.34,0,0,1,0-.1s-.14-.49-.14-.5a1,1,0,0,1,0-.3s0,0,0-.06c0-.17-.06-.34-.09-.51a2.38,2.38,0,0,0-.05-.26s0,0,0,0a.15.15,0,0,0,0-.07c0-.2-.07-.4-.13-.6s0-.28,0-.34S13.74,22.77,13.72,22.75Z"/><path class="cls-2" d="M12.36,25.2c-.06,0-.13,0-.2-.09s0-.13,0-.14a.47.47,0,0,1,.1-.1l.52-.18a2.36,2.36,0,0,1,.38-.1l.76-.16.18,0a3,3,0,0,0,.59-.1.16.16,0,0,0,.09,0,4.4,4.4,0,0,1,.65-.14l.52,0s.05,0,.08,0a.22.22,0,0,0,.16,0l.23,0,.11,0s0,.07,0,.08,0,.05,0,.07v0a3,3,0,0,1-.44.22l-.69.18h-.11l-.52.14a1.06,1.06,0,0,1-.31,0s0,0-.06,0a4.94,4.94,0,0,1-.53.1l-.27.05h-.11c-.21.05-.42.07-.63.13l-.34,0S12.39,25.18,12.36,25.2Z"/><path class="cls-2" d="M12.72,23.67c-.07,0-.08-.08-.06-.19s.06-.12.08-.12h.13l.45.21.29.17.59.38.12.1a2.61,2.61,0,0,0,.43.31s.05,0,.08,0a2.79,2.79,0,0,1,.5.32c.11.11.23.21.35.31s0,0,0,.05a.22.22,0,0,0,.1.11.93.93,0,0,1,.15.13.33.33,0,0,1,.06.1s0,.07-.05.07,0,0,0,.06a0,0,0,0,1,0,0,2.93,2.93,0,0,1-.43-.13S15,25.32,15,25.3a.23.23,0,0,1-.07-.07L14.46,25a1,1,0,0,1-.22-.18l0,0a3.48,3.48,0,0,1-.39-.28l-.2-.13,0,0s0,0,0,0-.31-.22-.48-.31-.19-.18-.24-.2S12.75,23.68,12.72,23.67Z"/><path class="cls-2" d="M13.44,26.19c0,.06-.08.07-.19,0a.2.2,0,0,1-.11-.09V26s.17-.31.22-.41a1.27,1.27,0,0,1,.18-.27l.39-.53a.52.52,0,0,1,.1-.11,2.37,2.37,0,0,0,.32-.39.1.1,0,0,0,0-.07,2.73,2.73,0,0,1,.33-.45l.32-.31a.11.11,0,0,1,.05,0c.06,0,.08-.05.11-.08l.13-.14.1,0s.07,0,.07.05,0,0,.05.05h0a2.88,2.88,0,0,1-.15.4s-.29.44-.32.5l-.07.06-.24.39a1.07,1.07,0,0,1-.18.19.08.08,0,0,0,0,0,4.29,4.29,0,0,1-.28.35c-.05.05-.09.12-.14.18l0,0,0,0c-.1.15-.23.28-.32.44s-.18.17-.2.21S13.45,26.16,13.44,26.19Z"/><path class="cls-1" d="M39.52,81.86l-.91,0-.47,0-.26,0a2.66,2.66,0,0,1-.39-.07,1.54,1.54,0,0,1-1.21-.85,1.93,1.93,0,0,1-.32-.62,4,4,0,0,1-.15-.5,12,12,0,0,1-.31-1.36,23.19,23.19,0,0,1-.16-2.33c0-.77,0-1.54.08-2.3s0-1.36,0-2a7.91,7.91,0,0,1,.32-2.59c.1-.27.39-.18.67.08a1.83,1.83,0,0,1,.63,1.16c.08,1.68.08,3.37,0,5.08a14.2,14.2,0,0,0,.26,3.07c0,.28.1.54.16.8a3.37,3.37,0,0,0,.1.34,1.07,1.07,0,0,0,.06.17A.31.31,0,0,0,38,80a6.15,6.15,0,0,0,.76.06c.71,0,1.43.06,2.15.06,1.09,0,2.19-.06,3.27-.17.84-.08,1.65-.28,2.47-.44l.54-.12c.68-.11.91,0,1.1.48a2.22,2.22,0,0,1,.14.32c.1.35-.15.69-.64.87a18.79,18.79,0,0,1-4.65.69c-1.19.06-2.38,0-3.59.14Z"/><path class="cls-1" d="M59.56,82.05c-.36,0-.72,0-1.1,0l-.62,0a5.51,5.51,0,0,1-.91-.23,5.86,5.86,0,0,1-.44-.42l-.34-.52a2.56,2.56,0,0,1-.19-.47,3.57,3.57,0,0,1-.12-.4,11.76,11.76,0,0,1-.3-1.35,23.24,23.24,0,0,1-.17-2.33c0-.78,0-1.54.08-2.31s0-1.35,0-2a7.65,7.65,0,0,1,.32-2.59c.09-.26.38-.18.67.09a1.89,1.89,0,0,1,.63,1.16c.08,1.68.08,3.36,0,5.08a14.31,14.31,0,0,0,.25,3.07,8,8,0,0,0,.21,1c.06.16.07.25.1.3a.44.44,0,0,0,.12.18.77.77,0,0,0,.31.06c.2,0,.42,0,.64,0,.7,0,1.42.06,2.14,0,1.09,0,2.19,0,3.27-.16.84-.09,1.66-.28,2.48-.45.18,0,.35-.09.54-.11.67-.11.9,0,1.1.48a2.88,2.88,0,0,1,.13.31c.11.36-.14.7-.64.88a18.72,18.72,0,0,1-4.65.68c-1.19.06-2.38,0-3.58.15Z"/><path class="cls-1" d="M79.23,81.76l-.91,0-.47,0-.27,0a1.67,1.67,0,0,1-.38-.06A1.55,1.55,0,0,1,76,80.76a1.93,1.93,0,0,1-.32-.62,4.51,4.51,0,0,1-.15-.5,12,12,0,0,1-.31-1.36A23.19,23.19,0,0,1,75.05,76c0-.77,0-1.54.07-2.3s0-1.36,0-2A7.62,7.62,0,0,1,75.48,69c.09-.27.38-.18.67.08a1.87,1.87,0,0,1,.63,1.16c.08,1.68.08,3.37,0,5.08a14.31,14.31,0,0,0,.26,3.07,6.15,6.15,0,0,0,.15.79c0,.13.08.24.11.35a1.62,1.62,0,0,0,.06.17.31.31,0,0,0,.28.18c.13,0,.51,0,.77.06.7,0,1.43.06,2.15.06,1.09,0,2.19-.06,3.27-.17.84-.08,1.65-.28,2.47-.44.18,0,.36-.09.54-.12.68-.11.9,0,1.1.48a2,2,0,0,1,.13.31c.11.36-.14.7-.63.88a19.35,19.35,0,0,1-4.66.69c-1.18,0-2.37,0-3.58.14Z"/><path class="cls-1" d="M80.29,108.58l-.91,0-.46,0-.27,0a1.76,1.76,0,0,1-.39-.06,1.6,1.6,0,0,1-1.21-.85,2,2,0,0,1-.32-.63,3.51,3.51,0,0,1-.15-.5,11.85,11.85,0,0,1-.31-1.35,23.19,23.19,0,0,1-.16-2.33c0-.78,0-1.54.08-2.31s0-1.35,0-2a7.41,7.41,0,0,1,.32-2.59c.09-.26.38-.18.67.09a1.84,1.84,0,0,1,.62,1.16c.08,1.68.08,3.36,0,5.08a14.31,14.31,0,0,0,.26,3.07c0,.28.1.53.16.79a2.31,2.31,0,0,0,.1.34,1.25,1.25,0,0,0,.06.18.33.33,0,0,0,.29.18c.13,0,.5.05.76.06.71,0,1.43.06,2.15,0,1.09,0,2.19,0,3.27-.16.84-.09,1.65-.28,2.47-.45.19,0,.36-.09.54-.11.68-.11.91,0,1.11.48a2.88,2.88,0,0,1,.13.31c.1.36-.14.7-.64.88a18.79,18.79,0,0,1-4.65.68c-1.19.06-2.38,0-3.58.15Z"/><path class="cls-1" d="M60,109.21l-1.1,0-.62,0a4.65,4.65,0,0,1-.91-.22,4.47,4.47,0,0,1-.44-.43l-.34-.51a2.61,2.61,0,0,1-.19-.48,3.43,3.43,0,0,1-.12-.39c-.12-.47-.24-.91-.31-1.36-.1-.79-.13-1.56-.16-2.33s0-1.54.08-2.3,0-1.36,0-2a7.65,7.65,0,0,1,.32-2.59c.09-.27.38-.18.67.08a1.92,1.92,0,0,1,.63,1.16c.08,1.68.08,3.37,0,5.08a14.86,14.86,0,0,0,.26,3.07,8.69,8.69,0,0,0,.21,1,2,2,0,0,0,.1.3.35.35,0,0,0,.12.17,1,1,0,0,0,.31.07l.63,0c.71,0,1.43.06,2.15.06,1.09,0,2.19-.06,3.27-.17.84-.08,1.66-.28,2.48-.44.18,0,.35-.09.54-.12.67-.11.9,0,1.1.48,0,.11.1.21.13.32.11.35-.14.69-.64.87a18.72,18.72,0,0,1-4.65.69c-1.19.06-2.38,0-3.58.14Z"/><path class="cls-1" d="M39.93,109.19l-.91,0-.46,0-.27,0a1.85,1.85,0,0,1-.39-.06,1.6,1.6,0,0,1-1.21-.85,2,2,0,0,1-.32-.63,3.51,3.51,0,0,1-.15-.5,11.85,11.85,0,0,1-.31-1.35c-.1-.79-.13-1.56-.16-2.34s0-1.54.08-2.3,0-1.36,0-2a7.41,7.41,0,0,1,.32-2.59c.09-.26.38-.18.67.08a1.89,1.89,0,0,1,.62,1.17c.09,1.67.08,3.36,0,5.07a14.35,14.35,0,0,0,.26,3.08c0,.28.1.53.16.79a2.31,2.31,0,0,0,.1.34.75.75,0,0,0,.07.18.31.31,0,0,0,.28.18c.13,0,.51,0,.76.05.71,0,1.43.06,2.15.06,1.09,0,2.19,0,3.27-.16.84-.09,1.65-.28,2.48-.45.18,0,.35-.09.53-.11.68-.11.91,0,1.11.47,0,.11.1.21.13.32.1.36-.14.7-.64.88a19.27,19.27,0,0,1-4.65.68c-1.19.06-2.38,0-3.58.15Z"/><path class="cls-1" d="M99.1,81.35c0-3.84,0-7.69-.15-11.54,0-1.4-.15-2.8-.19-4.21q-.2-7.42-.54-14.85c-.11-2.2-.3-4.4-.49-6.57L97.37,40a23.32,23.32,0,0,1,.13-4.25c.08-.9.37-.77.81,0,.21.36.5.86.82,1.47a8.53,8.53,0,0,1,.68,2.14,161.25,161.25,0,0,1,1,17.21c0,3.47.33,7.06.46,10.59.13,3.89.21,7.79.25,11.68l0,7.19c0,1.82-.06,3.64-.08,5.46l-.15,5.43c-.13,2.81-.08,5.57-.32,8.36,0,.61,0,1.22-.12,1.84-.36,2.3-.64,3-1.37,3.35a2.26,2.26,0,0,1-.47.23c-.5.11-.78-.9-.64-2.51.32-4.83.56-10,.63-15.16.07-3.85.11-7.73.05-11.6Z"/><path class="cls-1" d="M24.84,90.72c-.68-11.79-.89-23.58-.77-35.37.05-4.3.08-8.6.3-12.9a111.56,111.56,0,0,1,1-11.43c.08-.48.2-1,.29-1.46a11.47,11.47,0,0,1,.47-1.51,12.36,12.36,0,0,1,1.49-2.74,11.3,11.3,0,0,1,4.93-3.74,21.68,21.68,0,0,1,5.77-1.35c1.93-.22,3.83-.3,5.7-.42,3.8-.26,7.6-.29,11.38-.33,6.72,0,13.47,0,20.14.24a125.08,125.08,0,0,1,12.9.92,14.53,14.53,0,0,1,6.3,2.31,8.35,8.35,0,0,1,2.36,2.52,8.79,8.79,0,0,1,1.16,3.22,6.94,6.94,0,0,1,0,1.52c0,.32-.09.45-.17.44s-.31-.71-.69-1.76a8.45,8.45,0,0,0-2.41-3.56A11.87,11.87,0,0,0,89.59,23,102,102,0,0,0,76.79,22c-4.34-.16-8.69-.23-13.05-.26a243,243,0,0,0-26.06.88,13.59,13.59,0,0,0-6.77,2.54,9.52,9.52,0,0,0-2.18,2.76,13,13,0,0,0-.64,1.69,7.43,7.43,0,0,0-.21.9c-.05.32-.13.62-.17.95a148.77,148.77,0,0,0-1,16c-.3,11.79-.15,23.63.37,35.43.35,7.27.8,14.54,1.74,21.71a63.62,63.62,0,0,0,1.5,8,7.58,7.58,0,0,0,.64,1.65,4.19,4.19,0,0,0,1.3,1.08,16.26,16.26,0,0,0,3.65,1.4,81,81,0,0,0,16.17,2,208.46,208.46,0,0,0,25.15-.65c1.84-.15,3.63-.35,5.47-.54,6.84-.73,8.88-1,10.46-.75.36.06.83,0,1.09.07s.26.16.06.42a3.7,3.7,0,0,1-1.22.88,22.24,22.24,0,0,1-5.73,1.61,162.22,162.22,0,0,1-23.21,1.89c-4,.07-7.93,0-11.94-.15a112.86,112.86,0,0,1-12.07-1.13,46.1,46.1,0,0,1-4.53-.93A19.57,19.57,0,0,1,31,117.77a6.92,6.92,0,0,1-2.32-2,4.55,4.55,0,0,1-.46-.85c-.1-.25-.14-.41-.21-.61-.13-.39-.28-.79-.37-1.17a45.34,45.34,0,0,1-1-4.53c-1-6-1.45-11.94-1.86-17.89Z"/><path class="cls-1" d="M63.15,123.1c-3.38,0-6.76.05-10.15,0-1.23,0-2.47,0-3.71-.07a92.26,92.26,0,0,1-13-1.52,56,56,0,0,1-5.68-1.39,17.16,17.16,0,0,1-6.69-3.41c-.59-.54-.28-.73.48-.69a7,7,0,0,1,1.4.22,9.25,9.25,0,0,1,1.75.59,53.68,53.68,0,0,0,14.08,3.55,72.38,72.38,0,0,0,9.13.49c3.36.06,6.74,0,10.12,0q3.12-.06,6.25-.17l9.47-.35c2.45-.1,4.84-.32,7.31-.33a14.62,14.62,0,0,1,1.62,0,7.56,7.56,0,0,1,2.15.41,1.61,1.61,0,0,1,.84.83,2.5,2.5,0,0,1,.18.47c.07.49-.77.71-2.16.74-4.15.07-8.65.25-13.18.41l-10.18.32Z"/><path class="cls-1" d="M33.07,119.55l-1.84-.61c-.22-.07-.45-.08-.68-.16-.78-.28-1.56-.57-2.33-.92-.34-.14-.69-.25-1-.36a2.85,2.85,0,0,1-1.31-.63c-.11-.11.06-.39.32-.65s.57-.5.8-.46a10.06,10.06,0,0,1,2.55.72,6.56,6.56,0,0,0,1.64.4l1.83.44c.38.09.75.18,1.13.25a17.55,17.55,0,0,0,1.73.33,10.88,10.88,0,0,0,1.39-.07,3,3,0,0,1,.31,0c.38,0,.47.2.44.81a2.82,2.82,0,0,1,0,.41,1,1,0,0,1-.54.91,5.51,5.51,0,0,1-2.52.1,17.43,17.43,0,0,1-1.87-.43Z"/><path class="cls-1" d="M62.78,29.3q5.06,0,10.12.08c1.24,0,2.47,0,3.7,0,2.18.1,4.36.23,6.56.49a17.43,17.43,0,0,1,3.34.69l.45.19a1.81,1.81,0,0,1,.49.28,2.63,2.63,0,0,1,.72.81c.17.27.28.54.43.81l.3.83a24.9,24.9,0,0,1,1,5.85,20.46,20.46,0,0,1-.76,7.45c-.34.73-.5.54-.67-.16a14.08,14.08,0,0,1-.32-3.22c0-1.21,0-2.42-.11-3.62a27.88,27.88,0,0,0-.38-3.56,11.63,11.63,0,0,0-.94-3.18,1.41,1.41,0,0,0-.18-.27l-.09-.13,0,0h0l.3-.28h0l0,0-.09.06c-.09.08-.24.24-.21.2s-.26-.12-.43-.19a14.75,14.75,0,0,0-1.67-.37,59.82,59.82,0,0,0-9.07-.55c-3.37-.07-6.75-.08-10.14-.06l-6.25.07c-3.16.06-6.33.1-9.46.24-2.44.1-4.82.34-7.24.48-.53,0-1,.09-1.59.1-2,.07-2.67-.2-3.07-.77a2,2,0,0,1-.25-.4c-.13-.44.64-.73,2.07-.91,4.24-.41,8.79-.66,13.34-.81,3.39-.11,6.79-.17,10.19-.23Z"/><path class="cls-1" d="M34.56,45.2l.21-3.15c0-.38,0-.77,0-1.15.15-1.33.29-2.67.44-4,.06-.59.09-1.18.12-1.78a7.54,7.54,0,0,1,.36-2.3c.14-.33.3-.1.49.11a1.73,1.73,0,0,1,.45,1,28.39,28.39,0,0,1-.25,4.59c-.13.93-.08,1.89-.12,2.84l-.08,3.12c0,.64,0,1.28,0,1.91,0,1,0,1.94.15,2.9a15.64,15.64,0,0,0,.46,2.16c0,.16.1.31.13.47.11.59,0,.8-.43,1a2,2,0,0,1-.3.14c-.34.12-.68-.07-.88-.51a12.62,12.62,0,0,1-.83-4.16c-.05-1.07,0-2.14,0-3.2Z"/><path class="cls-1" d="M67.72,55l-7.38.13c-.9,0-1.79.08-2.7.07-3.12-.09-6.24.18-9.43.34-1.41.07-2.83.14-4.24.13a13.82,13.82,0,0,1-5.35-1c-.52-.21-.41-.28.08-.31.25,0,.59,0,1,0a8.85,8.85,0,0,1,1.39,0,25.79,25.79,0,0,0,2.64.06c.89,0,1.78,0,2.67-.06l5.45-.35,3.37-.24c.57,0,1.14-.07,1.72-.09l1.68-.05L66,53.2,70.59,53c2.3-.1,4.62-.16,6.91-.29,1.78-.1,3.52-.32,5.29-.43.38,0,.77-.08,1.16-.08,1.46,0,1.93.24,2.23.71a3.11,3.11,0,0,1,.2.3c.13.28-.47.7-1.51.88a89.49,89.49,0,0,1-9.72.68L67.73,55Z"/><path class="cls-1" d="M36,78.71a27.19,27.19,0,0,1-.4-5.71c0-.69,0-1.38.06-2.07s.14-1.22.26-1.84l.11-.48a4,4,0,0,1,.24-.69,1.69,1.69,0,0,1,1.11-.82,9.76,9.76,0,0,1,1.93-.28c.6,0,1.2-.07,1.8-.09l3.17-.09a12.49,12.49,0,0,1,4.09.36c.51.22.23.44-.15.66a3.71,3.71,0,0,1-1.74.56c-2.62.11-5.37.17-7.91.43-.18,0-.36.06-.53.09a.61.61,0,0,0-.18.05c-.11.09-.09.14-.2.6a22.94,22.94,0,0,0-.24,2.4,31.18,31.18,0,0,0,.11,5.38,15.28,15.28,0,0,0,.28,1.58c.17.53.22.83.55.85a4.18,4.18,0,0,0,.51,0H40.8c.85,0,1.71,0,2.55-.11,1.32-.1,2.61-.32,3.9-.51.28,0,.56-.1.85-.13,1.06-.14,1.41,0,1.69.42a3.49,3.49,0,0,1,.18.31c.15.36-.26.72-1,.92a39.62,39.62,0,0,1-7.31.79c-.94,0-1.86,0-2.85,0l-.39,0-.66-.12a1.64,1.64,0,0,1-1-.76,3.66,3.66,0,0,1-.47-.94,6.6,6.6,0,0,1-.23-.77Z"/><path class="cls-1" d="M50.57,72.22c0,.51-.08,1-.09,1.56,0,.19,0,.37,0,.56,0,.67-.07,1.36-.11,2a5.41,5.41,0,0,0,0,.9,2.8,2.8,0,0,1-.07,1.18c0,.13-.29.08-.53,0s-.52-.26-.56-.47a6,6,0,0,1-.14-2.28A6.87,6.87,0,0,0,49,74.23c0-.52,0-1,0-1.58,0-.33,0-.65,0-1,0-.49,0-1,0-1.48s-.13-.77-.17-1.18a.89.89,0,0,1,0-.28.47.47,0,0,1,.61-.43l.24,0a1.11,1.11,0,0,1,.57.42,1.87,1.87,0,0,1,.26.91,8.26,8.26,0,0,1,.06,1c0,.52,0,1,0,1.55Z"/><path class="cls-1" d="M56,78.41a26.54,26.54,0,0,1-.4-5.71c0-.69,0-1.38.06-2.07,0-.44.09-.89.17-1.34,0-.22.08-.45.13-.68l.09-.37c.05-.17.1-.34.16-.51a1.84,1.84,0,0,1,1.39-1,8.85,8.85,0,0,1,1.21-.18c.78-.08,1.54-.11,2.3-.13l3.16-.09a12.52,12.52,0,0,1,4.1.36c.51.22.22.44-.15.66a3.71,3.71,0,0,1-1.74.56c-2.62.11-5.37.16-7.91.43-.6.12-.71.06-.79.24l-.05.16c0,.12,0,.23-.07.36s-.08.51-.11.77c-.06.53-.1,1.07-.13,1.61a30.21,30.21,0,0,0,.11,5.38,13.1,13.1,0,0,0,.25,1.44A4.86,4.86,0,0,0,58,79a.6.6,0,0,0,.24.32.8.8,0,0,0,.15,0,4.18,4.18,0,0,0,.51,0h1.91c.85,0,1.7,0,2.55-.12,1.32-.09,2.6-.31,3.89-.5l.85-.14c1.07-.13,1.41,0,1.69.43a2.16,2.16,0,0,1,.19.31c.14.36-.26.72-1,.92a40.31,40.31,0,0,1-7.31.79c-.61,0-1.22,0-1.85,0l-1,0-.25,0a1.62,1.62,0,0,1-.33,0,5.08,5.08,0,0,1-.86-.19,2.22,2.22,0,0,1-.65-.61,1.73,1.73,0,0,1-.25-.39,1.54,1.54,0,0,1-.14-.3A7.92,7.92,0,0,1,56,78.42Z"/><path class="cls-1" d="M70.55,71.92c0,.51-.08,1-.1,1.55,0,.19,0,.38,0,.57,0,.67-.08,1.36-.11,2a6.76,6.76,0,0,0,0,.9,2.8,2.8,0,0,1-.06,1.18c0,.13-.29.08-.54,0s-.51-.26-.55-.47a6,6,0,0,1-.14-2.28,8.59,8.59,0,0,0,0-1.43c0-.53,0-1.06,0-1.58,0-.33,0-.66,0-1,0-.49,0-1,0-1.48s-.13-.77-.18-1.18a2.72,2.72,0,0,1,0-.28.47.47,0,0,1,.62-.43l.24,0a1.13,1.13,0,0,1,.56.41,2.08,2.08,0,0,1,.27.92c0,.33,0,.66.06,1,0,.51,0,1,0,1.54Z"/><path class="cls-1" d="M75.83,78.11a26.52,26.52,0,0,1-.39-5.71c0-.69,0-1.38,0-2.07,0-.44.1-.89.17-1.34,0-.22.08-.45.13-.68l.09-.36c.06-.18.1-.35.16-.52a1.84,1.84,0,0,1,1.4-1,9,9,0,0,1,1.2-.18c.78-.08,1.54-.11,2.3-.13L84.11,66a12.49,12.49,0,0,1,4.09.36c.52.22.23.44-.14.66a3.76,3.76,0,0,1-1.75.56c-2.62.11-5.36.17-7.91.43-.6.12-.71.06-.79.24s0,.06,0,.16,0,.24-.08.36-.08.51-.11.77c-.06.53-.09,1.07-.13,1.61a32.21,32.21,0,0,0,.11,5.38,15.28,15.28,0,0,0,.28,1.58c.17.53.23.83.56.85a4,4,0,0,0,.51,0h1.9c.86,0,1.71-.05,2.56-.11,1.31-.1,2.6-.32,3.89-.51l.85-.14c1.06-.13,1.41,0,1.69.43.06.11.14.21.19.31.14.36-.27.72-1.05.92a39.53,39.53,0,0,1-7.31.79c-.94,0-1.86,0-2.85,0l-.39,0-.66-.12a1.66,1.66,0,0,1-1-.76,3.66,3.66,0,0,1-.47-.94c-.09-.27-.17-.52-.23-.77Z"/><path class="cls-1" d="M90.38,71.62c0,.51-.07,1-.09,1.56,0,.19,0,.37,0,.56,0,.67-.08,1.36-.12,2a6.76,6.76,0,0,0,0,.9,2.65,2.65,0,0,1-.07,1.18c0,.13-.28.08-.53,0s-.51-.26-.56-.47a6,6,0,0,1-.13-2.28,7.65,7.65,0,0,0-.06-1.43c0-.52,0-1,0-1.58,0-.33,0-.66,0-1,0-.49,0-1,0-1.48s-.12-.77-.17-1.18a1.34,1.34,0,0,1,0-.28.47.47,0,0,1,.61-.43l.24,0a1.11,1.11,0,0,1,.57.41,2.08,2.08,0,0,1,.27.92c0,.33,0,.66.05,1,0,.52,0,1,0,1.55Z"/><path class="cls-1" d="M36.49,105.66a27.24,27.24,0,0,1-.4-5.72c0-.68,0-1.37.06-2.06,0-.44.1-.89.17-1.34,0-.22.08-.45.13-.68l.09-.37c.05-.17.1-.34.16-.51a1.88,1.88,0,0,1,1.39-1,11.32,11.32,0,0,1,1.21-.17c.78-.08,1.54-.11,2.3-.13l3.17-.09a12.49,12.49,0,0,1,4.09.36c.51.22.23.44-.15.66a3.71,3.71,0,0,1-1.74.56c-2.62.11-5.37.16-7.91.43-.6.12-.71.06-.79.24s0,0,0,.15-.06.24-.08.37-.08.51-.11.77c-.06.53-.1,1.07-.13,1.6a31.28,31.28,0,0,0,.11,5.39c.06.49.15,1,.25,1.44a3.7,3.7,0,0,0,.2.64.58.58,0,0,0,.23.32.8.8,0,0,0,.15,0c.07,0,.31,0,.51,0h1.91c.85,0,1.71,0,2.55-.12,1.32-.09,2.61-.31,3.9-.5l.85-.14c1.06-.14,1.41,0,1.69.43a3.49,3.49,0,0,1,.18.31c.15.35-.26.72-1,.92a40.5,40.5,0,0,1-7.31.79c-.62,0-1.23,0-1.86,0l-.95,0-.25,0a1.62,1.62,0,0,1-.33,0,5.83,5.83,0,0,1-.85-.19,2.26,2.26,0,0,1-.66-.61,2.17,2.17,0,0,1-.25-.39c-.07-.13-.1-.21-.14-.3a6.64,6.64,0,0,1-.35-1.07Z"/><path class="cls-1" d="M51,99.17c0,.51-.08,1-.09,1.55,0,.19,0,.38,0,.57,0,.67-.07,1.36-.11,2a5.41,5.41,0,0,0,0,.9,2.81,2.81,0,0,1-.07,1.18c0,.13-.29.08-.53,0s-.52-.26-.56-.47a6,6,0,0,1-.14-2.28,7.6,7.6,0,0,0-.05-1.43V98.62c0-.49,0-1,0-1.48s-.13-.77-.17-1.18a.88.88,0,0,1,0-.28.46.46,0,0,1,.61-.43l.24,0a1.08,1.08,0,0,1,.56.41,1.85,1.85,0,0,1,.27.92,8.26,8.26,0,0,1,.06,1c0,.51,0,1,0,1.54Z"/><path class="cls-1" d="M56.47,105.36a26.63,26.63,0,0,1-.4-5.72c0-.68,0-1.37.06-2.06,0-.44.09-.89.17-1.34,0-.22.08-.45.13-.68l.09-.37.15-.51a1.92,1.92,0,0,1,1.4-1c.42-.09.81-.13,1.21-.18.78-.07,1.54-.1,2.3-.12l3.16-.1a12.81,12.81,0,0,1,4.1.37c.51.21.22.44-.15.66a3.71,3.71,0,0,1-1.74.56c-2.62.11-5.37.16-7.91.43-.6.12-.71,0-.79.24a1.24,1.24,0,0,0,0,.15c0,.12-.05.24-.07.37s-.08.51-.11.77c-.06.53-.1,1.07-.13,1.6a30.3,30.3,0,0,0,.11,5.39,13.1,13.1,0,0,0,.25,1.44,4.86,4.86,0,0,0,.19.64.54.54,0,0,0,.24.31.42.42,0,0,0,.15,0,4.76,4.76,0,0,0,.51,0l.63,0h1.28c.85,0,1.7-.05,2.55-.12,1.32-.09,2.6-.31,3.89-.5l.85-.14c1.07-.14,1.41,0,1.69.43a1.73,1.73,0,0,1,.19.31c.14.35-.26.71-1,.91a39.43,39.43,0,0,1-7.31.8c-.61,0-1.22,0-1.85,0l-1,0L59,108a1.62,1.62,0,0,1-.33,0,6.28,6.28,0,0,1-.86-.19,2.22,2.22,0,0,1-.65-.61,2,2,0,0,1-.25-.39,2.82,2.82,0,0,1-.15-.31,8.73,8.73,0,0,1-.35-1.06Z"/><path class="cls-1" d="M71,98.87c0,.51-.08,1-.1,1.55,0,.19,0,.38,0,.57l-.11,2a6.76,6.76,0,0,0,0,.9,2.8,2.8,0,0,1-.06,1.18c0,.13-.29.08-.54,0s-.51-.26-.55-.47a6,6,0,0,1-.14-2.29,8.43,8.43,0,0,0-.05-1.42c0-.53,0-1.06,0-1.58,0-.33,0-.66,0-1,0-.5,0-1,0-1.49s-.13-.76-.18-1.17a2.53,2.53,0,0,1,0-.28.47.47,0,0,1,.62-.43l.24,0a1.07,1.07,0,0,1,.56.41,2.08,2.08,0,0,1,.27.92c0,.33,0,.66.06,1,0,.51,0,1,0,1.54Z"/><path class="cls-1" d="M76.3,105.06a26.56,26.56,0,0,1-.39-5.72c0-.68,0-1.37,0-2.06,0-.44.1-.89.17-1.34,0-.22.08-.45.13-.68l.09-.37c.06-.17.1-.34.16-.51a1.88,1.88,0,0,1,1.4-1,10.81,10.81,0,0,1,1.2-.17c.78-.08,1.54-.11,2.3-.13L84.58,93a12.49,12.49,0,0,1,4.09.36c.51.22.23.44-.14.66a3.76,3.76,0,0,1-1.75.56c-2.62.11-5.36.16-7.91.43-.6.12-.71,0-.79.24s0,.05,0,.15-.05.24-.08.37-.08.51-.11.77c-.06.53-.09,1.07-.13,1.6a32.31,32.31,0,0,0,.11,5.39c.06.49.15,1,.25,1.44a3.7,3.7,0,0,0,.2.64.58.58,0,0,0,.23.32.76.76,0,0,0,.16,0,4.58,4.58,0,0,0,.51,0l.63,0h1.27c.86,0,1.71,0,2.56-.12,1.31-.09,2.6-.31,3.89-.5l.85-.14c1.06-.14,1.41,0,1.69.43.06.11.14.21.19.31.14.35-.27.71-1.05.92a40.4,40.4,0,0,1-7.31.79c-.61,0-1.23,0-1.85,0l-1,0-.25,0a1.53,1.53,0,0,1-.32,0,6,6,0,0,1-.86-.19,2.39,2.39,0,0,1-.66-.61,3.73,3.73,0,0,1-.25-.39c-.06-.13-.1-.21-.14-.31a7.28,7.28,0,0,1-.35-1.06Z"/><path class="cls-1" d="M90.85,98.57c0,.51-.07,1-.09,1.55,0,.19,0,.38,0,.57,0,.67-.08,1.36-.12,2a6.76,6.76,0,0,0,0,.9,2.66,2.66,0,0,1-.07,1.18c0,.13-.28.08-.53,0s-.51-.26-.56-.47a6,6,0,0,1-.13-2.28,7.61,7.61,0,0,0-.06-1.43c0-.53,0-1.06,0-1.58,0-.33,0-.66,0-1,0-.49,0-1,0-1.48s-.12-.77-.17-1.18a1.31,1.31,0,0,1,0-.28.46.46,0,0,1,.61-.43l.24,0a1.11,1.11,0,0,1,.57.41,2.08,2.08,0,0,1,.27.92c0,.33,0,.66.05,1,0,.51,0,1,0,1.54Z"/><path class="cls-1" d="M42.28,43.57c.09-.12.15-.27.31-.33a.62.62,0,0,1,.4-.18,4.07,4.07,0,0,1,1,0l1.1.08c.73,0,1.45.1,2.15.12.24,0,.47,0,.69,0h.33a.26.26,0,0,0,.09-.15s0-.12,0-.22l0-.32a11.77,11.77,0,0,0,0-1.33A10.78,10.78,0,0,0,48,38.52a1.09,1.09,0,0,0-.13-.3.23.23,0,0,0-.23-.12h-.54l-.66,0a19.72,19.72,0,0,1-3.17.07c-.67-.08.11-1.55,1.35-1.61.52,0,1,0,1.57,0h1.21l.63,0a1.54,1.54,0,0,1,1.18.95,3.29,3.29,0,0,1,.22.59c0,.17.09.32.12.47a10.34,10.34,0,0,1,.2,1.81c0,.6,0,1.21,0,1.84a6.23,6.23,0,0,1-.06,1,1.45,1.45,0,0,1-.67,1.2,3.24,3.24,0,0,1-.76.18,17.89,17.89,0,0,1-2.33,0l-2.13-.15a1.07,1.07,0,0,0-.31,0,.74.74,0,0,0-.12.29,4.67,4.67,0,0,0-.08.54c0,.21,0,.43,0,.64a9.7,9.7,0,0,0,.09,1.95c.11.61.35,1.27.7,1.35h.17c.92,0,1.88-.13,2.82-.19l.68,0c.85,0,1.09,0,1.3.43.05.09.11.17.15.25.17.29-.26.62-.89.71a33.72,33.72,0,0,1-4.1.32A2,2,0,0,1,42.73,50a3.28,3.28,0,0,1-.59-1.14,8.37,8.37,0,0,1-.33-2.47q0-.6.06-1.2c0-.23,0-.35.08-.67a3.37,3.37,0,0,1,.3-1Z"/><path class="cls-1" d="M55.4,48.89c.63,0,1.26,0,1.89-.09l.84-.1c.06,0,.15,0,.15-.08l0-.15s0-.1,0-.23l.08-.65c.07-.62.07-1.25.1-1.87a30.68,30.68,0,0,0-.39-6.64,5.76,5.76,0,0,0-.21-.79.21.21,0,0,0-.17-.16l-.3-.06a7.14,7.14,0,0,0-.93-.07,11.18,11.18,0,0,0-1.83.11l-.86.14a3.47,3.47,0,0,0-.61.19.57.57,0,0,0-.28-.07c-.14,0-.34-.13-.33-.46a1.87,1.87,0,0,1,1.64-1.4,11.47,11.47,0,0,1,2.26-.09,9.56,9.56,0,0,1,1.15.12,2.58,2.58,0,0,1,.34.08l.49.15a2.82,2.82,0,0,1,.39.29c.06,0,.08.14.18.15l.14.2a6,6,0,0,1,.35,1.24c.07.33.12.65.16,1,.08.64.12,1.28.15,1.92.05,1.62.19,3.29.1,5,0,.44-.06.87-.11,1.3l-.08.66-.13.84c-.08.15-.09.34-.22.45A.85.85,0,0,1,59,50a5.23,5.23,0,0,1-.54.12l-.39.06c-.48.06-1,.1-1.42.13s-1.1.06-1.65,0a8.19,8.19,0,0,1-.85,0,2.34,2.34,0,0,1-1-.3L53,49.93a2.2,2.2,0,0,1-.39-.78,5.42,5.42,0,0,1-.14-.65c-.08-.43-.13-.85-.18-1.27-.09-.84-.15-1.67-.21-2.5-.08-1.29-.21-2.55-.24-3.84,0-.28,0-.56,0-.85,0-1.07.2-1.41.62-1.58a1.72,1.72,0,0,1,.29-.11c.32,0,.5.39.53,1.13.11,2.2.21,4.56.42,6.87,0,.53.12,1,.19,1.56.05.24.09.51.15.71l0,.16h0l.36,0c.3,0,.62,0,.94,0Z"/><path class="cls-1" d="M71.74,42.72,70.3,44.38c-.18.2-.32.43-.5.63l-1.89,2.13a12.1,12.1,0,0,0-.77,1,4.93,4.93,0,0,1-1.06,1.22c-.14.1-.32-.08-.43-.35a1.07,1.07,0,0,1,0-.91,18.59,18.59,0,0,1,2.1-2.52c.47-.47.83-1,1.27-1.57l1.44-1.71.9-1c.45-.52.93-1,1.36-1.57s.63-.87,1-1.3a1.46,1.46,0,0,1,.21-.28c.29-.33.49-.34.77-.2l.19.1a.57.57,0,0,1,.08.7,12.88,12.88,0,0,1-1.7,2.35l-1.43,1.68Z"/><path class="cls-1" d="M69.21,39.63a1.49,1.49,0,0,1-1,1.4,2.67,2.67,0,0,1-.48.15,1.56,1.56,0,0,1-1.8-1.56.91.91,0,0,1,.48-.87c.09,0,.23.17.35.39a3.48,3.48,0,0,1,.25.46.57.57,0,0,0,.08.44c.09.14.27.1.47,0s.39-.15.44-.27a.29.29,0,0,0,0-.27c-.08-.15-.17-.2-.3-.11s-.15.28-.2.46,0,.09,0,.13-.14.17-.47.1l-.22,0c-.24-.06-.41-.21-.41-.4a1.5,1.5,0,0,1,.25-.89,1.38,1.38,0,0,1,1.22-.64,1.42,1.42,0,0,1,1,.53,1.55,1.55,0,0,1,.35,1Z"/><path class="cls-1" d="M75.41,46.66a1.46,1.46,0,0,1-.49.93,1.56,1.56,0,0,1-.73.38,1.51,1.51,0,0,1-.53.09,1.38,1.38,0,0,1-1-.48,1.29,1.29,0,0,1-.27-.91,2.48,2.48,0,0,1,.13-.72.86.86,0,0,1,.63-.66c.1,0,.21.25.31.52s.25.51.25.54,0,.26-.16.32,0,0,.06,0l.33-.06a.09.09,0,0,0,0-.1.28.28,0,0,0-.32-.18c-.14,0-.25.15-.37.26l-.07.07c-.11.08-.2,0-.43-.28l-.16-.2a.58.58,0,0,1-.15-.63A1.46,1.46,0,0,1,74.31,45a1.67,1.67,0,0,1,1.13,1.68Z"/><path class="cls-1" d="M22.56,86.93q-.35-6.12-.58-12.25c-.06-1.49-.22-3-.25-4.46-.14-5.26-.22-10.52-.14-15.78,0-2.33,0-4.68,0-7,0-1.49,0-3,.08-4.48a33.74,33.74,0,0,1,.64-4.46c.19-.92.56-.74.95.08a11.05,11.05,0,0,1,.93,4c-.12,6,.06,12,0,18.06-.06,3.65.3,7.42.49,11.14Q25,77.88,25.39,84c.19,2.52.34,5,.56,7.55.33,3.8.64,7.63,1.12,11.39.38,2.92,1,5.76,1.53,8.61.13.62.29,1.23.4,1.86a8.5,8.5,0,0,1,.22,2.48,1.55,1.55,0,0,1-.21.65,4,4,0,0,1-.43.56c-.16.17-.29.4-.44.55s-.57.21-1-.21a3.4,3.4,0,0,1-.59-.87,8.47,8.47,0,0,1-.45-1.14,94.79,94.79,0,0,1-2.66-16.16c-.41-4.1-.69-8.22-1-12.34Z"/></g></svg>