<svg xmlns="http://www.w3.org/2000/svg" width="128" height="128" viewBox="0 0 128 128"><defs><style>.cls-1{fill:#231f20;}</style></defs><title>Free Icons</title><g id="Layer_1" data-name="Layer 1"><path class="cls-1" d="M103.36,68.74q2.36,4.55,4.93,9c.64,1.07,1.31,2.12,2,3.18,2.26,3.77,4.65,7.47,7.22,11,1.13,1.59,2.37,3.11,3.57,4.63.78,1,1.62,1.88,2.41,2.84.4.48.8.94,1.19,1.5a7.72,7.72,0,0,0,1,1.41c.5.41.39.65-.38.52a3.59,3.59,0,0,1-1.35-.74l-.7-.57a4.71,4.71,0,0,1-.75-.69c-.86-1-1.74-1.89-2.59-2.86s-1.66-2-2.46-3c-1.54-2.06-3-4.16-4.43-6.34-1.67-2.6-3.52-5.23-5.2-7.91-1.82-3-3.58-6-5.24-9-1-1.87-2-3.77-3-5.66-1.49-2.87-2.88-5.81-4.29-8.69a25,25,0,0,0-3.93-6,5,5,0,0,0-1-.82.83.83,0,0,0-.73,0l-.38.11-.5.1a5.06,5.06,0,0,1-.52.08c-.26,0-.4-.23-.39-.7a1.39,1.39,0,0,1,.09-.41,1.37,1.37,0,0,1,.26-.51,2.14,2.14,0,0,1,1.27-.93,2.38,2.38,0,0,1,1.37.06,2.91,2.91,0,0,1,.66.28A3.31,3.31,0,0,1,92,49a8.13,8.13,0,0,1,1.45,1.33,20.21,20.21,0,0,1,2.11,2.95c.61,1,1.17,2.09,1.68,3.15l1.5,3.12c1.51,3.09,3,6.18,4.67,9.21Z"/><path class="cls-1" d="M84.31,49.88a20.11,20.11,0,0,0-1.23-2.22c-.17-.25-.39-.47-.57-.73L82,46.26a1.33,1.33,0,0,0-.4-.38,5.26,5.26,0,0,0-1.34-.73A2.7,2.7,0,0,0,79,45a1,1,0,0,0-.51.23,1.54,1.54,0,0,0-.27.44c-.08.13-.46.16-.81-.06a1,1,0,0,1-.44-.55,1,1,0,0,1,.19-.9,2.31,2.31,0,0,1,.72-.6,3,3,0,0,1,.75-.25,3.91,3.91,0,0,1,1.32,0,5.79,5.79,0,0,1,2.14.78,6.67,6.67,0,0,1,1.28.89,12.34,12.34,0,0,1,.86.92,20.84,20.84,0,0,1,1.6,2.25c.3.47.58,1,.86,1.45.42.75.76,1.54,1.15,2.29.31.59.71,1.13,1,1.72.07.13.15.26.21.4.19.52,0,.75-.53,1l-.38.17A1.07,1.07,0,0,1,87.06,55a11.4,11.4,0,0,1-1.67-2.83c-.37-.73-.73-1.49-1.13-2.23Z"/><path class="cls-1" d="M76.62,46.66A18,18,0,0,0,75,43.78c-.24-.29-.51-.59-.77-.85a6.61,6.61,0,0,0-.7-.7,4,4,0,0,0-.75-.57A3.23,3.23,0,0,0,71,41.19a2.43,2.43,0,0,0-1.49.59,4.33,4.33,0,0,0-1.06,1.85c-.09.22-.41.19-.69-.09a1.35,1.35,0,0,1-.36-1.44,4,4,0,0,1,2.32-2.44,4.49,4.49,0,0,1,3.27.1,8.33,8.33,0,0,1,3,2.09,15.55,15.55,0,0,1,2.1,3.08c.36.65.69,1.33,1,2,.47,1,.88,2.06,1.34,3.07.35.78.81,1.5,1.2,2.26.09.17.19.32.26.49.28.64.23.89-.29,1.24a3.29,3.29,0,0,1-.33.23.89.89,0,0,1-1.17-.33A23.6,23.6,0,0,1,78,49.79c-.45-1.06-.9-2.11-1.41-3.11Z"/><path class="cls-1" d="M64.52,55.57l1.92,3.29,1,1.63.57.93c.3.5.62,1,1,1.51.14.31.3.64.41.92l0,.65a1.31,1.31,0,0,1-.26.65,1.82,1.82,0,0,1-.58.44,3.32,3.32,0,0,1-1.75.21c-.36,0-.73-.09-1.11-.16-.19,0-.37-.08-.56-.12l-.49-.12c-1.69-.42-3.31-.93-4.92-1.48-.79-.27-1.63-.58-2.38-.86s-1.53-.51-2.32-.73a28.12,28.12,0,0,0-4.71-1,7.93,7.93,0,0,0-2.19,0,1.89,1.89,0,0,0-.71.26.36.36,0,0,0-.17.29c-.18,1.06.61,2.35,1.72,3.42A31.86,31.86,0,0,0,56,70.18c2.59,1.39,5.26,2.61,8,4a13,13,0,0,1,2.09,1.26,20.16,20.16,0,0,1,1.67,1.66l3,3.31A64.2,64.2,0,0,0,77,86.45a18.87,18.87,0,0,0,3.16,2.07,17.65,17.65,0,0,0,1.71.75,20.26,20.26,0,0,1,1.91.81,33.08,33.08,0,0,1,6.7,4.52,70.24,70.24,0,0,1,7.27,7.16,95.17,95.17,0,0,1,6.33,7.9c1.23,1.7.78,1.71-.7.64-.74-.54-1.74-1.35-2.91-2.36s-2.39-2.29-3.68-3.7a94.33,94.33,0,0,0-7.13-7.15,28.8,28.8,0,0,0-8.1-5.32c-.63-.28-1.71-.64-2.51-1.07a21,21,0,0,1-2.39-1.44,34.06,34.06,0,0,1-4.13-3.48C70,83.3,67.89,80.47,65.62,78a11.31,11.31,0,0,0-1-1,8.15,8.15,0,0,0-1.16-.72c-.88-.48-1.82-.94-2.76-1.4C58.82,74,56.89,73.06,55,72.05a44.24,44.24,0,0,1-5.57-3.41,17.21,17.21,0,0,1-2.53-2.25,7.13,7.13,0,0,1-1.79-3.23A5.3,5.3,0,0,1,45,62.1c0-.18,0-.35,0-.54a2.82,2.82,0,0,1,.21-.64,2.48,2.48,0,0,1,.85-1,3.43,3.43,0,0,1,1-.49,9.41,9.41,0,0,1,3.67-.15,34.48,34.48,0,0,1,6.6,1.55c2.12.77,4.11,1.47,6.21,2.07.52.15,1,.29,1.55.41.24.06.46.11.7.15a2,2,0,0,0,.35,0c.11,0,.29,0,.3-.13a3.1,3.1,0,0,0-.35-.61l-.51-.83C62.73,57,59.91,52,57,47A52.17,52.17,0,0,1,51.7,35c-.33-1.05-.63-2.1-.89-3.16a21,21,0,0,1-.63-3.29,12.67,12.67,0,0,1,0-3.42,4.63,4.63,0,0,1,.26-.91,2.7,2.7,0,0,1,.62-.94,2.15,2.15,0,0,1,2.13-.4,6.26,6.26,0,0,1,2.39,1.46,14.61,14.61,0,0,1,1.74,2A40.71,40.71,0,0,1,60,30.64c1.56,2.85,3.41,5.6,5.19,8.37l2.38,3.64c3,4.59,3.7,6.19,3.78,7.5a5.52,5.52,0,0,1,0,.88c-.15.69-1.58-1-3.8-4.33-1.64-2.45-3.33-4.93-5-7.48q-1.24-1.9-2.47-3.87c-.81-1.28-1.63-2.71-2.34-4a33.87,33.87,0,0,0-2.33-3.77,7.28,7.28,0,0,0-2.77-2.49l-.13,0h0s0,0,0,0a2.33,2.33,0,0,0-.16.58,6.52,6.52,0,0,0-.09.94,15.93,15.93,0,0,0,.53,4.23,55.17,55.17,0,0,0,4.75,12.68l7,12.08Z"/><path class="cls-1" d="M112.18,101.63c-.56.46-1.19.84-1.79,1.25a20.73,20.73,0,0,1-1.94,1c-.49.19-1,.46-1.45.62a16.05,16.05,0,0,1-2.71.54c-.45,0-.9.13-1.35.13h-1.35c-.8,0-1.58-.09-2.37-.09a7,7,0,0,1-2.93-.59c-.29-.13-.18-.46.15-.8a2.39,2.39,0,0,1,1.4-.76l2.79.12c.47,0,.92,0,1.38,0a10.91,10.91,0,0,0,1.4,0,9.28,9.28,0,0,0,3.29-.83,11.86,11.86,0,0,0,1.7-.78c.27-.16.56-.3.83-.47l.77-.54a7.27,7.27,0,0,0,.92-.74,9.26,9.26,0,0,0,.86-.8A15,15,0,0,0,114,96.05a16.42,16.42,0,0,0,1-2.58c.07-.2.11-.4.19-.59.36-.67.69-.8,1.25-.75h.32c.24,0,.6.51.6,1.16a10.75,10.75,0,0,1-2.19,5.17,18.55,18.55,0,0,1-3,3.2Z"/><path class="cls-1" d="M116.42,104a1.27,1.27,0,0,0-.21-.36.35.35,0,0,0-.2-.14.24.24,0,0,0-.17.09.4.4,0,0,0-.08.39,1,1,0,0,0,.11.23l.06.12,0,.1,0,.07.08.22a3.75,3.75,0,0,1,.26,1.59c0,.26-.08.54-.14.78a3.25,3.25,0,0,1-.31.77,2.21,2.21,0,0,1-1,1,2.1,2.1,0,0,1-1.54,0,3.83,3.83,0,0,1-1.28-.89c-.13-.13-.24-.26-.35-.38l-.16-.19c0-.06,0,0,0-.06l-.13-.2-.29-.48a3.52,3.52,0,0,0-.39-.52.64.64,0,0,0-.63-.11.45.45,0,0,0-.27.47,2.29,2.29,0,0,0,.2.57l.3.63.07.18.11.3a3.48,3.48,0,0,1,.12.64,1.78,1.78,0,0,1,0,.4,3,3,0,0,1-.14.51,1.55,1.55,0,0,1-.7.69,3,3,0,0,1-.39.14l-.29,0a2.31,2.31,0,0,1-.64,0,2.71,2.71,0,0,1-.59-.2,5.32,5.32,0,0,1-1.44-1.16c-.4-.41-.65-.75-1-1.08a2,2,0,0,0-.41-.36.34.34,0,0,0-.24-.06c-.1,0-.15.14-.2.21a1.38,1.38,0,0,0,.13,1l.4.87a.29.29,0,0,1,0,.24.24.24,0,0,1-.14.21c-.18,0-.4,0-.92-.28a7.57,7.57,0,0,1-2-2,4.93,4.93,0,0,1-.68-1.36,2.51,2.51,0,0,1-.06-1.11,3.13,3.13,0,0,1,.75-1.42,3.57,3.57,0,0,1,.43-.34,2.11,2.11,0,0,1,.49-.2,1.7,1.7,0,0,1,.73,0,3,3,0,0,1,1.65.89,30.87,30.87,0,0,1,2.21,2.49l.55.59.27.28a3.71,3.71,0,0,0,.41.32c0,.05.09-.1,0,.29,0,.12,0,.25-.06.3v.08h0c0,.61,0-.83,0-.68h0a1.91,1.91,0,0,0,.08.34,1.08,1.08,0,0,1,0,.28c0,.06,0,.13.07.2a1.07,1.07,0,0,0,.13.19v0l0,0s-.07-.05-.1-.05a.36.36,0,0,0-.14,0h-.07l-.17,0a1.65,1.65,0,0,0-.61.07s0-.06,0-.15a5.11,5.11,0,0,0-.33-.71l-.4-.76a7.64,7.64,0,0,1-1-2.64,3.66,3.66,0,0,1,.18-1.61,2.74,2.74,0,0,1,.77-1.09,2.51,2.51,0,0,1,1.32-.59,2.19,2.19,0,0,1,1.2.18,5.55,5.55,0,0,1,1,.59,19.09,19.09,0,0,1,2.5,2.92l.33.39.18.19c.12.12.24.25.34.33a1.25,1.25,0,0,0,.21.15,2.64,2.64,0,0,0-.18.58c0,.13,0,.18,0,.12l-.11-.13a2.39,2.39,0,0,0-.25-.21l-.18-.11s0,0,0,0l0,0a2.37,2.37,0,0,0,.08-.31.82.82,0,0,0,0-.27.33.33,0,0,0,0-.15l0-.09-.12-.19a19.42,19.42,0,0,1-1.07-1.81,5.52,5.52,0,0,1-.46-1.59,4.78,4.78,0,0,1,.63-3,1.8,1.8,0,0,1,1.19-.9,2.24,2.24,0,0,1,1.27.3,5.84,5.84,0,0,1,1.44,1.15,16.79,16.79,0,0,1,1.48,1.89l.7,1c.21.29.33.45.49.65a1.92,1.92,0,0,0,.19.23l0,0c0-.08-.14.15-.22.31a.77.77,0,0,0-.16.33s0,0,0,.06,0,0,0,0l0,0h0a.18.18,0,0,0-.09,0,1.2,1.2,0,0,0-.31,0,1.81,1.81,0,0,0-.19,0l-.19,0v0l-.1-.26c-.19-.42-.47-.9-.74-1.37l-1-1.65A14.48,14.48,0,0,1,114.55,97a3.74,3.74,0,0,1-.09-1.6,1.81,1.81,0,0,1,1.16-1.35,1.77,1.77,0,0,1,1,0,2,2,0,0,1,.65.33,8.6,8.6,0,0,1,1.67,1.09c.68.64,1.39,1.34,2.13,2,.43.38.63.54.87.74l.73.6,1.3,1c1.61,1.27,2,1.76,1.91,2.65a6,6,0,0,1,0,.61c-.1.61-1.23.58-2.59-.29-1.81-1.08-4.58-3.51-4-2.82-.07,0,0,.19,0,.17h0l.13.24.67,1.23a12.32,12.32,0,0,1,.7,1.51l.09.31a3.29,3.29,0,0,1,.09.47,2.94,2.94,0,0,1,0,.42v.11c0,.07,0,.14,0,.21s-.09.27-.14.4a2.08,2.08,0,0,1-.74.84,2,2,0,0,1-1.38.27,2.22,2.22,0,0,1-.63-.22.84.84,0,0,1-.18-.11l-.12-.08a4.12,4.12,0,0,1-.32-.28,4.33,4.33,0,0,1-.34-.4c-.19-.24-.32-.43-.46-.64l-.12-.17s0,0,0,0l0-.07Z"/><path class="cls-1" d="M8.7,42l-.56.18a7.47,7.47,0,0,1-.89.21c-.31,0-.62,0-.94.07a4.71,4.71,0,0,1-.85-.1,2,2,0,0,1-.37-.22L4.91,42h0L5,41.92h0l0,0-.08-.07c-.23-.17-.22-.48-.24-.8a3.9,3.9,0,0,1,.21-1.06A5.22,5.22,0,0,1,5,39.37l.15-.45c.3-.82.63-1.6,1-2.39l1-2.33L7.6,33l.16-.32-.18-.11-.71-.42c-.75-.45-1.51-.91-2.25-1.43-.37-.27-.74-.54-1.1-.86A6.38,6.38,0,0,1,3,29.38a3.79,3.79,0,0,1-.26-.29,3.26,3.26,0,0,1-.27-.38,3.29,3.29,0,0,1-.56-1.63,1.57,1.57,0,0,1,.23-.73,1.94,1.94,0,0,1,.63-.5,4.22,4.22,0,0,1,.8-.33l.21-.07.13,0,.27-.07c.71-.19,1.4-.32,2.09-.45s1.39-.24,2.08-.34l1-.15.62-.08a.69.69,0,0,0,.1-.17l.22-.41.51-1c.35-.66.7-1.31,1.07-2s.74-1.3,1.15-1.94c.2-.32.41-.64.63-1l.35-.47c.13-.15.23-.3.45-.52a2.23,2.23,0,0,1,1.21-.76,1,1,0,0,1,.67.19,2.93,2.93,0,0,1,.58.45,6.07,6.07,0,0,1,.78.92c.22.29.41.58.6.87a39.65,39.65,0,0,1,2,3.57c.4.77.78,1.55,1.15,2.34l.24.52c0,.07.05.19.13.22l.92.15c1.69.29,3.38.62,5,1,2.09.5-.91,1.79-4.8,1.1l-1.3-.24L20.44,27a7.44,7.44,0,0,1-.55-1.17c-.38-.89-.7-1.59-1.08-2.39a39.1,39.1,0,0,0-2.44-4.43L16,18.58l-.18-.22v0s0-.07-.07-.05.05-.11-.29.31-.48.65-.72,1c-.92,1.4-1.78,2.93-2.62,4.46l-.38.71-.28.54c-.11.21-.22.41-.34.61l-1.48.19-1,.15c-.68.1-1.35.22-2,.35s-1.33.28-2,.45l-.4.12-.17.06c-.09,0-.24.11-.18.23A.63.63,0,0,0,4,27.7l.07.1.17.21a7.27,7.27,0,0,0,1,.91,20.12,20.12,0,0,0,2,1.39L8.34,31l1.75,1L8.85,34.7l-.91,2.08c-.3.7-.58,1.4-.86,2.09l-.34.91c0,.15-.11.32-.15.49s0,.16,0,.2l.21,0a1.64,1.64,0,0,0,.44,0l.23,0a4.14,4.14,0,0,0,.43-.13,14.94,14.94,0,0,0,1.72-.72,25.19,25.19,0,0,0,3.27-2A22,22,0,0,0,16,35.05c.42.41.89.85,1.29,1.21l.9.79c.61.53,1.24,1,1.88,1.5a21.25,21.25,0,0,0,2,1.33c.33.21.68.37,1,.55l.52.23a4.37,4.37,0,0,0,.46.16,1.67,1.67,0,0,0,.7.08c.1,0,.27,0,.26-.15a1.49,1.49,0,0,0-.05-.36l-.09-.33-.16-.44c-.13-.39-.28-.78-.43-1.17-.31-.77-.63-1.54-1-2.31l-1.16-2.7c-.2-.48-.42-1-.6-1.48l2-.32,1.9-.35,1.15-.18A2.88,2.88,0,0,1,28,31.2a4.3,4.3,0,0,1,.5.15c.22.09.1.39-.37.72a7.67,7.67,0,0,1-2.26.93l-1.43.35-.28.11c0,.06.08.12.11.17l.05.07a.22.22,0,0,1,0,.06l.1.22.78,1.8c.26.6.51,1.21.75,1.84l.36,1,.17.49.08.25.12.41c.39,1.25.47,2.55-.65,2.87l-.35.15a2.82,2.82,0,0,1-.42,0,6.61,6.61,0,0,1-.89,0,4.53,4.53,0,0,1-1-.23,3.52,3.52,0,0,1-.55-.2,18,18,0,0,1-3.72-2.19c-.71-.52-1.39-1-2.05-1.61l-1-.85L16,37.61h0c-.3.27-.62.51-.94.77-.64.49-1.29,1-2,1.39A22.59,22.59,0,0,1,8.72,42Z"/><path class="cls-1" d="M90.43,38.63l.22.78a8.31,8.31,0,0,1,.26,1.13,2,2,0,0,1-.36,1.74,3.57,3.57,0,0,1-.8.36,8,8,0,0,1-1,0,8.25,8.25,0,0,1-1-.23,3.59,3.59,0,0,1-.88-.32,12.72,12.72,0,0,1-1.76-.93,28.76,28.76,0,0,1-2.65-2.06Q81.8,38.59,81.2,38l-.6-.56-.19-.2-.14-.14a2.39,2.39,0,0,0-.22-.23l-.39.37-.38.34-.43.37a11.12,11.12,0,0,1-3.12,2.1c-.74.26-.87-1.93.2-2.66.56-.39,1.1-.79,1.64-1.2l.39-.3c.15-.12.2-.15.53-.44L80,34l2,2,1.1,1.13A17.43,17.43,0,0,0,86.7,39.8a9.13,9.13,0,0,0,1,.53l.27.13a1.55,1.55,0,0,0,.23.07.8.8,0,0,0,.27,0c.07,0,.22,0,.23-.07a1.51,1.51,0,0,0,0-.51l0-.17c0-.07,0-.09-.07-.24l-.22-.73c-.15-.49-.32-1-.49-1.46l-.81-2.21-1.14-2.86s-.07-.13-.05-.17c.81-.13,1.64-.28,2.47-.48.55-.15,1.09-.32,1.63-.48l.72-.25c.89-.29,1.13-.26,1.54.15.09.1.21.18.3.28.32.3,0,.89-.7,1.25a13.5,13.5,0,0,1-2.39.88l-.62.16-.14,0h0s0,0,0,0l0,0c.63,1.55,1.24,3.16,1.78,4.83Z"/><path class="cls-1" d="M71.89,24.33l1.27-.17.6-.08h.12l.06-.07.27-.52.61-1.13q.6-1.14,1.26-2.25a25.37,25.37,0,0,1,1.52-2.45c.13-.18.28-.37.43-.55s.18-.21.31-.34a3.44,3.44,0,0,1,.4-.37,1.84,1.84,0,0,1,.89-.45,1.37,1.37,0,0,1,.93.2c.2.15.38.33.57.49a4.5,4.5,0,0,1,.45.49c.21.27.39.54.57.8.35.54.66,1.08.95,1.62.59,1.09,1.12,2.2,1.63,3.31l.9,2,.14.32,0,.12s.08,0,.12,0l.83.13a42,42,0,0,1,5.46,1c1.11.33-.65,1.84-2.75,1.48l-2.79-.51-1.88-.36L84.47,27a1.83,1.83,0,0,1-.14-.32l-.27-.65-.32-.79c-.71-1.7-1.46-3.42-2.28-5.07a13.41,13.41,0,0,0-.8-1.38,7.41,7.41,0,0,0-.45-.61A1.39,1.39,0,0,0,80,18a.18.18,0,0,0-.26,0,.91.91,0,0,0-.22.22,16.81,16.81,0,0,0-1,1.38c-.59.92-1.15,1.9-1.69,2.88l-1.78,3.32-1.23.16c-1.54.21-3.1.44-4.6.77l-.84.22a3.77,3.77,0,0,0-.51.17c-.15.05-.32.16-.25.34a1.07,1.07,0,0,0,.17.46,3,3,0,0,0,.43.54,5.48,5.48,0,0,0,.61.56,11.69,11.69,0,0,0,1.39,1c.38.25.77.47,1.17.69l1.29.67.94.48.23.13L74,32s0,.08,0,.12l-.19.48-.63,1.66c-.14.38-.26.75-.41,1.12-.56,1.38-.86,1.77-1.45,1.88a2.79,2.79,0,0,1-.4.07c-.41,0-.47-.69-.14-1.75.25-.79.51-1.58.79-2.37l.11-.29v-.09s-.09,0-.11,0h0l-.07,0-.15-.08L71,32.55l-.57-.32c-.39-.22-.77-.44-1.15-.68A13.33,13.33,0,0,1,67,29.83c-.13-.14-.27-.27-.4-.43l-.2-.25a4.18,4.18,0,0,1-.25-.38,3.23,3.23,0,0,1-.53-1.7l0-.41c.08-.11.08-.27.16-.38a2,2,0,0,1,.58-.58,5.39,5.39,0,0,1,.84-.39l.42-.15.27-.07a38.79,38.79,0,0,1,3.91-.8Z"/><path class="cls-1" d="M36.72,28.08l-.2.06h-.1s-.09,0-.08.07a.15.15,0,0,0,0,.09l0,.06.18.23a8.36,8.36,0,0,0,1,.94,24.85,24.85,0,0,0,2.53,1.71l.38.22.56.32,1.39.77-.87,1.92c-.74,1.59-1.48,3.19-2.16,4.8L39,40.4a3.65,3.65,0,0,0-.19.53.39.39,0,0,0,0,.15c0,.05.08,0,.12.05a.8.8,0,0,0,.27,0,2.85,2.85,0,0,0,.29,0l.42-.1A19.56,19.56,0,0,0,44,39.1c1.67-1,3.26-2.21,4.79-3.34.46-.35.77,0,.7.73a3.73,3.73,0,0,1-1.57,2.45,29.59,29.59,0,0,1-5.53,3.15c-.5.2-1,.4-1.54.57-.13,0-.26.09-.4.12l-.5.13a8.29,8.29,0,0,1-1.38.18A1.92,1.92,0,0,1,38,43c-.19,0-.42,0-.53-.16l-.22-.14-.1-.07,0,0h0c-.06,0,.07-.07,0-.06h0l-.05,0a.62.62,0,0,1-.24-.41,5,5,0,0,1,.53-2.42l1.49-3.51.75-1.75.34-.78.14-.29v0l-.29-.17L39,32.7c-.59-.36-1.17-.74-1.75-1.14a14.94,14.94,0,0,1-1.68-1.36,5.1,5.1,0,0,1-.77-1,2.93,2.93,0,0,1-.5-1.41v-.16c0-.65.69-.93,1.28-1.16l.43-.14.33-.09.64-.15c.86-.2,1.71-.35,2.55-.49l1.54-.24,1.26-.17,1.09-1.76,1.27-2c.55-.85,1.09-1.69,1.69-2.51.15-.2.31-.41.48-.61l.27-.32c.13-.14.27-.26.41-.4a2.55,2.55,0,0,1,.93-.55,1,1,0,0,1,.95.21,5,5,0,0,1,.67.76l.45.56c1,1.28,1.18,1.76,1,2.35a3.14,3.14,0,0,1-.13.4c-.21.37-.85,0-1.66-.86l-.88-1c-.2-.23-.18-.18-.22-.21s-.06,0-.09,0-.1.1-.12.14,0,0,0,0l-.09.11-.2.23-.39.51c-1,1.39-2,2.95-3,4.51l-1.3,2.16-2.17.31-1.56.25a30,30,0,0,0-3,.63Z"/><path class="cls-1" d="M12.36,40.91a26.7,26.7,0,0,1-2.83,1.55c-.49.22-1,.44-1.51.62-.27.09-.53.18-.81.25l-.42.11c-.15,0-.24,0-.51.09a5.29,5.29,0,0,1-1.44,0l-.43-.23c0-.1,0-.07-.06-.12l-.09-.09c0-.07-.09-.12-.1-.2a2.31,2.31,0,0,1,0-1.11,9.15,9.15,0,0,1,.3-1.23l.29-1,.63-1.91L6.7,33.9l.13-.35c-.19-.12-1.26-.7-2-1.15a13.62,13.62,0,0,1-1.95-1.35,3.53,3.53,0,0,1-1.31-2.27c0-.63.43-.43.86-.15a7.49,7.49,0,0,1,1.47,1A13,13,0,0,0,5.82,31l1.09.67,1.87,1.1-.62,1.73-.36.92-.71,1.84a26.53,26.53,0,0,0-.88,2.65c-.13.45-.25.91-.35,1.35l-.08.37a.93.93,0,0,0,0,.24c0,.07.09.05.13.07a1,1,0,0,0,.25,0,3.19,3.19,0,0,0,.46-.09,8.92,8.92,0,0,0,1.27-.41,19,19,0,0,0,2.49-1.21,25.37,25.37,0,0,0,3.13-2.08c.26-.2.48-.39.74-.61s.69-.64,1-.95l1,1,.73.65c.48.42,1,.83,1.48,1.22a19.19,19.19,0,0,0,3.72,2.21c.28.14.56.2.84.32s.47.13.64.2a3.37,3.37,0,0,1,.41.13,1.26,1.26,0,0,1,.48.41c.07.09.17.18.23.27s.05.31-.21.46a2,2,0,0,1-1.24.19,11.15,11.15,0,0,1-4-1.7,28.81,28.81,0,0,1-3.43-2.59l-.65-.56h0l-.09.08c-.29.26-.6.49-.9.73-.61.47-1.24.91-1.88,1.33Z"/><path class="cls-1" d="M39.31,37.87l-1,2.08-.47,1-.22.52-.11.26,0,.06c0,.11-.12.31.06.3h0l.18,0H38l.34,0a11.54,11.54,0,0,0,1.41-.24,20.33,20.33,0,0,0,2.81-.8A14.72,14.72,0,0,0,44.9,40c1-.56,1.82-1.23,2.69-1.8.27-.18.55.13.6.62a1.8,1.8,0,0,1-.75,1.62,18.17,18.17,0,0,1-6.69,2.78l-1.88.37c-.34,0-.64.11-1,.13a5.6,5.6,0,0,1-1.49-.08L36,43.45l-.16-.09c0-.1-.07-.11-.09-.17-.25-.42,0-1.08.17-1.68.12-.36.17-.45.25-.66l.24-.55c.31-.73.65-1.45,1-2.16l1.27-2.62.44-.88.25-.49-1.68-1a20.4,20.4,0,0,1-2.94-1.87,4.75,4.75,0,0,1-.6-.59,1.92,1.92,0,0,1-.5-1.09A.6.6,0,0,1,34,29a.85.85,0,0,1,.28-.15c.34-.06.57.21.86.56a9.15,9.15,0,0,0,2.08,1.61c.41.26.84.51,1.29.76l1.5.86,1.48.82-2.12,4.39Z"/><path class="cls-1" d="M70.59,33.34c.22.06-.66-.5-1.16-.85-.21-.15-.44-.25-.64-.4a20.09,20.09,0,0,1-2.06-1.77c-.29-.29-.61-.56-.9-.89a2,2,0,0,1-.71-1.65c0-.22.46-.14.87-.06s.81.08.87.2a12.12,12.12,0,0,0,1.55,1.92,7.34,7.34,0,0,0,1.44,1.06l.83.56.42.29.21.13.33.21.8.49.1.06,0,0,0,.06-.1.22-.2.43-.5,1.07c-.13.29-.26.58-.37.87A13.93,13.93,0,0,0,71,36.73c0,.1,0,.21-.07.31-.13.38-.28.45-.71.37l-.29,0a.62.62,0,0,1-.49-.65,8.68,8.68,0,0,1,.73-2.62l.21-.47.1-.23h0s0,0,0,0Z"/></g></svg>