<svg xmlns="http://www.w3.org/2000/svg" width="128" height="128" viewBox="0 0 128 128"><defs><style>.cls-1{fill:#231f20;}</style></defs><title>Free Icons</title><g id="Layer_5" data-name="Layer 5"><path class="cls-1" d="M56,45.12a53.58,53.58,0,0,0-6-4.91,7.14,7.14,0,0,0-.76-.47c-.34-.17-.21-.16-.36-.16L47,39.69l-1,.07-.94.17-1.89.34a39.18,39.18,0,0,0-5.32,1.8l-1.16.46-1.13.54c-.75.38-1.51.72-2.25,1.11-1.44.85-2.92,1.64-4.3,2.61a62.86,62.86,0,0,0-8,6.22l-1.65,1.54c-.54.52-1.05,1.08-1.57,1.62-1.06,1.06-2,2.23-3,3.35A105.2,105.2,0,0,0,8.3,68.86c-.65,1-1.1.59-1.1-.58A7.8,7.8,0,0,1,7.6,66,12.43,12.43,0,0,1,9,63.24,64.55,64.55,0,0,1,16.77,54a66.65,66.65,0,0,1,9.31-7.76,57.68,57.68,0,0,1,13.09-7.07,32.45,32.45,0,0,1,8.1-1.69l1-.07.57,0c.23,0,.53-.11.75.09L50.7,38c.32.18.58.39.87.58.59.39,1.14.8,1.67,1.23s1.08.84,1.59,1.28c2.55,2.15,5,4.43,7.32,6.76,3.57,3.53,7,7.24,10.28,11,2.55,2.9,5.1,5.72,7.51,8.71.53.65,1,1.31,1.56,2,1.91,2.52,2.29,3.49,2.18,4.37a3.17,3.17,0,0,1-.09.6c-.23.51-1.28-.33-2.67-2.12-4.25-5.25-8.83-10.71-13.7-16-3.62-3.89-7.33-7.74-11.28-11.28Z"/><path class="cls-1" d="M79.4,17.21c-1.34.37-2.64.85-3.94,1.32s-2.56,1-3.85,1.59c-.94.38-1.78,1-2.69,1.4A43.51,43.51,0,0,0,60,27.34l-.91.77c-.29.26-.54.56-.82.85L56.68,30.7,55,33.16a28.71,28.71,0,0,1-1.61,2.5c-.38.5-.91.18-1.17-.58A3.87,3.87,0,0,1,52.56,32,30,30,0,0,1,62,23c1.08-.73,2.22-1.4,3.35-2.1s2.3-1.35,3.46-2,2.64-1.21,4-1.82,2.71-1,4.06-1.54l2.55-.79c.84-.28,1.7-.51,2.56-.72l2-.49c.66-.16,1.32-.27,2-.4s1.32-.28,2-.39l2-.3c1-.19,2.05-.31,3.07-.45.51-.06,1-.15,1.54-.2l1.56-.1c.46,0,.91-.07,1.37-.08,1.73.1,2.28.32,2.55,1a2.42,2.42,0,0,1,.18.46c.09.5-.63.85-1.81.9a83.4,83.4,0,0,0-10.83,1.27c-1.35.3-2.72.52-4.06.91l-2,.52-2,.62Z"/><path class="cls-1" d="M110.88,40.71l-3.14-5.53c-.39-.67-.81-1.33-1.18-2-1.29-2.41-2.54-4.85-3.66-7.37-.49-1.11-1-2.23-1.45-3.37a9.88,9.88,0,0,1-1-4.69c0-.52.38-.4.73,0a5.36,5.36,0,0,1,1,1.77A83.3,83.3,0,0,0,105.8,28c.77,1.72,1.83,3.38,2.79,5.05l3.23,5.5,2,3.37c1,1.7,2,3.43,3.09,5.1.82,1.3,1.72,2.52,2.53,3.82.18.3.36.57.52.87.62,1.11.54,1.62.29,2a2.26,2.26,0,0,1-.19.28c-.23.24-.71-.1-1.32-.78-1.62-2.14-3.07-4.56-4.6-7-1.12-1.8-2.22-3.63-3.32-5.47Z"/><path class="cls-1" d="M104.44,58.17a36.19,36.19,0,0,0-6,2.68c-.72.38-1.36.88-2,1.29a37.2,37.2,0,0,0-6.71,5.35,22,22,0,0,0-2.4,3c-.9,1.35-1.64,2.79-2.6,4.11-.31.41-.84.08-1.16-.59a2.76,2.76,0,0,1,.08-2.57,27.2,27.2,0,0,1,7.08-7.91c1.69-1.27,3.36-2.7,5.2-3.84a39.4,39.4,0,0,1,6.33-3.17,41.78,41.78,0,0,1,4.14-1.37,35.06,35.06,0,0,1,6.52-1.07,20.88,20.88,0,0,1,5.17.13,6.08,6.08,0,0,1,1.15.25c1.42.45,1.76.92,1.69,1.61a3.55,3.55,0,0,1-.06.47c-.18.49-.81.52-1.66.32a21.78,21.78,0,0,0-8.28-.2,32.84,32.84,0,0,0-6.37,1.6Z"/><path class="cls-1" d="M105.06,59.79a35.8,35.8,0,0,0-5.32,2.76c-.62.39-1.21.82-1.81,1.24a46.4,46.4,0,0,0-6.06,4.88,33,33,0,0,0-2.34,2.54A30.62,30.62,0,0,0,87,74.74c-.22.38-.4.27-.44-.19a3.59,3.59,0,0,1,.54-2,25.91,25.91,0,0,1,6.24-6.87c1.45-1.16,2.91-2.42,4.48-3.49A40.66,40.66,0,0,1,103.23,59a33.6,33.6,0,0,1,3.59-1.44,24.45,24.45,0,0,1,5.73-1.19,17.71,17.71,0,0,1,4.54.1,6.78,6.78,0,0,1,1,.19,3.54,3.54,0,0,1,1.24.52.91.91,0,0,1,.4.57,1.11,1.11,0,0,1,.05.3c0,.31-.56.36-1.37.16a23.55,23.55,0,0,0-3.76-.45,22.22,22.22,0,0,0-3.88.31,25.74,25.74,0,0,0-5.67,1.73Z"/><path class="cls-1" d="M103.7,63.7c-.78.33-1.57.62-2.33,1a25.43,25.43,0,0,0-2.27,1.15c-.54.29-1.06.63-1.58,1a41.84,41.84,0,0,0-5.37,3.78,22.26,22.26,0,0,0-2.1,2c-.42.46-.85.9-1.25,1.37a16.48,16.48,0,0,1-1.27,1.37c-.57.54-.85-.92.06-2.12A27.6,27.6,0,0,1,93.4,68c.66-.42,1.31-.89,2-1.37l2-1.33c.76-.43,1.53-.88,2.31-1.29s1.57-.8,2.39-1.13l1.5-.63,1.53-.56c.77-.29,1.58-.47,2.36-.72s1.61-.38,2.41-.53a21.92,21.92,0,0,1,3.8-.46c.29,0,.57,0,.86,0,1.08.13,1.38.43,1.5.8a.9.9,0,0,1,.08.25c0,.12-.09.21-.3.29a1.84,1.84,0,0,1-.84.14,25.56,25.56,0,0,0-6.45.76c-.82.17-1.62.46-2.43.67s-1.61.54-2.39.89Z"/><path class="cls-1" d="M30.49,87.09q3.86,3,7.55,6.14c.9.77,1.84,1.49,2.71,2.29,1.55,1.4,3,2.87,4.51,4.36.73.74,1.43,1.53,2.15,2.29l1,1.19.49.56.22.28.17.22.38.48s.06.09.1.1l0-.15.07-.29c.05-.2.11-.4.17-.58l.09-.28.26-.59a10.12,10.12,0,0,1,2.2-3.16,7.29,7.29,0,0,1,3.43-1.82c.81-.15.79.5.41,1.24a8.11,8.11,0,0,1-1.81,2.31,8.17,8.17,0,0,0-2.14,2.94s-.1.24-.17.41-.13.34-.19.53c-.12.35-.22.73-.32,1.11l-.16.57a2.79,2.79,0,0,1-.33.19l-.57.07-.37,0h-.09c0-.15.27,1.35.14.71h0l0,0-.07,0-.29-.12-1.15-.49c-.57-.7-1.1-1.39-1.69-2.08l-.88-1c-.56-.7-1.17-1.36-1.76-2a68.29,68.29,0,0,0-6.35-6c-2.42-2.11-4.91-4.17-7.45-6.15-1.57-1.22-3.14-2.43-4.76-3.59-2.42-1.77-4.95-3.45-7.42-5.18-1.93-1.34-3.87-2.58-5.75-4-.41-.3-.83-.59-1.23-.92-1.49-1.23-1.82-1.81-1.67-2.55a1.93,1.93,0,0,1,.11-.5c.22-.48,1-.23,2.14.57C15.46,76.48,19,79,22.53,81.37c2.67,1.77,5.39,3.71,8,5.66Z"/><path class="cls-1" d="M52.05,103.9c.37-.48.75-1,1.14-1.42.14-.17.26-.35.41-.52a13.33,13.33,0,0,1,1.78-1.57c.29-.2.58-.42.9-.61a1.83,1.83,0,0,1,1.47-.25c.16,0,.07.29-.06.53s-.25.48-.4.55a9.55,9.55,0,0,0-1.89,1.13,6,6,0,0,0-1,1.13c-.37.43-.73.89-1.07,1.36-.21.29-.41.59-.61.89a15.15,15.15,0,0,0-.83,1.4c-.19.38-.29.79-.44,1.18a2.5,2.5,0,0,1-.09.25c-.15.31-.27.38-.57.32l-.2,0a.45.45,0,0,1-.31-.54,6.51,6.51,0,0,1,.81-2.27c.3-.52.64-1,1-1.53Z"/><path class="cls-1" d="M34.58,98.55,28.83,94c-.71-.53-1.44-1-2.16-1.54-1.26-.92-2.55-1.81-3.85-2.68s-2.59-1.76-3.94-2.55c-1.19-.72-2.4-1.42-3.6-2.1-1.55-.86-3.09-1.76-4.56-2.76-.45-.32-.29-.47.22-.43a6.35,6.35,0,0,1,2.31.69c1.64.81,3.22,1.72,4.79,2.64s3.15,1.85,4.65,2.91c1.8,1.25,3.75,2.46,5.58,3.77,2,1.46,3.92,3,5.87,4.5l3.59,2.81c1.8,1.43,3.56,2.93,5.27,4.45,1.33,1.19,2.67,2.31,3.9,3.58.28.27.55.54.82.83,1,1.1,1.14,1.54,1.11,2a1.29,1.29,0,0,1,0,.29c-.09.25-.63-.06-1.4-.77-2.31-2.09-4.63-4.33-7.13-6.45q-2.79-2.37-5.71-4.62Z"/><path class="cls-1" d="M34.36,100.39c-1.83-1.27-3.67-2.53-5.54-3.75-.67-.45-1.38-.84-2.07-1.29q-3.6-2.35-7.28-4.59c-1.09-.66-2.2-1.29-3.3-1.92-1.42-.8-2.86-1.55-4.22-2.49-.42-.3-.23-.45.25-.43a5.49,5.49,0,0,1,2.12.63c1.47.77,2.94,1.55,4.38,2.38s2.86,1.72,4.27,2.64c1.67,1.1,3.5,2.11,5.23,3.21,1.91,1.22,3.8,2.46,5.66,3.74,1.15.77,2.27,1.6,3.41,2.4,1.7,1.23,3.39,2.52,5,3.84.65.48,1.25,1,1.88,1.53l.94.78.87.85.77.76c.84,1.08,1,1.52.91,1.91a1.37,1.37,0,0,1,0,.25c-.08.19-.63-.09-1.24-.77a70.69,70.69,0,0,0-6.6-5.7l-2.68-2-2.75-1.94Z"/><path class="cls-1" d="M79.61,30.44a29.1,29.1,0,0,1,3.26-1.11c.39-.13.79-.26,1.2-.36a35.39,35.39,0,0,1,4.32-.72L90.32,28c.41,0,.82-.09,1.23-.12a8.58,8.58,0,0,1,1.24.06c.51.06-.14,1-1,1.14-1.62.15-3.21.34-4.84.54a16.79,16.79,0,0,0-2.91.74,31.19,31.19,0,0,0-3.12,1.1c-.63.26-1.25.53-1.86.84a20.13,20.13,0,0,0-2.66,1.56,17.6,17.6,0,0,0-1.76,1.57l-.36.37c-.46.44-.68.5-1.06.3L72.93,36c-.27-.18-.25-.56.06-1a12,12,0,0,1,3.49-3,25.28,25.28,0,0,1,3.11-1.59Z"/><path class="cls-1" d="M82.68,39.27c.79-.4,1.61-.75,2.42-1.08.3-.12.58-.27.89-.38,1.06-.38,2.15-.7,3.23-1,.48-.13,1-.27,1.43-.42A6.17,6.17,0,0,1,92.51,36c.4,0,.1,1-.55,1.27-1.19.37-2.38.71-3.61,1a12.27,12.27,0,0,0-2.14.86c-.77.34-1.54.7-2.29,1.1-.47.24-.93.49-1.37.77a17.88,17.88,0,0,0-2,1.33,15.55,15.55,0,0,0-1.27,1.3L79,44c-.35.35-.53.38-.89.16L77.9,44a.59.59,0,0,1-.06-.85,9,9,0,0,1,2.53-2.47,25.57,25.57,0,0,1,2.29-1.41Z"/><path class="cls-1" d="M32.82,59.55c1.13-.86,2.29-1.7,3.49-2.47.44-.28.86-.59,1.31-.85.8-.46,1.62-.87,2.4-1.3s1.59-.86,2.42-1.27,1.46-.72,2.23-1a5.38,5.38,0,0,1,3.2-.47c.35.08.23.36-.06.63a2.68,2.68,0,0,1-1.19.65,24.08,24.08,0,0,0-5.43,2.34c-1.11.58-2.2,1.3-3.25,2s-2.29,1.56-3.4,2.41q-1,.78-2,1.62c-1,.84-2,1.72-2.88,2.65-.7.72-1.32,1.5-2,2.26-.14.16-.27.34-.42.5-.55.6-.8.73-1.2.61a2,2,0,0,1-.26-.08c-.26-.13-.21-.53.12-1.06a22.68,22.68,0,0,1,3.63-4.33c1-1,2.13-1.93,3.25-2.83Z"/><path class="cls-1" d="M69.94,82.8A13.65,13.65,0,0,0,70.22,86a5.75,5.75,0,0,0,.21.74,3.71,3.71,0,0,0,.27.68,3.5,3.5,0,0,0,.35.6l.08.12.07.07c.07.06.14.15.2.17s.16.12.22.11.09,0,.21-.07a3.24,3.24,0,0,0,.86-1,21.43,21.43,0,0,0,1.46-3c.66-1.56,1.18-3.2,2-4.82a9,9,0,0,1,1-1.7A2.11,2.11,0,0,1,79.64,77,4.28,4.28,0,0,1,82,80.86a14.35,14.35,0,0,1-.36,3.86c-.26,1.23-.61,2.42-.93,3.58-.08.29-.15.56-.21.84s-.16.65-.26.94c-.19.61-.41,1.19-.61,1.76a15.19,15.19,0,0,0-1.17,7.54,12.18,12.18,0,0,0,1.68,4.5L80.8,105a8.84,8.84,0,0,1,.59,1.26,20,20,0,0,0,.94,2.26c.23.39.3.57.19.69s-.44.1-.89-.19a5.66,5.66,0,0,1-1.4-1.49c-.23-.33-.45-.69-.68-1-.11-.18-.22-.33-.33-.48s-.24-.32-.39-.55a13.24,13.24,0,0,1-2.24-5.23,14.36,14.36,0,0,1,.19-5.7,51.77,51.77,0,0,1,1.67-5.06c.06-.2.1-.37.15-.56l.18-.67.37-1.28c.25-.83.49-1.66.69-2.48a11.56,11.56,0,0,0,.38-3.37,3.87,3.87,0,0,0-.35-1.45,1.79,1.79,0,0,0-.38-.51c-.08-.07-.13-.17-.23-.21l-.15-.09a.29.29,0,0,0-.39.09,3.48,3.48,0,0,0-.27.34c-.1.17-.21.33-.31.52a24.33,24.33,0,0,0-1.09,2.41,37.67,37.67,0,0,1-3,6.6,3.78,3.78,0,0,1-1.68,1.46,2,2,0,0,1-1.38,0,2.55,2.55,0,0,1-1-.65A7,7,0,0,1,68.31,86,24.14,24.14,0,0,1,68.77,77a31.21,31.21,0,0,1,1.1-4c.12-.32.24-.64.37-1l.3-.73c.07-.17.15-.34.21-.52s.18-.41,0-.52c-.44-.31-1,0-1.31.33a2.66,2.66,0,0,0-.28.29,6,6,0,0,0-.38.47,8.91,8.91,0,0,0-.68,1,21.32,21.32,0,0,0-2.71,9.33c0,.72,0,1.41,0,2.12.17,2.61.34,3.42.18,4.1a3.8,3.8,0,0,1-.1.47c-.08.18-.27,0-.59-.41a7.26,7.26,0,0,1-1-2.26,19.07,19.07,0,0,1,.6-9.61,21.3,21.3,0,0,1,2-4.6,11.92,11.92,0,0,1,.71-1.09c.14-.18.26-.36.41-.53l.23-.27a4.51,4.51,0,0,1,.38-.38,4.87,4.87,0,0,1,.89-.71,3.36,3.36,0,0,1,.92-.44,2.5,2.5,0,0,1,1.73.06c.22.11.43.23.65.36.26.39.48.54.52.93a2.65,2.65,0,0,1-.18,1.35c-.17.5-.42,1.1-.6,1.53l-.31.78a25.7,25.7,0,0,0-1,3.12,29.5,29.5,0,0,0-.9,6.5Z"/><path class="cls-1" d="M60.09,78.32a34.28,34.28,0,0,1,.23-5,15.21,15.21,0,0,1,.28-1.86,10.66,10.66,0,0,1,.69-2,5.63,5.63,0,0,1,.56-1,4.41,4.41,0,0,1,.91-1,1.47,1.47,0,0,1,.39-.21.92.92,0,0,1,.43-.11,1.81,1.81,0,0,1,.86.19,2.57,2.57,0,0,1,.7.5,3.09,3.09,0,0,1,.45.53,7.69,7.69,0,0,1,1.21,2.82,6.68,6.68,0,0,1-.06,3.76c-.12.37-.45.24-.78-.12a2.7,2.7,0,0,1-.46-.68,1.75,1.75,0,0,1-.28-.85,8.74,8.74,0,0,0-.61-3A4,4,0,0,0,64,69.1c-.08-.1-.06-.09-.08-.11a.15.15,0,0,0-.05-.07.17.17,0,0,0-.17,0h0s-.14.12-.24.21l-.27.37a5.06,5.06,0,0,0-.41.88,13.1,13.1,0,0,0-.51,2,28,28,0,0,0-.37,4.78c0,1,0,2,.1,3a42.57,42.57,0,0,0,.55,4.52,31.36,31.36,0,0,0,.91,3.36c.07.24.17.48.22.73.23.92.19,1.24-.16,1.55a2.25,2.25,0,0,1-.24.21c-.29.18-.67-.12-1-.78a23.41,23.41,0,0,1-1.72-6.41,46.58,46.58,0,0,1-.46-5Z"/><path class="cls-1" d="M56.27,84.16q-.48-1.62-.87-3.27c-.1-.4-.23-.8-.31-1.21a16,16,0,0,1-.26-2.23,7.33,7.33,0,0,1,.06-1.22A3.63,3.63,0,0,1,55.38,75a2.12,2.12,0,0,1,1-.92,1.66,1.66,0,0,1,1.37.14,4.62,4.62,0,0,1,1.12.89,3.51,3.51,0,0,1,.7,1c.11.24-.16.4-.56.45a1.66,1.66,0,0,1-1.25-.27,4.24,4.24,0,0,0-.74-.58,0,0,0,0,0,0,0s0,0-.06,0a1.89,1.89,0,0,0-.22.36c-.1.16-.1.22-.17.32s-.07.3-.08.48a9.13,9.13,0,0,0,.4,2.81c.24,1.06.52,2.13.83,3.19.2.65.4,1.3.62,1.94.35,1,.69,2,1.11,2.88.17.38.35.68.56,1.09a5.77,5.77,0,0,1,.43,1.27l.11.5a.87.87,0,0,1-.31,1l-.2.21c-.2.23-.66.09-1-.47-.39-.82-.46-1.5-.7-1.89-.31-.6-.65-1.34-.93-2-.43-1-.79-2.12-1.15-3.2Z"/><path class="cls-1" d="M56.35,93.79a65.09,65.09,0,0,0,5.13,4.59c.66.55,1.35,1.06,2,1.64a48.73,48.73,0,0,1,6.26,6.66c.82,1.09,1.63,2.19,2.33,3.34a13.6,13.6,0,0,1,2,4.81c.1.54-.25.55-.72.23a5.05,5.05,0,0,1-1.52-1.76,37.8,37.8,0,0,0-5.7-8.21,37,37,0,0,0-4.62-4.28c-1.78-1.5-3.63-3-5.37-4.63a33,33,0,0,1-3-3.25,20.37,20.37,0,0,1-1.92-2.8,8.24,8.24,0,0,1-.7-1.6,2.92,2.92,0,0,1,0-2.08A1.54,1.54,0,0,1,52,85.67a1.57,1.57,0,0,1,.83.24l.39.24.29.22c.7.56,1.3,1.12,1.93,1.68.27.24.55.46.81.71,1,.88,1.11,1.28,1.16,1.75a2,2,0,0,1,0,.32c0,.16-.15.23-.47.2a2.93,2.93,0,0,1-1.22-.44,14.06,14.06,0,0,1-1.84-1.46c-.56-.5-1.15-1.07-1.64-1.46-.14-.12-.12-.09-.13-.09s0,0,0,0a0,0,0,0,0,0,0s0,0,0,0a4.53,4.53,0,0,0,.3.84,21.22,21.22,0,0,0,4,5.25Z"/><path class="cls-1" d="M46.06,59.69c.4-.3.8-.58,1.22-.86.15-.09.28-.22.44-.31a17.09,17.09,0,0,1,1.71-.86c.27-.11.52-.24.78-.35a2.47,2.47,0,0,1,1-.31c.22,0,.17.8-.15,1l-.87.48c-.31.13-.62.27-.95.39a5.45,5.45,0,0,0-1.06.68c-.38.27-.78.53-1.15.82s-.47.36-.69.55-.68.58-1,.9-.42.55-.66.79a1.29,1.29,0,0,1-.16.17c-.22.19-.34.2-.55.06l-.14-.09a.41.41,0,0,1-.07-.51,4.48,4.48,0,0,1,1.12-1.58c.35-.34.73-.65,1.11-1Z"/><path class="cls-1" d="M70.5,59.78C68.77,57.86,67,56,65.19,54.13l-2-2q-3.52-3.54-7.21-6.9c-1.1-1-2.24-1.94-3.38-2.85-.74-.58-1.5-1.14-2.25-1.69s-1.5-1.15-2.23-1.58c-.21-.12-.24-.19-.25-.3s.16-.24.47-.25a4.57,4.57,0,0,1,2.54.81A73.22,73.22,0,0,1,59.75,47c1.65,1.65,3.47,3.26,5.16,4.94,1.87,1.84,3.69,3.73,5.48,5.65q1.65,1.77,3.26,3.58c1.63,1.82,3.21,3.7,4.77,5.56C79.63,68.14,80.86,69.53,82,71c.26.33.51.64.76,1,.91,1.25,1,1.77.94,2.22,0,.1,0,.23-.07.3-.13.26-.67-.13-1.42-1-2.14-2.51-4.3-5.23-6.57-7.88-1.68-2-3.4-3.94-5.17-5.86Z"/><path class="cls-1" d="M26.69,86.1C28.85,87.68,31,89.3,33.07,91c.76.6,1.54,1.18,2.3,1.8q4,3.27,7.71,6.83c1.09,1.06,2.23,2.09,3.29,3.17a34.26,34.26,0,0,1,3.87,4.38c.36.5.08.61-.47.41A6.3,6.3,0,0,1,47.65,106c-2.67-2.84-5.49-5.54-8.39-8.26-1.72-1.62-3.68-3.13-5.59-4.64q-3.14-2.49-6.37-4.86c-1.33-1-2.66-1.93-4-2.85-2.07-1.4-4.13-2.86-6.14-4.32C15.57,80,14,78.87,12.5,77.68c-.33-.26-.67-.5-1-.79-1.19-1-1.44-1.52-1.47-2a1.71,1.71,0,0,1,0-.32c.06-.27.66,0,1.59.68,2.7,2,5.53,4.16,8.47,6.2,2.17,1.53,4.41,3,6.61,4.6Z"/><path class="cls-1" d="M34.89,100.46c-1.74-1.28-3.5-2.54-5.29-3.76-.65-.46-1.33-.86-2-1.3-2.29-1.58-4.62-3.12-7-4.63-1.05-.65-2.12-1.3-3.18-1.92-1.36-.81-2.75-1.57-4.05-2.5-.41-.29-.22-.44.26-.43a5,5,0,0,1,2.06.62c1.42.78,2.83,1.56,4.22,2.4s2.74,1.73,4.09,2.65c1.61,1.11,3.36,2.13,5,3.24q2.75,1.83,5.42,3.75c1.11.78,2.17,1.61,3.26,2.41,1.64,1.24,3.24,2.53,4.8,3.84.63.48,1.2,1,1.81,1.53A16.41,16.41,0,0,1,46.08,108l.73.75c.81,1.06,1,1.48.86,1.87,0,.09,0,.19-.06.25s-.63-.08-1.22-.75a78.18,78.18,0,0,0-6.32-5.64l-2.57-2-2.62-2Z"/><path class="cls-1" d="M77.31,109.81a18,18,0,0,1-2,.85c-.25.09-.48.22-.73.29a8.67,8.67,0,0,1-2.8.4,4.06,4.06,0,0,1-1.37-.23,1.64,1.64,0,0,1-.81-.65,1.31,1.31,0,0,1-.18-1c0-.2.35-.14.68,0s.68.19.73.21.08,0,.15.06a1.73,1.73,0,0,0,.37.07,10.07,10.07,0,0,0,1.22,0,5.23,5.23,0,0,0,1.63-.48c.6-.23,1.2-.49,1.78-.78.35-.19.71-.38,1-.6a7,7,0,0,0,1.4-1.12,3.21,3.21,0,0,0,.61-1.13,2,2,0,0,1,0-.24c.07-.25.18-.25.69-.26h.35a.62.62,0,0,1,.68.68,4.05,4.05,0,0,1-1.65,2.76,12.82,12.82,0,0,1-1.84,1.23Z"/><path class="cls-1" d="M78.33,111s0,0,0,.06,0,0,0,.08l0,.32c0,.22.07.41.09.73a1.88,1.88,0,0,1,0,.4,1.64,1.64,0,0,1-.07.23,1,1,0,0,1-1.17.56,1,1,0,0,1-.3-.14,2,2,0,0,1-.43-.47,3,3,0,0,1-.42-1.18c-.06-.31-.11-.59-.18-.83a1.28,1.28,0,0,0-.1-.26c0-.08-.11-.06,0-.13s.13-.22.14-.15a.54.54,0,0,0,0,.25l0-.18,0-.05,0,0a1,1,0,0,0,.23.13s0,0,0,.1a2.24,2.24,0,0,0,0,.52c0,.1,0,.19,0,.32l.11.57c.08.38.17.76.22,1.1a2.4,2.4,0,0,1-.17,1.44.62.62,0,0,1-.25.26.67.67,0,0,1-.36.05,1.68,1.68,0,0,1-.63-.24l-.08,0a5,5,0,0,1-1.24-1.21,8.17,8.17,0,0,0-.58-.68l-.17-.15h0a1.61,1.61,0,0,0,.09-.21c.06-.13,0-.19,0-.14a.68.68,0,0,0,.23.12c.16,0,.09,0,.11,0a.47.47,0,0,0,0,.12,1.22,1.22,0,0,0,0,.32,3.5,3.5,0,0,0,.21.65c.2.43.38.9.62,1.37.14.29-.07.41-.47.34a2,2,0,0,1-1.37-1,4.45,4.45,0,0,1-.43-1.29,2.78,2.78,0,0,1,0-.88,1.23,1.23,0,0,1,.26-.53,1,1,0,0,1,.47-.32,1,1,0,0,1,.3,0l.21,0a1.4,1.4,0,0,1,.69.33,3.49,3.49,0,0,1,.27.26c.09.08.06.06.07.08v0a.9.9,0,0,0,.06.14s.09.15.18.19a.11.11,0,0,0,.13,0,.33.33,0,0,0,0-.21l-.09-.56a2.93,2.93,0,0,1,.06-1.36,1.38,1.38,0,0,1,.75-.81,1.34,1.34,0,0,1,.52-.1,1.25,1.25,0,0,1,.57.13,1.72,1.72,0,0,1,.78.91,6.12,6.12,0,0,1,.23.79l.15.7a2.46,2.46,0,0,0,.07.29.72.72,0,0,0,0,.14l.07.09h0l-.06.06a1.34,1.34,0,0,0-.11.14c-.07.12-.12.14-.14.2a.62.62,0,0,1,0,.1c0-.09-.8-.1-.58-.12v-.14l-.11-.79a6.91,6.91,0,0,1-.11-1.95,2.12,2.12,0,0,1,.57-1.36,2.2,2.2,0,0,1,.25-.17c.1-.06.2-.11.25-.07l.37.14c.2.25.41.49.63.77l.64.91c.1.14.23.32.32.43a1.94,1.94,0,0,0,.23.26,1.16,1.16,0,0,0,.21.19l.05,0a.37.37,0,0,0,0,.18s0,0,0,0v0a.22.22,0,0,0,0-.08.21.21,0,0,0-.13-.09.41.41,0,0,1,0-.07.75.75,0,0,0,0-.22,2,2,0,0,0-.21-.56c-.21-.4-.53-.81-.82-1.31a3.59,3.59,0,0,1-.37-.76,1.72,1.72,0,0,1,0-.87,1,1,0,0,1,.34-.58.56.56,0,0,1,.7-.07,1,1,0,0,1,.26.17c.21.19,0,.74.16.77s.2.4.46.76a8.72,8.72,0,0,1,.81,1.35,2.85,2.85,0,0,1,.27,1.08,2.15,2.15,0,0,1-.09.73,3.2,3.2,0,0,1-.16.39,1.62,1.62,0,0,1-.58.55,1.43,1.43,0,0,1-.9.1l-.32-.11-.18-.1a3,3,0,0,1-.5-.4,4.6,4.6,0,0,1-.31-.35l-.07-.08h0v0c0-.06-.06-.06-.06,0Z"/></g></svg>