<svg xmlns="http://www.w3.org/2000/svg" width="128" height="128" viewBox="0 0 128 128"><defs><style>.cls-1{fill:#221f1f;}.cls-2{fill:none;stroke:#221f1f;stroke-miterlimit:10;stroke-width:3px;}.cls-3{fill:#231f20;}</style></defs><title>Free Icons</title><g id="Layer_13" data-name="Layer 13"><path class="cls-1" d="M74.35,66.9c-1,2.94-1.87,5.95-3.18,9a14.67,14.67,0,0,1-1.81,3.44c-.23.25-.45.5-.7.74a5.16,5.16,0,0,1-1,.66,3.67,3.67,0,0,1-2.45.35,4.39,4.39,0,0,1-1.93-1,9.37,9.37,0,0,1-1.22-1.22,50.94,50.94,0,0,1-3.61-5.07c-1-1.5-2-2.95-3.13-4.3a24.45,24.45,0,0,0-2.2-2.42,6.64,6.64,0,0,0-2.32-1.62c-.4-.09-.64-.64.11-1.2a2.54,2.54,0,0,1,1.68-.3,4.08,4.08,0,0,1,2,.87,26.3,26.3,0,0,1,4.86,5.53c1.36,1.92,2.6,3.9,3.89,5.72a10,10,0,0,0,1.25,1.46,2.38,2.38,0,0,0,1.11.72c.32,0,.44,0,.78-.31a5.08,5.08,0,0,0,.91-1.37A28.54,28.54,0,0,0,69,72.41l1.39-4.5C71,66,71.56,64.17,72.21,62.3A56.21,56.21,0,0,1,75.82,54a27.34,27.34,0,0,1,4-6,15.48,15.48,0,0,1,1.15-1.14c1.61-1.29,2.39-1.32,3.2-.65a4.1,4.1,0,0,1,.53.48c.49.62.12,1.49-.74,2.32a25.46,25.46,0,0,0-3.42,4.25,37.17,37.17,0,0,0-2.82,5.06,71.71,71.71,0,0,0-3.25,8.55Z"/><path class="cls-2" d="M117.36,63.84c0,7.32-10.87,12-14,18.15-3.26,6.29-.76,17.78-6.35,22.06s-16-1.14-23,.36c-6.75,1.46-14.13,10.74-21.19,8.83-5-1.34-5.61-12.1-9.73-14.9s-14.39.53-17.44-3.47,2.87-13,1.22-17.75S15,69,15,63.84c0-7.39,10.9-12,14.18-18,3.35-6.2,1.14-17.71,6.88-21.87s16.06,1.51,23,0c6.79-1.48,14-10.94,21-9.37,5,1.11,5.78,11.83,9.87,14.65s14.29-.36,17.25,3.71S104,45.83,105.6,50.59,117.36,58.82,117.36,63.84Z"/><path class="cls-2" d="M51.15,112.87c-5.5-1.3-6.76-12.32-11.08-14.91-4.72-2.83-15.09,1-18.34-3.06s2.59-13.53.89-18.57S10.51,67.67,10.51,62.24c0-7.67,11.34-12.6,15-19.1s1.8-18.67,8-22.95,16.74,1.74,24.2.79c7.21-.91,16.09-9.4,23.38-6.2"/><path class="cls-3" d="M98.93,25.75c-.56.05-1.08.1-1.62.2s-1.15.21-1.8.26A4.59,4.59,0,0,1,94,26.14a3.13,3.13,0,0,1-1.29-.67,4.41,4.41,0,0,1-.84-1.06,8.21,8.21,0,0,1-.78-2.26c-.14-.65-.28-1.29-.46-1.88a9.92,9.92,0,0,0-.95-2.05c-.12-.2.08-.41.46-.44a1.35,1.35,0,0,1,1.24.64c1,1.72,1.13,3.48,1.6,4.84a2.06,2.06,0,0,0,.69,1,1.94,1.94,0,0,0,1,.37,16.49,16.49,0,0,0,3.24-.39c.72-.09,1.44-.16,2.17-.2a22.71,22.71,0,0,1,3.3.1,21.16,21.16,0,0,1,2.52.32,3.45,3.45,0,0,1,.54.11c.67.19.82.42.85.79a1.06,1.06,0,0,1,0,.24c0,.24-.35.42-.85.41-1.47-.07-2.88-.26-4.31-.33a19.65,19.65,0,0,0-3.24.13Z"/><path class="cls-3" d="M35.15,101.48a5.7,5.7,0,0,1,3.15,1.75,7.27,7.27,0,0,1,.78,1,24.22,24.22,0,0,1,1.71,3.84l.66,1.7a17.93,17.93,0,0,1,.79,2.19c.13.47-.77.17-1.14-.65-.65-1.45-1.21-2.9-1.79-4.35a11.29,11.29,0,0,0-1.42-2.43,4.27,4.27,0,0,0-2.3-1.61,6.44,6.44,0,0,0-1.82-.22,12.26,12.26,0,0,0-2.87.4c-.74.19-1.44.49-2.16.74l-.49.16c-.61.15-.84.09-1.05-.21-.05-.07-.1-.14-.14-.21-.11-.25.09-.53.5-.73a14.77,14.77,0,0,1,4.09-1.33,10.27,10.27,0,0,1,3.51-.1Z"/></g></svg>