<svg xmlns="http://www.w3.org/2000/svg" width="128" height="128" viewBox="0 0 128 128"><defs><style>.cls-1{fill:#231f20;}</style></defs><title>Free Icons</title><g id="Layer_48" data-name="Layer 48"><path class="cls-1" d="M48.31,87.31a14.36,14.36,0,0,0,3.06,3.5,10.69,10.69,0,0,0,1.4,1,18.08,18.08,0,0,0,5.56,2.52l1.34.3c.45.09.92.09,1.37.14,1.17.18,2.34.06,3.53.27.37,0,.34.25,0,.49a3.19,3.19,0,0,1-1.6.63,12.05,12.05,0,0,1-1.9,0A12.29,12.29,0,0,1,59.2,96l-1.87-.42c-.6-.21-1.21-.44-1.8-.68s-1.4-.67-2.12-1-1.37-.79-2-1.2a16.8,16.8,0,0,1-3.66-3.63l-.48-.64-.39-.69a10.33,10.33,0,0,1-.75-1.39,13.19,13.19,0,0,1-.82-2.25,14.44,14.44,0,0,1-.5-2.33,17.27,17.27,0,0,1-.15-3.66,3.07,3.07,0,0,1,.09-.8c.24-1,.41-1.28.77-1.4a2.17,2.17,0,0,1,.24-.07c.25,0,.37.42.33,1.11a20.4,20.4,0,0,0,.46,6.12,14,14,0,0,0,.75,2.18,12.64,12.64,0,0,0,1.08,2.06Z"/><path class="cls-1" d="M54.49,73.86a.37.37,0,0,1-.35.34h.07s0,0,0,0,0,0,0,0,.16-.57,0-.52c-.79.26-.45,1.52.35,1.25.43-.15.84-.43.85-.93a1.09,1.09,0,0,0-.56-.91,1.08,1.08,0,0,0-1.77.72c0,.35.33.64.65.65a.67.67,0,0,0,.65-.65Z"/><path class="cls-1" d="M53.23,81.84a.19.19,0,0,1,0-.12.22.22,0,0,1-.16.21s-.09,0-.08,0,0,.18,0,.17a.9.9,0,0,1-.25.38c-.61.58.31,1.5.92.92s1-2.23-.21-2.67A1.14,1.14,0,0,0,52,82.19c.3.77,1.55.44,1.26-.35Z"/><path class="cls-1" d="M61.8,66.22a1.42,1.42,0,0,0-1.39,2.1,1.57,1.57,0,0,0,1,1,1.34,1.34,0,0,0,1.4-.66c.39-.52-.47-1-.86-.51a.62.62,0,0,1-.23.2h-.06a.75.75,0,0,1-.32-.41c-.17-.47,0-.71.49-.68.65,0,.64-1,0-1Z"/><path class="cls-1" d="M19.07,99.6l-.27,2.53v.08s0,0,.07.05l.91.48,1.21.63c.41.21.86.35,1.29.53l2.6,1,2.68.83c.9.28,1.79.58,2.72.78,1.84.42,3.66.93,5.53,1.24,1.36.24,2.72.51,4.09.7L44,109a176.22,176.22,0,0,0,29.33,1.19c4.35-.17,8.71-.62,13-1.21q8.22-1.28,16.33-3.14c1.7-.34,1.58,0,.28.84a30.84,30.84,0,0,1-2.76,1.51A21.5,21.5,0,0,1,96,109.63c-1.4.35-2.81.69-4.23.94s-2.83.55-4.25.77c-2.86.34-5.71.77-8.58,1a138.63,138.63,0,0,1-17.3.38A189.66,189.66,0,0,1,40.52,111a112.53,112.53,0,0,1-11.47-2.32,52.34,52.34,0,0,1-11-4.17l-1.1-.56-.61-.32a5.22,5.22,0,0,1,0-.67l.11-1.26.09-.9c.11-1.19.26-2.38.42-3.57q.49-3.56,1.19-7.08a97.54,97.54,0,0,1,6.51-20.71,54.91,54.91,0,0,1,8.84-14.16,32.65,32.65,0,0,1,2.64-2.62,16.56,16.56,0,0,1,4.08-2.77,5,5,0,0,1,2.16-.6c.25,0,.55-.07.7-.06.51.05-1,1.2-3.42,3.28a44,44,0,0,0-9.35,11.09,71,71,0,0,0-6.27,13.74A106.61,106.61,0,0,0,19.13,99.6Z"/><path class="cls-1" d="M102.45,79.48a71.9,71.9,0,0,0-3-8.47c-.45-1-.89-2-1.39-3a53.23,53.23,0,0,0-6-9.84c-.56-.64-1.14-1.27-1.72-1.9l-.87-.93c-.31-.3-.64-.56-1-.84-.83-.69-1.62-1.44-2.48-2.1a20.63,20.63,0,0,1-2.56-2c-.49-.48-.25-.73.46-.75a5.32,5.32,0,0,1,3,.93c.25.16.5.31.73.49l.68.55,1.34,1.13c.43.4.89.77,1.3,1.19l1.17,1.29a36.81,36.81,0,0,1,4.19,5.6c.68,1.22,1.48,2.39,2.19,3.63s1.41,2.48,2,3.76a70,70,0,0,1,3.35,8.7c.6,1.81,1.06,3.66,1.54,5.5.34,1.4.62,2.82.93,4.23s.53,2.83.75,4.24c.36,2.19.76,4.34,1,6.54,0,.48.12.95.16,1.44.13,1.82-.1,2.41-.61,2.8a2,2,0,0,1-.36.26c-.4.17-.78-.56-1-1.84-.53-3.81-1.16-7.8-1.91-11.78-.25-1.49-.62-3-.93-4.43S102.8,81,102.4,79.5Z"/><path class="cls-1" d="M41.74,37.68c.07.44.21.88.31,1.33s.28.86.43,1.3.31.59.43.9a13.06,13.06,0,0,0,1.81,3,5.4,5.4,0,0,0,1.18,1c.53.39,1.12.61,1.65,1,.16.13,0,.5-.26.82a1.33,1.33,0,0,1-1.31.41A6.35,6.35,0,0,1,44.84,47a5.69,5.69,0,0,1-1-.79,7.94,7.94,0,0,1-1.45-1.93c-.45-.84-1-1.59-1.45-2.46a10.74,10.74,0,0,1-.59-1.45A15,15,0,0,1,40,38.84c-.17-.61-.25-1.25-.36-1.87a21.33,21.33,0,0,1-.16-2.87c0-.37,0-.74,0-1.11s0-.75.08-1.12a2,2,0,0,1,.09-.48c.2-.59.45-.72.79-.74h.24c.25,0,.41.33.51.76.05.62.12,1.22.13,1.81s.1,1.18.15,1.78a16.18,16.18,0,0,0,.36,2.66Z"/><path class="cls-1" d="M80,36.43a14.69,14.69,0,0,1-.68,2.35,5.37,5.37,0,0,1-.3.85,8.6,8.6,0,0,1-1.89,2.55c-.33.34-.69.65-1,1a7.61,7.61,0,0,1-.72.55,3,3,0,0,1-.88.23c-.2,0-.3-.33-.33-.75s0-.9.18-1.08a22.77,22.77,0,0,0,2.1-1.81,4.66,4.66,0,0,0,.86-1.6,13,13,0,0,0,.62-2,9.42,9.42,0,0,0,.22-1.31,10.5,10.5,0,0,0,0-2,12.89,12.89,0,0,0-.35-1.52,2,2,0,0,1-.08-.33c-.07-.42.13-.59.5-.76l.25-.11a.79.79,0,0,1,.85.32A5.37,5.37,0,0,1,80.29,34a14.31,14.31,0,0,1-.2,2.43Z"/><path class="cls-1" d="M87.93,40.2a19.83,19.83,0,0,1-.9,2.27,8.84,8.84,0,0,1-.38.83,9.27,9.27,0,0,1-2.07,2.47c-.17.16-.39.28-.57.43a5.56,5.56,0,0,1-.58.41c-.27.15-.51.33-.79.46a3.34,3.34,0,0,1-.88.22c-.19,0-.26-.31-.23-.68s.12-.79.36-.93a9.17,9.17,0,0,0,1.16-.86c.19-.14.38-.28.57-.44a5.27,5.27,0,0,0,.58-.48,2.33,2.33,0,0,0,.58-.74,8.79,8.79,0,0,0,.43-.87,13.57,13.57,0,0,0,.82-2c.14-.44.28-.88.38-1.34a18,18,0,0,0,.41-2.09c.07-.55,0-1.11,0-1.67,0-.12,0-.25,0-.37.1-.46.25-.58.72-.58h.3a.77.77,0,0,1,.68.61,6.78,6.78,0,0,1,0,3.07A23.3,23.3,0,0,1,88,40.21Z"/><path class="cls-1" d="M23.91,29.68c-.55.39-1.13.74-1.64,1.16l-.78.6-.7.63c-.22.21-.33.37-.51.57l-.48.83A14.75,14.75,0,0,0,19,35.21,20.28,20.28,0,0,0,17.61,43a19.11,19.11,0,0,0,.92,5.66,9.69,9.69,0,0,0,1,2.19l.31.43a1.18,1.18,0,0,0,.28.27,2.69,2.69,0,0,0,.85.39,11.23,11.23,0,0,0,4.85-.09,21.72,21.72,0,0,0,9.3-4.29A13.69,13.69,0,0,0,37,45.65a9.65,9.65,0,0,0,.76-1L38,44l.26-.52a.69.69,0,0,0,0-.47,3.74,3.74,0,0,0-.31-.71,13.23,13.23,0,0,0-1-1.51c-.42-.52-.87-1-1.34-1.51l-.72-.72L34,37.71a2.17,2.17,0,0,1-.51-.55,2.71,2.71,0,0,1-.16-.27.78.78,0,0,1,0-.34,2.93,2.93,0,0,1,.67-1.31,6.08,6.08,0,0,1,.52-.59c.13-.14.26-.26.4-.39s.55-.48.84-.7A6,6,0,0,1,40,32.2c.74.11,1,.37.94.51s-.44.26-.94.5a13.31,13.31,0,0,0-3.61,3l-.1.1s0,0,0,0h0s0,0,0,0l.4.37.74.78c.49.53,1,1.07,1.42,1.65a14.26,14.26,0,0,1,1.29,1.92,6.09,6.09,0,0,1,.54,1.31,4.31,4.31,0,0,1,.1,1,6.82,6.82,0,0,1-.2,1l-.28.55a3.25,3.25,0,0,1-.25.45,9.23,9.23,0,0,1-.54.84,12.54,12.54,0,0,1-1.25,1.54,17.26,17.26,0,0,1-2.93,2.49,23.62,23.62,0,0,1-6.8,3.15,23.89,23.89,0,0,1-3.92.8A11.61,11.61,0,0,1,20.35,54a4.28,4.28,0,0,1-2.19-1.27A8.41,8.41,0,0,1,17,50.88a15.17,15.17,0,0,1-1.21-3.94,22.47,22.47,0,0,1-.36-4.4,23,23,0,0,1,.43-4.38,20.28,20.28,0,0,1,1.3-4.23l.46-1c.18-.33.37-.65.55-1l.28-.48.4-.49a6.61,6.61,0,0,1,.83-.84A30,30,0,0,1,24,27q1.13-.7,2.28-1.32c.77-.44,1.55-.84,2.34-1.22a80.27,80.27,0,0,1,14.85-5.6,91.84,91.84,0,0,1,11.89-2.54L58,16a13.79,13.79,0,0,1,3.55,0,3.32,3.32,0,0,1,1.58.54,2.3,2.3,0,0,1,.47.35c.32.38-1,.79-3.39,1.09-.88.05-1.77.19-2.65.31l-2.67.35c-1.77.35-3.58.57-5.37,1a83.58,83.58,0,0,0-10.69,2.95A67.6,67.6,0,0,0,24,29.73Z"/><path class="cls-1" d="M104.76,29.55A34.67,34.67,0,0,1,108,32.42l.76.84a9.55,9.55,0,0,1,.72,1.07c.32.67.67,1.32.92,2A22.53,22.53,0,0,1,112,44.88a17.67,17.67,0,0,1-1.07,6.35,9.54,9.54,0,0,1-1.5,2.61,5.3,5.3,0,0,1-.57.61,3.53,3.53,0,0,1-.78.54,5.9,5.9,0,0,1-1.57.52,14.63,14.63,0,0,1-5.71-.33A23.94,23.94,0,0,1,91,50.33a14.25,14.25,0,0,1-3.23-3.83,9.26,9.26,0,0,1-.57-1.18A1.13,1.13,0,0,1,87,44.9a2.12,2.12,0,0,1-.06-.44,3.37,3.37,0,0,1,.17-.85,8.28,8.28,0,0,1,1.38-2.24,23.45,23.45,0,0,1,1.62-1.81c.28-.28.57-.56.87-.83l.65-.59c.08-.09.2-.15.26-.24a1.06,1.06,0,0,0-.21-.31l-.28-.29c-.2-.2-.41-.39-.62-.58A11.68,11.68,0,0,0,88,34.9c-.5-.21-.73-.33-.71-.5s.33-.38.94-.48a4.87,4.87,0,0,1,2.49.26,8.18,8.18,0,0,1,1.49.73,8.5,8.5,0,0,1,.74.53,3.74,3.74,0,0,1,.46.41,6.88,6.88,0,0,1,.59.62,2.6,2.6,0,0,1,.76,1.62,1.68,1.68,0,0,1,0,.4,1,1,0,0,1-.14.34,2.41,2.41,0,0,1-.23.36l-.4.33-.91.8-.48.46c-.33.3-.65.6-1,.92a16.07,16.07,0,0,0-1.67,1.91,3.84,3.84,0,0,0-.48.83l0,0h0l.06.15a9.19,9.19,0,0,0,1.21,2.06,19.54,19.54,0,0,0,8.58,5.76,18.05,18.05,0,0,0,3.42.87,10.15,10.15,0,0,0,3.39,0,2.87,2.87,0,0,0,1.23-.51,5.38,5.38,0,0,0,.48-.53l.45-.68a11.47,11.47,0,0,0,1.17-3.24,19.57,19.57,0,0,0,.4-3.91,22.93,22.93,0,0,0-.42-4,21.09,21.09,0,0,0-1.19-3.79c-.12-.3-.28-.59-.42-.89a4.44,4.44,0,0,0-.46-.82l-.25-.35-.33-.36a8.94,8.94,0,0,0-.67-.71,47.49,47.49,0,0,0-8.07-6A68.58,68.58,0,0,0,84.12,21.1a65.08,65.08,0,0,0-11.41-2.66l-2.54-.31c-3.18-.35-4.18-.64-4.83-1.24a3.58,3.58,0,0,1-.44-.41c-.29-.42,1.06-.67,3.49-.67a24.73,24.73,0,0,1,2.7.21l2.73.31,2.72.5c.92.16,1.83.35,2.74.6l2.73.7,2.7.86c.91.28,1.8.62,2.68,1S89.18,20.61,90,21a69.28,69.28,0,0,1,14.75,8.49Z"/><path class="cls-1" d="M49.92,41.54a12.79,12.79,0,0,1-1.85-9.84c.07-.31.14-.6.24-.91l.23-.72.05-.17c0-.06.1-.08.14-.12l.3-.21.88-.63c.26-.17.54-.29.81-.44a24.26,24.26,0,0,1,5.9-1.93,39.61,39.61,0,0,1,6-.76,44.22,44.22,0,0,1,5.4,0c.58.06,1.16.07,1.74.16a17.14,17.14,0,0,1,1.73.36,9.57,9.57,0,0,1,1.69.63l.81.42a7.1,7.1,0,0,1,.71.63c.55.55.2.73-.56.83a11.49,11.49,0,0,1-1.34.13,7.54,7.54,0,0,1-1.59-.15,39.67,39.67,0,0,0-12.95-.31,20.6,20.6,0,0,0-3.93.93,15.68,15.68,0,0,0-3.58,1.67l-.26.16c-.06,0-.05.11-.08.16a6.21,6.21,0,0,0-.27,1,9.25,9.25,0,0,0-.22,2.1,10.32,10.32,0,0,0,.88,4.16,10.58,10.58,0,0,0,1.14,2,8.74,8.74,0,0,0,.73.88l.4.41.36.31a.51.51,0,0,0,.37.13,6.14,6.14,0,0,0,.89-.1l1-.21,2.13-.46a42.31,42.31,0,0,1,4.35-.68,24.59,24.59,0,0,1,6.85.13,12.75,12.75,0,0,1,1.49.32,11.08,11.08,0,0,1,1.14.4,4.19,4.19,0,0,1,.71.45,1.44,1.44,0,0,1,.56.9,2.4,2.4,0,0,1,.07.43c0,.44-.84.41-2.08.16a25.23,25.23,0,0,0-11.42-.19c-1,.19-2,.42-3.05.65-.53.12-1.06.24-1.66.34-.15,0-.3,0-.48.06a4.54,4.54,0,0,1-.64,0,3.34,3.34,0,0,1-.77-.12,1.37,1.37,0,0,1-.35-.15,1.86,1.86,0,0,1-.34-.19l-.45-.37c-.1-.09-.22-.18-.32-.28l-.59-.6a14.1,14.1,0,0,1-1-1.31Z"/><path class="cls-1" d="M51.13,67.78a15.41,15.41,0,0,0-3.52,14.43,17.76,17.76,0,0,0,2.44,5.17,16,16,0,0,0,7.8,6.16,17.16,17.16,0,0,0,17.88-4.22A17.82,17.82,0,0,0,80.46,79c.15-1.19.69-1.06,1.15.06a8,8,0,0,1-.22,5.74,18.57,18.57,0,0,1-9,9.66,19.2,19.2,0,0,1-13,1.67,18.6,18.6,0,0,1-12.4-9.63A18.2,18.2,0,0,1,45,77.91a17.36,17.36,0,0,1,10.2-15.64A20,20,0,0,1,71,61.77,18.94,18.94,0,0,1,76.34,65a18.5,18.5,0,0,1,3.93,4.86,15.16,15.16,0,0,1,1.14,2.53A10.77,10.77,0,0,1,82.07,76a2.84,2.84,0,0,1-.88,2.1c-.48.3-.67-1-1.19-3.22A16.35,16.35,0,0,0,65.28,62.56a18.41,18.41,0,0,0-7.68,1,16.13,16.13,0,0,0-6.43,4.23Z"/><path class="cls-1" d="M62.58,68.17a.92.92,0,0,1-1.79.28c-.46-1.25,1.65-1.73,1.79-.28.09.89,1.49.9,1.4,0a2.4,2.4,0,0,0-2.47-2.34,2.36,2.36,0,0,0-2.12,2.74,2.4,2.4,0,0,0,2.27,1.89A2.22,2.22,0,0,0,64,68.17.7.7,0,0,0,62.58,68.17Z"/><path class="cls-1" d="M55.42,73.36a.93.93,0,0,1-1.8.28c-.45-1.25,1.66-1.73,1.8-.28.08.89,1.48.9,1.4,0A2.4,2.4,0,0,0,54.34,71a2.35,2.35,0,0,0-2.12,2.73,2.42,2.42,0,0,0,2.27,1.9,2.25,2.25,0,0,0,2.33-2.3A.7.7,0,0,0,55.42,73.36Z"/><path class="cls-1" d="M54.4,81.91a.92.92,0,0,1-1.79.28c-.46-1.25,1.65-1.73,1.79-.28.08.89,1.49.89,1.4,0a2.41,2.41,0,0,0-2.48-2.34,2.36,2.36,0,0,0-2.12,2.74,2.41,2.41,0,0,0,2.28,1.89,2.24,2.24,0,0,0,2.32-2.29A.7.7,0,0,0,54.4,81.91Z"/><circle class="cls-1" cx="63.6" cy="78.36" r="2.02"/><path class="cls-1" d="M17.25,96.17c-.41.08-10.59,4.18-8.95,7.19,2.78,5.12,33.51,9.5,34.49,7.09l-25.54-6.6Z"/><path class="cls-1" d="M41.48,109.9c2.22.18,4.43.34,6.65.47l2.44.08q4.27.22,8.57.39c1.27,0,2.55,0,3.81,0a30.54,30.54,0,0,1,4.87.16c.5.08.44.3,0,.59a4.33,4.33,0,0,1-2.14.76,48.7,48.7,0,0,1-5,.11c-1.66,0-3.33-.08-5-.23-2-.17-4.08-.15-6.12-.25-2.25-.1-4.5-.25-6.75-.42l-4.14-.34c-2.09-.18-4.2-.44-6.27-.76-1.6-.25-3.18-.45-4.76-.66l-1-.15a4.55,4.55,0,0,1-1.34-.35,1.26,1.26,0,0,1-.56-.46c0-.08-.13-.15-.16-.21s.46-.43,1.46-.46c2.92.06,5.85.74,8.79,1.07,2.17.26,4.43.44,6.65.6Z"/><path class="cls-1" d="M50,76.24a12.92,12.92,0,0,0,.83,7.59,14.25,14.25,0,0,0,1.48,2.42,13.45,13.45,0,0,0,8.39,5.22,12.38,12.38,0,0,0,4.5-.08,19.49,19.49,0,0,0,5.38-2c.53-.28.69.06.43.65a4.06,4.06,0,0,1-2.11,1.91,15.42,15.42,0,0,1-6.36,1.2,13.85,13.85,0,0,1-6.25-1.71,16.08,16.08,0,0,1-5.8-5.26,14.08,14.08,0,0,1-1.72-4,15.28,15.28,0,0,1,.8-9.42,14.29,14.29,0,0,1,4.93-6.15A14.77,14.77,0,0,1,60,64.12l1.34-.18a5.14,5.14,0,0,1,1.79.05,1.26,1.26,0,0,1,.76.42,1.56,1.56,0,0,1,.2.27c.12.3-.55.52-1.68.56a15.24,15.24,0,0,0-4.91,1.2,13.16,13.16,0,0,0-4.16,3A13.52,13.52,0,0,0,50,76.24Z"/><path class="cls-1" d="M93.71,49.06a27.83,27.83,0,0,0,2.8,1.87c.36.2.73.35,1.1.54a23.52,23.52,0,0,0,4,1.58,11.15,11.15,0,0,0,1.9.35c.82.09,1.63.2,2.46.35.26.06.23.23,0,.43a2.12,2.12,0,0,1-1.15.51,8.26,8.26,0,0,1-2.67-.16,12.32,12.32,0,0,1-2.58-.76c-1-.42-2-.77-3-1.26a28.52,28.52,0,0,1-3-1.86,20.39,20.39,0,0,1-1.74-1.36,12.82,12.82,0,0,1-2.26-2.5,7.31,7.31,0,0,1-1.2-2.36,2.64,2.64,0,0,1-.14-.57c-.13-.74,0-1,.31-1.13a1,1,0,0,1,.21-.1c.22-.06.44.21.57.65a11,11,0,0,0,2,3.55A14.94,14.94,0,0,0,93.73,49Z"/><path class="cls-1" d="M31.76,49.34a21,21,0,0,0,2.48-1.61c.3-.21.54-.47.82-.7a13.84,13.84,0,0,0,2.61-2.69,2.6,2.6,0,0,0,.39-.71,2.53,2.53,0,0,0,.15-.36.8.8,0,0,0,0-.28,11.5,11.5,0,0,0-.52-1.93c-.06-.23.18-.32.51-.27a1.44,1.44,0,0,1,1,.68,3.36,3.36,0,0,1,.44,1.35,2.29,2.29,0,0,1-.1.91c-.09.25-.18.41-.27.62a7.57,7.57,0,0,1-1.46,2c-.68.69-1.33,1.43-2.07,2.06a21.16,21.16,0,0,1-2.59,1.86c-.55.35-1.12.65-1.69,1-.87.45-1.77.87-2.67,1.24l-1,.47a8.24,8.24,0,0,1-1.07.43c-.17,0-.32.11-.49.15-.64.11-.86,0-1-.37,0-.09-.08-.18-.11-.27-.08-.3.13-.6.51-.77,1.13-.56,2.33-.95,3.52-1.51a26.13,26.13,0,0,0,2.63-1.35Z"/><path class="cls-1" d="M6.9,35.5c-.06.16-.2-.07-.42-.52a3,3,0,0,1-.19-.68,1.73,1.73,0,0,1,.09-.39,5.07,5.07,0,0,1,.83-.56,1.46,1.46,0,0,1,.62-.2L9.05,33a.51.51,0,0,1,.27,0,1.34,1.34,0,0,0,.86,0s.09,0,.12-.08a1.7,1.7,0,0,1,.85-.21c.24.08.48.12.74.19,0,0,0,0,.11,0s.19.11.27.1a1.81,1.81,0,0,1,.33,0,.93.93,0,0,1,.23.13.56.56,0,0,1,.17.32c0,.09.09.18.15.28l0,.1a2.72,2.72,0,0,1-.49.87l-.51.33c-.26.14-.55.26-.6.29s-.13,0-.2,0-.83.32-.87.31-.33.1-.51-.06c0,0-.06,0-.1,0a2.82,2.82,0,0,1-.82,0,2.45,2.45,0,0,0-.39,0s-.05,0-.08,0l-.09,0a3.25,3.25,0,0,0-.89.14c-.06,0-.41-.13-.48-.08S6.92,35.44,6.9,35.5Z"/><path class="cls-1" d="M12.24,21.39c-.15-.05,0-.24.26-.53a1.56,1.56,0,0,1,.49-.28,1.84,1.84,0,0,1,.35.05,8.34,8.34,0,0,1,.77.75,2.24,2.24,0,0,1,.42.6c.22.44.45.88.65,1.33a1.16,1.16,0,0,1,.08.32,3,3,0,0,0,.32,1.07c0,.05,0,.12.12.15A3.39,3.39,0,0,1,16.17,26c0,.34,0,.66,0,1,0,.05,0,.09,0,.15a.32.32,0,0,0-.07.33,2,2,0,0,1,0,.42.75.75,0,0,1-.13.25c0,.08-.27.11-.3.1s-.18,0-.27.07l-.1,0a5,5,0,0,1-.76-.66s-.51-1-.58-1.13a.33.33,0,0,1,0-.2s-.43-.81-.44-.84c0-.18-.17-.32-.09-.55a.16.16,0,0,0,0-.1,5.45,5.45,0,0,1-.29-.89,3.43,3.43,0,0,0-.19-.44s0-.06,0-.09a.37.37,0,0,0,0-.11,6.22,6.22,0,0,0-.5-1c0-.07-.09-.51-.16-.59S12.31,21.41,12.24,21.39Z"/><path class="cls-1" d="M113,24.14c0,.16-.2.06-.59-.2a2.77,2.77,0,0,1-.49-.45,3,3,0,0,1-.15-.34s.15-.57.19-.75a1.15,1.15,0,0,1,.24-.45l.63-.81a.48.48,0,0,1,.2-.14,1.29,1.29,0,0,0,.61-.54s.06-.07,0-.15.46-.69.57-.73.51-.19.79-.27c0,0,0,0,.13,0a.22.22,0,0,0,.29,0,.85.85,0,0,1,.34-.09,1,1,0,0,1,.25.06.73.73,0,0,1,.2.25c0,.09.11.15.17.22l.06.08a4.53,4.53,0,0,1,0,.83s-.1.18-.19.38-.21.36-.23.41-.08.05-.13.07-.3.58-.32.6-.13.24-.34.23a.07.07,0,0,0-.07.05,2.28,2.28,0,0,1-.49.49,2,2,0,0,0-.23.28s0,0-.07,0a.2.2,0,0,0-.08,0c-.16.24-.41.4-.54.68,0,.06-.39.17-.42.25S113,24.08,113,24.14Z"/><path class="cls-1" d="M115.66,33.41c0,.16-.22,0-.58-.24a2,2,0,0,1-.43-.48,1.67,1.67,0,0,1,0-.37,5.17,5.17,0,0,1,.58-.89,1.89,1.89,0,0,1,.55-.47c.41-.24.82-.48,1.24-.68a.6.6,0,0,1,.3-.07,2.53,2.53,0,0,0,1-.29s.11,0,.13-.12.91-.44,1-.4c.32.05.62.06.93.08,0,0,.07,0,.13,0a.3.3,0,0,0,.31.09l.39,0a1.1,1.1,0,0,1,.23.13c.07,0,.11.25.1.28s0,.16.08.24a.32.32,0,0,1,0,.09,6.91,6.91,0,0,1-.55.82l-.48.28c-.23.14-.48.29-.52.33s-.12,0-.18,0l-.74.43c-.16,0-.28.16-.49.06,0,0-.07,0-.1,0a3.47,3.47,0,0,1-.77.25c-.14,0-.24.13-.37.18h-.08a.18.18,0,0,0-.1,0c-.26.17-.59.24-.8.49,0,0-.44.08-.49.16S115.65,33.34,115.66,33.41Z"/></g></svg>