<svg xmlns="http://www.w3.org/2000/svg" width="128" height="128" viewBox="0 0 128 128"><defs><style>.cls-1{fill:#231f20;}.cls-2,.cls-3{fill:none;stroke:#231f20;stroke-miterlimit:10;}.cls-2{stroke-width:1.25px;}.cls-3{stroke-width:1.1px;}</style></defs><title>Free Icons</title><g id="Layer_6" data-name="Layer 6"><path class="cls-1" d="M8.7,106.05A7.86,7.86,0,0,1,7,107.58a8.58,8.58,0,0,0-1.77,1.79c-.32.44.28.64.61.65a1.93,1.93,0,0,0,1.52-.62c1-1.31,2.45-2,3.44-3.32.34-.43-.28-.63-.61-.64a2,2,0,0,0-1.52.61Z"/><path class="cls-1" d="M12.42,85.21c-1.11,1.43-2.51,2.6-3.73,3.94-.36.39.31.46.57.45A2.4,2.4,0,0,0,10.8,89c1.22-1.34,2.63-2.51,3.73-3.94.32-.41-.27-.47-.56-.46a2.36,2.36,0,0,0-1.55.58Z"/><path class="cls-1" d="M10.83,96.37A30.21,30.21,0,0,1,8,99.06c-.35.32.31.4.5.4A2.21,2.21,0,0,0,9.83,99a29,29,0,0,0,2.85-2.69c.3-.34-.26-.4-.5-.39a2,2,0,0,0-1.35.5Z"/><path class="cls-2" d="M94.55,13.64a1.38,1.38,0,0,1,1.77-1.12C100,13.9,93.34,18.32,94.55,13.64Z"/><path class="cls-3" d="M99.14,27.43a1.25,1.25,0,0,1,1.6-1C104.09,27.66,98.05,31.66,99.14,27.43Z"/><path class="cls-3" d="M49.78,17.94a1.26,1.26,0,0,1,1.6-1C54.73,18.17,48.69,22.17,49.78,17.94Z"/><path class="cls-1" d="M76.6,34a1.39,1.39,0,0,1,1.77-1.13C82.08,34.21,75.39,38.64,76.6,34Z"/><path class="cls-1" d="M76,115.87c-5.78.31-11.57.42-17.35.37-2.11,0-4.22,0-6.33-.1-7.43-.27-14.85-.83-22.22-1.72-3.28-.36-6.57-.83-9.79-1.36-4.15-.69-8.3-1.47-12.38-2.47-2.54-.62.89-.78,5.63.13,4.2.81,8.4,1.54,12.63,2.11s8.51,1,12.8,1.38c5.13.46,10.5.63,15.77.72,5.8.11,11.6,0,17.4-.21,3.56-.14,7.13-.39,10.68-.69,5.38-.5,10.78-1.18,16-2.19l.94-.18h.06a6.86,6.86,0,0,0,2.43-1.06,25.74,25.74,0,0,0,2.32-1.59c1.51-1.12,3-2.33,4.39-3.58.68-.59,1.32-1.2,2-1.81,2.48-2.28,3.26-3,4-3.25a3,3,0,0,1,.53-.16c.45,0-.28,1.2-2.06,3a75.18,75.18,0,0,1-6,5.43c-1.07.87-2.18,1.71-3.36,2.5-.58.39-1.2.77-1.85,1.12a7.25,7.25,0,0,1-1,.48,4.58,4.58,0,0,1-1.29.34l.13,0c-2.18.41-4.4.82-6.63,1.13-5.78.86-11.62,1.39-17.45,1.74Z"/><path class="cls-1" d="M71.67,54.13c-6.09-.38-12.07-1.22-18-2.14-2.18-.34-4.36-.65-6.52-1-3.82-.68-7.63-1.42-11.42-2.17l-.51-.1c-.08,0-.2-.08-.25,0l-.7.83-1.88,2.22-3.79,4.4L21.81,64c-1.44,1.65-2.92,3.28-4.45,4.87-.78.79-1.56,1.57-2.39,2.31a14.83,14.83,0,0,1-2.7,2c-.7.35-1.07.36-1.08.23s.24-.47.59-.91A32,32,0,0,1,15.32,68c6-6.5,11.86-13.25,17.76-20l.4-.48c.1-.11.19-.23.29-.33l.32-.23.16-.12s.09.22,0,.11h.08l.09,0a2.33,2.33,0,0,1,.38-.08,6.13,6.13,0,0,1,.82.1l2,.39,4.05.74,8.18,1.37c6,1,11.95,1.86,18,2.41A77.54,77.54,0,0,0,79,52.08c5.63-.2,11.29-.53,16.86-1.11,4.34-.42,8.55-1.1,12.84-1.61.94-.12,1.87-.24,2.83-.34a20.8,20.8,0,0,1,3.81-.1,4,4,0,0,1,1.71.55,3.21,3.21,0,0,1,.49.32c.16.17-.13.31-.76.46a22.67,22.67,0,0,1-2.87.51c-3.78.47-7.68,1.16-11.68,1.62s-8.06.9-12.14,1.22c-3,.24-6.08.4-9.13.54-1.53,0-3,.12-4.59.14s-3.11,0-4.65-.1Z"/><path class="cls-1" d="M64,84.67c-4.54,0-9.07-.16-13.59-.5-1.65-.15-3.31-.14-5-.36a127.26,127.26,0,0,1-17.23-3c-2.5-.64-5-1.31-7.46-1.86a89.63,89.63,0,0,0-9.55-1.47c-1-.1-.88-.57,0-1a8.28,8.28,0,0,1,4.51-.7,74.45,74.45,0,0,1,10,2.17c1.62.43,3.21.88,4.82,1.25l4.86,1.12c2,.37,4,.67,6,.93l6.14.56c4.49.32,9,.57,13.51.57,2.78,0,5.56,0,8.34-.09,4.21-.18,8.44-.36,12.6-.82,3.23-.32,6.38-.89,9.55-1.36.7-.11,1.37-.24,2.08-.34,2.6-.42,3.47-.3,4.11.13a4.4,4.4,0,0,1,.45.29c.36.35-.7,1-2.58,1.47a84.25,84.25,0,0,1-8.76,1.67c-3,.4-6,.7-9.11.91-4.54.36-9.13.46-13.7.54Z"/><path class="cls-1" d="M112.66,69c-.86,1.08-1.74,2.15-2.66,3.2-.34.38-.63.81-1,1.17a49.93,49.93,0,0,1-4,3.62c-.61.52-1.16,1-1.78,1.58a4.49,4.49,0,0,1-1.62.7l-1.27.31c-.16,0-.51-.22-.49-.76A1.71,1.71,0,0,1,101,77.48a6.28,6.28,0,0,0,1.08-.42s0,0,0,0l.08.12.08.11,0,0,0,0v0h0l-.26-.3h0l.14-.13.28-.26.57-.48c.77-.63,1.54-1.26,2.34-1.87a20.32,20.32,0,0,0,2.52-2.64c.88-1,1.73-2.07,2.57-3.15l1.51-2c.77-1,1.57-2,2.28-3.09.56-.81,1-1.69,1.55-2.5.12-.17.23-.36.36-.53.51-.63.83-.71,1.2-.66a1,1,0,0,1,.25,0c.24.07.24.48.08,1.08a23,23,0,0,1-2.59,4.8c-.75,1.15-1.53,2.29-2.38,3.39Z"/><path class="cls-1" d="M78.31,94.47c-5.91.53-11.85.83-17.78.91-2.17,0-4.33.09-6.49,0-3.82-.07-7.63-.3-11.43-.6S35,94,31.26,93.54c-3.34-.42-6.71-.83-10-1.31-2.13-.31-4.27-.64-6.39-1.06a52.13,52.13,0,0,1-6.27-1.66c-1.28-.42-1-.66.16-.72a30.49,30.49,0,0,1,5.71.37c4.27.81,8.58,1.41,12.92,2s8.7,1.15,13.06,1.63a150.25,150.25,0,0,0,16.09.67q8.88,0,17.75-.71c3.64-.27,7.27-.67,10.89-1.12,2.74-.35,5.48-.72,8.22-1.15l4.08-.68,2-.37,1-.19.51-.1.25,0,.15,0A18.06,18.06,0,0,0,104,87.38c.81-.64,1.61-1.31,2.37-2,1.54-1.41,3-2.89,4.43-4.43.62-.67,1.21-1.35,1.83-2.05,2.27-2.59,3-3.41,3.79-3.74a3.55,3.55,0,0,1,.53-.22c.46-.09-.12,1.27-1.65,3.35a65.58,65.58,0,0,1-7.83,8.79,25.22,25.22,0,0,1-5.09,3.72l-.31.16-.35.07-.38.07-.74.15-1.47.29c-1,.2-2,.38-3,.56-5.88,1.07-11.83,1.89-17.8,2.44Z"/><path class="cls-1" d="M113.27,93.6c-.65.58-1.3,1.15-2,1.71-.24.21-.45.45-.69.65-.87.7-1.78,1.36-2.68,2-.4.29-.79.61-1.17.92l-.06,0a1.53,1.53,0,0,1-.62.29c-.19,0-.35.06-.51.08a4.47,4.47,0,0,1-.76,0,.79.79,0,0,1-.28-.69,1.2,1.2,0,0,1,.82-.89,3.43,3.43,0,0,0,.38-.08c.09,0,0,0,.06,0,.67-.52,1.46-1.06,2.25-1.56a13.83,13.83,0,0,0,1.76-1.5c.63-.57,1.27-1.14,1.89-1.72.39-.36.77-.73,1.14-1.1.56-.57,1.14-1.13,1.65-1.73a15.65,15.65,0,0,0,1.05-1.51c.08-.11.14-.23.22-.34a.62.62,0,0,1,.91-.24l.25.11a.7.7,0,0,1,.2.86,11.47,11.47,0,0,1-2,2.84c-.57.65-1.21,1.25-1.83,1.86Z"/><path class="cls-1" d="M65.39,105.94q-7.45.42-14.93.41c-1.82,0-3.63,0-5.45,0-1.6,0-3.2-.12-4.8-.21s-3.2-.21-4.79-.35c-3.2-.27-6.38-.72-9.53-1.1-2.8-.35-5.63-.59-8.44-.93a40.19,40.19,0,0,1-10.64-2.48c-1.06-.42-.77-.76.26-.87a17.34,17.34,0,0,1,4.78.43c3.5.75,7.1,1.16,10.77,1.58s7.35.94,11,1.41a130.83,130.83,0,0,0,13.5.65q7.45.06,14.93-.3c3.06-.16,6.12-.35,9.18-.6,4.62-.39,9.27-.81,13.84-1.42,3.56-.47,7-1.09,10.51-1.71l2.29-.42c2.88-.5,3.82-.44,4.52-.06a2.55,2.55,0,0,1,.47.25c.16.15,0,.34-.53.58a11,11,0,0,1-2.35.77,189.73,189.73,0,0,1-19.56,3.14c-5,.6-10,1-15,1.3Z"/><path class="cls-1" d="M50,98.9c-3-.12-6.09-.29-9.12-.53-1.11-.09-2.22-.15-3.32-.26-3.91-.39-7.76-1-11.63-1.46l-5.16-.57a33.39,33.39,0,0,1-6.56-1.21c-1.32-.42.65-1.06,3.1-.7,4.38.67,8.88,1.07,13.38,1.77,2.69.43,5.48.68,8.24.9,3,.25,6.08.44,9.12.56,1.87.08,3.75.13,5.63.14,2.84,0,5.69,0,8.51-.09,2.19-.09,4.33-.29,6.49-.49l1.42-.14c1.77-.16,2.35,0,2.76.27a1.27,1.27,0,0,1,.27.21c.19.22-.51.56-1.81.77a100.45,100.45,0,0,1-12.1.91c-3.06.08-6.15,0-9.22,0Z"/><path class="cls-1" d="M76.07,114c-5.95.38-11.9.57-17.86.63-2.17,0-4.35.07-6.52,0-7.65-.16-15.31-.55-22.92-1.42-3.38-.4-6.74-.8-10.09-1.09a89.29,89.29,0,0,1-12.89-1.83c-1.32-.32-1.07-.58.11-.65a34.31,34.31,0,0,1,5.72.31c4.34.56,8.73.86,13.14,1.37s8.75,1,13.18,1.29c5.29.39,10.81.43,16.24.42q9,0,17.9-.5c3.67-.2,7.34-.48,11-.83,5.54-.54,11.09-1.22,16.51-2.24l1.9-.37h.08a6.47,6.47,0,0,0,2.22-1,26.46,26.46,0,0,0,2.17-1.52c1.41-1.08,2.76-2.24,4.1-3.43l2-1.89c2.53-2.37,3.34-3.1,4.23-3.29a3.09,3.09,0,0,1,.59-.12c.52,0-.19,1.33-2,3.2a70.9,70.9,0,0,1-5.78,5.39c-1,.86-2.1,1.7-3.26,2.48A17,17,0,0,1,104,110a7.74,7.74,0,0,1-1,.49,5.11,5.11,0,0,1-1.35.34l.17,0-3.86.71-3.91.61c-6,.87-12,1.44-18,1.85Z"/><path class="cls-1" d="M50.74,88.48q-.15,2.94-.25,5.89c0,.72,0,1.44,0,2.16l-.42,7.61c-.07,1.12-.07,2.26-.1,3.38a14.47,14.47,0,0,1-.46,4.36c-.15.46-.53.29-.88-.15a3.21,3.21,0,0,1-.47-.82,2.67,2.67,0,0,1-.23-1.1c.09-2.85.15-5.77.41-8.71.16-1.75,0-3.59.07-5.39l.16-6,.15-3.68c0-.93.1-1.86.2-2.82a5.14,5.14,0,0,1,.5-1.51c.2-.44.42-.87.64-1.28.67-1.3,1.35-2.55,2.1-3.77.17-.26.34-.52.53-.77.71-.94,1.1-1.12,1.59-1.07a3.31,3.31,0,0,1,.33,0c.3.09.28.67-.07,1.45-.49,1.18-1.09,2.31-1.69,3.44s-1.26,2.27-1.65,3.29a3.42,3.42,0,0,0-.12.35L51,84.1l-.1,1.43c0,1-.09,2-.12,3Z"/><path class="cls-1" d="M74,87c-1.86.06-3.71.1-5.57.12-.67,0-1.35.06-2,.06-2.38,0-4.76-.07-7.15-.13-1.05,0-2.12,0-3.16,0a24.92,24.92,0,0,1-4-.18c-.83-.11.28-1.09,1.82-1.14,2.73,0,5.46.12,8.22.26,1.65.07,3.37,0,5.06-.06,1.86,0,3.71-.08,5.57-.16l3.43-.16c1.73-.11,3.47-.21,5.18-.39,1.33-.13,2.62-.38,3.93-.55l.86-.12c1.08-.14,1.44,0,1.71.25a1.62,1.62,0,0,1,.18.2c.13.22-.29.48-1.07.7a44.36,44.36,0,0,1-7.32,1c-1.86.15-3.74.24-5.61.33Z"/><path class="cls-1" d="M33.27,85.14c-1.52-.27-3.06-.61-4.54-1-.54-.15-1.09-.25-1.63-.41-1.89-.54-3.77-1.13-5.65-1.64-.84-.23-1.69-.42-2.53-.58a30.06,30.06,0,0,1-3.25-.63c-.67-.17.33-1.08,1.64-1A42,42,0,0,1,24,81.57c1.3.43,2.69.73,4,1.08s2.95.75,4.46,1c.92.16,1.85.31,2.78.43,1.42.2,2.85.39,4.27.53,1.1.12,2.19.15,3.29.31l.72.09c.91.16,1.16.39,1.28.72a1.13,1.13,0,0,1,.08.24c0,.24-.38.37-1,.37-1.93-.07-4-.28-6-.54-1.52-.18-3.06-.39-4.6-.64Z"/><path class="cls-1" d="M46.3,63.92a5.64,5.64,0,0,1,.72-3,4.35,4.35,0,0,1,2.52-2,4.24,4.24,0,0,1,2.34-.07,6.3,6.3,0,0,1,1,.41,4.31,4.31,0,0,1,.81.64,5,5,0,0,1,1.06,1.55,13,13,0,0,1,.92,3.23l.5,2.77c.21,1.17.47,2.3.65,3.4.06.34-.29.46-.75.29a2.17,2.17,0,0,1-1.26-1.36,34.14,34.14,0,0,1-.83-3.59,28,28,0,0,0-.66-3.35,3.32,3.32,0,0,0-.9-1.54,2.42,2.42,0,0,0-1.44-.57,2.47,2.47,0,0,0-2.53,2.18,5.79,5.79,0,0,0,.23,2.63,5.94,5.94,0,0,0,2.57,3.18,10.36,10.36,0,0,0,3.11,1.13c.23.06.48.08.72.14.89.19,1.14.39,1.24,1,0,.14,0,.27.06.4,0,.43-.45.72-1.2.68a10.5,10.5,0,0,1-6.53-2.77,8.08,8.08,0,0,1-1.71-2.44,8.65,8.65,0,0,1-.65-2.89Z"/><path class="cls-1" d="M70.39,66.14a13.76,13.76,0,0,0,.77-1.21l.31-.66.15-.33.08-.29.09-.29c0-.08,0-.15,0-.23s0-.27,0-.39a1,1,0,0,0-.49-.55,4.49,4.49,0,0,0-1.87-.35,8.71,8.71,0,0,0-1.9.12,7.72,7.72,0,0,0-.89.22,5.14,5.14,0,0,0-.82.41,36.3,36.3,0,0,0-3.55,2.29,20.63,20.63,0,0,0-2.8,2.46A15.43,15.43,0,0,0,58,69.15,9.81,9.81,0,0,0,56.92,71c-.18.38-.65.32-1-.25a2.55,2.55,0,0,1,.16-2.58A22.32,22.32,0,0,1,64,61.32l1.37-.77a7.38,7.38,0,0,1,1.74-.63,10.09,10.09,0,0,1,3.43-.22,5.19,5.19,0,0,1,2,.63,3.62,3.62,0,0,1,.92.76A2.93,2.93,0,0,1,74,62.21a3.92,3.92,0,0,1-.11,2.17,14.19,14.19,0,0,1-.7,1.73,11.63,11.63,0,0,1-2.84,3.46,15.09,15.09,0,0,1-6,2.8,19,19,0,0,1-5.06.63c-.38,0-.75,0-1.14-.07-1.43-.23-1.83-.65-1.87-1.35a2.48,2.48,0,0,1,0-.47c.08-.5.71-.71,1.57-.65a18.63,18.63,0,0,0,7.87-1,10.21,10.21,0,0,0,4.67-3.33Z"/><path class="cls-1" d="M55.29,71.71a14.62,14.62,0,0,1,2.77,7.79c.06.7,2.39.22,2.32-.62a15.14,15.14,0,0,0-2.93-8c-.47-.59-2.7.21-2.16.88Z"/><path class="cls-1" d="M56.76,70.32c-3.31-1.91-6.42,2-8.46,4.08a.84.84,0,0,0,.37,1.38,1.86,1.86,0,0,0,1.95-.52c.66-.69,1.29-1.42,2-2.07.36-.32,1.55-1.52,2-1.24a1.81,1.81,0,0,0,2-.15c.42-.34.75-1.12.13-1.48Z"/><path class="cls-1" d="M64.87,57.22q-.63.75-1.23,1.56c-.15.19-.25.42-.4.61-.55.68-1.12,1.36-1.67,2-.24.3-.44.63-.67.94A4.74,4.74,0,0,1,60,63.51c-.12.1-.32-.06-.48-.33a1.16,1.16,0,0,1-.19-.89,7.93,7.93,0,0,1,1.54-2.53,13.69,13.69,0,0,0,1-1.56c.37-.56.77-1.12,1.18-1.68l.76-1c.38-.52.81-1,1.2-1.51s.51-.85.78-1.27a1.22,1.22,0,0,1,.2-.25.57.57,0,0,1,.84-.07l.24.14a.71.71,0,0,1,.26.79,3.63,3.63,0,0,1-.49,1.25c-.21.38-.44.74-.68,1.11-.34.54-.8,1-1.17,1.55Z"/><path class="cls-1" d="M78.3,115.25c-3.2,0-6.41.06-9.63,0-1.17,0-2.34,0-3.51-.14A85.75,85.75,0,0,0,53,114.85c-1.81.07-3.62.22-5.43.31a22.31,22.31,0,0,1-7.05-.41c-.72-.21-.55-.44.1-.59a14.28,14.28,0,0,1,3-.36c2.29,0,4.61-.35,7-.57s4.75-.2,7.18-.17l4.39.06,4.4.17c3.18.12,6.37.11,9.57,0q3-.09,5.91-.25c3-.17,6-.25,8.94-.51a53,53,0,0,0,6.68-1.2l1.43-.36a6.85,6.85,0,0,1,2-.27,1.66,1.66,0,0,1,1,.51,3.84,3.84,0,0,1,.34.29c.13.15,0,.33-.25.67a2.86,2.86,0,0,1-1.44.84A48.1,48.1,0,0,1,88,115l-9.65.34Z"/><path class="cls-1" d="M114.32,101.42s10.53-2.2,8.46.8c-3.41,4.94-15.32,13.39-38.21,12.53l18.66-4.18Z"/></g></svg>